<svg width="515" height="315" viewBox="0 0 515 315" fill="none" xmlns="http://www.w3.org/2000/svg">
<path d="M509.791 237.845L514.165 248.221C514.673 249.543 513.046 250.662 512.028 249.645L500.331 237.845H509.791Z" fill="#05389A"/>
<path d="M505.722 236.625L508.875 249.645C509.18 251.069 507.35 251.883 506.536 250.764L496.262 236.726H505.722V236.625Z" fill="#05389A"/>
<path d="M495.041 238.862L497.075 249.746C497.381 251.17 495.55 251.882 494.736 250.764L485.581 237.743L495.041 238.862Z" fill="#05389A"/>
<path d="M484.869 239.473L485.378 247.915C485.479 249.34 483.648 249.848 482.936 248.628L475.918 236.116L484.869 239.473Z" fill="#05389A"/>
<path d="M284.582 187.901C284.582 187.901 284.887 187.901 285.396 188.002C289.872 188.511 313.267 190.851 338.901 193.394C359.753 195.428 382.233 197.462 397.085 198.581C404.001 199.09 409.291 199.395 412.139 199.395C421.09 199.395 429.33 198.886 437.569 202.141C445.096 205.091 452.624 211.195 460.66 223.401C460.863 223.706 461.168 224.113 461.372 224.418C478.461 248.933 510.197 238.456 510.197 238.456C510.197 238.456 491.583 179.661 451.098 156.266C450.996 156.266 450.894 156.164 450.894 156.164C437.874 148.738 416.208 139.889 393.524 132.565C367.077 123.919 339.613 116.697 324.863 112.933C318.048 111.204 313.878 110.187 313.878 110.187L310.114 120.359L293.635 164.302L284.582 187.901Z" fill="#0C83DA"/>
<path d="M436.552 187.087C436.45 191.97 436.857 197.056 437.569 202.142C445.096 205.091 452.624 211.195 460.66 223.401C460.863 223.706 461.168 224.113 461.372 224.418C478.461 248.933 510.197 238.456 510.197 238.456C510.197 238.456 491.583 179.661 451.098 156.266C450.996 156.266 450.894 156.164 450.894 156.164C443.265 162.064 436.755 171.524 436.552 187.087Z" fill="#05A1E4"/>
<path d="M285.397 188.002C289.872 188.511 313.268 190.851 338.901 193.394C340.325 186.171 342.868 176.508 347.446 166.438C356.804 145.789 393.729 132.972 393.729 132.972L393.322 132.667C366.874 124.02 339.41 116.798 324.661 113.035C317.032 116.9 310.725 120.053 309.911 120.46C308.589 121.172 300.553 143.958 293.433 164.403C290.279 173.456 287.329 182.001 285.397 188.002Z" fill="#0767AD"/>
<path d="M129.053 300.607C128.544 298.369 131.29 288.095 134.545 276.906C139.021 261.648 144.616 244.661 144.616 244.661C144.616 244.661 131.392 212.416 133.121 187.087C133.732 177.932 136.376 166.235 141.564 152.909C150.719 129.31 167.808 100.523 195.679 71.7367L245.726 166.54L246.132 167.354L266.578 206.109C262.001 214.958 257.322 221.774 252.541 227.165C236.164 245.881 219.075 248.424 204.631 262.36C202.189 264.7 199.951 266.734 197.917 268.667C184.287 281.077 178.794 283.925 177.37 294.707C175.64 307.015 201.681 303.251 202.698 314.034H135.868C135.359 313.22 130.07 305.591 129.053 300.607Z" fill="#0C83DA"/>
<path d="M135.97 314.033L202.8 313.932C202.8 313.932 202.8 313.932 202.8 314.033H135.97Z" fill="#0C83DA"/>
<path d="M191.406 312.915C189.474 311.592 191.305 308.337 193.339 309.66C195.17 310.88 196.798 312.304 198.222 313.932H192.729C192.22 313.627 191.813 313.22 191.406 312.915Z" fill="#05389A"/>
<path d="M180.828 312.203C179.099 310.575 181.743 307.93 183.473 309.558C184.795 310.779 185.507 312.304 186.016 313.932H182.049C181.845 313.322 181.438 312.711 180.828 312.203Z" fill="#05389A"/>
<path d="M144.616 244.762C144.616 244.762 139.021 261.648 134.546 277.007C140.039 273.549 146.243 269.378 152.754 264.394C161.298 257.782 179.201 261.546 198.019 268.768C200.053 266.937 202.291 264.801 204.732 262.461C219.177 248.526 236.266 245.983 252.643 227.266L246.234 167.455L246.133 166.641H245.827L141.666 153.011C136.478 166.336 133.834 178.034 133.223 187.189C131.291 212.517 144.616 244.762 144.616 244.762Z" fill="#096AC2"/>
<path d="M212.056 259.613L137.291 222.079L207.58 217.298L212.056 259.613Z" fill="#0767AD"/>
<path d="M73.1068 192.885C93.8576 209.872 118.677 219.535 145.43 223.503C159.874 225.639 174.929 226.046 190.085 225.028C221.923 222.892 254.474 214.348 284.379 201.735C290.889 198.988 297.298 196.038 303.604 192.885C306.554 191.359 309.809 189.121 313.166 186.375C328.424 173.863 346.632 151.18 356.906 144.873L357.414 144.568C361.381 142.228 365.043 139.99 368.502 137.956C384.37 128.293 393.83 121.782 393.83 121.782L354.159 57.6989L336.155 28.607C336.155 28.607 334.324 27.3863 331.069 25.7588C330.052 25.2502 329.034 24.7416 327.814 24.1313C316.319 18.9436 294.043 11.6197 266.883 17.3161C258.949 19.0453 250.405 20.0625 241.657 20.8763C186.22 25.6571 118.474 16.604 79.4135 50.2734C3.53033 115.679 27.3327 155.452 73.1068 192.885Z" fill="#05A1E4"/>
<path d="M145.429 223.503C159.975 225.639 174.928 226.046 190.084 225.028C199.442 217.399 212.056 207.227 212.056 207.227C212.056 207.227 178.081 201.328 168.113 195.937C158.042 190.647 147.463 175.491 147.463 175.491L145.429 223.503Z" fill="#057DD3"/>
<path d="M1.49603 300.607C-1.65729 286.366 7.49744 253.815 10.4473 244.661C10.4473 244.661 3.73376 212.415 5.46301 187.087C6.8871 165.624 10.0405 134.498 37.6066 98.082C42.4892 91.5719 48.1854 84.8583 54.7972 78.0431L139.021 206.109C129.765 224.011 120.712 234.489 111.557 241.914C100.47 250.865 89.2804 255.239 77.074 262.36C54.7973 275.482 51.5423 282.297 49.813 294.605C48.0838 306.913 74.124 303.15 75.1412 313.932H8.31122C7.80263 313.22 2.61494 305.591 1.49603 300.607Z" fill="#05A1E4"/>
<path d="M8.41204 314.033L75.2422 313.932C75.2422 313.932 75.2422 313.932 75.2422 314.033H8.41204Z" fill="#05A1E4"/>
<path d="M128.137 223.503C128.137 223.503 140.242 204.176 142.988 192.885C145.837 181.594 147.362 175.491 147.362 175.491L145.328 223.401H128.137V223.503Z" fill="#0767AD"/>
<path d="M419.056 21.7919L429.431 26.471L434.416 28.7089L435.331 26.7762L443.469 8.97518C443.469 8.97518 437.162 5.72012 435.433 7.24593C434.823 7.75453 432.585 9.78895 429.94 12.2302C425.057 16.4008 419.056 21.7919 419.056 21.7919Z" fill="#05A1E4"/>
<path d="M419.057 21.7917L429.432 26.4708L435.332 26.7759L429.839 12.1283C425.058 16.4005 419.057 21.7917 419.057 21.7917Z" fill="#057DD3"/>
<path d="M439.4 11.213L431.263 23.8263L436.145 25.759L439.4 11.213Z" fill="#096AC2"/>
<path d="M319.066 95.3353C320.49 100.828 322.321 105.914 324.559 110.288C338.393 137.142 348.361 142.533 348.361 142.533C348.361 142.533 356.804 140.601 368.298 137.956C390.168 132.87 423.227 125.139 431.263 122.596C431.467 122.495 431.772 122.393 431.975 122.393C433.806 121.783 435.739 120.969 437.671 119.952C448.861 114.357 461.169 104.185 461.169 104.185L482.835 97.8783L503.383 91.8768L507.858 82.1117L509.486 78.4497C510.91 75.3981 510.3 71.9397 508.164 69.4984C507.553 68.7864 506.739 68.176 505.926 67.6674C505.722 67.5657 505.519 67.464 505.214 67.3623L478.156 55.461C474.087 53.7318 470.934 50.3751 469.408 46.2045L468.086 42.8477C466.56 38.7789 463.407 35.5239 459.541 33.6929L411.835 15.5868C411.428 15.3833 410.716 15.1799 409.698 14.8747C407.766 14.3661 404.816 13.7558 401.764 13.5524C396.882 13.2472 391.796 13.9593 390.372 17.7229L384.167 18.5367L372.774 20.0625L359.144 21.8934L330.662 25.7588L313.878 27.9966C313.98 28.0983 311.742 66.8537 319.066 95.3353Z" fill="#05A1E4"/>
<path d="M409.901 14.8749C417.734 20.4695 460.354 41.6273 460.354 41.6273L471.442 53.2233V56.8853L502.568 73.8725L508.366 69.4986C507.756 68.7865 506.942 68.1762 506.128 67.6676C505.925 67.5659 505.721 67.4642 505.416 67.3625L478.359 55.4612C474.29 53.732 471.137 50.3752 469.611 46.2047L468.288 42.8479C466.763 38.7791 463.609 35.524 459.744 33.6931L412.037 15.5869C411.63 15.3835 410.918 15.18 409.901 14.8749Z" fill="#09BCD5"/>
<path d="M439.4 110.288C439.4 110.288 446.114 103.982 419.056 94.013C391.999 84.0445 367.586 51.494 367.586 51.494L353.345 106.118C353.345 106.118 424.956 121.681 439.4 110.288Z" fill="#09BCD5"/>
<path d="M313.064 186.375C328.525 173.66 347.14 150.468 357.21 144.568C361.177 142.228 364.839 139.991 368.298 137.956C390.168 132.87 423.227 125.14 431.263 122.597C433.297 121.986 435.433 121.071 437.671 119.952C436.45 117.917 431.059 110.797 414.784 108.661C395.661 106.118 366.874 89.8427 366.874 89.8427L374.401 34.8121C374.401 34.8121 366.263 44.8824 353.854 57.8008C346.53 65.4298 337.578 74.0761 328.017 82.112C324.253 85.2653 321.303 89.8427 318.964 95.3356C307.876 121.884 311.538 170.405 313.064 186.375Z" fill="#057DD3"/>
<path d="M284.379 201.735C290.889 198.988 297.297 196.038 303.604 192.885C306.554 191.359 309.809 189.121 313.166 186.375C328.424 173.863 346.632 151.18 356.905 144.873L284.684 187.901C284.582 187.901 284.379 195.123 284.379 201.735Z" fill="#09BCD5"/>
<path d="M371.146 22.809L381.42 23.9279L398.814 25.7588L402.069 13.5524L403.188 9.28016C404.408 4.60104 400.645 0.227119 395.864 0.735719H395.762C393.219 1.04088 390.575 1.65116 388.54 2.66836C383.963 5.00792 376.537 15.18 373.079 20.0625C371.858 21.7918 371.146 22.809 371.146 22.809Z" fill="#05A1E4"/>
<path d="M197.408 291.96C198.222 285.857 197.307 275.075 197.307 275.075C197.307 275.075 193.543 269.277 189.678 255.138C186.626 243.847 191.814 179.356 194.052 153.418C194.662 146.806 194.967 142.635 194.967 142.635L196.493 142.533L221.618 140.499L309.504 142.635L281.226 209.262C279.293 213.737 276.038 217.501 271.867 220.044C271.461 220.349 271.054 220.553 270.647 220.756L253.761 229.809C253.761 229.809 239.012 281.076 238.198 287.993C237.384 294.91 247.963 299.691 256.203 300.81C264.137 301.929 270.443 313.016 270.952 313.932H201.782C201.579 312.813 196.696 297.86 197.408 291.96Z" fill="#05A1E4"/>
<path d="M201.986 314.033L271.054 313.932V314.033H201.986Z" fill="#05A1E4"/>
<path d="M282.649 206.007L306.554 148.738L295.67 196.75L282.649 206.007Z" fill="#0767AD"/>
<path d="M188.763 225.537L194.561 148.738L180.015 225.537H188.763Z" fill="#0767AD"/>
<path d="M507.96 82.112L509.587 78.45C511.418 74.4829 509.791 69.8038 506.027 67.7694L500.839 70.4142C499.415 71.1262 498.805 72.9571 499.517 74.3812C500.839 76.7208 503.28 80.1793 507.96 82.112Z" fill="#05389A"/>
<path d="M461.677 58.5128L451.098 67.8711H445.198L425.261 66.447L444.69 64.8195L436.247 55.3595L435.942 41.6273L461.677 58.5128Z" fill="#057DD3"/>
<path d="M446.521 50.1718L461.677 58.5128L450.589 60.4455L446.521 50.1718Z" fill="#0767AD"/>
<path d="M400.95 8.77161L393.728 25.1486L398 25.7589L400.95 8.77161Z" fill="#096AC2"/>
<path d="M359.347 21.9955C363.212 24.8437 371.146 47.9341 371.146 47.9341C371.146 47.9341 381.725 23.5213 381.827 23.2162C382.641 21.6904 383.556 20.1646 384.37 18.6388C388.744 11.2132 393.423 4.19457 395.763 0.736084H395.661C393.118 1.04124 390.473 1.65153 388.439 2.66873C383.861 5.00829 376.436 15.1803 372.977 20.0629L359.347 21.9955Z" fill="#057DD3"/>
<path d="M422.108 115.171L432.077 122.291C433.908 121.681 435.84 120.867 437.773 119.85C448.962 114.255 461.271 104.083 461.271 104.083L439.299 102.151L422.108 115.171Z" fill="#057DD3"/>
<path d="M466.763 56.7836L460.355 41.6273L471.442 53.2234L466.763 56.7836Z" fill="#057DD3"/>
<path d="M482.937 97.7767L503.586 91.877H485.073L482.937 97.7767Z" fill="#057DD3"/>
<path d="M1.49548 300.607C2.6144 305.489 7.80207 313.22 8.31067 313.932H75.2425C74.4287 305.591 58.3569 305.998 52.152 300.708C50.4227 299.284 49.5073 297.352 49.9142 294.707C51.1348 286.061 53.0674 280.059 61.9171 272.735C65.579 269.684 70.5633 266.327 77.1751 262.462C89.3815 255.341 100.672 250.866 111.658 242.016C93.8572 237.439 67.41 219.332 56.2208 191.665C46.7608 168.066 36.6906 128.395 37.6061 98.1838C10.1417 134.6 6.98827 165.726 5.46246 187.189C3.73322 212.517 10.4468 244.762 10.4468 244.762C7.49689 253.815 -1.65784 286.366 1.49548 300.607Z" fill="#057DD3"/>
<path d="M8.41204 314.033L75.2422 313.932C75.2422 313.932 75.2422 313.932 75.2422 314.033H8.41204Z" fill="#057DD3"/>
<path d="M189.677 255.138C193.543 269.379 197.306 275.075 197.306 275.075C197.306 275.075 198.12 285.857 197.408 291.96C196.696 297.86 201.579 312.813 201.985 313.932H271.155C270.646 312.915 264.34 301.929 256.406 300.81C253.354 300.403 249.997 299.488 246.946 298.064C241.86 295.724 237.893 292.266 238.299 287.892C238.605 284.738 241.86 272.532 245.318 260.02C249.489 244.966 253.863 229.708 253.863 229.708L270.748 220.655C271.155 220.451 271.562 220.146 271.969 219.943C254.778 206.922 234.332 189.427 229.145 175.491C226.093 167.455 223.652 154.333 221.719 140.296C217.752 111.102 216.023 77.9414 216.023 77.9414C216.023 77.9414 203.104 116.392 196.594 142.33C195.78 145.585 195.068 148.535 194.56 151.282C194.458 151.892 194.356 152.502 194.153 153.214C191.915 179.255 186.626 243.847 189.677 255.138Z" fill="#057DD3"/>
<path d="M201.986 314.033L271.054 313.932V314.033H201.986Z" fill="#057DD3"/>
<path d="M142.988 168.472C142.988 168.472 116.643 145.178 114.303 126.869C111.964 108.559 114.303 97.7766 114.303 97.7766L142.988 168.472Z" fill="#057DD3"/>
<path d="M396.983 198.581C403.9 199.09 409.19 199.395 412.038 199.395C429.025 199.395 443.571 197.666 460.558 223.503C460.762 223.808 461.067 224.215 461.271 224.52C457.405 205.803 447.131 172.439 427.194 177.322C412.14 181.085 402.578 190.647 396.983 198.581Z" fill="#096AC2"/>
<path d="M262.713 310.575C260.78 309.049 263.527 306.404 265.357 307.93C267.697 309.761 269.935 311.592 271.562 313.932H266.578C265.459 312.711 264.137 311.694 262.713 310.575Z" fill="#05389A"/>
<path d="M255.694 310.982C254.473 308.947 257.729 307.015 258.949 309.049C259.865 310.677 260.78 312.202 261.492 313.932H257.322C256.813 312.914 256.203 311.999 255.694 310.982Z" fill="#05389A"/>
<path d="M245.929 310.371C245.115 308.032 248.777 307.116 249.591 309.354L251.219 313.931H247.252L245.929 310.371Z" fill="#05389A"/>
<path d="M69.648 312.508C67.817 310.88 70.4617 308.235 72.2927 309.863C73.7167 311.185 75.0391 312.508 76.2598 314.033H71.1738C70.6652 313.423 70.1566 312.914 69.648 312.508Z" fill="#05389A"/>
<path d="M61.0018 311.796C59.5777 309.863 62.8327 307.93 64.2568 309.863C65.1723 311.185 66.0878 312.508 66.7998 313.932H62.4258C62.0189 313.22 61.5104 312.508 61.0018 311.796Z" fill="#05389A"/>
<path d="M51.7449 310.473C50.3208 308.439 53.5759 306.608 55 308.541C56.1189 310.168 57.0344 311.999 57.543 313.932H53.5759C53.0673 312.711 52.4569 311.592 51.7449 310.473Z" fill="#05389A"/>
<path d="M42.4882 312.101C42.5899 310.575 42.4883 309.049 43.7089 307.93C45.5399 306.303 48.1846 308.947 46.3536 310.575C46.0485 310.88 46.1501 313.016 46.1501 313.932H42.3865C42.3865 313.321 42.3865 312.711 42.4882 312.101Z" fill="#05389A"/>
<path d="M432.483 50.1718L422.108 70.9227L450.793 72.9571L432.483 50.1718Z" fill="#09BCD5"/>
<path d="M222.635 256.155C222.635 256.155 224.466 288.095 233.011 293.995C237.995 297.453 243.284 298.165 246.946 298.165C241.86 295.826 237.893 292.367 238.3 287.993C238.605 284.84 241.86 272.633 245.319 260.122L222.635 256.155Z" fill="#09BCD5"/>
<path d="M41.7765 291.655C44.2178 296.232 48.2865 299.081 52.1519 300.708C50.4227 299.284 49.5072 297.351 49.9141 294.707C51.1347 286.06 53.0673 280.059 61.917 272.735C53.9828 267.14 39.4369 256.155 39.4369 256.155C39.4369 256.155 36.1819 281.076 41.7765 291.655Z" fill="#09BCD5"/>
<path d="M255.389 53.9355C251.727 78.1449 279.293 100.218 279.293 100.218C279.293 100.218 290.584 68.7867 303.706 49.2564C310.216 39.593 319.676 30.7433 327.509 24.2332C316.014 19.0455 293.738 11.7217 266.578 17.418C258.644 19.1472 250.1 20.1644 241.352 20.9782C249.083 28.4037 257.525 40.1016 255.389 53.9355Z" fill="#09BCD5"/>
</svg>
