<svg width="429" height="443" viewBox="0 0 429 443" fill="none" xmlns="http://www.w3.org/2000/svg">
<path d="M331.956 109.038C331.956 109.038 341.729 127.618 335.709 155.039C329.688 182.46 309.206 134.613 309.206 134.613L331.956 109.038Z" fill="url(#paint0_linear_0_484)"/>
<path d="M332.631 141.194C332.631 141.194 335.764 106.061 327.3 96.0298C318.835 85.9988 298.482 87.2223 298.482 87.2223L332.631 141.194Z" fill="url(#paint1_linear_0_484)"/>
<path d="M150.777 174.695C163.914 218.18 278.907 256.756 303.99 243.726C314.024 238.514 321.824 230.329 327.393 220.102C351.152 176.217 334.27 96.4891 275.702 72.8339C236.098 56.7853 192.435 80.982 168.017 113.157C153.069 133.336 145.28 156.39 150.777 174.695Z" fill="url(#paint2_linear_0_484)"/>
<path d="M168.732 198.752C181.287 208.966 201.277 221.033 215.408 227.156C241.439 238.289 261.425 243.386 273.786 243.748C281.872 243.835 286.703 242.066 287.537 238.533C288.186 236.302 283.908 232.309 276.376 227.389C254.525 213 206.18 190.731 178.107 183.224C175.598 182.669 173.367 182.02 171.415 181.742C170.95 181.743 170.578 181.557 170.113 181.558L169.927 181.465C165.001 180.632 161.098 180.542 158.961 181.566C158.403 181.752 157.939 182.217 157.567 182.496C155.061 185.658 160.084 191.881 168.732 198.752Z" fill="url(#paint3_linear_0_484)"/>
<path opacity="0.3" d="M150.777 174.695C163.914 218.18 278.907 256.756 303.991 243.726C314.024 238.514 321.825 230.329 327.393 220.102C327.393 220.102 313.833 231.45 290.128 224.498C266.424 217.545 202.18 186.18 193.061 170.481C183.941 154.781 208.537 112.011 208.537 112.011L168.203 113.25C153.069 133.336 145.28 156.39 150.777 174.695Z" fill="url(#paint4_linear_0_484)"/>
<path opacity="0.5" d="M168.732 198.752C182.022 198.649 220.314 200.107 244.026 217.283C273.224 238.358 273.786 243.748 273.786 243.748C281.872 243.835 286.703 242.066 287.537 238.533C288.186 236.302 283.908 232.309 276.376 227.389C254.525 213 206.18 190.731 178.107 183.224C175.226 182.483 172.437 182.02 169.927 181.465L169.741 181.372C164.815 180.539 160.912 180.449 158.775 181.473C158.217 181.659 157.753 182.124 157.382 182.404C155.061 185.658 160.084 191.881 168.732 198.752Z" fill="url(#paint5_linear_0_484)"/>
<path d="M171.414 181.743C175.045 190.29 202.382 208.114 219.209 215.35C249.424 228.339 269.779 231.298 276.561 227.482C252.664 211.608 197.719 186.741 171.414 181.743Z" fill="url(#paint6_linear_0_484)"/>
<path d="M326.93 222.425C316.437 234.144 218.546 198.064 204.393 163.595C190.241 129.125 247.624 58.8212 295.137 87.8752C340.232 115.258 346.152 201.128 326.93 222.425Z" fill="#DFE3FB"/>
<path d="M327.579 220.195C317.086 231.913 219.195 195.833 205.043 161.364C190.89 126.895 248.273 56.5905 295.786 85.6444C340.789 113.213 346.801 198.898 327.579 220.195Z" fill="url(#paint7_linear_0_484)"/>
<path d="M238.992 74.2556C238.992 74.2556 220.906 122.597 184.475 124.39C184.475 124.39 169.787 118.918 166.06 106.374C166.06 106.374 172.579 124.492 192.092 118.901C211.605 113.31 225.333 77.8904 221.046 61.8153C216.573 45.6475 200.584 41.3843 200.584 41.3843L208.947 39.0546C208.947 39.0546 232.465 45.4497 238.992 74.2556Z" fill="url(#paint8_linear_0_484)"/>
<path d="M208.947 39.0547C208.947 39.0547 225.402 45.6409 227.093 69.2459C228.878 94.5236 203.62 123.725 186.797 121.6C170.16 119.568 183.125 58.2192 183.125 58.2192L202.257 40.8255C202.257 40.8255 205.508 38.4996 208.947 39.0547Z" fill="url(#paint9_linear_0_484)"/>
<path d="M165.386 74.6828C162.235 86.1165 162.057 96.7116 165.037 105.167L165.968 107.489C168.761 113.528 173.226 118.079 179.547 120.305C199.906 127.446 216.522 101.132 222.086 84.3987C228.577 64.8769 218.618 46.2038 205.511 41.7526C189.8 36.0023 171.875 52.3728 165.386 74.6828Z" fill="url(#paint10_linear_0_484)"/>
<path d="M334.168 207.922C334.168 207.922 346.072 217.578 353.519 234.302C360.967 251.025 358.004 265.34 342.941 256.429L337.824 248.533C337.824 248.533 346.471 254.474 349.902 244.342C353.333 234.209 333.519 209.688 333.519 209.688L334.168 207.922Z" fill="url(#paint11_linear_0_484)"/>
<path d="M349.628 250.011C351.864 257.166 340.618 256.895 332.345 254.392C323.049 251.611 307.894 242.886 312.906 234.239C317.639 225.685 344.225 233.379 349.628 250.011Z" fill="url(#paint12_linear_0_484)"/>
<path d="M348.606 250.662C348.236 252.336 316.441 238.791 318.016 232.841C319.778 226.985 351.478 238.392 348.606 250.662Z" fill="url(#paint13_linear_0_484)"/>
<path d="M267.574 140.778C267.854 142.079 259.2 127.308 234.756 125.096C232.153 124.726 263.374 116.152 267.574 140.778Z" fill="url(#paint14_linear_0_484)"/>
<path d="M331.912 172.886C332.192 174.187 328.56 164.245 308.574 159.613C306.251 159.15 328.178 151.048 331.912 172.886Z" fill="url(#paint15_linear_0_484)"/>
<path opacity="0.5" d="M305.455 214.263C305.455 214.263 288.065 198.849 261.756 189.203C235.447 179.557 230.243 180.211 229.409 182.814C228.574 185.417 244.477 199.16 268.369 208.064C292.446 217.061 305.455 214.263 305.455 214.263Z" fill="url(#paint16_linear_0_484)"/>
<path opacity="0.5" d="M328.691 216.104C328.691 216.104 340.017 199.925 336.554 167.306C336.554 167.306 335.156 161.731 332.74 162.383C330.603 162.943 337.407 188.867 328.691 216.104Z" fill="url(#paint17_linear_0_484)"/>
<path opacity="0.72" d="M221.705 71.666C219.941 74.7343 200.411 56.626 192.695 53.9366C184.979 51.2472 177.363 58.595 176.341 57.8523C175.318 57.1096 188.965 37.6753 203.281 42.962C217.412 48.1559 222.818 69.4347 221.705 71.666Z" fill="url(#paint18_linear_0_484)"/>
<path d="M302.084 180.065C302.084 180.065 278.841 169.394 267.588 159.83C267.588 159.83 259.892 182.699 274.767 190.122C289.736 197.36 302.084 180.065 302.084 180.065Z" fill="#07B5FE"/>
<path d="M289.145 314.059C288.371 326.313 275.371 330.547 270.888 328.754C266.957 327.133 254.96 318.378 241.126 300.59C239.122 297.954 236.991 295.076 234.916 292.016C218.703 268.251 199.576 222.021 210.461 221.363C241.782 219.784 289.862 301.988 289.145 314.059Z" fill="url(#paint19_linear_0_484)"/>
<path d="M262.676 323.389C262.676 323.389 260.263 312.969 268.723 307.126C277 301.227 288.966 311.384 288.966 311.384C288.966 311.384 291.83 322.952 279.54 326.196C267.249 329.441 262.676 323.389 262.676 323.389Z" fill="url(#paint20_linear_0_484)"/>
<path opacity="0.3" d="M289.145 314.058C288.37 326.312 275.37 330.546 270.888 328.754C266.957 327.133 254.959 318.378 241.126 300.59C242.496 302.022 251.857 312.782 257.733 311.378C264.033 309.905 271.999 289.4 250.824 255.634C230.34 222.888 211.62 221.521 210.403 221.547C241.781 219.784 289.862 301.988 289.145 314.058Z" fill="url(#paint21_linear_0_484)"/>
<path d="M271.686 311.873C276.56 309.151 285.74 311.391 289.653 315.022C293.566 318.653 304.926 334.667 306.35 358.685C306.35 358.685 300.948 370.916 291.75 370.686C284.745 370.53 278.245 351.186 273.206 337.533C267.983 323.824 263.682 316.244 271.686 311.873Z" fill="url(#paint22_linear_0_484)"/>
<path d="M293.277 370.957C293.277 370.957 285.403 324.184 264.761 321.214C264.761 321.214 266.444 328.788 274.464 345.178C282.3 361.51 288.65 370.934 293.277 370.957Z" fill="url(#paint23_linear_0_484)"/>
<path opacity="0.5" d="M285.926 345.908C285.926 345.908 283.844 353.928 281.151 356.116C278.457 358.305 275.712 358.059 275.712 358.059L279.949 333.98C279.949 333.98 284.732 341.307 285.926 345.908Z" fill="url(#paint24_linear_0_484)"/>
<path d="M279.949 333.98C279.949 333.98 273.193 322.617 264.66 322.19C264.66 322.19 260.226 331.295 271.185 357.059C271.185 357.059 276.867 360.835 280.433 353.879C280.433 353.879 281.671 343.381 279.949 333.98Z" fill="url(#paint25_linear_0_484)"/>
<path d="M274.166 331.181C276.645 330.337 276.846 342.692 275.331 343.029C273.874 343.181 271.929 331.898 274.166 331.181Z" fill="white"/>
<path d="M226.244 262.124C222.429 265.98 229.31 271.739 231.56 271.63C233.811 271.522 228.867 259.511 226.244 262.124Z" fill="white"/>
<path d="M232.702 273.798C231.796 274.121 234.01 278.032 234.815 278.684C236.001 280.059 238.829 281.339 239.184 280.844C239.355 280.292 233.609 273.474 232.702 273.798Z" fill="white"/>
<path d="M129.641 285.129C118.368 317.389 127.039 339.525 156.512 357.151C185.236 374.359 221.846 354.305 235.112 312.252C243.614 285.487 249.407 260.79 245.188 240.499C242.674 229.06 237.211 218.979 226.924 210.827C218.775 204.327 208.788 204.65 197.92 209.04C169.886 220.427 138.459 260.386 129.641 285.129Z" fill="url(#paint26_linear_0_484)"/>
<path opacity="0.3" d="M177.824 241.29C177.824 241.29 161.173 261.555 152.032 276.311C141.278 293.86 140.657 316.937 140.657 316.937L127.726 290.639C127.726 290.639 130.653 276.577 138.967 265.688C147.135 254.545 151.404 249.884 151.404 249.884L177.824 241.29Z" fill="url(#paint27_linear_0_484)"/>
<path d="M234.054 317.778C234.054 317.778 240.718 292.24 220.229 279.617C195.703 264.401 162.274 281.437 152.546 300.769C142.617 320.047 137.651 340.878 160.517 355.862C160.116 355.754 204.36 381.663 234.054 317.778Z" fill="url(#paint28_linear_0_484)"/>
<path d="M232.146 320.062C232.146 320.062 238.811 294.524 218.322 281.902C193.796 266.685 160.367 283.721 150.639 303.054C140.71 322.332 135.744 343.162 158.61 358.147C158.355 358.293 202.452 383.948 232.146 320.062Z" fill="url(#paint29_radial_0_484)"/>
<path d="M152.067 257.81C153.162 258.536 154.729 258.312 156.914 257.394C166.307 253.684 183.845 237.316 190.701 226.25C193.349 222.013 194.268 218.602 192.585 216.857C189.607 214.333 176.122 221.246 163.424 234.828C155.666 242.853 147.428 255.054 152.067 257.81Z" fill="url(#paint30_linear_0_484)"/>
<path d="M156.837 257.679C166.23 253.968 183.769 237.601 190.624 226.534C184.889 228.648 175.904 234.836 167.166 244.104C163.059 248.163 159.084 253.334 156.837 257.679Z" fill="url(#paint31_linear_0_484)"/>
<path opacity="0.5" d="M198.175 208.893C198.175 208.893 221.324 238.804 233.572 244.471C245.619 250.084 245.535 240.807 245.443 240.352C242.929 228.913 237.466 218.833 227.179 210.681C219.03 204.181 208.842 204.449 198.175 208.893Z" fill="url(#paint32_linear_0_484)"/>
<path opacity="0.72" d="M230.696 316.658C224.019 320.67 217.029 305.874 201.733 298.74C186.237 291.551 173.833 294.451 170.994 289.812C168.154 285.173 194.359 271.787 217.017 284.348C235.13 294.608 233.043 315.138 230.696 316.658Z" fill="url(#paint33_linear_0_484)"/>
<path fill-rule="evenodd" clip-rule="evenodd" d="M197.192 309.827C194.668 306.768 192.142 303.709 189.618 300.649L189.62 300.647C189.594 300.651 189.568 300.654 189.54 300.659L189.577 300.632C188.098 299.726 186.129 299.905 184.483 301.099L184.484 301.101L171.892 310.22C170.899 310.939 170.255 312.134 170.21 313.337L169.082 339.989C175.061 335.338 178.8 327.896 178.86 320.526C178.912 313.967 178.959 309.696 178.986 309.219C178.994 309.084 179.016 308.706 179.243 308.314C179.45 307.96 179.714 307.769 179.832 307.69L181.445 306.521L203.649 317.651C201.498 315.044 199.347 312.437 197.195 309.83L197.192 309.827ZM200.513 343.268C196.635 344.636 192.756 346.003 188.878 347.371C185.194 348.67 181.51 349.969 177.827 351.268C181.762 348.216 185.698 345.164 189.634 342.113L189.646 342.103L189.697 342.064L189.716 342.049L189.735 342.035C193.457 339.149 197.179 336.263 200.901 333.377L200.972 331.413C200.984 331.272 200.994 330.952 200.838 330.635C200.666 330.283 200.372 330.137 200.267 330.086C199.894 329.9 196.455 328.435 191.157 326.208C185.205 323.706 181.517 317.6 181.517 310.242L202.465 320.186C203.416 320.629 203.98 321.651 203.937 322.856L203.391 338.127L203.39 338.125C203.318 340.12 202.221 342.095 200.549 343.232L200.55 343.195C200.538 343.22 200.525 343.244 200.513 343.268ZM159.203 338.107C160.677 334.028 162.151 329.95 163.626 325.871C165.1 321.792 166.575 317.713 168.049 313.633L166.768 342.2L168.273 343.006C168.374 343.069 168.62 343.201 168.977 343.172C169.367 343.143 169.68 342.921 169.791 342.841L169.794 342.84C170.188 342.558 173.645 339.854 178.95 335.683C184.909 330.996 192.202 329.809 198.022 332.58L176.149 348.65C175.162 349.381 173.979 349.528 173.055 349.035L161.345 342.766L161.348 342.766C159.82 341.946 158.993 340.164 159.21 338.154L159.238 338.169C159.227 338.148 159.216 338.128 159.206 338.108L159.203 338.107Z" fill="url(#paint34_radial_0_484)"/>
<path d="M191.394 300.45C196.071 306.118 200.75 311.785 205.425 317.452L182.689 306.055C184.166 304.632 186.546 303.704 188.024 302.281C188.298 301.984 188.674 301.632 189.157 301.309C190.073 300.7 190.909 300.514 191.396 300.448L191.394 300.45Z" fill="white"/>
<path d="M186.261 300.902L173.669 310.021C172.675 310.741 172.031 311.936 171.987 313.138L170.858 339.791C176.837 335.14 180.576 327.697 180.636 320.328C180.688 313.768 180.736 309.498 180.763 309.02C180.77 308.886 180.792 308.507 181.02 308.115C181.227 307.761 181.491 307.571 181.608 307.492C184.856 305.138 188.106 302.787 191.354 300.433C189.875 299.527 187.905 299.707 186.26 300.9L186.261 300.902Z" fill="white"/>
<path d="M202.29 343.069C194.729 345.736 187.165 348.402 179.604 351.069C187.481 344.96 195.359 338.854 203.236 332.745C203.458 334.655 202.709 337.274 202.931 339.184C202.998 339.547 203.047 340.031 203.004 340.608C202.921 341.699 202.543 342.578 202.29 343.069Z" fill="white"/>
<path d="M205.168 337.928L205.713 322.657C205.757 321.453 205.193 320.43 204.242 319.988L183.294 310.044C183.294 317.402 186.982 323.508 192.933 326.009C198.232 328.236 201.671 329.701 202.043 329.887C202.148 329.938 202.442 330.085 202.615 330.436C202.771 330.754 202.761 331.074 202.748 331.214C202.607 335.153 202.467 339.094 202.326 343.034C203.997 341.896 205.095 339.921 205.167 337.926L205.168 337.928Z" fill="white"/>
<path d="M160.979 337.909C163.928 329.75 166.878 321.593 169.826 313.434L168.514 342.695C166.855 342.187 165.285 340.489 163.625 339.979C163.293 339.907 162.878 339.77 162.451 339.512C161.643 339.022 161.203 338.334 160.982 337.909L160.979 337.909Z" fill="white"/>
<path d="M163.122 342.567L174.832 348.836C175.756 349.329 176.939 349.182 177.926 348.451L199.799 332.381C193.978 329.61 186.685 330.797 180.727 335.484C175.422 339.655 171.964 342.359 171.57 342.641C171.461 342.719 171.146 342.944 170.754 342.973C170.397 343.002 170.151 342.87 170.05 342.807C167.029 341.189 164.008 339.572 160.986 337.955C160.77 339.966 161.597 341.747 163.125 342.567L163.122 342.567Z" fill="white"/>
<path d="M206.613 238.285C208.257 239.373 201.006 258.297 199.146 258.011C197.286 257.725 197.727 252.894 199.858 246.581C201.843 240.013 204.969 237.196 206.613 238.285Z" fill="white"/>
<path d="M58.0059 260.233C51.6443 271.864 61.0662 283.226 66.1908 284.176C70.7135 284.964 86.7133 283.894 109.599 275.639C112.949 274.39 116.553 272.993 120.212 271.396C148.717 259.06 192.838 227.901 183.284 221.023C155.61 201.515 64.3134 248.804 58.0059 260.233Z" fill="url(#paint35_linear_0_484)"/>
<path d="M76.7801 284.016C76.7801 284.016 84.9934 275.898 80.6421 265.686C76.4914 255.529 59.712 257.895 59.712 257.895C59.712 257.895 50.4256 266.801 59.7706 276.851C69.1156 286.901 76.7801 284.016 76.7801 284.016Z" fill="url(#paint36_linear_0_484)"/>
<path opacity="0.3" d="M58.0063 260.233C51.6448 271.864 61.0667 283.226 66.1913 284.176C70.714 284.964 86.7137 283.894 109.599 275.639C107.523 276.156 92.773 280.576 88.2201 275.906C83.3199 270.927 87.8774 247.619 126.679 229.017C164.261 210.948 182.135 220.498 183.231 221.224C155.611 201.515 64.3139 248.804 58.0063 260.233Z" fill="url(#paint37_linear_0_484)"/>
<path d="M75.2006 268.309C72.3226 263.014 62.6524 259.763 56.9872 260.82C51.322 261.876 31.7167 269.939 16.5627 291.037C16.5627 291.037 14.4379 305.315 22.9656 310.411C29.4481 314.309 46.5382 300.404 59.0121 290.851C71.6868 281.352 79.9844 276.916 75.2006 268.309Z" fill="url(#paint38_linear_0_484)"/>
<path d="M21.4138 309.778C21.4138 309.778 55.5802 271.633 76.132 280.828C76.132 280.828 70.2267 286.77 53.4536 297.102C36.8812 307.488 25.6506 312.426 21.4138 309.778Z" fill="url(#paint39_linear_0_484)"/>
<path opacity="0.5" d="M42.5725 291.157C42.5725 291.157 39.8467 299.678 41.0424 303.228C42.2381 306.779 44.8852 308.137 44.8852 308.137L54.9072 283.719C54.9072 283.719 46.3163 287.646 42.5725 291.157Z" fill="url(#paint40_linear_0_484)"/>
<path d="M54.9071 283.719C54.9071 283.719 67.6275 277.246 75.6613 281.778C75.6613 281.778 74.4555 292.644 49.5928 309.836C49.5928 309.836 42.2297 310.005 42.9874 301.6C42.9874 301.6 47.9133 291.305 54.9071 283.719Z" fill="url(#paint41_linear_0_484)"/>
<path d="M61.7987 284.5C60.0239 282.3 52.713 293.459 53.9014 294.64C55.1439 295.621 63.4269 286.445 61.7987 284.5Z" fill="white"/>
<path d="M145.369 249.119C146.626 254.838 137.024 256.125 135.033 254.728C133.042 253.331 144.482 245.221 145.369 249.119Z" fill="white"/>
<path d="M132.74 256.047C133.381 256.865 129.105 259.157 127.993 259.288C126.118 259.859 122.799 259.395 122.76 258.739C122.923 258.137 132.1 255.229 132.74 256.047Z" fill="white"/>
<path d="M72.6373 370.497C73.9567 372.789 77.2213 373.454 81.5589 373.331C86.3519 373.116 92.7272 371.82 99.3188 369.722C118.021 364.214 139.641 353.466 141.833 349.322C149.206 334.736 138.907 310.654 131.523 298.119C128.737 293.279 126.175 290.006 125.519 290.045C123.057 289.597 66.1868 359.289 72.6373 370.497Z" fill="url(#paint42_linear_0_484)"/>
<path opacity="0.3" d="M72.6371 370.497C73.9565 372.79 77.2212 373.454 81.5587 373.331L99.3186 369.722C97.7518 369.946 78.8576 372.173 91.272 349.26C104.157 325.398 131.838 300.141 131.838 300.141L131.777 297.972C128.992 293.133 126.43 289.86 125.774 289.898C123.057 289.597 66.1866 359.289 72.6371 370.497Z" fill="url(#paint43_linear_0_484)"/>
<path d="M130.998 340.807C134.162 344.242 122.623 349.527 121.62 349.257C120.616 348.987 122.408 344.734 124.97 342.412C126.97 340.583 129.81 339.626 130.998 340.807Z" fill="white"/>
<path d="M119.945 349.882C120.33 350.847 116.618 352.645 116.487 351.533C116.302 350.623 117.336 349.18 118.046 348.94C118.756 348.701 119.651 349.373 119.945 349.882Z" fill="white"/>
<defs>
<linearGradient id="paint0_linear_0_484" x1="314.816" y1="156.578" x2="337.753" y2="110.617" gradientUnits="userSpaceOnUse">
<stop stop-color="#E5FF45"/>
<stop offset="1" stop-color="#00BBFF"/>
</linearGradient>
<linearGradient id="paint1_linear_0_484" x1="309.986" y1="129.597" x2="328.513" y2="92.4741" gradientUnits="userSpaceOnUse">
<stop stop-color="#ACC4F4"/>
<stop offset="1" stop-color="#D1DBF5"/>
</linearGradient>
<linearGradient id="paint2_linear_0_484" x1="222.303" y1="232.878" x2="278.829" y2="75.4701" gradientUnits="userSpaceOnUse">
<stop stop-color="#C1E4F7"/>
<stop offset="1" stop-color="#E8DCF7"/>
</linearGradient>
<linearGradient id="paint3_linear_0_484" x1="284.024" y1="245.653" x2="157.434" y2="182.476" gradientUnits="userSpaceOnUse">
<stop stop-color="#7999EA"/>
<stop offset="1" stop-color="#8C9CEF"/>
</linearGradient>
<linearGradient id="paint4_linear_0_484" x1="216.03" y1="228.035" x2="260.854" y2="138.219" gradientUnits="userSpaceOnUse">
<stop stop-color="#6897C2"/>
<stop offset="1" stop-color="#CCEDFF"/>
</linearGradient>
<linearGradient id="paint5_linear_0_484" x1="216.285" y1="222.766" x2="227.072" y2="201.153" gradientUnits="userSpaceOnUse">
<stop stop-color="#8DC0E5"/>
<stop offset="1" stop-color="#5C99BB"/>
</linearGradient>
<linearGradient id="paint6_linear_0_484" x1="219.314" y1="217.823" x2="226.623" y2="196.576" gradientUnits="userSpaceOnUse">
<stop stop-color="#3657CC"/>
<stop offset="1" stop-color="#4A5696"/>
</linearGradient>
<linearGradient id="paint7_linear_0_484" x1="254.194" y1="201.769" x2="309.007" y2="91.9375" gradientUnits="userSpaceOnUse">
<stop stop-color="#05B6FE"/>
<stop offset="1" stop-color="#001687"/>
</linearGradient>
<linearGradient id="paint8_linear_0_484" x1="187.265" y1="125.249" x2="228.443" y2="42.7389" gradientUnits="userSpaceOnUse">
<stop stop-color="#ACC4F4"/>
<stop offset="1" stop-color="#D1DBF5"/>
</linearGradient>
<linearGradient id="paint9_linear_0_484" x1="191.876" y1="113.993" x2="229.174" y2="39.2564" gradientUnits="userSpaceOnUse">
<stop stop-color="#9DC0EA"/>
<stop offset="1" stop-color="#8CAEEF"/>
</linearGradient>
<linearGradient id="paint10_linear_0_484" x1="171.343" y1="116.554" x2="208.988" y2="41.1229" gradientUnits="userSpaceOnUse">
<stop stop-color="#E5FF45"/>
<stop offset="1" stop-color="#00BBFF"/>
</linearGradient>
<linearGradient id="paint11_linear_0_484" x1="335.332" y1="253.447" x2="350.045" y2="215.625" gradientUnits="userSpaceOnUse">
<stop stop-color="#9DB7EA"/>
<stop offset="1" stop-color="#8CBAEF"/>
</linearGradient>
<linearGradient id="paint12_linear_0_484" x1="328.927" y1="254.009" x2="334.316" y2="232.877" gradientUnits="userSpaceOnUse">
<stop stop-color="#DDD51A"/>
<stop offset="1" stop-color="#FED811"/>
</linearGradient>
<linearGradient id="paint13_linear_0_484" x1="332.154" y1="244.309" x2="336.505" y2="235.59" gradientUnits="userSpaceOnUse">
<stop stop-color="#E3AB3D"/>
<stop offset="1" stop-color="#FFF96D"/>
</linearGradient>
<linearGradient id="paint14_linear_0_484" x1="250.987" y1="133.192" x2="255.12" y2="124.912" gradientUnits="userSpaceOnUse">
<stop stop-color="#E5FF45"/>
<stop offset="1" stop-color="#00BBFF"/>
</linearGradient>
<linearGradient id="paint15_linear_0_484" x1="319.83" y1="166.944" x2="323.527" y2="159.537" gradientUnits="userSpaceOnUse">
<stop stop-color="#E5FF45"/>
<stop offset="1" stop-color="#00BBFF"/>
</linearGradient>
<linearGradient id="paint16_linear_0_484" x1="303.723" y1="217.755" x2="230.177" y2="181.051" gradientUnits="userSpaceOnUse">
<stop/>
<stop offset="1" stop-color="#07B5FE"/>
</linearGradient>
<linearGradient id="paint17_linear_0_484" x1="324.31" y1="214.922" x2="338.62" y2="163.705" gradientUnits="userSpaceOnUse">
<stop/>
<stop offset="1" stop-color="#6A9BFF"/>
</linearGradient>
<linearGradient id="paint18_linear_0_484" x1="222.099" y1="65.6128" x2="179.991" y2="44.5982" gradientUnits="userSpaceOnUse">
<stop/>
<stop offset="1" stop-color="#07B5FE" stop-opacity="0"/>
</linearGradient>
<linearGradient id="paint19_linear_0_484" x1="228.389" y1="313.283" x2="256.688" y2="233.06" gradientUnits="userSpaceOnUse">
<stop stop-color="#B1CDEA"/>
<stop offset="1" stop-color="#D2DEF7"/>
</linearGradient>
<linearGradient id="paint20_linear_0_484" x1="277.949" y1="326.478" x2="272.853" y2="305.287" gradientUnits="userSpaceOnUse">
<stop stop-color="#9DAEEA"/>
<stop offset="1" stop-color="#8CC5EF"/>
</linearGradient>
<linearGradient id="paint21_linear_0_484" x1="234.517" y1="317.523" x2="259.862" y2="235.732" gradientUnits="userSpaceOnUse">
<stop stop-color="#68A2C2"/>
<stop offset="1" stop-color="#CCEDFF"/>
</linearGradient>
<linearGradient id="paint22_linear_0_484" x1="301.828" y1="366.993" x2="273.835" y2="310.84" gradientUnits="userSpaceOnUse">
<stop stop-color="#C1CAF7"/>
<stop offset="1" stop-color="#E8DCF7"/>
</linearGradient>
<linearGradient id="paint23_linear_0_484" x1="289.151" y1="372.361" x2="270.476" y2="319.149" gradientUnits="userSpaceOnUse">
<stop stop-color="#9DCAEA"/>
<stop offset="1" stop-color="#8CAEEF"/>
</linearGradient>
<linearGradient id="paint24_linear_0_484" x1="282.285" y1="356.271" x2="275.064" y2="335.696" gradientUnits="userSpaceOnUse">
<stop stop-color="#8DA4E5"/>
<stop offset="1" stop-color="#5C7CBB"/>
</linearGradient>
<linearGradient id="paint25_linear_0_484" x1="280.563" y1="355.784" x2="264.003" y2="322.565" gradientUnits="userSpaceOnUse">
<stop stop-color="#C1C3F7"/>
<stop offset="1" stop-color="#E8DCF7"/>
</linearGradient>
<linearGradient id="paint26_linear_0_484" x1="173.149" y1="363.215" x2="194.319" y2="201.656" gradientUnits="userSpaceOnUse">
<stop stop-color="#C1E0F7"/>
<stop offset="1" stop-color="#DEDCF7"/>
</linearGradient>
<linearGradient id="paint27_linear_0_484" x1="128.668" y1="309.417" x2="172.676" y2="238.053" gradientUnits="userSpaceOnUse">
<stop stop-color="#6897C2"/>
<stop offset="1" stop-color="#CCEDFF"/>
</linearGradient>
<linearGradient id="paint28_linear_0_484" x1="178.022" y1="361.688" x2="201.917" y2="272.995" gradientUnits="userSpaceOnUse">
<stop stop-color="#9DD8EA"/>
<stop offset="1" stop-color="#8CCBEF"/>
</linearGradient>
<radialGradient id="paint29_radial_0_484" cx="0" cy="0" r="1" gradientUnits="userSpaceOnUse" gradientTransform="translate(178.513 350.026) rotate(-164.922) scale(62.8726 70.1849)">
<stop stop-color="#E5FF45"/>
<stop offset="1" stop-color="#00BBFF"/>
</radialGradient>
<linearGradient id="paint30_linear_0_484" x1="158.914" y1="234.289" x2="185.795" y2="235.934" gradientUnits="userSpaceOnUse">
<stop stop-color="#798BEA"/>
<stop offset="1" stop-color="#8CAEEF"/>
</linearGradient>
<linearGradient id="paint31_linear_0_484" x1="167.815" y1="265.48" x2="148.273" y2="242.467" gradientUnits="userSpaceOnUse">
<stop stop-color="#3657CC"/>
<stop offset="1" stop-color="#4A5696"/>
</linearGradient>
<linearGradient id="paint32_linear_0_484" x1="217.722" y1="240.559" x2="226.366" y2="208.476" gradientUnits="userSpaceOnUse">
<stop stop-color="#8DA4E5"/>
<stop offset="1" stop-color="#5C71BB"/>
</linearGradient>
<linearGradient id="paint33_linear_0_484" x1="234.698" y1="303.528" x2="171.43" y2="286.483" gradientUnits="userSpaceOnUse">
<stop stop-color="#00488A"/>
<stop offset="1" stop-color="#9FAEFF" stop-opacity="0"/>
</linearGradient>
<radialGradient id="paint34_radial_0_484" cx="0" cy="0" r="1" gradientUnits="userSpaceOnUse" gradientTransform="translate(176.75 342.91) rotate(-14.1328) scale(29.0354 37.582)">
<stop stop-color="#E5FF45"/>
<stop offset="1" stop-color="#00BBFF"/>
</radialGradient>
<linearGradient id="paint35_linear_0_484" x1="113.901" y1="294.571" x2="134.349" y2="205.033" gradientUnits="userSpaceOnUse">
<stop stop-color="#C1DAF7"/>
<stop offset="1" stop-color="#E8DCF7"/>
</linearGradient>
<linearGradient id="paint36_linear_0_484" x1="61.06" y1="278.026" x2="77.9345" y2="261.626" gradientUnits="userSpaceOnUse">
<stop stop-color="#9DAEEA"/>
<stop offset="1" stop-color="#8CC5EF"/>
</linearGradient>
<linearGradient id="paint37_linear_0_484" x1="105.863" y1="294.906" x2="129.911" y2="205.641" gradientUnits="userSpaceOnUse">
<stop stop-color="#68A2C2"/>
<stop offset="1" stop-color="#CCEDFF"/>
</linearGradient>
<linearGradient id="paint38_linear_0_484" x1="15.8975" y1="301.228" x2="73.8351" y2="266.127" gradientUnits="userSpaceOnUse">
<stop stop-color="#C1CAF7"/>
<stop offset="1" stop-color="#E8DCF7"/>
</linearGradient>
<linearGradient id="paint39_linear_0_484" x1="24.3706" y1="313.439" x2="72.1066" y2="275.648" gradientUnits="userSpaceOnUse">
<stop stop-color="#9DCAEA"/>
<stop offset="1" stop-color="#8CAEEF"/>
</linearGradient>
<linearGradient id="paint40_linear_0_484" x1="39.9183" y1="302.715" x2="58.3761" y2="288.102" gradientUnits="userSpaceOnUse">
<stop stop-color="#8DA4E5"/>
<stop offset="1" stop-color="#5C7CBB"/>
</linearGradient>
<linearGradient id="paint41_linear_0_484" x1="41.7697" y1="303.263" x2="76.0444" y2="282.498" gradientUnits="userSpaceOnUse">
<stop stop-color="#C1C3F7"/>
<stop offset="1" stop-color="#E8DCF7"/>
</linearGradient>
<linearGradient id="paint42_linear_0_484" x1="95.8624" y1="377.344" x2="124.431" y2="288.026" gradientUnits="userSpaceOnUse">
<stop stop-color="#C1DAF7"/>
<stop offset="1" stop-color="#E8DCF7"/>
</linearGradient>
<linearGradient id="paint43_linear_0_484" x1="94.064" y1="377.207" x2="111.049" y2="287.287" gradientUnits="userSpaceOnUse">
<stop stop-color="#6887C2"/>
<stop offset="1" stop-color="#CCEDFF"/>
</linearGradient>
</defs>
</svg>
