<svg width="24" height="24" viewBox="0 0 24 24" fill="none" xmlns="http://www.w3.org/2000/svg">
<path d="M10.6406 18.5078C11.2188 18.5078 11.625 18.1016 11.625 17.5547C11.625 17.2578 11.5 17.0234 11.3203 16.8359L9.55469 15.0625L7.57031 13.2422L9.32812 13.3438H18.4844C19.0938 13.3438 19.5078 12.9375 19.5078 12.3438C19.5078 11.75 19.0938 11.3438 18.4844 11.3438H9.32812L7.57031 11.4375L9.55469 9.625L11.3203 7.84375C11.5078 7.65625 11.625 7.42188 11.625 7.125C11.625 6.58594 11.2188 6.17188 10.6406 6.17188C10.3906 6.17188 10.1484 6.27344 9.92188 6.49219L4.8125 11.6016C4.61719 11.7891 4.5 12.0703 4.5 12.3438C4.5 12.6172 4.61719 12.8906 4.8125 13.0859L9.9375 18.1953C10.1484 18.4063 10.3906 18.5078 10.6406 18.5078Z" fill="white"/>
</svg>
