<svg width="204" height="182" viewBox="0 0 204 182" fill="none" xmlns="http://www.w3.org/2000/svg">
<path d="M9.78783 115.822C20.9144 98.1261 32.0363 80.4263 43.1588 62.7354L27.4231 134.614C23.3106 131.837 19.9233 126.17 15.8108 123.392C14.9705 122.908 13.9461 122.193 12.9412 121.159C11.0378 119.199 10.1805 117.087 9.7833 115.818L9.78783 115.822Z" fill="url(#paint0_linear_3_86)"/>
<path d="M13.4142 129.4L41.3224 155.696C43.5253 157.77 46.6809 158.476 49.5576 157.545L113.375 137.279C99.3622 125.074 79.8381 121.412 62.317 127.702C46.7229 133.305 36.5646 136.915 35.417 137.26C35.0945 137.357 34.1855 137.628 33.1422 137.352C32.1989 137.098 31.6148 136.547 31.3693 136.296C24.1672 129.514 16.9691 122.727 9.76699 115.946C8.35331 120.766 9.75892 125.971 13.4102 129.405L13.4142 129.4Z" fill="url(#paint1_linear_3_86)"/>
<path d="M105.519 48.8396C115.61 67.0888 125.702 85.3462 135.793 103.595C117.375 87.5 98.9621 71.4 80.5447 55.3046C84.9666 53.0289 91.5573 52.7743 95.979 50.4985C96.807 49.998 97.9303 49.4406 99.323 49.0512C101.954 48.323 104.228 48.5823 105.519 48.8396Z" fill="url(#paint2_linear_3_86)"/>
<path d="M91.8835 45.5073L55.3689 57.3942C52.4883 58.3302 50.3427 60.7623 49.7652 63.7391L36.5873 129.475C54.0499 123.031 66.7075 107.645 69.6836 89.2511C72.3327 72.8761 74.0976 62.2324 74.3535 61.0552C74.4234 60.7239 74.6248 59.7953 75.3724 59.018C76.0485 58.3146 76.8134 58.0632 77.1535 57.9729C86.5729 54.9082 95.996 51.839 105.415 48.7743C101.884 45.2194 96.6498 43.9599 91.8796 45.5119L91.8835 45.5073Z" fill="url(#paint3_linear_3_86)"/>
<path d="M113.825 165.82C92.9944 164.937 72.1675 164.049 51.3367 163.166L121.436 141.117C121.056 146.077 117.806 151.839 117.422 156.803C117.416 157.772 117.298 159.021 116.899 160.41C116.138 163.037 114.725 164.838 113.825 165.812L113.825 165.82Z" fill="url(#paint4_linear_3_86)"/>
<path d="M123.815 155.909L132.866 118.542C133.579 115.593 132.641 112.501 130.414 110.454L81.3922 64.9804C77.7095 83.2524 84.1564 102.067 98.2444 114.184C110.784 124.975 118.921 132.019 119.787 132.845C120.026 133.075 120.717 133.734 120.982 134.777C121.227 135.723 121.037 136.51 120.937 136.839C118.601 146.48 116.267 156.121 113.931 165.762C118.811 164.592 122.628 160.78 123.814 155.9L123.815 155.909Z" fill="url(#paint5_linear_3_86)"/>
<path d="M57.0217 56.135C76.6371 48.8145 96.2514 41.4878 115.861 34.1686L59.5896 81.7454C58.0134 77.0483 58.773 70.4946 57.1968 65.7975C56.8243 64.9035 56.4459 63.7151 56.277 62.2852C55.9582 59.5753 56.5634 57.3777 57.0205 56.1291L57.0217 56.135Z" fill="url(#paint6_linear_3_86)"/>
<path d="M51.6344 69.1191L57.795 106.913C58.2822 109.895 60.359 112.367 63.2117 113.369L126.255 135.917C122.553 117.734 109.272 103 91.5212 97.3867C75.7202 92.394 65.4513 89.1099 64.3295 88.6889C64.0138 88.5711 63.1267 88.2358 62.466 87.3845C61.871 86.6117 61.7427 85.8198 61.7008 85.4715C60.1084 75.7217 58.522 65.9707 56.9297 56.2208C52.8715 59.1941 50.8187 64.1808 51.6284 69.1205L51.6344 69.1191Z" fill="url(#paint7_linear_3_86)"/>
<path d="M173.867 60.8951C170.772 81.5053 167.672 102.122 164.576 122.733C159.745 98.7911 154.92 74.8483 150.088 50.9067C154.987 51.7766 160.379 55.5658 165.277 56.4356C166.24 56.5394 167.472 56.7769 168.815 57.3109C171.349 58.3255 172.998 59.9093 173.867 60.8951Z" fill="url(#paint8_linear_3_86)"/>
<path d="M165.063 49.9898L128.814 37.3198C125.955 36.3189 122.77 36.9517 120.498 38.9671L69.9994 83.213C87.7977 88.6687 107.223 84.1105 120.788 71.2991C132.864 59.8937 140.748 52.5062 141.668 51.7259C141.925 51.5051 142.651 50.8893 143.718 50.7245C144.683 50.5751 145.444 50.8386 145.769 50.9728C155.119 54.2425 164.475 57.5109 173.824 60.7806C173.183 55.8174 169.792 51.647 165.057 49.9911L165.063 49.9898Z" fill="url(#paint9_linear_3_86)"/>
<path d="M109.233 158.866C93.2205 145.548 77.2142 132.23 61.2021 118.913L130.322 143.848C127 147.559 120.909 150.168 117.581 153.88C116.986 154.647 116.132 155.567 114.969 156.429C112.765 158.055 110.545 158.63 109.237 158.858L109.233 158.866Z" fill="url(#paint10_linear_3_86)"/>
<path d="M123.205 157.041L153.15 132.835C155.512 130.924 156.65 127.899 156.127 124.924L144.87 59.1073C130.817 71.3939 124.482 90.2464 128.297 108.405C131.689 124.572 133.864 135.098 134.049 136.278C134.099 136.606 134.246 137.548 133.822 138.537C133.44 139.437 132.81 139.946 132.53 140.147C124.804 146.393 117.078 152.638 109.352 158.884C113.942 160.909 119.295 160.193 123.209 157.034L123.205 157.041Z" fill="url(#paint11_linear_3_86)"/>
<ellipse cx="53.8148" cy="53.6828" rx="53.8148" ry="53.6828" transform="matrix(0.974972 -0.222327 0.223482 0.974708 6.58601 49.1706)" fill="#F3BA2F"/>
<path fill-rule="evenodd" clip-rule="evenodd" d="M54.7405 86.8218L66.2414 68.553L84.5702 80.0279L91.2621 69.3975L62.2736 51.2477L44.0811 80.1481L54.7405 86.8218ZM39.3551 87.6535L50.0143 94.3271L43.3222 104.958L32.663 98.2843L39.3551 87.6535ZM75.8612 110.509L57.5421 99.0406L50.8348 109.662L50.8497 109.672L79.829 127.815L98.0277 98.9052L98.0308 98.8994L87.3677 92.2317L75.8612 110.509ZM109.441 80.7802L102.749 91.411L92.0896 84.7374L98.7817 74.1066L109.441 80.7802ZM79.8539 87.5192L79.8502 87.5201L79.8591 87.5225L79.856 87.5283L73.0653 98.3155L62.2584 91.5494L62.2434 91.5395L62.2527 91.5246L63.4422 89.6351L64.0183 88.7191L64.0189 88.719L69.0373 80.7471L79.8539 87.5192Z" fill="white"/>
<rect width="107.335" height="107.061" rx="53.5307" transform="matrix(0.983818 0.179173 -0.180121 0.983644 86.0715 54.8401)" fill="url(#paint12_linear_3_86)"/>
<path d="M121.828 79.6462C132.734 85.0801 143.642 90.5111 154.546 95.9429L111.902 90.8925C113.285 88.3601 116.386 86.0843 117.769 83.552C118.003 83.0392 118.361 82.4071 118.905 81.7684C119.936 80.5584 121.115 79.9442 121.83 79.6434L121.828 79.6462Z" fill="url(#paint13_linear_3_86)"/>
<path d="M114.144 82.505L100.436 100.109C99.3551 101.498 99.1221 103.361 99.825 104.971L115.187 140.705C121.489 131.922 122.519 120.435 117.88 110.665C113.748 101.97 111.08 96.3039 110.815 95.6602C110.74 95.4793 110.531 94.9693 110.633 94.351C110.728 93.7917 111.015 93.4232 111.147 93.2672C114.682 88.7245 118.22 84.1839 121.755 79.6412C118.875 79.0954 115.93 80.2002 114.141 82.503L114.144 82.505Z" fill="url(#paint14_linear_3_86)"/>
<path d="M166.125 131.193C156.09 138.05 146.051 144.907 136.016 151.764C144.331 140.218 152.65 128.673 160.965 117.127C162.535 119.554 163.054 123.347 164.625 125.774C164.962 126.225 165.349 126.842 165.654 127.625C166.224 129.104 166.202 130.433 166.125 131.193Z" fill="url(#paint15_linear_3_86)"/>
<path d="M167.294 123.127L158.335 102.698C157.629 101.086 156.096 99.9829 154.334 99.8166L115.403 95.8987C120.129 105.626 129.779 112.075 140.632 112.76C150.295 113.37 156.577 113.791 157.276 113.873C157.472 113.895 158.023 113.959 158.517 114.347C158.963 114.698 159.152 115.126 159.224 115.317C161.534 120.587 163.847 125.86 166.157 131.13C168.024 128.889 168.461 125.794 167.291 123.125L167.294 123.127Z" fill="url(#paint16_linear_3_86)"/>
<path d="M98.6311 142.57C97.9728 130.485 97.3175 118.401 96.6592 106.315L113.411 145.579C110.508 145.638 106.978 144.084 104.072 144.141C103.508 144.193 102.777 144.195 101.947 144.042C100.378 143.75 99.2522 143.035 98.636 142.569L98.6311 142.57Z" fill="url(#paint17_linear_3_86)"/>
<path d="M104.951 147.785L127.169 150.914C128.922 151.159 130.666 150.444 131.729 149.042L155.391 118.16C144.569 117.06 134.001 121.843 127.753 130.664C122.19 138.516 118.555 143.614 118.124 144.161C118.003 144.312 117.659 144.748 117.068 144.96C116.532 145.155 116.065 145.089 115.868 145.05C110.136 144.242 104.403 143.435 98.6709 142.628C99.625 145.382 102.054 147.373 104.956 147.784L104.951 147.785Z" fill="url(#paint18_linear_3_86)"/>
<defs>
<linearGradient id="paint0_linear_3_86" x1="41.0222" y1="68.6266" x2="17.0002" y2="124.473" gradientUnits="userSpaceOnUse">
<stop stop-color="#0862FF"/>
<stop offset="1" stop-color="#070860"/>
</linearGradient>
<linearGradient id="paint1_linear_3_86" x1="86.1601" y1="118.062" x2="44.8726" y2="159.998" gradientUnits="userSpaceOnUse">
<stop stop-color="#CBEF9B"/>
<stop offset="0.145833" stop-color="#53E894"/>
<stop offset="0.5" stop-color="#11B7EC"/>
<stop offset="1" stop-color="#0862FF"/>
</linearGradient>
<linearGradient id="paint2_linear_3_86" x1="134.441" y1="102.475" x2="88.4513" y2="52.9182" gradientUnits="userSpaceOnUse">
<stop stop-color="#0862FF"/>
<stop offset="1" stop-color="#070860"/>
</linearGradient>
<linearGradient id="paint3_linear_3_86" x1="72.0061" y1="105.093" x2="52.0296" y2="58.0263" gradientUnits="userSpaceOnUse">
<stop stop-color="#CBEF9B"/>
<stop offset="0.145833" stop-color="#53E894"/>
<stop offset="0.5" stop-color="#11B7EC"/>
<stop offset="1" stop-color="#0862FF"/>
</linearGradient>
<linearGradient id="paint4_linear_3_86" x1="51.2752" y1="163.494" x2="118.358" y2="153.452" gradientUnits="userSpaceOnUse">
<stop stop-color="#0862FF"/>
<stop offset="1" stop-color="#070860"/>
</linearGradient>
<linearGradient id="paint5_linear_3_86" x1="80.5974" y1="86.3722" x2="131.885" y2="122.858" gradientUnits="userSpaceOnUse">
<stop stop-color="#CBEF9B"/>
<stop offset="0.145833" stop-color="#53E894"/>
<stop offset="0.5" stop-color="#11B7EC"/>
<stop offset="1" stop-color="#0862FF"/>
</linearGradient>
<linearGradient id="paint6_linear_3_86" x1="110.576" y1="37.5551" x2="57.494" y2="67.3953" gradientUnits="userSpaceOnUse">
<stop stop-color="#0862FF"/>
<stop offset="1" stop-color="#070860"/>
</linearGradient>
<linearGradient id="paint7_linear_3_86" x1="116.334" y1="104.168" x2="57.9796" y2="112.366" gradientUnits="userSpaceOnUse">
<stop stop-color="#CBEF9B"/>
<stop offset="0.145833" stop-color="#53E894"/>
<stop offset="0.5" stop-color="#11B7EC"/>
<stop offset="1" stop-color="#0862FF"/>
</linearGradient>
<linearGradient id="paint8_linear_3_86" x1="164.184" y1="121.024" x2="157.675" y2="53.8134" gradientUnits="userSpaceOnUse">
<stop stop-color="#0862FF"/>
<stop offset="1" stop-color="#070860"/>
</linearGradient>
<linearGradient id="paint9_linear_3_86" x1="112.986" y1="85.292" x2="125.614" y2="35.7583" gradientUnits="userSpaceOnUse">
<stop stop-color="#CBEF9B"/>
<stop offset="0.145833" stop-color="#53E894"/>
<stop offset="0.5" stop-color="#11B7EC"/>
<stop offset="1" stop-color="#0862FF"/>
</linearGradient>
<linearGradient id="paint10_linear_3_86" x1="60.9538" y1="119.136" x2="120.264" y2="151.969" gradientUnits="userSpaceOnUse">
<stop stop-color="#0862FF"/>
<stop offset="1" stop-color="#070860"/>
</linearGradient>
<linearGradient id="paint11_linear_3_86" x1="169.214" y1="104.195" x2="108.101" y2="145.064" gradientUnits="userSpaceOnUse">
<stop stop-color="#0862FF"/>
<stop offset="1" stop-color="#070860"/>
</linearGradient>
<linearGradient id="paint12_linear_3_86" x1="98.1996" y1="82.678" x2="8.7551" y2="79.1594" gradientUnits="userSpaceOnUse">
<stop stop-color="#0862FF"/>
<stop offset="1" stop-color="#070860"/>
</linearGradient>
<linearGradient id="paint13_linear_3_86" x1="151.003" y1="95.0397" x2="117.246" y2="84.1798" gradientUnits="userSpaceOnUse">
<stop stop-color="#0862FF"/>
<stop offset="1" stop-color="#070860"/>
</linearGradient>
<linearGradient id="paint14_linear_3_86" x1="124.821" y1="123.9" x2="98.2532" y2="102.259" gradientUnits="userSpaceOnUse">
<stop stop-color="#CBEF9B"/>
<stop offset="0.145833" stop-color="#53E894"/>
<stop offset="0.5" stop-color="#11B7EC"/>
<stop offset="1" stop-color="#0862FF"/>
</linearGradient>
<linearGradient id="paint15_linear_3_86" x1="136.591" y1="150.92" x2="162.636" y2="121.419" gradientUnits="userSpaceOnUse">
<stop stop-color="#0862FF"/>
<stop offset="1" stop-color="#070860"/>
</linearGradient>
<linearGradient id="paint16_linear_3_86" x1="131.559" y1="114.993" x2="157.719" y2="100.693" gradientUnits="userSpaceOnUse">
<stop stop-color="#CBEF9B"/>
<stop offset="0.145833" stop-color="#53E894"/>
<stop offset="0.5" stop-color="#11B7EC"/>
<stop offset="1" stop-color="#0862FF"/>
</linearGradient>
<linearGradient id="paint17_linear_3_86" x1="96.4655" y1="106.298" x2="105.992" y2="144.514" gradientUnits="userSpaceOnUse">
<stop stop-color="#0862FF"/>
<stop offset="1" stop-color="#070860"/>
</linearGradient>
<linearGradient id="paint18_linear_3_86" x1="142.919" y1="118.904" x2="124.762" y2="150.679" gradientUnits="userSpaceOnUse">
<stop stop-color="#CBEF9B"/>
<stop offset="0.145833" stop-color="#53E894"/>
<stop offset="0.5" stop-color="#11B7EC"/>
<stop offset="1" stop-color="#0862FF"/>
</linearGradient>
</defs>
</svg>
