<svg width="32" height="32" viewBox="0 0 32 32" fill="none" xmlns="http://www.w3.org/2000/svg">
<rect width="32" height="32" fill="#F5F5F5"/>
<g id="05_futures" clip-path="url(#clip0_0_1)">
<rect width="1680" height="1628" transform="translate(-200 -320)" fill="#0E0F12"/>
<g id="item">
<rect id="surface" x="-20" y="-20" width="312" height="72" rx="12" fill="#E0E0FF" fill-opacity="0.03"/>
<g id="australia">
<path id="Vector" d="M32 16C32 24.8365 24.8365 32 16 32C7.1635 32 0 24.8365 0 16C0 16.0037 16 0.0018125 16 0C24.8365 0 32 7.1635 32 16Z" fill="#0052B4"/>
<g id="Group">
<path id="Vector_2" d="M15.957 15.9998H15.9998C15.9998 15.9853 15.9998 15.9715 15.9998 15.957C15.9856 15.9713 15.9713 15.9856 15.957 15.9998Z" fill="#F0F0F0"/>
<path id="Vector_3" d="M16 8.34781C16 5.5325 16 3.68769 16 0H15.9973C7.162 0.0014375 0 7.16425 0 15.9999H8.34781V11.2992L13.0486 15.9999H15.9572C15.9716 15.9857 15.9858 15.9714 16.0001 15.9571C16.0001 14.8792 16.0001 13.9174 16.0001 13.0486L11.2992 8.34781H16Z" fill="#F0F0F0"/>
</g>
<g id="Group_2">
<path id="Vector_4" d="M8.09466 2.08691C5.59223 3.51185 3.51185 5.59223 2.08691 8.09466V16H6.26085V6.26091V6.26085H16C16 4.94441 16 3.69029 16 2.08691H8.09466Z" fill="#D80027"/>
<path id="Vector_5" d="M15.9998 14.0322L10.3152 8.34768H8.34766C8.34766 8.34762 8.34766 8.34768 8.34766 8.34768L15.9997 15.9997H15.9998C15.9998 15.9997 15.9998 14.6432 15.9998 14.0322Z" fill="#D80027"/>
</g>
<g id="Group_3">
<path id="Vector_6" d="M9.64972 18.7827L10.5278 20.6188L12.5108 20.1605L11.6228 21.9919L13.2174 23.2565L11.232 23.704L11.2375 25.7392L9.64972 24.4659L8.06197 25.7392L8.06753 23.704L6.08203 23.2565L7.67672 21.9919L6.78859 20.1605L8.77166 20.6188L9.64972 18.7827Z" fill="#F0F0F0"/>
<path id="Vector_7" d="M23.9552 22.2607L24.3943 23.1788L25.3858 22.9496L24.9417 23.8653L25.7391 24.4976L24.7463 24.7214L24.7491 25.739L23.9552 25.1023L23.1613 25.739L23.1641 24.7214L22.1714 24.4976L22.9687 23.8653L22.5247 22.9496L23.5161 23.1788L23.9552 22.2607Z" fill="#F0F0F0"/>
<path id="Vector_8" d="M19.8708 12.522L20.3098 13.4401L21.3013 13.2108L20.8573 14.1265L21.6546 14.7588L20.6619 14.9826L20.6646 16.0002L19.8708 15.3635L19.0769 16.0002L19.0796 14.9826L18.0869 14.7588L18.8842 14.1265L18.4402 13.2108L19.4317 13.4401L19.8708 12.522Z" fill="#F0F0F0"/>
<path id="Vector_9" d="M23.9552 6.95654L24.3943 7.87467L25.3858 7.64548L24.9418 8.56117L25.739 9.19342L24.7463 9.41723L24.7491 10.4349L23.9552 9.79817L23.1613 10.4349L23.1641 9.41723L22.1714 9.19342L22.9686 8.56117L22.5247 7.64548L23.5161 7.87467L23.9552 6.95654Z" fill="#F0F0F0"/>
<path id="Vector_10" d="M27.5231 11.1304L27.9621 12.0485L28.9536 11.8192L28.5096 12.7349L29.3069 13.3672L28.3142 13.5911L28.3169 14.6086L27.5231 13.972L26.7293 14.6086L26.7319 13.5911L25.7393 13.3672L26.5366 12.7349L26.0926 11.8192L27.084 12.0485L27.5231 11.1304Z" fill="#F0F0F0"/>
<path id="Vector_11" d="M24.9717 16L25.317 17.0629H26.4347L25.5305 17.7198L25.8759 18.7826L24.9717 18.1257L24.0676 18.7826L24.4129 17.7198L23.5088 17.0629H24.6264L24.9717 16Z" fill="#F0F0F0"/>
</g>
</g>
</g>
</g>
<defs>
<clipPath id="clip0_0_1">
<rect width="1680" height="1628" fill="white" transform="translate(-200 -320)"/>
</clipPath>
</defs>
</svg>
