<svg width="32" height="32" viewBox="0 0 32 32" fill="none" xmlns="http://www.w3.org/2000/svg">
<rect width="32" height="32" fill="#F5F5F5"/>
<g id="05_futures" clip-path="url(#clip0_0_1)">
<rect width="1680" height="1628" transform="translate(-1208 -320)" fill="#0E0F12"/>
<g id="item">
<rect id="surface" x="-20" y="-20" width="312" height="72" rx="12" fill="#E0E0FF" fill-opacity="0.03"/>
<g id="italy">
<path id="Vector" d="M16 32C24.8366 32 32 24.8366 32 16C32 7.16344 24.8366 0 16 0C7.16344 0 0 7.16344 0 16C0 24.8366 7.16344 32 16 32Z" fill="#F0F0F0"/>
<path id="Vector_2" d="M32.0002 15.9999C32.0002 9.12049 27.6582 3.2558 21.5654 0.995117V31.0048C27.6582 28.7441 32.0002 22.8794 32.0002 15.9999Z" fill="#D80027"/>
<path id="Vector_3" d="M0 15.9999C0 22.8794 4.342 28.7441 10.4348 31.0047V0.995117C4.342 3.2558 0 9.12049 0 15.9999Z" fill="#6DA544"/>
</g>
</g>
</g>
<defs>
<clipPath id="clip0_0_1">
<rect width="1680" height="1628" fill="white" transform="translate(-1208 -320)"/>
</clipPath>
</defs>
</svg>
