<svg width="606" height="634" viewBox="0 0 606 634" fill="none" xmlns="http://www.w3.org/2000/svg">
<path d="M499.983 294.136L444.769 328.48C444.769 328.48 429.151 336.809 411.972 338.78C407.082 339.419 402.063 339.528 397.377 338.712C397.377 338.712 383.19 335.734 367.801 335.861C354.329 335.798 340.055 338.179 334.076 346.95C334.076 346.95 381.258 373.57 422.789 376.014C426.222 376.295 429.59 376.31 432.893 376.061C489.236 373.745 504.893 322.145 499.983 294.136Z" fill="url(#paint0_linear_0_4217)"/>
<path opacity="0.3" d="M499.982 294.136L444.772 328.474C444.772 328.474 429.155 336.802 411.978 338.772L405.818 343.374C405.818 343.374 447.39 334.572 461.35 344.626C478.735 357.21 449.546 374.206 422.794 375.999C426.226 376.28 429.594 376.296 432.897 376.047C489.236 373.73 504.891 322.14 499.982 294.136Z" fill="url(#paint1_linear_0_4217)"/>
<path d="M460.333 356.89C461.163 358.61 453.193 362.77 449.524 363.94C445.854 365.11 441.608 363.832 440.888 362.968C440.414 361.986 458.553 353.206 460.333 356.89Z" fill="white"/>
<path d="M332.097 343.242C332.097 343.242 368.404 324.713 405.939 335.723C405.939 335.723 386.677 343.011 368.425 347.086C349.919 350.872 336.631 349.519 332.097 343.242Z" fill="url(#paint2_linear_0_4217)"/>
<path d="M166.681 421.396C165.31 420.505 164.316 419.534 162.864 418.266C141.618 398.94 122.158 353.802 159.291 315.532C160.934 313.999 162.199 312.546 164.07 311.162C164.891 310.396 165.564 309.858 165.713 309.629C165.861 309.401 165.861 309.401 165.861 309.401C197.846 282.084 251.163 268.95 251.163 268.95C252.807 279.442 244.04 290.97 234.185 300.166C229.258 304.765 224.399 308.757 220.132 311.835C214.667 315.759 210.697 318.379 210.697 318.379C192.499 330.93 180.17 353.467 180.17 353.467L166.885 419.578L166.681 421.396Z" fill="url(#paint3_linear_0_4217)"/>
<path d="M251.249 269.319C251.249 269.319 216.717 286.533 201.444 321.132C201.444 321.132 218.413 312.982 232.683 300.479C246.805 288.205 253.757 276.473 251.249 269.319Z" fill="url(#paint4_linear_0_4217)"/>
<path opacity="0.3" d="M167.113 419.726L163.092 418.415C141.846 399.089 122.387 353.952 159.519 315.683C161.162 314.15 162.427 312.698 164.298 311.314C160.421 315.294 144.233 337.273 146.828 351.308C150.079 369.342 187.071 337.805 207.661 311.537C214.125 303.063 218.158 305.358 220.357 311.986C214.893 315.91 210.923 318.53 210.923 318.53C192.726 331.081 180.398 353.618 180.398 353.618L167.113 419.726Z" fill="url(#paint5_linear_0_4217)"/>
<path d="M281.362 479.334C280.473 480.706 279.207 482.159 278.17 483.759C260.635 506.814 233.179 539.671 218.039 549.007C214.365 551.17 211.58 551.961 209.832 551.15C209.375 550.853 208.918 550.556 208.609 550.031C207.306 548.534 206.219 546.203 205.576 543.186C201.331 524.181 210.413 478.088 216.383 466.369C217.044 464.848 217.865 464.082 218.39 463.773C229.881 458.565 293.517 455.06 294.036 460.272C293.82 461.106 288.783 468.882 281.362 479.334Z" fill="url(#paint6_linear_0_4217)"/>
<path d="M216.163 466.216C212.799 468.904 266.829 488.732 293.955 459.891C293.955 459.891 292.103 456.738 286.873 455.29C272.164 450.933 239.865 447.171 216.163 466.216Z" fill="url(#paint7_linear_0_4217)"/>
<path opacity="0.3" d="M281.367 479.334C281.367 479.334 249.699 472.085 236.146 481.478C222.593 490.871 207.888 522.587 205.205 543.266C200.96 524.261 210.042 478.169 216.012 466.449C216.673 464.928 217.494 464.162 218.019 463.853C229.51 458.645 293.146 455.14 293.665 460.352C293.826 461.106 288.788 468.882 281.367 479.334Z" fill="url(#paint8_linear_0_4217)"/>
<path d="M215.428 521.97C217.188 523.764 214.127 532.498 210.335 531.335C206.543 530.171 211.599 517.858 215.428 521.97Z" fill="white"/>
<path d="M146.795 391.922C145.906 393.294 145.098 395.043 144.06 396.644C130.182 422.074 111.409 460.571 109.066 478.221C108.591 482.462 109.005 485.33 110.456 486.598C110.913 486.895 111.37 487.192 111.976 487.26C113.871 487.842 116.44 487.886 119.454 487.244C138.516 483.38 176.848 456.288 185.103 446.053C186.221 444.829 186.585 443.766 186.653 443.16C186.719 430.53 163.978 370.913 159.013 372.562C158.34 373.1 153.302 380.876 146.795 391.922Z" fill="url(#paint9_linear_0_4217)"/>
<path d="M185.336 446.192C184.256 450.365 144.153 409.041 159.398 372.482C159.398 372.482 162.115 372.297 165.567 376.489C175.615 388.54 192.896 416.987 185.336 446.192Z" fill="url(#paint10_linear_0_4217)"/>
<path opacity="0.3" d="M146.794 391.921C146.794 391.921 166.312 417.923 163.271 434.145C160.229 450.366 137.298 476.739 119.533 487.62C138.596 483.756 176.928 456.665 185.182 446.429C186.3 445.205 186.664 444.142 186.732 443.536C186.798 430.906 164.057 371.29 159.093 372.939C158.339 373.1 153.301 380.875 146.794 391.921Z" fill="url(#paint11_linear_0_4217)"/>
<path d="M146.408 456.664C144.055 455.785 125.488 474.92 128.094 477.914C130.929 481.055 151.719 458.489 146.408 456.664Z" fill="white"/>
<path d="M473.704 205.176C473.704 205.176 498.114 210.587 507.731 219.284C517.348 227.982 517.35 233.572 508.393 255.348C498.399 277.598 455.07 293.037 455.07 293.037L473.704 205.176Z" fill="url(#paint12_linear_0_4217)"/>
<path d="M510.622 223.192C500.597 217.191 486.034 225.053 466.37 246.574L478.781 263.967L511.869 254.558C511.869 254.558 520.647 229.193 510.622 223.192Z" fill="url(#paint13_linear_0_4217)"/>
<path d="M470.919 242.439C470.919 242.439 501.934 222.88 509.379 226.298C516.824 229.715 519.555 243.701 503.312 272.79C487.068 301.879 459.35 302.721 459.35 302.721L470.919 242.439Z" fill="url(#paint14_linear_0_4217)"/>
<path d="M494.373 215.019C490.859 214.017 488.671 216.815 494.045 220.629C499.418 224.443 505.522 223.015 505.654 221.659C505.987 220.486 498.271 216.004 494.373 215.019Z" fill="white"/>
<path opacity="0.72" d="M509.251 250.212C509.251 250.212 512.443 241.271 506.585 235.256C500.727 229.241 478.309 242.168 480.379 246.65C482.449 251.133 495.53 245.337 499.459 247.102C503.528 249.101 503.064 257.335 506.606 255.317C508.555 254.206 509.251 250.212 509.251 250.212Z" fill="url(#paint15_linear_0_4217)"/>
<path d="M306.42 105.65C306.42 105.65 287.633 89.1397 274.944 86.5185C262.255 83.8973 257.753 87.2029 245.512 107.316C233.503 128.547 246.683 172.667 246.683 172.667L306.42 105.65Z" fill="url(#paint16_linear_0_4217)"/>
<path d="M270.085 86.5006C280.844 91.046 283.122 107.456 277.416 136.065L256.074 136.331L244.09 104.047C244.09 104.047 259.326 81.9552 270.085 86.5006Z" fill="url(#paint17_linear_0_4217)"/>
<path d="M278.052 129.941C278.052 129.941 275.469 93.3287 268.316 89.3386C261.163 85.3484 248.286 91.4156 234.464 121.737C220.642 152.059 236.349 174.939 236.349 174.939L278.052 129.941Z" fill="url(#paint18_linear_0_4217)"/>
<path d="M286.275 94.7878C289.16 97.0326 288.2 100.455 281.951 98.3717C275.702 96.2884 273.244 90.5144 274.258 89.6051C275.005 88.6424 283.177 92.2223 286.275 94.7878Z" fill="white"/>
<path opacity="0.72" d="M249.14 103.588C249.14 103.588 254.453 95.7223 262.759 96.895C271.065 98.0678 273.91 123.817 269.077 124.797C264.243 125.777 261.177 111.785 257.433 109.657C253.418 107.552 247.062 112.797 246.593 108.743C246.335 106.512 249.14 103.588 249.14 103.588Z" fill="url(#paint19_linear_0_4217)"/>
<path d="M423.837 339.154C362.81 363.194 215.142 262.391 219.129 213.643C221.593 181.777 246.076 146.994 279.6 122.309C323.447 89.7085 383 74.4589 429.155 104.443C483.536 139.77 490.238 221.13 470.803 278.688C460.904 307.998 444.206 331.267 423.837 339.154Z" fill="url(#paint20_linear_0_4217)"/>
<path d="M260.554 174.262C247.933 209.277 377.548 298.351 427.69 291.611C478.062 285.019 495.007 156.64 420.676 114.526C353.038 76.1101 281.198 116.842 260.554 174.262Z" fill="#DFE3FB"/>
<path d="M262.242 170.157C249.621 205.172 379.235 294.246 429.378 287.506C479.749 280.914 496.694 152.535 422.363 110.421C354.726 72.0051 283.034 112.508 262.242 170.157Z" fill="url(#paint21_linear_0_4217)"/>
<path opacity="0.3" d="M423.821 339.157C362.797 363.195 215.138 262.399 219.125 213.654C221.589 181.791 246.07 147.01 279.592 122.327C277.95 123.859 235.607 161.656 235.365 190.09C235.055 219.13 288.698 250.078 346.076 283.778C403.306 317.707 426.917 321.35 446.506 311.657C461.818 304.059 472.135 272.099 475.967 258.669L470.933 278.466C460.886 308.003 444.188 331.27 423.821 339.157Z" fill="url(#paint22_linear_0_4217)"/>
<path d="M366.67 336.161C346.129 330.289 317.029 316.583 299.437 305.156C268.367 284.973 248.12 266.623 238.813 253.43C232.663 244.887 231.217 238.1 234.42 234.659C236.507 232.44 243.78 234.241 254.789 238.794C286.376 252.166 345.899 288.558 374.315 313.839C376.761 316.077 378.977 318.167 380.966 320.108C381.275 320.634 381.732 320.931 382.04 321.456C382.269 321.604 382.269 321.604 382.269 321.604C386.863 326.538 389.71 330.661 389.976 333.758C390.137 334.512 390.069 335.118 389.853 335.952C388.625 340.352 379.253 339.787 366.67 336.161Z" fill="url(#paint23_linear_0_4217)"/>
<path opacity="0.5" d="M366.668 336.157C361.74 328.733 329.727 281.95 289.28 266.721C245.042 250.329 238.813 253.429 238.813 253.429C232.663 244.886 231.217 238.1 234.42 234.658C236.507 232.44 243.78 234.241 254.788 238.793C286.376 252.165 345.897 288.556 374.313 313.836C377.067 316.6 379.969 319.135 382.038 321.453C382.267 321.602 382.267 321.602 382.267 321.602C386.861 326.535 389.707 330.658 389.974 333.755C390.134 334.509 390.066 335.114 389.85 335.949C388.623 340.349 379.251 339.783 366.668 336.157Z" fill="url(#paint24_linear_0_4217)"/>
<path d="M380.965 320.104C369.063 322.443 329.801 305.385 309.697 292.325C273.601 268.878 255.372 248.916 254.79 238.792C288.958 253.191 356.327 295.004 380.965 320.104Z" fill="url(#paint25_linear_0_4217)"/>
<path d="M407.416 200.123C406.732 211.701 434.337 232.233 446.944 225.802C454.6 222.003 460.608 183.666 442.595 174.888C424.73 165.882 407.797 194.522 407.416 200.123Z" fill="url(#paint26_linear_0_4217)"/>
<path d="M355.943 166.367C345.663 171.71 310.822 152.326 315.229 142.517C322.506 126.774 347.832 110.735 363.327 123.4C378.822 136.065 360.895 163.735 355.943 166.367Z" fill="url(#paint27_linear_0_4217)"/>
<path d="M348.685 185.06C348.685 185.06 353.816 190.667 371.179 201.946C388.542 213.224 399.081 216.497 399.081 216.497C399.081 216.497 384.876 221.888 366.142 209.719C347.409 197.55 348.685 185.06 348.685 185.06Z" fill="#07B5FE"/>
<path opacity="0.5" d="M298.503 206.407C292.084 212.307 302.193 229.27 340.16 251.334C386.191 277.987 401.483 274.926 400.976 270.698C400.642 268.207 381.91 268.059 350.542 236.312C329.961 215.471 305.448 200.198 298.503 206.407Z" fill="url(#paint28_linear_0_4217)"/>
<path d="M450.61 127.444C446.967 126.052 464.285 157.446 466.613 156.359C468.564 155.352 460.625 131.026 450.61 127.444Z" fill="white"/>
<path opacity="0.2" d="M270.371 161.156C270.371 161.156 275.439 149.825 286.306 137.062C297.173 124.298 306.608 117.754 308.153 120.382C309.549 123.239 300.35 136.436 292.978 150.82C287.076 161.934 282.761 173.105 282.761 173.105C282.761 173.105 267.464 176.166 270.371 161.156Z" fill="url(#paint29_linear_0_4217)"/>
<path d="M262.276 102.954C262.276 102.954 270.465 113.051 258.707 126.441C258.707 126.441 201.114 137.336 194.592 167.318C189.057 192.462 260.535 202.387 260.535 202.387L260.273 211.184C260.273 211.184 199.151 203.747 183.81 183.889C183.81 183.889 182.262 165.625 208.394 142.268C234.525 118.911 262.276 102.954 262.276 102.954Z" fill="url(#paint30_linear_0_4217)"/>
<path d="M252.661 197.548C244.182 202.544 254.97 214.34 265.176 219.072C276.936 224.306 299.69 226.504 302.328 213.889C305.225 201.359 272.444 185.891 252.661 197.548Z" fill="url(#paint31_linear_0_4217)"/>
<path d="M253.276 199.181C252.348 201.173 295.195 215.597 298.742 208.147C301.947 200.873 260.805 184.709 253.276 199.181Z" fill="url(#paint32_linear_0_4217)"/>
<path d="M259.13 107.383C259.13 107.383 226.672 126.402 227.557 128.981C228.183 131.475 259.505 110.656 259.13 107.383Z" fill="url(#paint33_linear_0_4217)"/>
<path d="M291.146 450.245C270.21 473.038 236.019 475.197 203.115 453.821C174.323 435.117 157.065 408.634 165.928 380.923C174.79 353.212 205.603 311.165 231.54 289.672C235.578 286.447 239.468 283.449 243.667 280.978C247.489 278.587 251.391 276.573 255.373 274.936C276.108 265.985 298.085 265.639 315.451 276.921C333.503 288.648 342.472 304.873 344.809 322.313C345.891 330.164 345.467 338.337 343.98 346.144C342.129 355.015 339.605 364.423 336.396 373.386L336.247 373.615C326.187 402.173 309.847 429.9 291.146 450.245Z" fill="url(#paint34_linear_0_4217)"/>
<path d="M182.479 357.888C209.649 326.475 252.637 321.259 281.329 344.123C312.386 368.847 309.763 411.983 291.676 438.899C273.589 465.814 240.08 473.939 204.663 450.931C169.247 427.924 156.872 387.392 182.479 357.888Z" fill="url(#paint35_linear_0_4217)"/>
<path d="M181.007 361.159C208.176 329.746 251.164 324.53 280.004 347.164C311.062 371.889 308.439 415.024 290.351 441.94C272.264 468.856 238.755 476.98 203.339 453.973C167.546 431.045 155.547 390.433 181.007 361.159Z" fill="url(#paint36_radial_0_4217)"/>
<path opacity="0.5" d="M344.819 322.296C330.626 328.67 287.866 309.99 266.809 293.387C248.574 278.942 254.952 275.613 255.396 274.927C276.127 265.977 298.101 265.632 315.465 276.912C333.514 288.637 342.482 304.859 344.819 322.296Z" fill="url(#paint37_linear_0_4217)"/>
<path d="M318.572 332.224C316.3 331.723 306.965 346.131 307.311 349.605C307.658 353.08 311.073 354.324 314.438 351.635C317.655 349.176 321.907 333.091 318.572 332.224Z" fill="white"/>
<path d="M308.221 355.722C306.325 355.14 304.103 358.57 303.899 360.388C303.696 362.205 306.506 363.381 307.852 362.305C309.346 361.002 309.969 356.532 308.221 355.722Z" fill="white"/>
<path opacity="0.72" d="M206.897 346.772C206.764 360.005 234.013 370.559 259.195 390.817C284.377 411.075 283.546 422.88 290.443 424.762C297.34 426.643 314.799 380.154 275.908 350.991C237.246 321.976 207.008 343.595 206.897 346.772Z" fill="url(#paint38_linear_0_4217)"/>
<path fill-rule="evenodd" clip-rule="evenodd" d="M254.622 374.43C250.138 369.216 245.653 364.003 241.169 358.789L241.172 358.787C241.13 358.787 241.088 358.787 241.043 358.788L241.104 358.754C238.549 357.068 235.261 356.963 232.599 358.486L232.601 358.489L212.233 370.124C210.626 371.043 209.644 372.762 209.668 374.61L209.96 415.542C219.605 409.522 225.265 398.757 224.762 387.39C224.311 377.272 224.04 370.688 224.047 369.956C224.048 369.75 224.054 369.17 224.404 368.609C224.722 368.103 225.149 367.859 225.34 367.761L227.947 366.27L266.092 387.763C262.273 383.323 258.453 378.883 254.633 374.442L254.622 374.43ZM262.931 426.707C256.54 428.066 250.148 429.424 243.756 430.783L243.756 430.783L243.755 430.783L243.755 430.783C237.684 432.073 231.613 433.363 225.544 434.654C231.903 430.7 238.263 426.746 244.623 422.793L244.651 422.775L244.68 422.758L244.708 422.74L244.75 422.714L244.796 422.685C250.789 418.96 256.783 415.234 262.776 411.508L262.733 408.492C262.741 408.277 262.733 407.785 262.445 407.265C262.127 406.689 261.622 406.406 261.441 406.306C260.801 405.946 254.915 403.018 245.846 398.55C235.66 393.532 228.976 383.388 228.372 372.028L264.316 391.448C265.947 392.316 266.978 394.005 267.003 395.856L267.34 419.328L267.339 419.325C267.382 422.391 265.703 425.227 262.993 426.659L262.992 426.593C262.971 426.633 262.951 426.671 262.931 426.707ZM199.647 392.695L199.651 392.684C201.79 386.673 203.928 380.661 206.066 374.649L206.259 418.509L208.844 420.042C209.018 420.159 209.442 420.41 210.037 420.436C210.689 420.466 211.196 420.184 211.376 420.083L211.38 420.081C212.017 419.722 217.594 416.219 226.148 410.809C235.756 404.729 247.888 404.312 257.876 409.721L222.514 430.286C220.919 431.223 218.947 431.221 217.357 430.279L197.206 418.327L197.212 418.328C194.581 416.764 193.048 413.853 193.247 410.791L193.303 410.825C193.282 410.789 193.261 410.754 193.242 410.72L193.237 410.719C195.373 404.71 197.51 398.703 199.647 392.695Z" fill="url(#paint39_radial_0_4217)"/>
<path d="M240.864 356.304C249.172 365.964 257.482 375.622 265.788 385.279L226.725 363.268C229.087 361.358 233.002 360.387 235.363 358.477C235.798 358.072 236.399 357.6 237.183 357.197C238.67 356.433 240.056 356.308 240.867 356.302L240.864 356.304Z" fill="white"/>
<path d="M232.293 356.005L211.924 367.639C210.317 368.558 209.336 370.277 209.359 372.126L209.652 413.057C219.297 407.037 224.957 396.272 224.454 384.905C224.003 374.787 223.732 368.204 223.738 367.471C223.74 367.265 223.746 366.685 224.095 366.124C224.414 365.618 224.841 365.375 225.031 365.276C230.285 362.273 235.541 359.273 240.795 356.269C238.241 354.584 234.952 354.478 232.291 356.001L232.293 356.005Z" fill="white"/>
<path d="M262.627 424.223C250.166 426.872 237.7 429.52 225.24 432.17C237.948 424.267 250.659 416.369 263.367 408.466C263.896 411.458 262.854 415.357 263.383 418.349C263.525 418.922 263.647 419.678 263.623 420.562C263.572 422.23 263.01 423.514 262.627 424.223Z" fill="white"/>
<path d="M267.036 416.844L266.699 393.372C266.673 391.521 265.643 389.832 264.012 388.964L228.067 369.544C228.672 380.904 235.356 391.048 245.542 396.066C254.61 400.534 260.497 403.462 261.137 403.822C261.317 403.922 261.822 404.205 262.141 404.781C262.429 405.301 262.437 405.793 262.428 406.008C262.514 412.063 262.602 418.12 262.688 424.175C265.399 422.743 267.078 419.907 267.034 416.841L267.036 416.844Z" fill="white"/>
<path d="M192.928 408.234C197.204 396.21 201.482 384.188 205.758 372.164L205.956 417.087C203.133 415.98 200.36 413.053 197.536 411.944C196.972 411.768 196.265 411.476 195.527 410.996C194.133 410.082 193.338 408.935 192.933 408.235L192.928 408.234Z" fill="white"/>
<path d="M196.906 415.842L217.056 427.794C218.647 428.736 220.619 428.739 222.214 427.801L257.575 407.237C247.588 401.827 235.455 402.245 225.848 408.324C217.293 413.734 211.717 417.238 211.079 417.597C210.902 417.696 210.393 417.982 209.737 417.951C209.141 417.926 208.717 417.674 208.543 417.557C203.344 414.474 198.145 411.39 192.946 408.307C192.748 411.369 194.281 414.28 196.911 415.844L196.906 415.842Z" fill="white"/>
<path d="M188.512 302.016C186.134 299.172 172.446 309.776 171.637 311.525C170.68 313.503 179.949 311.726 182.573 310.181C186.179 308.624 190.89 304.861 188.512 302.016Z" fill="white"/>
<defs>
<linearGradient id="paint0_linear_0_4217" x1="507.924" y1="314.606" x2="345.689" y2="376.652" gradientUnits="userSpaceOnUse">
<stop stop-color="#C1D7F7"/>
<stop offset="1" stop-color="#E8DCF7"/>
</linearGradient>
<linearGradient id="paint1_linear_0_4217" x1="507.918" y1="325.97" x2="407.785" y2="350.538" gradientUnits="userSpaceOnUse">
<stop stop-color="#68A2C2"/>
<stop offset="1" stop-color="#CCEDFF"/>
</linearGradient>
<linearGradient id="paint2_linear_0_4217" x1="369.241" y1="348.666" x2="368.786" y2="332.441" gradientUnits="userSpaceOnUse">
<stop stop-color="#799FEA"/>
<stop offset="1" stop-color="#8CBFEF"/>
</linearGradient>
<linearGradient id="paint3_linear_0_4217" x1="138.44" y1="397.711" x2="248.67" y2="267.114" gradientUnits="userSpaceOnUse">
<stop stop-color="#C1DAF7"/>
<stop offset="1" stop-color="#E8DCF7"/>
</linearGradient>
<linearGradient id="paint4_linear_0_4217" x1="234.342" y1="301.378" x2="221.228" y2="291.125" gradientUnits="userSpaceOnUse">
<stop stop-color="#798BEA"/>
<stop offset="1" stop-color="#8CAEEF"/>
</linearGradient>
<linearGradient id="paint5_linear_0_4217" x1="139.372" y1="403.046" x2="206.319" y2="299.989" gradientUnits="userSpaceOnUse">
<stop stop-color="#68A2C2"/>
<stop offset="1" stop-color="#CCEDFF"/>
</linearGradient>
<linearGradient id="paint6_linear_0_4217" x1="197.438" y1="541.828" x2="271.037" y2="442.626" gradientUnits="userSpaceOnUse">
<stop stop-color="#C1E0F7"/>
<stop offset="1" stop-color="#E8DCF7"/>
</linearGradient>
<linearGradient id="paint7_linear_0_4217" x1="243.81" y1="482.755" x2="266.161" y2="443.111" gradientUnits="userSpaceOnUse">
<stop stop-color="#9DCAEA"/>
<stop offset="1" stop-color="#8CDDEF"/>
</linearGradient>
<linearGradient id="paint8_linear_0_4217" x1="209.02" y1="545.028" x2="266.092" y2="443.795" gradientUnits="userSpaceOnUse">
<stop stop-color="#689CC2"/>
<stop offset="1" stop-color="#CCEDFF"/>
</linearGradient>
<linearGradient id="paint9_linear_0_4217" x1="124.017" y1="494.136" x2="184.747" y2="386.552" gradientUnits="userSpaceOnUse">
<stop stop-color="#C1DAF7"/>
<stop offset="1" stop-color="#E8DCF7"/>
</linearGradient>
<linearGradient id="paint10_linear_0_4217" x1="158.992" y1="427.658" x2="186.108" y2="391.151" gradientUnits="userSpaceOnUse">
<stop stop-color="#9DCAEA"/>
<stop offset="1" stop-color="#8CA2EF"/>
</linearGradient>
<linearGradient id="paint11_linear_0_4217" x1="116.379" y1="484.855" x2="185.663" y2="391.575" gradientUnits="userSpaceOnUse">
<stop stop-color="#6887C2"/>
<stop offset="1" stop-color="#CCEDFF"/>
</linearGradient>
<linearGradient id="paint12_linear_0_4217" x1="442.883" y1="281.057" x2="506.695" y2="211.396" gradientUnits="userSpaceOnUse">
<stop stop-color="#ACC4F4"/>
<stop offset="1" stop-color="#D1DBF5"/>
</linearGradient>
<linearGradient id="paint13_linear_0_4217" x1="477.312" y1="254.749" x2="512.001" y2="216.88" gradientUnits="userSpaceOnUse">
<stop stop-color="#9DC0EA"/>
<stop offset="1" stop-color="#8CAEEF"/>
</linearGradient>
<linearGradient id="paint14_linear_0_4217" x1="454.586" y1="298.548" x2="517.286" y2="230.102" gradientUnits="userSpaceOnUse">
<stop stop-color="#E5FF45"/>
<stop offset="1" stop-color="#00BBFF"/>
</linearGradient>
<linearGradient id="paint15_linear_0_4217" x1="492.354" y1="237.15" x2="504.863" y2="257.826" gradientUnits="userSpaceOnUse">
<stop/>
<stop offset="1" stop-color="#07B5FE" stop-opacity="0"/>
</linearGradient>
<linearGradient id="paint16_linear_0_4217" x1="263.534" y1="175.422" x2="282.067" y2="82.7208" gradientUnits="userSpaceOnUse">
<stop stop-color="#ACC4F4"/>
<stop offset="1" stop-color="#D1DBF5"/>
</linearGradient>
<linearGradient id="paint17_linear_0_4217" x1="264.365" y1="132.065" x2="274.439" y2="81.6706" gradientUnits="userSpaceOnUse">
<stop stop-color="#9DC0EA"/>
<stop offset="1" stop-color="#8CAEEF"/>
</linearGradient>
<linearGradient id="paint18_linear_0_4217" x1="242.526" y1="176.317" x2="260.734" y2="85.235" gradientUnits="userSpaceOnUse">
<stop stop-color="#E5FF45"/>
<stop offset="1" stop-color="#00BBFF"/>
</linearGradient>
<linearGradient id="paint19_linear_0_4217" x1="269.647" y1="109.507" x2="245.604" y2="111.653" gradientUnits="userSpaceOnUse">
<stop/>
<stop offset="1" stop-color="#07B5FE" stop-opacity="0"/>
</linearGradient>
<linearGradient id="paint20_linear_0_4217" x1="291.92" y1="303.09" x2="447.369" y2="118.922" gradientUnits="userSpaceOnUse">
<stop stop-color="#C1E4F7"/>
<stop offset="1" stop-color="#E8DCF7"/>
</linearGradient>
<linearGradient id="paint21_linear_0_4217" x1="335.796" y1="253.397" x2="426.958" y2="113.066" gradientUnits="userSpaceOnUse">
<stop stop-color="#05B6FE"/>
<stop offset="1" stop-color="#001687"/>
</linearGradient>
<linearGradient id="paint22_linear_0_4217" x1="302.023" y1="307.026" x2="379.675" y2="187.492" gradientUnits="userSpaceOnUse">
<stop stop-color="#6897C2"/>
<stop offset="1" stop-color="#CCEDFF"/>
</linearGradient>
<linearGradient id="paint23_linear_0_4217" x1="231.529" y1="239.16" x2="387.406" y2="340.154" gradientUnits="userSpaceOnUse">
<stop stop-color="#7999EA"/>
<stop offset="1" stop-color="#8C9CEF"/>
</linearGradient>
<linearGradient id="paint24_linear_0_4217" x1="304.905" y1="296.695" x2="319.489" y2="274.245" gradientUnits="userSpaceOnUse">
<stop stop-color="#8DC0E5"/>
<stop offset="1" stop-color="#5C99BB"/>
</linearGradient>
<linearGradient id="paint25_linear_0_4217" x1="306.346" y1="293.105" x2="324.386" y2="271.732" gradientUnits="userSpaceOnUse">
<stop stop-color="#3657CC"/>
<stop offset="1" stop-color="#4A5696"/>
</linearGradient>
<linearGradient id="paint26_linear_0_4217" x1="422.318" y1="219.644" x2="448.879" y2="178.759" gradientUnits="userSpaceOnUse">
<stop stop-color="#E5FF45"/>
<stop offset="1" stop-color="#00BBFF"/>
</linearGradient>
<linearGradient id="paint27_linear_0_4217" x1="331.761" y1="161.169" x2="358.481" y2="120.038" gradientUnits="userSpaceOnUse">
<stop stop-color="#E5FF45"/>
<stop offset="1" stop-color="#00BBFF"/>
</linearGradient>
<linearGradient id="paint28_linear_0_4217" x1="296.269" y1="209.503" x2="398.352" y2="275.644" gradientUnits="userSpaceOnUse">
<stop/>
<stop offset="1" stop-color="#07B5FE"/>
</linearGradient>
<linearGradient id="paint29_linear_0_4217" x1="272.635" y1="171.108" x2="309.925" y2="121.496" gradientUnits="userSpaceOnUse">
<stop/>
<stop offset="1" stop-color="#07B5FE"/>
</linearGradient>
<linearGradient id="paint30_linear_0_4217" x1="217.585" y1="204.044" x2="264.438" y2="103.931" gradientUnits="userSpaceOnUse">
<stop stop-color="#9DB7EA"/>
<stop offset="1" stop-color="#8CBAEF"/>
</linearGradient>
<linearGradient id="paint31_linear_0_4217" x1="268.23" y1="221.098" x2="284.233" y2="194.649" gradientUnits="userSpaceOnUse">
<stop stop-color="#DDD51A"/>
<stop offset="1" stop-color="#FED811"/>
</linearGradient>
<linearGradient id="paint32_linear_0_4217" x1="274.639" y1="207.435" x2="278.677" y2="194.944" gradientUnits="userSpaceOnUse">
<stop stop-color="#E3AB3D"/>
<stop offset="1" stop-color="#FFF96D"/>
</linearGradient>
<linearGradient id="paint33_linear_0_4217" x1="238.27" y1="132.822" x2="248.192" y2="103.776" gradientUnits="userSpaceOnUse">
<stop stop-color="#C1E4F7"/>
<stop offset="1" stop-color="#E8DCF7"/>
</linearGradient>
<linearGradient id="paint34_linear_0_4217" x1="194.097" y1="447.713" x2="329.15" y2="287.71" gradientUnits="userSpaceOnUse">
<stop stop-color="#C1E0F7"/>
<stop offset="1" stop-color="#DEDCF7"/>
</linearGradient>
<linearGradient id="paint35_linear_0_4217" x1="203.304" y1="450.067" x2="275.026" y2="339.663" gradientUnits="userSpaceOnUse">
<stop stop-color="#9DD8EA"/>
<stop offset="1" stop-color="#8CCBEF"/>
</linearGradient>
<radialGradient id="paint36_radial_0_4217" cx="0" cy="0" r="1" gradientUnits="userSpaceOnUse" gradientTransform="translate(214.771 437.216) rotate(33.0089) scale(100.465 100.465)">
<stop stop-color="#E5FF45"/>
<stop offset="1" stop-color="#00BBFF"/>
</radialGradient>
<linearGradient id="paint37_linear_0_4217" x1="292.255" y1="310.42" x2="314.452" y2="276.251" gradientUnits="userSpaceOnUse">
<stop stop-color="#8DA4E5"/>
<stop offset="1" stop-color="#5C71BB"/>
</linearGradient>
<linearGradient id="paint38_linear_0_4217" x1="210.636" y1="340.775" x2="306.71" y2="403.02" gradientUnits="userSpaceOnUse">
<stop stop-color="#00488A"/>
<stop offset="1" stop-color="#9FAEFF" stop-opacity="0"/>
</linearGradient>
<radialGradient id="paint39_radial_0_4217" cx="0" cy="0" r="1" gradientUnits="userSpaceOnUse" gradientTransform="translate(223.05 421.525) rotate(-6.70467) scale(46.9841 59.7672)">
<stop stop-color="#E5FF45"/>
<stop offset="1" stop-color="#00BBFF"/>
</radialGradient>
</defs>
</svg>
