<svg width="714" height="747" viewBox="0 0 714 747" fill="none" xmlns="http://www.w3.org/2000/svg">
<path d="M589.171 346.333L524.016 386.802C524.016 386.802 505.586 396.618 485.318 398.946C479.549 399.701 473.627 399.831 468.099 398.872C468.099 398.872 451.362 395.372 433.208 395.528C417.313 395.459 400.471 398.27 393.415 408.602C393.415 408.602 449.067 439.929 498.063 442.789C502.113 443.118 506.087 443.136 509.984 442.841C576.457 440.088 594.951 379.316 589.171 346.333Z" fill="url(#paint0_linear_15_99)"/>
<path opacity="0.3" d="M589.171 346.333L524.016 386.802C524.016 386.802 505.586 396.618 485.318 398.946L478.049 404.369C478.049 404.369 527.102 393.984 543.569 405.82C564.075 420.634 529.628 440.666 498.063 442.789C502.114 443.118 506.087 443.136 509.984 442.841C576.457 440.088 594.951 379.316 589.171 346.333Z" fill="url(#paint1_linear_15_99)"/>
<path d="M542.363 420.273C543.342 422.297 533.938 427.201 529.609 428.58C525.281 429.96 520.272 428.456 519.423 427.439C518.864 426.282 540.266 415.934 542.363 420.273Z" fill="white"/>
<path d="M391.077 404.212C391.077 404.212 433.914 382.34 478.187 395.312C478.187 395.312 455.461 403.916 433.93 408.731C412.097 413.206 396.423 411.616 391.077 404.212Z" fill="url(#paint2_linear_15_99)"/>
<path d="M195.919 496.281C194.302 495.232 193.129 494.088 191.417 492.594C166.361 469.83 143.42 416.653 187.231 371.553C189.168 369.746 190.662 368.035 192.869 366.403C193.838 365.5 194.632 364.866 194.807 364.597C194.981 364.327 194.981 364.327 194.981 364.327C232.716 332.134 295.609 316.645 295.609 316.645C297.545 329.006 287.201 342.591 275.574 353.429C269.761 358.848 264.028 363.553 258.995 367.18C252.548 371.805 247.864 374.893 247.864 374.893C226.396 389.686 211.848 416.243 211.848 416.243L196.159 494.139L195.919 496.281Z" fill="url(#paint3_linear_15_99)"/>
<path d="M295.704 317.09C295.704 317.09 254.969 337.38 236.945 378.149C236.945 378.149 256.962 368.542 273.797 353.808C290.457 339.342 298.66 325.518 295.704 317.09Z" fill="url(#paint4_linear_15_99)"/>
<path opacity="0.3" d="M196.429 494.314L191.687 492.769C166.631 470.004 143.69 416.828 187.5 371.728C189.438 369.921 190.931 368.209 193.139 366.578C188.564 371.269 169.463 397.17 172.521 413.705C176.351 434.953 219.993 397.785 244.288 366.829C251.915 356.843 256.672 359.546 259.264 367.355C252.818 371.98 248.134 375.068 248.134 375.068C226.666 389.861 212.118 416.418 212.118 416.418L196.429 494.314Z" fill="url(#paint5_linear_15_99)"/>
<path d="M331.233 564.536C330.184 566.153 328.69 567.865 327.466 569.751C306.777 596.92 274.382 635.64 256.52 646.645C252.186 649.194 248.9 650.126 246.839 649.172C246.3 648.822 245.761 648.473 245.397 647.854C243.86 646.091 242.578 643.344 241.821 639.79C236.818 617.398 247.545 563.088 254.589 549.277C255.369 547.485 256.338 546.582 256.957 546.218C270.513 540.078 345.577 535.932 346.189 542.072C345.934 543.056 339.989 552.219 331.233 564.536Z" fill="url(#paint6_linear_15_99)"/>
<path d="M254.32 549.102C250.35 552.271 314.085 575.621 346.094 541.628C346.094 541.628 343.909 537.913 337.74 536.208C320.389 531.079 282.286 526.654 254.32 549.102Z" fill="url(#paint7_linear_15_99)"/>
<path opacity="0.3" d="M331.233 564.536C331.233 564.536 293.88 556.003 277.891 567.074C261.901 578.145 244.548 615.519 241.377 639.884C236.375 617.492 247.101 563.182 254.146 549.372C254.925 547.58 255.894 546.677 256.513 546.313C270.07 540.173 345.133 536.027 345.745 542.167C345.934 543.056 339.99 552.219 331.233 564.536Z" fill="url(#paint8_linear_15_99)"/>
<path d="M253.449 614.784C255.524 616.897 251.911 627.189 247.438 625.819C242.966 624.45 248.933 609.94 253.449 614.784Z" fill="white"/>
<path d="M172.496 461.555C171.447 463.172 170.493 465.233 169.269 467.12C152.892 497.086 130.737 542.45 127.968 563.246C127.407 568.243 127.894 571.623 129.606 573.117C130.145 573.466 130.684 573.816 131.398 573.896C133.634 574.581 136.664 574.632 140.219 573.875C162.706 569.317 207.928 537.386 217.668 525.324C218.987 523.882 219.417 522.629 219.497 521.915C219.578 507.034 192.77 436.798 186.913 438.742C186.119 439.376 180.175 448.539 172.496 461.555Z" fill="url(#paint9_linear_15_99)"/>
<path d="M217.937 525.499C216.662 530.416 169.362 481.732 187.357 438.647C187.357 438.647 190.562 438.429 194.634 443.368C206.484 457.566 226.863 491.082 217.937 525.499Z" fill="url(#paint10_linear_15_99)"/>
<path opacity="0.3" d="M172.496 461.555C172.496 461.555 195.511 492.187 191.919 511.3C188.327 530.414 161.271 561.493 140.313 574.319C162.8 569.761 208.022 537.83 217.762 525.768C219.081 524.326 219.511 523.073 219.591 522.36C219.672 507.478 192.864 437.242 187.007 439.186C186.119 439.376 180.174 448.539 172.496 461.555Z" fill="url(#paint11_linear_15_99)"/>
<path d="M172.024 537.835C169.249 536.8 147.344 559.351 150.417 562.876C153.76 566.577 178.288 539.984 172.024 537.835Z" fill="white"/>
<path d="M558.15 241.519C558.15 241.519 586.946 247.889 598.289 258.135C609.632 268.38 609.632 274.966 599.061 300.626C587.266 326.844 536.148 345.046 536.148 345.046L558.15 241.519Z" fill="url(#paint12_linear_15_99)"/>
<path d="M601.694 262.742C589.869 255.674 572.686 264.941 549.484 290.302L564.121 310.792L603.157 299.699C603.157 299.699 613.518 269.811 601.694 262.742Z" fill="url(#paint13_linear_15_99)"/>
<path d="M554.857 285.429C554.857 285.429 591.448 262.376 600.23 266.401C609.011 270.426 612.23 286.904 593.062 321.181C573.894 355.458 541.195 356.457 541.195 356.457L554.857 285.429Z" fill="url(#paint14_linear_15_99)"/>
<path d="M582.526 253.115C578.381 251.935 575.799 255.233 582.138 259.727C588.477 264.22 595.678 262.536 595.834 260.937C596.228 259.555 587.125 254.275 582.526 253.115Z" fill="white"/>
<path opacity="0.72" d="M600.072 294.579C600.072 294.579 603.84 284.044 596.931 276.959C590.022 269.873 563.57 285.108 566.011 290.39C568.452 295.671 583.886 288.838 588.521 290.917C593.321 293.271 592.772 302.972 596.951 300.594C599.251 299.285 600.072 294.579 600.072 294.579Z" fill="url(#paint15_linear_15_99)"/>
<path d="M360.78 124.247C360.78 124.247 338.615 104.793 323.645 101.704C308.675 98.6158 303.364 102.511 288.923 126.209C274.755 151.225 290.305 203.211 290.305 203.211L360.78 124.247Z" fill="url(#paint16_linear_15_99)"/>
<path d="M317.916 101.683C330.609 107.039 333.296 126.375 326.566 160.084L301.386 160.397L287.248 122.357C287.248 122.357 305.223 96.3275 317.916 101.683Z" fill="url(#paint17_linear_15_99)"/>
<path d="M327.318 152.869C327.318 152.869 324.27 109.729 315.831 105.027C307.392 100.326 292.201 107.474 275.894 143.202C259.588 178.929 278.119 205.888 278.119 205.888L327.318 152.869Z" fill="url(#paint18_linear_15_99)"/>
<path d="M337.014 111.448C340.417 114.093 339.284 118.125 331.912 115.671C324.54 113.216 321.64 106.412 322.837 105.341C323.718 104.207 333.359 108.425 337.014 111.448Z" fill="white"/>
<path opacity="0.72" d="M293.201 121.817C293.201 121.817 299.469 112.549 309.268 113.931C319.067 115.313 322.424 145.653 316.722 146.808C311.019 147.962 307.402 131.475 302.985 128.967C298.248 126.488 290.75 132.668 290.196 127.891C289.892 125.262 293.201 121.817 293.201 121.817Z" fill="url(#paint19_linear_15_99)"/>
<path d="M499.269 399.372C427.27 427.717 253.099 308.979 257.816 251.536C260.732 213.987 289.625 172.993 329.18 143.896C380.915 105.468 451.172 87.4812 505.612 122.799C569.753 164.411 577.635 260.279 554.692 328.107C543.006 362.648 523.3 390.072 499.269 399.372Z" fill="url(#paint20_linear_15_99)"/>
<path d="M306.689 205.125C291.79 246.389 444.67 351.314 503.826 343.357C563.251 335.574 583.278 184.29 495.602 134.686C415.822 89.438 331.059 137.457 306.689 205.125Z" fill="#DFE3FB"/>
<path d="M308.678 200.288C293.779 241.552 446.659 346.478 505.815 338.52C565.24 330.738 585.268 179.454 497.591 129.849C417.811 84.6014 333.223 132.351 308.678 200.288Z" fill="url(#paint21_linear_15_99)"/>
<path opacity="0.3" d="M499.269 399.372C427.27 427.717 253.099 308.979 257.816 251.536C260.732 213.987 289.624 172.993 329.18 143.896C327.242 145.702 277.276 190.256 276.983 223.763C276.609 257.984 339.884 294.439 407.566 334.135C475.073 374.101 502.927 378.386 526.041 366.959C544.106 358.001 556.288 320.335 560.813 304.507L554.867 327.838C543.006 362.648 523.3 390.072 499.269 399.372Z" fill="url(#paint22_linear_15_99)"/>
<path d="M431.861 395.849C407.627 388.934 373.298 372.79 352.546 359.327C315.894 335.549 292.011 313.928 281.034 298.383C273.78 288.315 272.076 280.317 275.857 276.26C278.319 273.645 286.9 275.766 299.887 281.128C337.152 296.879 407.368 339.751 440.888 369.539C443.773 372.176 446.387 374.638 448.733 376.926C449.097 377.545 449.636 377.894 450 378.514C450.27 378.689 450.27 378.688 450.27 378.688C455.689 384.502 459.046 389.36 459.359 393.01C459.548 393.899 459.468 394.612 459.213 395.596C457.763 400.782 446.706 400.118 431.861 395.849Z" fill="url(#paint23_linear_15_99)"/>
<path opacity="0.5" d="M431.861 395.849C426.049 387.1 388.292 331.971 340.574 314.033C288.384 294.727 281.034 298.383 281.034 298.383C273.78 288.315 272.076 280.317 275.857 276.26C278.319 273.645 286.9 275.766 299.887 281.128C337.152 296.879 407.368 339.751 440.888 369.539C444.137 372.795 447.56 375.782 450 378.514C450.27 378.689 450.27 378.688 450.27 378.688C455.689 384.502 459.046 389.36 459.359 393.01C459.548 393.899 459.468 394.612 459.213 395.596C457.763 400.782 446.706 400.118 431.861 395.849Z" fill="url(#paint24_linear_15_99)"/>
<path d="M448.733 376.926C434.689 379.685 388.37 359.592 364.654 344.206C322.073 316.581 300.571 293.059 299.887 281.128C340.197 298.088 419.671 347.35 448.733 376.926Z" fill="url(#paint25_linear_15_99)"/>
<path d="M479.935 235.571C479.125 249.214 511.684 273.4 526.559 265.818C535.591 261.339 542.689 216.163 521.442 205.825C500.37 195.218 480.387 228.971 479.935 235.571Z" fill="url(#paint26_linear_15_99)"/>
<path d="M419.201 195.787C407.072 202.087 365.977 179.256 371.178 167.696C379.768 149.144 409.649 130.236 427.924 145.156C446.199 160.075 425.043 192.685 419.201 195.787Z" fill="url(#paint27_linear_15_99)"/>
<path d="M410.656 217.814C410.656 217.814 416.708 224.421 437.19 237.709C457.673 250.997 470.106 254.851 470.106 254.851C470.106 254.851 453.345 261.209 431.246 246.872C409.147 232.535 410.656 217.814 410.656 217.814Z" fill="#07B5FE"/>
<path opacity="0.5" d="M351.448 242.97C343.872 249.925 355.794 269.914 400.583 295.907C454.884 327.306 472.928 323.694 472.331 318.712C471.938 315.776 449.837 315.607 412.836 278.2C388.56 253.644 359.643 235.65 351.448 242.97Z" fill="url(#paint28_linear_15_99)"/>
<path d="M530.901 149.927C526.603 148.288 547.026 185.278 549.772 183.997C552.074 182.809 542.716 154.145 530.901 149.927Z" fill="white"/>
<path opacity="0.2" d="M318.258 189.654C318.258 189.654 324.239 176.303 337.06 161.262C349.881 146.221 361.012 138.508 362.833 141.604C364.479 144.969 353.624 160.52 344.926 177.47C337.961 190.566 332.869 203.728 332.869 203.728C332.869 203.728 314.825 207.34 318.258 189.654Z" fill="url(#paint29_linear_15_99)"/>
<path d="M308.707 121.075C308.707 121.075 318.369 132.972 304.498 148.748C304.498 148.748 236.552 161.58 228.86 196.905C222.332 226.53 306.663 238.23 306.663 238.23L306.354 248.596C306.354 248.596 234.242 239.828 216.142 216.429C216.142 216.429 214.313 194.909 245.141 167.391C275.969 139.874 308.707 121.075 308.707 121.075Z" fill="url(#paint30_linear_15_99)"/>
<path d="M297.364 232.527C287.362 238.412 300.091 252.312 312.131 257.888C326.006 264.056 352.85 266.647 355.961 251.785C359.378 237.022 320.702 218.795 297.364 232.527Z" fill="url(#paint31_linear_15_99)"/>
<path d="M298.093 234.451C296.998 236.798 347.548 253.795 351.732 245.018C355.512 236.449 306.974 217.401 298.093 234.451Z" fill="url(#paint32_linear_15_99)"/>
<path d="M304.998 126.291C304.998 126.291 266.706 148.698 267.75 151.736C268.489 154.675 305.44 130.148 304.998 126.291Z" fill="url(#paint33_linear_15_99)"/>
<path d="M342.744 530.265C318.042 557.127 277.709 559.681 238.901 534.504C204.943 512.474 184.594 481.274 195.056 448.62C205.518 415.966 241.877 366.414 272.48 341.082C277.244 337.28 281.834 333.747 286.787 330.834C291.296 328.016 295.9 325.641 300.598 323.711C325.059 313.158 350.984 312.745 371.466 326.033C392.757 339.845 403.332 358.96 406.084 379.508C407.358 388.759 406.855 398.389 405.099 407.589C402.913 418.042 399.933 429.128 396.144 439.69L395.969 439.959C384.093 473.611 364.81 506.287 342.744 530.265Z" fill="url(#paint34_linear_15_99)"/>
<path d="M214.586 421.466C246.647 384.443 297.36 378.284 331.2 405.216C367.83 434.341 364.724 485.17 343.379 516.891C322.034 548.612 282.502 558.195 240.729 531.095C198.956 503.995 184.369 456.239 214.586 421.466Z" fill="url(#paint35_linear_15_99)"/>
<path d="M212.852 425.319C244.913 388.296 295.626 382.137 329.641 408.8C366.271 437.925 363.164 488.754 341.819 520.475C320.474 552.196 280.942 561.779 239.17 534.679C196.952 507.673 182.81 459.822 212.852 425.319Z" fill="url(#paint36_radial_15_99)"/>
<path opacity="0.5" d="M406.084 379.508C389.337 387.025 338.895 365.023 314.058 345.463C292.549 328.445 300.074 324.52 300.598 323.711C325.059 313.158 350.984 312.745 371.466 326.033C392.757 339.845 403.332 358.96 406.084 379.508Z" fill="url(#paint37_linear_15_99)"/>
<path d="M375.132 391.212C372.452 390.622 361.437 407.6 361.844 411.694C362.252 415.788 366.28 417.252 370.25 414.084C374.045 411.185 379.065 392.232 375.132 391.212Z" fill="white"/>
<path d="M362.914 418.898C360.678 418.213 358.056 422.256 357.815 424.397C357.575 426.539 360.889 427.923 362.477 426.656C364.24 425.119 364.976 419.853 362.914 418.898Z" fill="white"/>
<path opacity="0.72" d="M243.382 408.364C243.221 423.959 275.365 436.388 305.068 460.254C334.771 484.119 333.787 498.032 341.923 500.247C350.059 502.462 370.67 447.671 324.797 413.316C279.193 379.135 243.513 404.62 243.382 408.364Z" fill="url(#paint38_linear_15_99)"/>
<path fill-rule="evenodd" clip-rule="evenodd" d="M299.707 440.946L299.695 440.932L299.692 440.928L299.691 440.928L299.691 440.927C294.405 434.79 289.118 428.652 283.833 422.514L283.837 422.512C283.786 422.512 283.734 422.513 283.68 422.514L283.751 422.473C280.737 420.487 276.858 420.363 273.718 422.158L273.72 422.162L249.691 435.87C247.795 436.953 246.637 438.979 246.665 441.157L247.01 489.385C258.388 482.292 265.066 469.608 264.472 456.214C263.94 444.293 263.621 436.535 263.628 435.672C263.63 435.43 263.637 434.746 264.049 434.085C264.425 433.489 264.928 433.202 265.154 433.086C266.18 432.5 267.206 431.914 268.233 431.328L313.236 456.655C308.727 451.419 304.217 446.183 299.707 440.946ZM309.51 502.541C301.962 504.144 294.412 505.746 286.863 507.349C279.709 508.867 272.555 510.386 265.402 511.904C272.932 507.228 280.462 502.553 287.992 497.878C295.102 493.464 302.212 489.05 309.321 484.635L309.271 481.079C309.281 480.826 309.271 480.246 308.931 479.632C308.556 478.954 307.96 478.62 307.747 478.502C306.992 478.079 300.048 474.628 289.35 469.364C277.333 463.452 269.447 451.499 268.734 438.114L311.139 460.996C313.063 462.019 314.279 464.008 314.309 466.19L314.707 493.846L314.704 493.842C314.755 497.455 312.775 500.797 309.577 502.484L309.577 502.416C309.554 502.459 309.532 502.501 309.51 502.541ZM227.283 483.702C229.805 476.619 232.327 469.537 234.85 462.455C237.373 455.371 239.896 448.286 242.419 441.201L242.647 492.878L245.702 494.687C245.907 494.825 246.407 495.122 247.11 495.152C247.879 495.188 248.477 494.855 248.69 494.736L248.694 494.734C249.446 494.311 256.025 490.183 266.117 483.808C277.451 476.645 291.765 476.153 303.547 482.527L261.83 506.758C259.948 507.862 257.621 507.859 255.745 506.75L231.973 492.667L231.979 492.668C228.876 490.826 227.067 487.396 227.302 483.788L227.359 483.822C227.335 483.781 227.311 483.741 227.289 483.703L227.283 483.702Z" fill="url(#paint39_radial_15_99)"/>
<path d="M283.455 419.587C293.255 430.969 303.059 442.349 312.858 453.727L266.774 427.793C269.56 425.542 274.179 424.398 276.965 422.147C277.477 421.67 278.187 421.114 279.112 420.639C280.865 419.739 282.501 419.592 283.458 419.584L283.455 419.587Z" fill="white"/>
<path d="M273.342 419.234L249.312 432.943C247.416 434.026 246.258 436.051 246.286 438.229L246.631 486.458C258.01 479.365 264.688 466.681 264.093 453.287C263.561 441.366 263.242 433.608 263.25 432.745C263.251 432.502 263.259 431.819 263.671 431.158C264.046 430.561 264.55 430.275 264.775 430.158C270.973 426.62 277.174 423.085 283.372 419.546C280.358 417.56 276.479 417.436 273.34 419.231L273.342 419.234Z" fill="white"/>
<path d="M309.132 499.614C294.431 502.735 279.725 505.856 265.024 508.977C280.017 499.666 295.012 490.359 310.005 481.048C310.629 484.573 309.399 489.168 310.023 492.692C310.191 493.368 310.335 494.259 310.306 495.3C310.247 497.266 309.584 498.779 309.132 499.614Z" fill="white"/>
<path d="M314.328 490.919L313.93 463.263C313.9 461.081 312.685 459.092 310.76 458.069L268.356 435.186C269.069 448.572 276.954 460.524 288.971 466.437C299.669 471.701 306.614 475.151 307.369 475.575C307.582 475.693 308.177 476.026 308.553 476.705C308.893 477.318 308.903 477.898 308.892 478.152C308.993 485.285 309.097 492.423 309.199 499.557C312.396 497.87 314.377 494.528 314.326 490.915L314.328 490.919Z" fill="white"/>
<path d="M226.905 480.774C231.949 466.606 236.996 452.442 242.04 438.274L242.274 491.205C238.944 489.902 235.673 486.453 232.34 485.146C231.675 484.938 230.842 484.595 229.971 484.028C228.327 482.952 227.389 481.6 226.911 480.776L226.905 480.774Z" fill="white"/>
<path d="M231.595 489.739L255.367 503.822C257.243 504.932 259.57 504.935 261.451 503.831L303.169 479.6C291.386 473.226 277.073 473.718 265.738 480.881C255.646 487.256 249.068 491.384 248.315 491.807C248.106 491.923 247.505 492.261 246.732 492.224C246.029 492.195 245.529 491.898 245.323 491.76C239.19 488.127 233.057 484.494 226.923 480.86C226.689 484.468 228.497 487.898 231.601 489.741L231.595 489.739Z" fill="white"/>
<path d="M221.693 355.617C218.889 352.266 202.739 364.765 201.785 366.826C200.656 369.157 211.589 367.06 214.685 365.239C218.939 363.404 224.498 358.968 221.693 355.617Z" fill="white"/>
<defs>
<linearGradient id="paint0_linear_15_99" x1="598.531" y1="370.436" x2="407.15" y2="443.702" gradientUnits="userSpaceOnUse">
<stop stop-color="#C1D7F7"/>
<stop offset="1" stop-color="#E8DCF7"/>
</linearGradient>
<linearGradient id="paint1_linear_15_99" x1="598.521" y1="383.825" x2="480.371" y2="412.823" gradientUnits="userSpaceOnUse">
<stop stop-color="#68A2C2"/>
<stop offset="1" stop-color="#CCEDFF"/>
</linearGradient>
<linearGradient id="paint2_linear_15_99" x1="434.891" y1="410.594" x2="434.348" y2="391.457" gradientUnits="userSpaceOnUse">
<stop stop-color="#799FEA"/>
<stop offset="1" stop-color="#8CBFEF"/>
</linearGradient>
<linearGradient id="paint3_linear_15_99" x1="162.614" y1="468.383" x2="292.487" y2="314.329" gradientUnits="userSpaceOnUse">
<stop stop-color="#C1DAF7"/>
<stop offset="1" stop-color="#E8DCF7"/>
</linearGradient>
<linearGradient id="paint4_linear_15_99" x1="275.753" y1="354.866" x2="260.302" y2="342.771" gradientUnits="userSpaceOnUse">
<stop stop-color="#798BEA"/>
<stop offset="1" stop-color="#8CAEEF"/>
</linearGradient>
<linearGradient id="paint5_linear_15_99" x1="163.711" y1="474.668" x2="242.561" y2="353.127" gradientUnits="userSpaceOnUse">
<stop stop-color="#68A2C2"/>
<stop offset="1" stop-color="#CCEDFF"/>
</linearGradient>
<linearGradient id="paint6_linear_15_99" x1="232.222" y1="638.191" x2="318.922" y2="521.182" gradientUnits="userSpaceOnUse">
<stop stop-color="#C1E0F7"/>
<stop offset="1" stop-color="#E8DCF7"/>
</linearGradient>
<linearGradient id="paint7_linear_15_99" x1="286.931" y1="568.584" x2="313.252" y2="521.831" gradientUnits="userSpaceOnUse">
<stop stop-color="#9DCAEA"/>
<stop offset="1" stop-color="#8CDDEF"/>
</linearGradient>
<linearGradient id="paint8_linear_15_99" x1="245.876" y1="641.959" x2="313.081" y2="522.585" gradientUnits="userSpaceOnUse">
<stop stop-color="#689CC2"/>
<stop offset="1" stop-color="#CCEDFF"/>
</linearGradient>
<linearGradient id="paint9_linear_15_99" x1="145.599" y1="581.995" x2="217.111" y2="455.132" gradientUnits="userSpaceOnUse">
<stop stop-color="#C1DAF7"/>
<stop offset="1" stop-color="#E8DCF7"/>
</linearGradient>
<linearGradient id="paint10_linear_15_99" x1="186.864" y1="503.665" x2="218.81" y2="460.6" gradientUnits="userSpaceOnUse">
<stop stop-color="#9DCAEA"/>
<stop offset="1" stop-color="#8CA2EF"/>
</linearGradient>
<linearGradient id="paint11_linear_15_99" x1="136.593" y1="571.062" x2="218.21" y2="461.038" gradientUnits="userSpaceOnUse">
<stop stop-color="#6887C2"/>
<stop offset="1" stop-color="#CCEDFF"/>
</linearGradient>
<linearGradient id="paint12_linear_15_99" x1="521.774" y1="330.934" x2="596.966" y2="248.747" gradientUnits="userSpaceOnUse">
<stop stop-color="#ACC4F4"/>
<stop offset="1" stop-color="#D1DBF5"/>
</linearGradient>
<linearGradient id="paint13_linear_15_99" x1="562.39" y1="299.932" x2="603.266" y2="255.254" gradientUnits="userSpaceOnUse">
<stop stop-color="#9DC0EA"/>
<stop offset="1" stop-color="#8CAEEF"/>
</linearGradient>
<linearGradient id="paint14_linear_15_99" x1="535.577" y1="351.541" x2="609.456" y2="270.789" gradientUnits="userSpaceOnUse">
<stop stop-color="#E5FF45"/>
<stop offset="1" stop-color="#00BBFF"/>
</linearGradient>
<linearGradient id="paint15_linear_15_99" x1="580.142" y1="279.193" x2="594.87" y2="303.565" gradientUnits="userSpaceOnUse">
<stop/>
<stop offset="1" stop-color="#07B5FE" stop-opacity="0"/>
</linearGradient>
<linearGradient id="paint16_linear_15_99" x1="310.186" y1="206.457" x2="331.998" y2="97.2197" gradientUnits="userSpaceOnUse">
<stop stop-color="#ACC4F4"/>
<stop offset="1" stop-color="#D1DBF5"/>
</linearGradient>
<linearGradient id="paint17_linear_15_99" x1="311.168" y1="155.37" x2="323.025" y2="95.987" gradientUnits="userSpaceOnUse">
<stop stop-color="#9DC0EA"/>
<stop offset="1" stop-color="#8CAEEF"/>
</linearGradient>
<linearGradient id="paint18_linear_15_99" x1="285.406" y1="207.511" x2="306.836" y2="100.182" gradientUnits="userSpaceOnUse">
<stop stop-color="#E5FF45"/>
<stop offset="1" stop-color="#00BBFF"/>
</linearGradient>
<linearGradient id="paint19_linear_15_99" x1="317.394" y1="128.791" x2="289.031" y2="131.326" gradientUnits="userSpaceOnUse">
<stop/>
<stop offset="1" stop-color="#07B5FE" stop-opacity="0"/>
</linearGradient>
<linearGradient id="paint20_linear_15_99" x1="343.66" y1="356.914" x2="526.834" y2="139.635" gradientUnits="userSpaceOnUse">
<stop stop-color="#C1E4F7"/>
<stop offset="1" stop-color="#E8DCF7"/>
</linearGradient>
<linearGradient id="paint21_linear_15_99" x1="395.425" y1="298.354" x2="502.807" y2="132.833" gradientUnits="userSpaceOnUse">
<stop stop-color="#05B6FE"/>
<stop offset="1" stop-color="#001687"/>
</linearGradient>
<linearGradient id="paint22_linear_15_99" x1="355.587" y1="361.544" x2="447.06" y2="220.546" gradientUnits="userSpaceOnUse">
<stop stop-color="#6897C2"/>
<stop offset="1" stop-color="#CCEDFF"/>
</linearGradient>
<linearGradient id="paint23_linear_15_99" x1="272.445" y1="281.567" x2="456.184" y2="400.768" gradientUnits="userSpaceOnUse">
<stop stop-color="#7999EA"/>
<stop offset="1" stop-color="#8C9CEF"/>
</linearGradient>
<linearGradient id="paint24_linear_15_99" x1="359.001" y1="349.357" x2="376.183" y2="322.872" gradientUnits="userSpaceOnUse">
<stop stop-color="#8DC0E5"/>
<stop offset="1" stop-color="#5C99BB"/>
</linearGradient>
<linearGradient id="paint25_linear_15_99" x1="360.701" y1="345.126" x2="381.962" y2="319.906" gradientUnits="userSpaceOnUse">
<stop stop-color="#3657CC"/>
<stop offset="1" stop-color="#4A5696"/>
</linearGradient>
<linearGradient id="paint26_linear_15_99" x1="497.509" y1="258.57" x2="528.794" y2="210.346" gradientUnits="userSpaceOnUse">
<stop stop-color="#E5FF45"/>
<stop offset="1" stop-color="#00BBFF"/>
</linearGradient>
<linearGradient id="paint27_linear_15_99" x1="390.675" y1="189.671" x2="422.148" y2="141.156" gradientUnits="userSpaceOnUse">
<stop stop-color="#E5FF45"/>
<stop offset="1" stop-color="#00BBFF"/>
</linearGradient>
<linearGradient id="paint28_linear_15_99" x1="348.81" y1="246.62" x2="469.141" y2="324.685" gradientUnits="userSpaceOnUse">
<stop/>
<stop offset="1" stop-color="#07B5FE"/>
</linearGradient>
<linearGradient id="paint29_linear_15_99" x1="320.926" y1="201.379" x2="364.853" y2="142.863" gradientUnits="userSpaceOnUse">
<stop/>
<stop offset="1" stop-color="#07B5FE"/>
</linearGradient>
<linearGradient id="paint30_linear_15_99" x1="255.991" y1="240.179" x2="311.15" y2="122.176" gradientUnits="userSpaceOnUse">
<stop stop-color="#9DB7EA"/>
<stop offset="1" stop-color="#8CBAEF"/>
</linearGradient>
<linearGradient id="paint31_linear_15_99" x1="315.734" y1="260.275" x2="334.577" y2="229.094" gradientUnits="userSpaceOnUse">
<stop stop-color="#DDD51A"/>
<stop offset="1" stop-color="#FED811"/>
</linearGradient>
<linearGradient id="paint32_linear_15_99" x1="323.296" y1="244.178" x2="328.049" y2="229.458" gradientUnits="userSpaceOnUse">
<stop stop-color="#E3AB3D"/>
<stop offset="1" stop-color="#FFF96D"/>
</linearGradient>
<linearGradient id="paint33_linear_15_99" x1="280.39" y1="156.263" x2="292.07" y2="122.033" gradientUnits="userSpaceOnUse">
<stop stop-color="#C1E4F7"/>
<stop offset="1" stop-color="#E8DCF7"/>
</linearGradient>
<linearGradient id="paint34_linear_15_99" x1="228.265" y1="527.31" x2="387.397" y2="338.55" gradientUnits="userSpaceOnUse">
<stop stop-color="#C1E0F7"/>
<stop offset="1" stop-color="#DEDCF7"/>
</linearGradient>
<linearGradient id="paint35_linear_15_99" x1="239.125" y1="530.078" x2="323.605" y2="399.859" gradientUnits="userSpaceOnUse">
<stop stop-color="#9DD8EA"/>
<stop offset="1" stop-color="#8CCBEF"/>
</linearGradient>
<radialGradient id="paint36_radial_15_99" cx="0" cy="0" r="1" gradientUnits="userSpaceOnUse" gradientTransform="translate(252.661 514.93) rotate(32.9735) scale(118.448 118.448)">
<stop stop-color="#E5FF45"/>
<stop offset="1" stop-color="#00BBFF"/>
</radialGradient>
<linearGradient id="paint37_linear_15_99" x1="344.073" y1="365.528" x2="370.222" y2="325.222" gradientUnits="userSpaceOnUse">
<stop stop-color="#8DA4E5"/>
<stop offset="1" stop-color="#5C71BB"/>
</linearGradient>
<linearGradient id="paint38_linear_15_99" x1="247.794" y1="401.296" x2="361.031" y2="474.759" gradientUnits="userSpaceOnUse">
<stop stop-color="#00488A"/>
<stop offset="1" stop-color="#9FAEFF" stop-opacity="0"/>
</linearGradient>
<radialGradient id="paint39_radial_15_99" cx="0" cy="0" r="1" gradientUnits="userSpaceOnUse" gradientTransform="translate(262.463 496.454) rotate(-6.69257) scale(55.3957 70.4613)">
<stop stop-color="#E5FF45"/>
<stop offset="1" stop-color="#00BBFF"/>
</radialGradient>
</defs>
</svg>
