<svg width="48" height="48" viewBox="0 0 48 48" fill="none" xmlns="http://www.w3.org/2000/svg">
<path d="M36 0H12C5.37258 0 0 5.37258 0 12V36C0 42.6274 5.37258 48 12 48H36C42.6274 48 48 42.6274 48 36V12C48 5.37258 42.6274 0 36 0Z" fill="#5865F2"/>
<path fill-rule="evenodd" clip-rule="evenodd" d="M30.9308 17.6436C29.6561 17.0587 28.2892 16.6277 26.8599 16.3809C26.8339 16.3762 26.8079 16.3881 26.7945 16.4119C26.6187 16.7245 26.4239 17.1325 26.2876 17.4531C24.7503 17.2229 23.221 17.2229 21.7153 17.4531C21.5789 17.1253 21.3771 16.7245 21.2005 16.4119C21.1871 16.3889 21.1611 16.3769 21.135 16.3809C19.7066 16.6269 18.3396 17.0579 17.0641 17.6436C17.0531 17.6483 17.0436 17.6563 17.0373 17.6666C14.4445 21.5402 13.7342 25.3186 14.0827 29.0502C14.0842 29.0685 14.0945 29.0859 14.1087 29.097C15.8193 30.3533 17.4764 31.116 19.1027 31.6215C19.1288 31.6294 19.1563 31.6199 19.1729 31.5985C19.5576 31.0731 19.9005 30.5192 20.1946 29.9367C20.2119 29.9025 20.1954 29.8621 20.1599 29.8486C19.6159 29.6422 19.098 29.3907 18.5998 29.105C18.5604 29.082 18.5572 29.0256 18.5935 28.9986C18.6983 28.92 18.8032 28.8383 18.9033 28.7558C18.9214 28.7407 18.9466 28.7375 18.9679 28.747C22.2411 30.2414 25.7846 30.2414 29.0191 28.747C29.0404 28.7367 29.0657 28.7399 29.0846 28.755C29.1847 28.8375 29.2895 28.92 29.3952 28.9986C29.4314 29.0256 29.4291 29.082 29.3897 29.105C28.8914 29.3962 28.3735 29.6422 27.8288 29.8478C27.7933 29.8613 27.7775 29.9025 27.7949 29.9367C28.0952 30.5184 28.4381 31.0723 28.8157 31.5977C28.8315 31.6199 28.8599 31.6294 28.8859 31.6215C30.5201 31.116 32.1772 30.3533 33.8879 29.097C33.9028 29.0859 33.9123 29.0693 33.9139 29.051C34.3309 24.7369 33.2154 20.9894 30.9568 17.6674C30.9513 17.6563 30.9419 17.6483 30.9308 17.6436ZM20.6834 26.7781C19.6979 26.7781 18.8859 25.8734 18.8859 24.7623C18.8859 23.6512 19.6822 22.7465 20.6834 22.7465C21.6924 22.7465 22.4965 23.6592 22.4807 24.7623C22.4807 25.8734 21.6845 26.7781 20.6834 26.7781ZM25.5316 24.7623C25.5316 25.8734 26.3435 26.7781 27.329 26.7781C28.338 26.7781 29.1264 25.8734 29.1264 24.7623C29.1421 23.6592 28.338 22.7465 27.329 22.7465C26.3278 22.7465 25.5316 23.6512 25.5316 24.7623Z" fill="white"/>
</svg>
