<svg width="48" height="48" viewBox="0 0 48 48" fill="none" xmlns="http://www.w3.org/2000/svg">
<path d="M36 0H12C5.37258 0 0 5.37258 0 12V36C0 42.6274 5.37258 48 12 48H36C42.6274 48 48 42.6274 48 36V12C48 5.37258 42.6274 0 36 0Z" fill="url(#paint0_radial_1_841)"/>
<path d="M19.877 33.94C19.0477 33.9229 18.2272 33.766 17.45 33.476C16.7827 33.2249 16.1782 32.8311 15.679 32.322C15.1697 31.8226 14.7758 31.2178 14.525 30.55C14.2351 29.7728 14.0779 28.9523 14.06 28.123C14.012 27.052 14 26.7 14 24C14 21.3 14.012 20.948 14.06 19.877C14.0782 19.0477 14.2354 18.2273 14.525 17.45C14.7761 16.7827 15.1699 16.1782 15.679 15.679C16.1782 15.1699 16.7827 14.7761 17.45 14.525C18.2273 14.2354 19.0477 14.0782 19.877 14.06C20.948 14.012 21.3 14 24 14C26.7 14 27.052 14.012 28.123 14.06C28.9523 14.0779 29.7728 14.2351 30.55 14.525C31.2174 14.7759 31.8219 15.1698 32.321 15.679C32.8301 16.1782 33.2239 16.7827 33.475 17.45C33.765 18.2272 33.9219 19.0477 33.939 19.877C33.988 20.948 34 21.3 34 24C34 26.7 33.988 27.052 33.94 28.123C33.923 28.9523 33.7662 29.7729 33.476 30.55C33.2188 31.2143 32.8258 31.8175 32.3222 32.3212C31.8185 32.8248 31.2153 33.2178 30.551 33.475C29.7739 33.7652 28.9533 33.922 28.124 33.939C27.052 33.988 26.7 34 24 34C21.3 34 20.948 33.988 19.877 33.94ZM19.959 15.86C19.3244 15.866 18.6956 15.981 18.1 16.2C17.6658 16.3605 17.2731 16.6165 16.951 16.949C16.6175 17.2715 16.3608 17.6649 16.2 18.1C15.981 18.6956 15.866 19.3244 15.86 19.959C15.812 21.007 15.8 21.322 15.8 24C15.8 26.678 15.81 26.993 15.859 28.041C15.865 28.6757 15.9804 29.3045 16.2 29.9C16.3606 30.3345 16.6166 30.7274 16.949 31.05C17.2717 31.3829 17.6651 31.6392 18.1 31.8C18.6947 32.0201 19.3229 32.1365 19.957 32.144C21.005 32.193 21.32 32.203 23.998 32.203C26.676 32.203 26.992 32.193 28.039 32.144C28.6745 32.1373 29.3041 32.0209 29.9 31.8C30.332 31.6338 30.7243 31.3789 31.0516 31.0516C31.3789 30.7243 31.6338 30.332 31.8 29.9C32.0204 29.3053 32.1368 28.6772 32.144 28.043C32.193 26.995 32.203 26.68 32.203 24.002C32.203 21.324 32.193 21.009 32.144 19.961C32.1369 19.3255 32.0206 18.696 31.8 18.1C31.6395 17.666 31.384 17.2734 31.052 16.951C30.7291 16.6176 30.3354 16.3609 29.9 16.2C29.3053 15.9796 28.6772 15.8632 28.043 15.856C26.993 15.812 26.678 15.8 24 15.8C21.322 15.8 21.007 15.812 19.959 15.86ZM18.865 24C18.8648 22.9844 19.1658 21.9915 19.7299 21.1469C20.294 20.3023 21.0959 19.644 22.0342 19.2552C22.9725 18.8664 24.005 18.7645 25.0012 18.9625C25.9973 19.1606 26.9124 19.6496 27.6306 20.3677C28.3489 21.0858 28.838 22.0007 29.0363 22.9968C29.2345 23.993 29.1328 25.0255 28.7442 25.9638C28.3556 26.9022 27.6974 27.7042 26.853 28.2685C26.0085 28.8328 25.0156 29.134 24 29.134C22.6389 29.1321 21.334 28.5907 20.3714 27.6283C19.4088 26.6659 18.8671 25.3611 18.865 24V24ZM20.665 24C20.6652 24.6591 20.8608 25.3033 21.2271 25.8512C21.5933 26.3992 22.1138 26.8262 22.7227 27.0784C23.3317 27.3306 24.0017 27.3965 24.6481 27.268C25.2945 27.1394 25.8883 26.8221 26.3544 26.3561C26.8205 25.8902 27.138 25.2965 27.2668 24.6501C27.3955 24.0037 27.3298 23.3337 27.0778 22.7247C26.8258 22.1157 26.3989 21.595 25.8511 21.2286C25.3032 20.8622 24.6591 20.6664 24 20.666C23.116 20.6668 22.2685 21.0183 21.6434 21.6434C21.0183 22.2685 20.6668 23.116 20.666 24H20.665ZM28.137 18.662C28.137 18.4247 28.2074 18.1927 28.3392 17.9953C28.4711 17.798 28.6585 17.6442 28.8778 17.5533C29.0971 17.4625 29.3383 17.4388 29.5711 17.4851C29.8039 17.5314 30.0177 17.6456 30.1855 17.8135C30.3534 17.9813 30.4676 18.1951 30.5139 18.4279C30.5602 18.6607 30.5365 18.9019 30.4457 19.1212C30.3548 19.3405 30.201 19.5279 30.0037 19.6598C29.8063 19.7916 29.5743 19.862 29.337 19.862C29.0189 19.8617 28.7139 19.7352 28.4891 19.5102C28.2643 19.2852 28.138 18.9801 28.138 18.662H28.137Z" fill="white"/>
<defs>
<radialGradient id="paint0_radial_1_841" cx="0" cy="0" r="1" gradientUnits="userSpaceOnUse" gradientTransform="translate(12.768 51.696) scale(47.568)">
<stop stop-color="#FFDD55"/>
<stop offset="0.1" stop-color="#FFDD55"/>
<stop offset="0.5" stop-color="#FF543E"/>
<stop offset="1" stop-color="#C837AB"/>
</radialGradient>
</defs>
</svg>
