<svg width="408" height="200" viewBox="0 0 408 200" fill="none" xmlns="http://www.w3.org/2000/svg">
<mask id="mask0_0_580" style="mask-type:alpha" maskUnits="userSpaceOnUse" x="0" y="0" width="408" height="200">
<rect width="408" height="200" rx="24" fill="#15161B"/>
</mask>
<g mask="url(#mask0_0_580)">
<rect width="408" height="200" rx="24" fill="#0E0F12"/>
<g filter="url(#filter0_f_0_580)">
<path d="M-97.0298 452.245C-136.062 524.32 -11.5937 611.408 57.5656 587.514C126.725 563.62 394.376 105.445 308.305 48.5787C245.439 7.08363 2.8465 267.638 -97.0298 452.245Z" fill="url(#paint0_linear_0_580)"/>
</g>
<g opacity="0.4" filter="url(#filter1_f_0_580)">
<path d="M-157.803 548.66C-201.743 616.693 -124.644 664.768 -67.4314 631.034C-10.2186 597.301 283.919 160.94 229.937 130.502C190.5 108.304 -45.3315 374.426 -157.803 548.66Z" fill="url(#paint1_linear_0_580)"/>
</g>
<path opacity="0.12" d="M-48.4626 646.326C-96.1168 711.3 -54.8612 729.855 -6.68804 688.676C41.4852 647.498 355.664 227.643 325.963 217.203C304.255 209.606 73.5386 479.941 -48.4626 646.326Z" fill="url(#paint2_linear_0_580)"/>
<g opacity="0.12" filter="url(#filter3_f_0_580)">
<path d="M-55.1229 584.31C-101.327 650.478 -46.0741 680.561 5.6291 642.29C57.3323 604.019 363.684 177.719 324.502 159.469C295.87 146.17 63.1567 414.86 -55.1229 584.31Z" fill="url(#paint3_linear_0_580)"/>
</g>
<g filter="url(#filter4_b_0_580)">
<path d="M449.5 68.5L-37 148V200H452.5L449.5 68.5Z" fill="url(#paint4_linear_0_580)"/>
</g>
<path d="M-37 148L449.5 68.5" stroke="#00BBFF" stroke-width="3" stroke-linecap="round" stroke-linejoin="round"/>
</g>
<defs>
<filter id="filter0_f_0_580" x="-293.443" y="-144.828" width="807.627" height="925.374" filterUnits="userSpaceOnUse" color-interpolation-filters="sRGB">
<feFlood flood-opacity="0" result="BackgroundImageFix"/>
<feBlend mode="normal" in="SourceGraphic" in2="BackgroundImageFix" result="shape"/>
<feGaussianBlur stdDeviation="94.5" result="effect1_foregroundBlur_0_580"/>
</filter>
<filter id="filter1_f_0_580" x="-175.78" y="124.198" width="417.299" height="522.887" filterUnits="userSpaceOnUse" color-interpolation-filters="sRGB">
<feFlood flood-opacity="0" result="BackgroundImageFix"/>
<feBlend mode="normal" in="SourceGraphic" in2="BackgroundImageFix" result="shape"/>
<feGaussianBlur stdDeviation="2.5" result="effect1_foregroundBlur_0_580"/>
</filter>
<filter id="filter3_f_0_580" x="-77.4355" y="153.993" width="410.388" height="510.157" filterUnits="userSpaceOnUse" color-interpolation-filters="sRGB">
<feFlood flood-opacity="0" result="BackgroundImageFix"/>
<feBlend mode="normal" in="SourceGraphic" in2="BackgroundImageFix" result="shape"/>
<feGaussianBlur stdDeviation="2.5" result="effect1_foregroundBlur_0_580"/>
</filter>
<filter id="filter4_b_0_580" x="-145.731" y="-40.2313" width="706.963" height="348.963" filterUnits="userSpaceOnUse" color-interpolation-filters="sRGB">
<feFlood flood-opacity="0" result="BackgroundImageFix"/>
<feGaussianBlur in="BackgroundImageFix" stdDeviation="54.3656"/>
<feComposite in2="SourceAlpha" operator="in" result="effect1_backgroundBlur_0_580"/>
<feBlend mode="normal" in="SourceGraphic" in2="effect1_backgroundBlur_0_580" result="shape"/>
</filter>
<linearGradient id="paint0_linear_0_580" x1="241.965" y1="31.612" x2="439.601" y2="449.147" gradientUnits="userSpaceOnUse">
<stop stop-color="#00BBFF"/>
<stop offset="1" stop-color="#05B6FE"/>
</linearGradient>
<linearGradient id="paint1_linear_0_580" x1="182.988" y1="129.506" x2="350.26" y2="369.353" gradientUnits="userSpaceOnUse">
<stop stop-color="#00BBFF"/>
<stop offset="1" stop-color="#05B6FE"/>
</linearGradient>
<linearGradient id="paint2_linear_0_580" x1="293.686" y1="228.291" x2="392.745" y2="335.248" gradientUnits="userSpaceOnUse">
<stop/>
<stop offset="1" stop-color="#6CD3FF"/>
</linearGradient>
<linearGradient id="paint3_linear_0_580" x1="286.495" y1="165.838" x2="417.026" y2="323.276" gradientUnits="userSpaceOnUse">
<stop/>
<stop offset="1" stop-color="#6CD3FF"/>
</linearGradient>
<linearGradient id="paint4_linear_0_580" x1="-37" y1="68.5" x2="-37" y2="213.216" gradientUnits="userSpaceOnUse">
<stop stop-color="#00BBFF" stop-opacity="0.4"/>
<stop offset="1" stop-color="#00BBFF" stop-opacity="0.01"/>
</linearGradient>
</defs>
</svg>
