<svg width="1304" height="481" viewBox="0 0 1304 481" fill="none" xmlns="http://www.w3.org/2000/svg">
<path d="M1128.98 209.136L1073.77 243.48C1073.77 243.48 1058.15 251.809 1040.97 253.78C1036.08 254.419 1031.06 254.528 1026.38 253.712C1026.38 253.712 1012.19 250.734 996.801 250.861C983.329 250.798 969.055 253.179 963.076 261.95C963.076 261.95 1010.26 288.57 1051.79 291.014C1055.22 291.295 1058.59 291.31 1061.89 291.061C1118.24 288.745 1133.89 237.145 1128.98 209.136Z" fill="url(#paint0_linear_0_4215)"/>
<path opacity="0.3" d="M1128.98 209.136L1073.77 243.474C1073.77 243.474 1058.15 251.802 1040.98 253.772L1034.82 258.374C1034.82 258.374 1076.39 249.572 1090.35 259.626C1107.73 272.21 1078.55 289.206 1051.79 290.999C1055.23 291.28 1058.59 291.296 1061.9 291.047C1118.24 288.73 1133.89 237.14 1128.98 209.136Z" fill="url(#paint1_linear_0_4215)"/>
<path d="M1089.33 271.89C1090.16 273.61 1082.19 277.77 1078.52 278.94C1074.85 280.11 1070.61 278.832 1069.89 277.968C1069.41 276.986 1087.55 268.206 1089.33 271.89Z" fill="white"/>
<path d="M961.097 258.242C961.097 258.242 997.404 239.713 1034.94 250.723C1034.94 250.723 1015.68 258.011 997.425 262.086C978.919 265.872 965.631 264.519 961.097 258.242Z" fill="url(#paint2_linear_0_4215)"/>
<path d="M795.681 336.396C794.31 335.505 793.316 334.534 791.864 333.266C770.618 313.94 751.158 268.802 788.291 230.532C789.934 228.999 791.199 227.546 793.07 226.162C793.891 225.396 794.564 224.858 794.713 224.629C794.861 224.401 794.861 224.401 794.861 224.401C826.846 197.084 880.163 183.95 880.163 183.95C881.807 194.442 873.04 205.97 863.185 215.166C858.258 219.765 853.399 223.757 849.132 226.835C843.667 230.759 839.697 233.379 839.697 233.379C821.499 245.93 809.17 268.467 809.17 268.467L795.885 334.578L795.681 336.396Z" fill="url(#paint3_linear_0_4215)"/>
<path d="M880.249 184.319C880.249 184.319 845.717 201.533 830.444 236.132C830.444 236.132 847.413 227.982 861.683 215.479C875.805 203.205 882.757 191.473 880.249 184.319Z" fill="url(#paint4_linear_0_4215)"/>
<path opacity="0.3" d="M796.113 334.726L792.092 333.415C770.846 314.089 751.387 268.952 788.519 230.683C790.162 229.15 791.427 227.698 793.298 226.314C789.421 230.294 773.233 252.273 775.828 266.308C779.079 284.342 816.071 252.805 836.661 226.537C843.125 218.063 847.158 220.358 849.357 226.986C843.893 230.91 839.923 233.53 839.923 233.53C821.726 246.081 809.398 268.618 809.398 268.618L796.113 334.726Z" fill="url(#paint5_linear_0_4215)"/>
<path d="M910.362 394.334C909.473 395.706 908.207 397.159 907.17 398.759C889.635 421.814 862.179 454.671 847.039 464.007C843.365 466.17 840.58 466.961 838.832 466.15C838.375 465.853 837.918 465.556 837.609 465.031C836.306 463.534 835.219 461.203 834.576 458.186C830.331 439.181 839.413 393.088 845.383 381.369C846.044 379.848 846.865 379.082 847.39 378.773C858.881 373.565 922.517 370.06 923.036 375.272C922.82 376.106 917.783 383.882 910.362 394.334Z" fill="url(#paint6_linear_0_4215)"/>
<path d="M845.163 381.216C841.799 383.904 895.829 403.732 922.955 374.891C922.955 374.891 921.103 371.738 915.873 370.29C901.164 365.933 868.865 362.171 845.163 381.216Z" fill="url(#paint7_linear_0_4215)"/>
<path opacity="0.3" d="M910.367 394.334C910.367 394.334 878.699 387.085 865.146 396.478C851.593 405.871 836.888 437.587 834.205 458.266C829.96 439.261 839.042 393.169 845.012 381.449C845.673 379.928 846.494 379.162 847.019 378.853C858.51 373.645 922.146 370.14 922.665 375.352C922.826 376.106 917.788 383.882 910.367 394.334Z" fill="url(#paint8_linear_0_4215)"/>
<path d="M844.428 436.97C846.188 438.764 843.127 447.498 839.335 446.335C835.543 445.171 840.599 432.858 844.428 436.97Z" fill="white"/>
<path d="M775.795 306.922C774.906 308.294 774.098 310.043 773.06 311.644C759.182 337.074 740.409 375.571 738.066 393.221C737.591 397.462 738.005 400.33 739.456 401.598C739.913 401.895 740.37 402.192 740.976 402.26C742.871 402.842 745.44 402.886 748.454 402.244C767.516 398.38 805.848 371.288 814.103 361.053C815.221 359.829 815.585 358.766 815.653 358.16C815.719 345.53 792.978 285.913 788.013 287.562C787.34 288.1 782.302 295.876 775.795 306.922Z" fill="url(#paint9_linear_0_4215)"/>
<path d="M814.336 361.192C813.256 365.365 773.153 324.041 788.398 287.482C788.398 287.482 791.115 287.297 794.567 291.489C804.615 303.54 821.896 331.987 814.336 361.192Z" fill="url(#paint10_linear_0_4215)"/>
<path opacity="0.3" d="M775.794 306.921C775.794 306.921 795.312 332.923 792.271 349.145C789.229 365.366 766.298 391.739 748.533 402.62C767.596 398.756 805.928 371.665 814.182 361.429C815.3 360.205 815.664 359.142 815.732 358.536C815.798 345.906 793.057 286.29 788.093 287.939C787.339 288.1 782.301 295.875 775.794 306.921Z" fill="url(#paint11_linear_0_4215)"/>
<path d="M775.408 371.664C773.055 370.785 754.488 389.92 757.094 392.914C759.929 396.055 780.719 373.489 775.408 371.664Z" fill="white"/>
<path d="M1102.7 120.176C1102.7 120.176 1127.11 125.587 1136.73 134.284C1146.35 142.982 1146.35 148.572 1137.39 170.348C1127.4 192.598 1084.07 208.037 1084.07 208.037L1102.7 120.176Z" fill="url(#paint12_linear_0_4215)"/>
<path d="M1139.62 138.192C1129.6 132.191 1115.03 140.053 1095.37 161.574L1107.78 178.967L1140.87 169.558C1140.87 169.558 1149.65 144.193 1139.62 138.192Z" fill="url(#paint13_linear_0_4215)"/>
<path d="M1099.92 157.439C1099.92 157.439 1130.93 137.88 1138.38 141.298C1145.82 144.715 1148.56 158.701 1132.31 187.79C1116.07 216.879 1088.35 217.721 1088.35 217.721L1099.92 157.439Z" fill="url(#paint14_linear_0_4215)"/>
<path d="M1123.37 130.019C1119.86 129.017 1117.67 131.815 1123.04 135.629C1128.42 139.443 1134.52 138.015 1134.65 136.659C1134.99 135.486 1127.27 131.004 1123.37 130.019Z" fill="white"/>
<path opacity="0.72" d="M1138.25 165.212C1138.25 165.212 1141.44 156.271 1135.58 150.256C1129.73 144.241 1107.31 157.168 1109.38 161.65C1111.45 166.133 1124.53 160.337 1128.46 162.102C1132.53 164.101 1132.06 172.335 1135.61 170.317C1137.56 169.206 1138.25 165.212 1138.25 165.212Z" fill="url(#paint15_linear_0_4215)"/>
<path d="M935.42 20.6502C935.42 20.6502 916.633 4.13971 903.944 1.51853C891.255 -1.10266 886.753 2.20289 874.512 22.3157C862.503 43.5472 875.683 87.6673 875.683 87.6673L935.42 20.6502Z" fill="url(#paint16_linear_0_4215)"/>
<path d="M899.085 1.50057C909.844 6.04598 912.122 22.4565 906.416 51.0647L885.074 51.3312L873.09 19.047C873.09 19.047 888.326 -3.04483 899.085 1.50057Z" fill="url(#paint17_linear_0_4215)"/>
<path d="M907.052 44.9411C907.052 44.9411 904.469 8.32875 897.316 4.33858C890.163 0.348407 877.286 6.41556 863.464 36.7374C849.642 67.0592 865.349 89.9391 865.349 89.9391L907.052 44.9411Z" fill="url(#paint18_linear_0_4215)"/>
<path d="M915.275 9.78781C918.16 12.0326 917.2 15.455 910.951 13.3717C904.702 11.2884 902.244 5.51445 903.258 4.60512C904.005 3.64241 912.177 7.22225 915.275 9.78781Z" fill="white"/>
<path opacity="0.72" d="M878.14 18.5883C878.14 18.5883 883.453 10.7223 891.759 11.895C900.065 13.0678 902.91 38.8172 898.077 39.7973C893.243 40.7773 890.177 26.785 886.433 24.6565C882.418 22.5523 876.062 27.7971 875.593 23.7434C875.335 21.5122 878.14 18.5883 878.14 18.5883Z" fill="url(#paint19_linear_0_4215)"/>
<path d="M1052.84 254.154C991.81 278.194 844.142 177.391 848.129 128.643C850.593 96.7771 875.076 61.9943 908.6 37.3091C952.447 4.70855 1012 -10.5411 1058.16 19.4427C1112.54 54.7701 1119.24 136.13 1099.8 193.688C1089.9 222.998 1073.21 246.267 1052.84 254.154Z" fill="url(#paint20_linear_0_4215)"/>
<path d="M889.554 89.2621C876.933 124.277 1006.55 213.351 1056.69 206.611C1107.06 200.019 1124.01 71.6398 1049.68 29.5256C982.038 -8.88988 910.198 31.8421 889.554 89.2621Z" fill="#DFE3FB"/>
<path d="M891.242 85.1571C878.621 120.172 1008.24 209.246 1058.38 202.506C1108.75 195.914 1125.69 67.5348 1051.36 25.4206C983.726 -12.9949 912.034 27.5084 891.242 85.1571Z" fill="url(#paint21_linear_0_4215)"/>
<path opacity="0.3" d="M1052.82 254.157C991.797 278.195 844.138 177.399 848.125 128.654C850.589 96.7905 875.07 62.0102 908.592 37.3268C906.95 38.8592 864.607 76.6564 864.365 105.09C864.055 134.13 917.698 165.078 975.076 198.778C1032.31 232.707 1055.92 236.35 1075.51 226.657C1090.82 219.059 1101.14 187.099 1104.97 173.669L1099.93 193.466C1089.89 223.003 1073.19 246.27 1052.82 254.157Z" fill="url(#paint22_linear_0_4215)"/>
<path d="M995.67 251.161C975.129 245.289 946.029 231.583 928.437 220.156C897.367 199.973 877.12 181.623 867.813 168.43C861.663 159.887 860.217 153.1 863.42 149.659C865.507 147.44 872.78 149.241 883.789 153.794C915.376 167.166 974.899 203.558 1003.32 228.839C1005.76 231.077 1007.98 233.167 1009.97 235.108C1010.27 235.634 1010.73 235.931 1011.04 236.456C1011.27 236.604 1011.27 236.604 1011.27 236.604C1015.86 241.538 1018.71 245.661 1018.98 248.758C1019.14 249.512 1019.07 250.118 1018.85 250.952C1017.62 255.352 1008.25 254.787 995.67 251.161Z" fill="url(#paint23_linear_0_4215)"/>
<path opacity="0.5" d="M995.668 251.157C990.74 243.733 958.727 196.95 918.28 181.721C874.042 165.329 867.813 168.429 867.813 168.429C861.663 159.886 860.217 153.1 863.42 149.658C865.507 147.44 872.78 149.241 883.788 153.793C915.376 167.165 974.897 203.556 1003.31 228.836C1006.07 231.6 1008.97 234.135 1011.04 236.453C1011.27 236.602 1011.27 236.602 1011.27 236.602C1015.86 241.535 1018.71 245.658 1018.97 248.755C1019.13 249.509 1019.07 250.114 1018.85 250.949C1017.62 255.349 1008.25 254.783 995.668 251.157Z" fill="url(#paint24_linear_0_4215)"/>
<path d="M1009.97 235.104C998.063 237.443 958.801 220.385 938.697 207.325C902.601 183.878 884.372 163.916 883.79 153.792C917.958 168.191 985.327 210.004 1009.97 235.104Z" fill="url(#paint25_linear_0_4215)"/>
<path d="M1036.42 115.123C1035.73 126.701 1063.34 147.233 1075.94 140.802C1083.6 137.003 1089.61 98.6657 1071.59 89.8881C1053.73 80.8818 1036.8 109.522 1036.42 115.123Z" fill="url(#paint26_linear_0_4215)"/>
<path d="M984.943 81.3665C974.663 86.7104 939.822 67.3257 944.229 57.5167C951.506 41.7742 976.832 25.7346 992.327 38.3998C1007.82 51.0649 989.895 78.7347 984.943 81.3665Z" fill="url(#paint27_linear_0_4215)"/>
<path d="M977.685 100.06C977.685 100.06 982.816 105.667 1000.18 116.946C1017.54 128.224 1028.08 131.497 1028.08 131.497C1028.08 131.497 1013.88 136.888 995.142 124.719C976.409 112.55 977.685 100.06 977.685 100.06Z" fill="#07B5FE"/>
<path opacity="0.5" d="M927.503 121.407C921.084 127.307 931.193 144.27 969.16 166.334C1015.19 192.987 1030.48 189.926 1029.98 185.698C1029.64 183.207 1010.91 183.059 979.542 151.312C958.961 130.471 934.448 115.198 927.503 121.407Z" fill="url(#paint28_linear_0_4215)"/>
<path d="M1079.61 42.444C1075.97 41.0521 1093.29 72.4458 1095.61 71.3586C1097.56 70.3517 1089.63 46.0262 1079.61 42.444Z" fill="white"/>
<path opacity="0.2" d="M899.371 76.1561C899.371 76.1561 904.439 64.8252 915.306 52.0618C926.173 39.2983 935.608 32.754 937.153 35.3821C938.549 38.2389 929.35 51.4357 921.978 65.82C916.076 76.9343 911.761 88.1048 911.761 88.1048C911.761 88.1048 896.464 91.1664 899.371 76.1561Z" fill="url(#paint29_linear_0_4215)"/>
<path d="M891.276 17.954C891.276 17.954 899.465 28.0505 887.707 41.4409C887.707 41.4409 830.114 52.336 823.592 82.3178C818.057 107.462 889.535 117.387 889.535 117.387L889.273 126.184C889.273 126.184 828.151 118.747 812.81 98.8892C812.81 98.8892 811.262 80.6245 837.394 57.2677C863.525 33.911 891.276 17.954 891.276 17.954Z" fill="url(#paint30_linear_0_4215)"/>
<path d="M881.661 112.548C873.182 117.544 883.97 129.34 894.176 134.072C905.936 139.306 928.69 141.504 931.328 128.889C934.225 116.359 901.444 100.891 881.661 112.548Z" fill="url(#paint31_linear_0_4215)"/>
<path d="M882.276 114.181C881.348 116.173 924.195 130.597 927.742 123.147C930.947 115.873 889.805 99.7085 882.276 114.181Z" fill="url(#paint32_linear_0_4215)"/>
<path d="M888.13 22.3828C888.13 22.3828 855.672 41.4023 856.557 43.9806C857.183 46.4751 888.505 25.6557 888.13 22.3828Z" fill="url(#paint33_linear_0_4215)"/>
<path d="M920.146 365.245C899.21 388.038 865.019 390.197 832.115 368.821C803.323 350.117 786.065 323.634 794.928 295.923C803.79 268.212 834.603 226.165 860.54 204.672C864.578 201.447 868.468 198.449 872.667 195.978C876.489 193.587 880.391 191.573 884.373 189.936C905.108 180.985 927.085 180.639 944.451 191.921C962.503 203.648 971.472 219.873 973.809 237.313C974.891 245.164 974.467 253.337 972.98 261.144C971.129 270.015 968.605 279.423 965.396 288.386L965.247 288.615C955.187 317.173 938.847 344.9 920.146 365.245Z" fill="url(#paint34_linear_0_4215)"/>
<path d="M811.479 272.888C838.649 241.475 881.637 236.259 910.329 259.123C941.386 283.847 938.763 326.983 920.676 353.899C902.589 380.814 869.08 388.939 833.663 365.931C798.247 342.924 785.872 302.392 811.479 272.888Z" fill="url(#paint35_linear_0_4215)"/>
<path d="M810.007 276.159C837.176 244.746 880.164 239.53 909.004 262.164C940.062 286.889 937.439 330.024 919.351 356.94C901.264 383.856 867.755 391.98 832.339 368.973C796.546 346.045 784.547 305.433 810.007 276.159Z" fill="url(#paint36_radial_0_4215)"/>
<path opacity="0.5" d="M973.819 237.296C959.626 243.67 916.866 224.99 895.809 208.387C877.574 193.942 883.952 190.613 884.396 189.927C905.127 180.977 927.101 180.632 944.465 191.912C962.514 203.637 971.482 219.859 973.819 237.296Z" fill="url(#paint37_linear_0_4215)"/>
<path d="M947.572 247.224C945.3 246.723 935.965 261.131 936.311 264.605C936.658 268.08 940.073 269.324 943.438 266.635C946.655 264.176 950.907 248.091 947.572 247.224Z" fill="white"/>
<path d="M937.221 270.722C935.325 270.14 933.103 273.57 932.899 275.388C932.696 277.205 935.506 278.381 936.852 277.305C938.346 276.002 938.969 271.532 937.221 270.722Z" fill="white"/>
<path opacity="0.72" d="M835.897 261.772C835.764 275.005 863.013 285.559 888.195 305.817C913.377 326.075 912.546 337.88 919.443 339.762C926.34 341.643 943.799 295.154 904.908 265.991C866.246 236.976 836.008 258.595 835.897 261.772Z" fill="url(#paint38_linear_0_4215)"/>
<path fill-rule="evenodd" clip-rule="evenodd" d="M883.622 289.43C879.138 284.216 874.653 279.003 870.169 273.789L870.172 273.787C870.13 273.787 870.088 273.787 870.043 273.788L870.104 273.754C867.549 272.068 864.261 271.963 861.599 273.486L861.601 273.489L841.233 285.124C839.626 286.043 838.644 287.762 838.668 289.61L838.96 330.542C848.605 324.522 854.265 313.757 853.762 302.39C853.311 292.272 853.04 285.688 853.047 284.956C853.048 284.75 853.054 284.17 853.404 283.609C853.722 283.103 854.149 282.859 854.34 282.761L856.947 281.27L895.092 302.763C891.273 298.323 887.453 293.883 883.633 289.442L883.622 289.43ZM891.931 341.707C885.54 343.066 879.148 344.424 872.756 345.783L872.756 345.783L872.755 345.783L872.755 345.783C866.684 347.073 860.613 348.363 854.544 349.654C860.903 345.7 867.263 341.746 873.623 337.793L873.651 337.775L873.68 337.758L873.708 337.74L873.75 337.714L873.796 337.685C879.789 333.96 885.783 330.234 891.776 326.508L891.733 323.492C891.741 323.277 891.733 322.785 891.445 322.265C891.127 321.689 890.622 321.406 890.441 321.306C889.801 320.946 883.915 318.018 874.846 313.55C864.66 308.532 857.976 298.388 857.372 287.028L893.316 306.448C894.947 307.316 895.978 309.005 896.003 310.856L896.34 334.328L896.339 334.325C896.382 337.391 894.703 340.227 891.993 341.659L891.992 341.593C891.971 341.633 891.951 341.671 891.931 341.707ZM828.647 307.695L828.651 307.684C830.79 301.673 832.928 295.661 835.066 289.649L835.259 333.509L837.844 335.042C838.018 335.159 838.442 335.41 839.037 335.436C839.689 335.466 840.196 335.184 840.376 335.083L840.38 335.081C841.017 334.722 846.594 331.219 855.148 325.809C864.756 319.729 876.888 319.312 886.876 324.721L851.514 345.286C849.919 346.223 847.947 346.221 846.357 345.279L826.206 333.327L826.212 333.328C823.581 331.764 822.048 328.853 822.247 325.791L822.303 325.825C822.282 325.789 822.261 325.754 822.242 325.72L822.237 325.719C824.373 319.71 826.51 313.703 828.647 307.695Z" fill="url(#paint39_radial_0_4215)"/>
<path d="M869.864 271.304C878.172 280.964 886.482 290.622 894.788 300.279L855.725 278.268C858.087 276.358 862.002 275.387 864.363 273.477C864.798 273.072 865.399 272.6 866.183 272.197C867.67 271.433 869.056 271.308 869.867 271.302L869.864 271.304Z" fill="white"/>
<path d="M861.293 271.005L840.924 282.639C839.317 283.558 838.336 285.277 838.359 287.126L838.652 328.057C848.297 322.037 853.957 311.272 853.454 299.905C853.003 289.787 852.732 283.204 852.738 282.471C852.74 282.265 852.746 281.685 853.095 281.124C853.414 280.618 853.841 280.375 854.031 280.276C859.285 277.273 864.541 274.273 869.795 271.269C867.241 269.584 863.952 269.478 861.291 271.001L861.293 271.005Z" fill="white"/>
<path d="M891.627 339.223C879.166 341.872 866.7 344.52 854.24 347.17C866.948 339.267 879.659 331.369 892.367 323.466C892.896 326.458 891.854 330.357 892.383 333.349C892.525 333.922 892.647 334.678 892.623 335.562C892.572 337.23 892.01 338.514 891.627 339.223Z" fill="white"/>
<path d="M896.036 331.844L895.699 308.372C895.673 306.521 894.643 304.832 893.012 303.964L857.067 284.544C857.672 295.904 864.356 306.048 874.542 311.066C883.61 315.534 889.497 318.462 890.137 318.822C890.317 318.922 890.822 319.205 891.141 319.781C891.429 320.301 891.437 320.793 891.428 321.008C891.514 327.063 891.602 333.12 891.688 339.175C894.399 337.743 896.078 334.907 896.034 331.841L896.036 331.844Z" fill="white"/>
<path d="M821.928 323.234C826.204 311.21 830.482 299.188 834.758 287.164L834.956 332.087C832.133 330.98 829.36 328.053 826.536 326.944C825.972 326.768 825.265 326.476 824.527 325.996C823.133 325.082 822.338 323.935 821.933 323.235L821.928 323.234Z" fill="white"/>
<path d="M825.906 330.842L846.056 342.794C847.647 343.736 849.619 343.739 851.214 342.801L886.575 322.237C876.588 316.827 864.455 317.245 854.848 323.324C846.293 328.734 840.717 332.238 840.079 332.597C839.902 332.696 839.393 332.982 838.737 332.951C838.141 332.926 837.717 332.674 837.543 332.557C832.344 329.474 827.145 326.39 821.946 323.307C821.748 326.369 823.281 329.28 825.911 330.844L825.906 330.842Z" fill="white"/>
<path d="M817.512 217.016C815.134 214.172 801.446 224.776 800.637 226.525C799.68 228.503 808.949 226.726 811.573 225.181C815.179 223.624 819.89 219.861 817.512 217.016Z" fill="white"/>
<defs>
<linearGradient id="paint0_linear_0_4215" x1="1136.92" y1="229.606" x2="974.689" y2="291.652" gradientUnits="userSpaceOnUse">
<stop stop-color="#C1D7F7"/>
<stop offset="1" stop-color="#E8DCF7"/>
</linearGradient>
<linearGradient id="paint1_linear_0_4215" x1="1136.92" y1="240.97" x2="1036.79" y2="265.538" gradientUnits="userSpaceOnUse">
<stop stop-color="#68A2C2"/>
<stop offset="1" stop-color="#CCEDFF"/>
</linearGradient>
<linearGradient id="paint2_linear_0_4215" x1="998.241" y1="263.666" x2="997.786" y2="247.441" gradientUnits="userSpaceOnUse">
<stop stop-color="#799FEA"/>
<stop offset="1" stop-color="#8CBFEF"/>
</linearGradient>
<linearGradient id="paint3_linear_0_4215" x1="767.44" y1="312.711" x2="877.67" y2="182.114" gradientUnits="userSpaceOnUse">
<stop stop-color="#C1DAF7"/>
<stop offset="1" stop-color="#E8DCF7"/>
</linearGradient>
<linearGradient id="paint4_linear_0_4215" x1="863.342" y1="216.378" x2="850.228" y2="206.125" gradientUnits="userSpaceOnUse">
<stop stop-color="#798BEA"/>
<stop offset="1" stop-color="#8CAEEF"/>
</linearGradient>
<linearGradient id="paint5_linear_0_4215" x1="768.372" y1="318.046" x2="835.319" y2="214.989" gradientUnits="userSpaceOnUse">
<stop stop-color="#68A2C2"/>
<stop offset="1" stop-color="#CCEDFF"/>
</linearGradient>
<linearGradient id="paint6_linear_0_4215" x1="826.438" y1="456.828" x2="900.037" y2="357.626" gradientUnits="userSpaceOnUse">
<stop stop-color="#C1E0F7"/>
<stop offset="1" stop-color="#E8DCF7"/>
</linearGradient>
<linearGradient id="paint7_linear_0_4215" x1="872.81" y1="397.755" x2="895.161" y2="358.111" gradientUnits="userSpaceOnUse">
<stop stop-color="#9DCAEA"/>
<stop offset="1" stop-color="#8CDDEF"/>
</linearGradient>
<linearGradient id="paint8_linear_0_4215" x1="838.02" y1="460.028" x2="895.092" y2="358.795" gradientUnits="userSpaceOnUse">
<stop stop-color="#689CC2"/>
<stop offset="1" stop-color="#CCEDFF"/>
</linearGradient>
<linearGradient id="paint9_linear_0_4215" x1="753.017" y1="409.136" x2="813.747" y2="301.552" gradientUnits="userSpaceOnUse">
<stop stop-color="#C1DAF7"/>
<stop offset="1" stop-color="#E8DCF7"/>
</linearGradient>
<linearGradient id="paint10_linear_0_4215" x1="787.992" y1="342.658" x2="815.108" y2="306.151" gradientUnits="userSpaceOnUse">
<stop stop-color="#9DCAEA"/>
<stop offset="1" stop-color="#8CA2EF"/>
</linearGradient>
<linearGradient id="paint11_linear_0_4215" x1="745.379" y1="399.855" x2="814.663" y2="306.575" gradientUnits="userSpaceOnUse">
<stop stop-color="#6887C2"/>
<stop offset="1" stop-color="#CCEDFF"/>
</linearGradient>
<linearGradient id="paint12_linear_0_4215" x1="1071.88" y1="196.057" x2="1135.7" y2="126.396" gradientUnits="userSpaceOnUse">
<stop stop-color="#ACC4F4"/>
<stop offset="1" stop-color="#D1DBF5"/>
</linearGradient>
<linearGradient id="paint13_linear_0_4215" x1="1106.31" y1="169.749" x2="1141" y2="131.88" gradientUnits="userSpaceOnUse">
<stop stop-color="#9DC0EA"/>
<stop offset="1" stop-color="#8CAEEF"/>
</linearGradient>
<linearGradient id="paint14_linear_0_4215" x1="1083.59" y1="213.548" x2="1146.29" y2="145.102" gradientUnits="userSpaceOnUse">
<stop stop-color="#E5FF45"/>
<stop offset="1" stop-color="#00BBFF"/>
</linearGradient>
<linearGradient id="paint15_linear_0_4215" x1="1121.35" y1="152.15" x2="1133.86" y2="172.826" gradientUnits="userSpaceOnUse">
<stop/>
<stop offset="1" stop-color="#07B5FE" stop-opacity="0"/>
</linearGradient>
<linearGradient id="paint16_linear_0_4215" x1="892.534" y1="90.422" x2="911.067" y2="-2.27918" gradientUnits="userSpaceOnUse">
<stop stop-color="#ACC4F4"/>
<stop offset="1" stop-color="#D1DBF5"/>
</linearGradient>
<linearGradient id="paint17_linear_0_4215" x1="893.365" y1="47.0648" x2="903.439" y2="-3.32936" gradientUnits="userSpaceOnUse">
<stop stop-color="#9DC0EA"/>
<stop offset="1" stop-color="#8CAEEF"/>
</linearGradient>
<linearGradient id="paint18_linear_0_4215" x1="871.526" y1="91.3167" x2="889.734" y2="0.234955" gradientUnits="userSpaceOnUse">
<stop stop-color="#E5FF45"/>
<stop offset="1" stop-color="#00BBFF"/>
</linearGradient>
<linearGradient id="paint19_linear_0_4215" x1="898.647" y1="24.507" x2="874.604" y2="26.6529" gradientUnits="userSpaceOnUse">
<stop/>
<stop offset="1" stop-color="#07B5FE" stop-opacity="0"/>
</linearGradient>
<linearGradient id="paint20_linear_0_4215" x1="920.92" y1="218.09" x2="1076.37" y2="33.9217" gradientUnits="userSpaceOnUse">
<stop stop-color="#C1E4F7"/>
<stop offset="1" stop-color="#E8DCF7"/>
</linearGradient>
<linearGradient id="paint21_linear_0_4215" x1="964.796" y1="168.397" x2="1055.96" y2="28.0664" gradientUnits="userSpaceOnUse">
<stop stop-color="#05B6FE"/>
<stop offset="1" stop-color="#001687"/>
</linearGradient>
<linearGradient id="paint22_linear_0_4215" x1="931.023" y1="222.026" x2="1008.68" y2="102.492" gradientUnits="userSpaceOnUse">
<stop stop-color="#6897C2"/>
<stop offset="1" stop-color="#CCEDFF"/>
</linearGradient>
<linearGradient id="paint23_linear_0_4215" x1="860.529" y1="154.16" x2="1016.41" y2="255.154" gradientUnits="userSpaceOnUse">
<stop stop-color="#7999EA"/>
<stop offset="1" stop-color="#8C9CEF"/>
</linearGradient>
<linearGradient id="paint24_linear_0_4215" x1="933.905" y1="211.695" x2="948.489" y2="189.245" gradientUnits="userSpaceOnUse">
<stop stop-color="#8DC0E5"/>
<stop offset="1" stop-color="#5C99BB"/>
</linearGradient>
<linearGradient id="paint25_linear_0_4215" x1="935.346" y1="208.105" x2="953.386" y2="186.732" gradientUnits="userSpaceOnUse">
<stop stop-color="#3657CC"/>
<stop offset="1" stop-color="#4A5696"/>
</linearGradient>
<linearGradient id="paint26_linear_0_4215" x1="1051.32" y1="134.644" x2="1077.88" y2="93.7588" gradientUnits="userSpaceOnUse">
<stop stop-color="#E5FF45"/>
<stop offset="1" stop-color="#00BBFF"/>
</linearGradient>
<linearGradient id="paint27_linear_0_4215" x1="960.761" y1="76.1695" x2="987.481" y2="35.0376" gradientUnits="userSpaceOnUse">
<stop stop-color="#E5FF45"/>
<stop offset="1" stop-color="#00BBFF"/>
</linearGradient>
<linearGradient id="paint28_linear_0_4215" x1="925.269" y1="124.503" x2="1027.35" y2="190.644" gradientUnits="userSpaceOnUse">
<stop/>
<stop offset="1" stop-color="#07B5FE"/>
</linearGradient>
<linearGradient id="paint29_linear_0_4215" x1="901.635" y1="86.1081" x2="938.925" y2="36.4963" gradientUnits="userSpaceOnUse">
<stop/>
<stop offset="1" stop-color="#07B5FE"/>
</linearGradient>
<linearGradient id="paint30_linear_0_4215" x1="846.585" y1="119.044" x2="893.438" y2="18.931" gradientUnits="userSpaceOnUse">
<stop stop-color="#9DB7EA"/>
<stop offset="1" stop-color="#8CBAEF"/>
</linearGradient>
<linearGradient id="paint31_linear_0_4215" x1="897.23" y1="136.098" x2="913.233" y2="109.649" gradientUnits="userSpaceOnUse">
<stop stop-color="#DDD51A"/>
<stop offset="1" stop-color="#FED811"/>
</linearGradient>
<linearGradient id="paint32_linear_0_4215" x1="903.639" y1="122.435" x2="907.677" y2="109.944" gradientUnits="userSpaceOnUse">
<stop stop-color="#E3AB3D"/>
<stop offset="1" stop-color="#FFF96D"/>
</linearGradient>
<linearGradient id="paint33_linear_0_4215" x1="867.27" y1="47.8217" x2="877.192" y2="18.776" gradientUnits="userSpaceOnUse">
<stop stop-color="#C1E4F7"/>
<stop offset="1" stop-color="#E8DCF7"/>
</linearGradient>
<linearGradient id="paint34_linear_0_4215" x1="823.097" y1="362.713" x2="958.15" y2="202.71" gradientUnits="userSpaceOnUse">
<stop stop-color="#C1E0F7"/>
<stop offset="1" stop-color="#DEDCF7"/>
</linearGradient>
<linearGradient id="paint35_linear_0_4215" x1="832.304" y1="365.067" x2="904.026" y2="254.663" gradientUnits="userSpaceOnUse">
<stop stop-color="#9DD8EA"/>
<stop offset="1" stop-color="#8CCBEF"/>
</linearGradient>
<radialGradient id="paint36_radial_0_4215" cx="0" cy="0" r="1" gradientUnits="userSpaceOnUse" gradientTransform="translate(843.771 352.216) rotate(33.0089) scale(100.465 100.465)">
<stop stop-color="#E5FF45"/>
<stop offset="1" stop-color="#00BBFF"/>
</radialGradient>
<linearGradient id="paint37_linear_0_4215" x1="921.255" y1="225.42" x2="943.452" y2="191.251" gradientUnits="userSpaceOnUse">
<stop stop-color="#8DA4E5"/>
<stop offset="1" stop-color="#5C71BB"/>
</linearGradient>
<linearGradient id="paint38_linear_0_4215" x1="839.636" y1="255.775" x2="935.71" y2="318.02" gradientUnits="userSpaceOnUse">
<stop stop-color="#00488A"/>
<stop offset="1" stop-color="#9FAEFF" stop-opacity="0"/>
</linearGradient>
<radialGradient id="paint39_radial_0_4215" cx="0" cy="0" r="1" gradientUnits="userSpaceOnUse" gradientTransform="translate(852.05 336.525) rotate(-6.70467) scale(46.9841 59.7672)">
<stop stop-color="#E5FF45"/>
<stop offset="1" stop-color="#00BBFF"/>
</radialGradient>
</defs>
</svg>
