<svg width="526" height="430" viewBox="0 0 526 430" fill="none" xmlns="http://www.w3.org/2000/svg">
<path d="M450.623 53.2566C450.623 53.2566 476.362 46.0636 489.802 49.4151C503.242 52.7667 506.052 58.0324 508.549 83.0572C510.304 109.051 477.202 145.413 477.202 145.413L450.623 53.2566Z" fill="url(#paint0_linear_18_268)"/>
<path d="M494.492 51.6464C482.022 51.0404 472.239 65.7803 464.509 95.9559L484.954 106.093L511.43 80.5687C511.43 80.5687 506.962 52.2523 494.492 51.6464Z" fill="url(#paint1_linear_18_268)"/>
<path d="M466.725 89.7669C466.725 89.7669 486.144 55.7249 494.882 55.1961C503.621 54.6672 513.224 66.468 512.524 102.051C511.823 137.633 486.107 152.382 486.107 152.382L466.725 89.7669Z" fill="url(#paint2_linear_18_268)"/>
<path d="M475.059 52.1277C471.241 52.9528 470.584 56.6913 477.569 57.5791C484.555 58.4668 489.593 54.0477 489.036 52.7029C488.761 51.4304 479.231 51.0927 475.059 52.1277Z" fill="white"/>
<path opacity="0.72" d="M506.778 77.7911C506.778 77.7911 505.296 67.7609 496.749 65.0442C488.202 62.3275 473.554 85.7936 477.759 88.9745C481.964 92.1554 491.389 80.1077 495.981 79.7924C500.823 79.626 504.523 87.6164 506.849 83.9319C508.13 81.904 506.778 77.7911 506.778 77.7911Z" fill="url(#paint3_linear_18_268)"/>
<path d="M257.053 53.2566C257.053 53.2566 231.314 46.0636 217.874 49.4151C204.434 52.7667 201.624 58.0324 199.127 83.0572C197.372 109.051 230.474 145.413 230.474 145.413L257.053 53.2566Z" fill="url(#paint4_linear_18_268)"/>
<path d="M213.184 51.6464C225.654 51.0404 235.437 65.7803 243.167 95.9559L222.722 106.093L196.246 80.5687C196.246 80.5687 200.714 52.2523 213.184 51.6464Z" fill="url(#paint5_linear_18_268)"/>
<path d="M240.951 89.7669C240.951 89.7669 221.532 55.7249 212.794 55.1961C204.055 54.6672 194.452 66.468 195.152 102.051C195.853 137.633 221.569 152.382 221.569 152.382L240.951 89.7669Z" fill="url(#paint6_linear_18_268)"/>
<path d="M232.617 52.1277C236.435 52.9528 237.092 56.6913 230.107 57.5791C223.122 58.4668 218.083 54.0477 218.64 52.7029C218.915 51.4304 228.445 51.0927 232.617 52.1277Z" fill="white"/>
<path opacity="0.72" d="M200.898 77.7911C200.898 77.7911 202.38 67.7609 210.927 65.0442C219.474 62.3275 234.122 85.7936 229.917 88.9745C225.712 92.1554 216.288 80.1077 211.695 79.7924C206.853 79.626 203.153 87.6164 200.827 83.9319C199.546 81.904 200.898 77.7911 200.898 77.7911Z" fill="url(#paint7_linear_18_268)"/>
<path d="M322.804 420.977C319.92 422.131 217.256 432.512 205.144 420.977C193.32 409.73 274.356 359.551 286.179 360.417C289.063 360.705 291.371 363.589 295.696 369.933C309.25 388.966 322.804 420.977 322.804 420.977Z" fill="url(#paint8_linear_18_268)"/>
<path d="M286.174 360.417C280.983 360.993 299.439 414.056 322.799 420.977C322.799 420.977 300.016 358.398 286.174 360.417Z" fill="url(#paint9_linear_18_268)"/>
<path opacity="0.3" d="M322.798 420.977C319.915 422.131 217.827 431.936 205.138 420.977C205.138 420.977 235.13 425.88 262.526 416.651C289.923 407.135 290.499 383.199 290.499 383.199L292.23 363.012C305.784 382.045 322.798 420.977 322.798 420.977Z" fill="url(#paint10_linear_18_268)"/>
<path d="M214.657 332.732C214.657 332.732 209.755 309.085 231.383 283.707C259.357 250.831 317.898 226.607 327.704 231.221C337.509 235.835 305.498 287.167 305.498 287.167C305.498 287.167 265.124 297.261 243.784 322.35C222.155 347.151 214.657 332.732 214.657 332.732Z" fill="url(#paint11_linear_18_268)"/>
<path d="M422.002 364.165C419.119 387.236 408.737 405.404 390.568 415.209C378.456 421.842 363.172 424.726 344.427 422.707C317.031 419.823 300.016 399.348 292.807 371.375C289.634 358.686 288.192 344.844 288.481 330.136C289.634 282.841 314.724 245.351 332.027 233.816C360.577 214.494 400.95 225.741 405.564 259.482C409.025 286.59 426.616 325.81 422.002 364.165Z" fill="url(#paint12_linear_18_268)"/>
<path d="M396.628 241.026C391.726 239.007 389.13 283.707 408.74 309.95C408.74 309.95 417.68 304.182 413.931 282.265C409.894 260.348 402.973 243.622 396.628 241.026Z" fill="url(#paint13_linear_18_268)"/>
<path d="M393.166 257.876C393.166 257.876 411.045 283.254 405.278 305.171C404.989 305.171 393.742 287.868 393.166 257.876Z" fill="url(#paint14_linear_18_268)"/>
<path d="M390.57 415.209C378.458 421.842 363.173 424.726 344.428 422.707C317.032 419.824 300.018 399.348 292.808 371.375C285.022 340.23 299.152 298.991 340.968 298.991C383.072 298.991 403.547 341.96 405.566 372.24C406.143 384.352 404.989 408.288 390.57 415.209Z" fill="url(#paint15_radial_18_268)"/>
<path fill-rule="evenodd" clip-rule="evenodd" d="M353.681 327.052C346.875 325.063 340.069 323.074 333.262 321.084L333.264 321.08C333.228 321.104 333.191 321.129 333.152 321.155L333.184 321.093C330.028 321.07 327.122 322.825 325.673 325.636L325.676 325.638L314.57 347.132C313.694 348.829 313.809 350.866 314.866 352.451L338.072 387.672C343.045 377.053 341.908 364.568 335.097 355.024C329.033 346.53 325.107 340.99 324.702 340.354C324.588 340.175 324.268 339.67 324.256 338.989C324.247 338.372 324.48 337.922 324.59 337.73L326.013 334.975L371.084 332.139C365.284 330.443 359.483 328.748 353.681 327.052ZM390.187 367.579C385.424 372.336 380.659 377.093 375.894 381.85L375.827 381.917L375.502 382.242C371.094 386.642 366.687 391.042 362.281 395.441C365.574 388.44 368.868 381.439 372.162 374.438L372.192 374.373C375.304 367.759 378.416 361.144 381.527 354.53L379.799 351.946C379.686 351.755 379.403 351.335 378.862 351.046C378.263 350.727 377.667 350.766 377.455 350.781C376.699 350.83 369.962 351.603 359.608 352.832C347.977 354.213 336.503 349.197 329.609 339.715L371.612 336.323C373.511 336.157 375.349 337.038 376.41 338.624L389.864 358.726L389.86 358.725C391.617 361.351 391.755 364.746 390.212 367.505L390.176 367.452C390.18 367.496 390.184 367.538 390.187 367.579ZM320.887 392.89C319.366 386.492 317.846 380.094 316.326 373.697C314.806 367.299 313.286 360.902 311.765 354.504L336.527 392.312L339.64 392.185C339.856 392.189 340.364 392.168 340.894 391.856C341.475 391.516 341.755 390.987 341.855 390.799L341.857 390.795C342.207 390.127 345.07 383.967 349.44 374.487C354.347 363.837 364.615 356.664 376.294 355.733L357.217 393.366C356.362 395.072 354.654 396.177 352.749 396.255L328.605 397.237L328.61 397.235C325.456 397.36 322.497 395.704 320.952 392.945L321.002 392.943C320.964 392.925 320.928 392.906 320.892 392.889L320.887 392.89Z" fill="url(#paint16_radial_18_268)"/>
<path d="M331.597 319.116C344.205 322.803 356.814 326.487 369.418 330.172L323.263 333.076C324.236 330.099 327.081 327.061 328.054 324.084C328.202 323.49 328.459 322.744 328.911 321.955C329.769 320.46 330.899 319.574 331.598 319.113L331.597 319.116Z" fill="white"/>
<path d="M324.011 323.67L312.905 345.165C312.029 346.861 312.143 348.899 313.2 350.483L336.407 385.705C341.379 375.085 340.242 362.601 333.432 353.057C327.368 344.563 323.442 339.023 323.036 338.386C322.922 338.207 322.602 337.703 322.59 337.022C322.581 336.405 322.815 335.955 322.924 335.763C325.788 330.216 328.655 324.672 331.519 319.125C328.362 319.102 325.457 320.857 324.007 323.669L324.011 323.67Z" fill="white"/>
<path d="M388.525 365.612C379.225 374.899 369.92 384.187 360.619 393.474C367.188 379.507 373.761 365.542 380.33 351.575C382.465 353.864 383.75 357.82 385.885 360.109C386.33 360.525 386.86 361.111 387.334 361.888C388.226 363.359 388.459 364.784 388.525 365.612Z" fill="white"/>
<path d="M388.198 356.759L374.744 336.657C373.683 335.071 371.845 334.19 369.946 334.356L327.943 337.748C334.837 347.23 346.311 352.246 357.942 350.865C368.296 349.636 375.034 348.863 375.789 348.814C376.002 348.799 376.598 348.76 377.196 349.079C377.737 349.368 378.02 349.789 378.133 349.979C381.603 355.165 385.076 360.353 388.546 365.538C390.089 362.779 389.951 359.384 388.195 356.758L388.198 356.759Z" fill="white"/>
<path d="M319.225 390.923C316.184 378.128 313.145 365.333 310.103 352.537L335.466 391.262C332.402 391.891 328.361 390.917 325.294 391.544C324.707 391.708 323.932 391.853 323.024 391.852C321.305 391.845 319.973 391.299 319.23 390.922L319.225 390.923Z" fill="white"/>
<path d="M326.932 395.269L351.076 394.288C352.981 394.209 354.689 393.104 355.544 391.398L374.62 353.766C362.942 354.697 352.674 361.869 347.767 372.52C343.396 382 340.534 388.159 340.184 388.828C340.086 389.013 339.806 389.546 339.221 389.888C338.691 390.201 338.183 390.221 337.967 390.218C331.737 390.471 325.508 390.724 319.279 390.978C320.824 393.736 323.783 395.392 326.937 395.267L326.932 395.269Z" fill="white"/>
<path d="M474.775 405.981C475.352 417.517 469.007 426.168 457.472 428.475C451.704 429.629 438.727 429.629 426.038 428.187C425.461 428.187 425.173 428.187 425.173 428.187C409.889 426.456 395.47 422.996 394.604 417.805C394.028 414.344 394.028 410.595 394.028 407.135C394.316 376.855 411.907 342.537 423.154 344.844C430.075 346.286 440.169 352.919 449.397 362.147C457.184 369.645 464.393 378.585 469.007 387.525C473.045 394.158 474.775 400.502 474.775 405.981Z" fill="url(#paint17_linear_18_268)"/>
<path d="M449.978 362.147C449.978 362.147 428.638 356.091 411.623 369.933C399.799 379.738 396.339 400.502 394.32 407.135C394.608 376.855 412.2 342.537 423.447 344.844C430.368 346.574 440.461 353.207 449.978 362.147Z" fill="url(#paint18_linear_18_268)"/>
<path d="M469.299 316.006C467.281 326.676 444.498 342.537 405.567 339.653C405.567 339.653 387.11 324.657 388.84 308.219C388.84 308.219 390.571 307.643 392.878 306.489C397.492 304.182 411.911 298.703 413.353 293.8C415.948 284.572 406.143 271.595 400.376 258.041C394.896 245.64 398.934 234.682 401.818 234.105C404.701 233.528 423.446 239.872 441.903 257.175C443.922 258.906 445.652 260.636 447.094 262.366C468.146 284.572 471.318 306.201 469.299 316.006Z" fill="url(#paint19_linear_18_268)"/>
<path d="M392.3 308.219C392.3 308.219 375.574 296.396 363.75 291.205C363.75 291.205 352.215 293.512 349.908 299.568C347.889 305.912 373.267 318.025 373.267 318.025L392.3 308.219Z" fill="url(#paint20_linear_18_268)"/>
<path d="M225.327 310.526C225.327 310.526 235.421 291.205 243.496 288.609C251.57 286.014 256.473 287.167 257.915 288.609C259.357 290.051 259.357 297.549 256.185 303.605C253.012 309.373 240.323 316.005 240.323 316.005L225.327 310.526Z" fill="url(#paint21_linear_18_268)"/>
<path d="M242.05 289.186C242.05 289.186 243.492 295.242 248.683 298.126C253.874 301.01 257.623 299.856 257.623 299.856C257.623 299.856 262.237 290.339 257.046 287.167C252.72 284.572 243.204 287.456 242.05 289.186Z" fill="url(#paint22_linear_18_268)"/>
<path d="M378.743 380.027C365.189 385.218 342.983 362.147 328.564 353.784C314.433 345.421 289.632 342.825 278.385 347.728C267.138 352.63 250.124 373.105 234.551 370.51C231.667 369.933 230.802 363.012 231.379 352.919C232.532 332.443 240.607 300.721 253.007 292.935C271.464 281.4 345.867 284.283 363.747 300.721C373.263 309.661 379.608 330.713 381.915 348.881C383.934 364.742 383.068 378.296 378.743 380.027Z" fill="url(#paint23_linear_18_268)"/>
<path d="M378.743 380.027C365.189 385.218 342.983 362.147 328.564 353.784C314.433 345.421 289.632 342.825 278.385 347.728C267.138 352.63 250.124 373.105 234.551 370.51C231.667 369.933 230.802 363.012 231.379 352.919L235.416 345.709L263.678 328.694C263.678 328.694 263.966 338.788 266.561 340.23C269.157 341.672 278.962 339.365 297.419 339.365C315.875 339.076 330.006 348.593 338.657 343.114C347.309 337.634 353.653 324.369 353.653 324.369L361.728 323.503L381.915 348.881C383.934 364.742 383.068 378.296 378.743 380.027Z" fill="url(#paint24_linear_18_268)"/>
<path d="M223.878 304.759C223.878 304.759 241.758 303.605 262.233 318.89C262.233 318.89 268.001 340.23 256.177 353.496C256.177 353.496 247.237 358.686 234.26 360.417C221.571 362.147 223.878 304.759 223.878 304.759Z" fill="url(#paint25_linear_18_268)"/>
<path d="M388.837 308.508C388.837 308.508 404.698 308.508 413.638 322.062C420.847 333.309 409.601 339.942 409.601 339.942C409.601 339.942 390.279 338.788 388.837 308.508Z" fill="url(#paint26_linear_18_268)"/>
<path d="M223.887 304.759C215.812 304.182 209.468 343.402 217.542 355.226C225.617 367.05 246.092 357.533 249.841 353.207C253.59 348.882 259.358 330.425 257.051 322.639C254.744 314.852 243.785 305.912 223.887 304.759Z" fill="url(#paint27_linear_18_268)"/>
<path d="M256.182 291.205C256.182 291.205 254.74 301.01 286.174 304.759C317.608 308.796 346.735 306.489 357.693 296.396C357.693 296.684 306.649 276.209 256.182 291.205Z" fill="url(#paint28_linear_18_268)"/>
<path d="M186.97 411.749C163.899 411.749 128.716 410.018 118.911 399.925C116.892 397.618 116.027 395.311 116.316 392.427C117.469 380.603 135.926 374.259 155.248 367.338C174.281 360.705 194.179 353.784 197.063 341.96C198.793 334.462 196.198 324.945 193.603 316.005C190.142 304.182 186.681 292.069 192.449 282.553C196.775 275.343 206.003 270.441 220.711 267.557C276.369 256.887 302.612 286.013 302.9 286.302L300.593 288.32C300.304 288.032 274.927 260.059 221.287 270.729C207.445 273.325 199.082 277.939 195.044 284.283C189.854 292.935 193.026 303.893 196.486 315.429C199.37 324.945 202.254 334.462 200.235 342.825C197.063 356.379 176.588 363.589 156.689 370.51C139.098 376.566 120.93 383.199 119.776 393.004C119.488 394.734 120.353 396.464 121.795 397.906C135.349 412.037 207.445 408.576 208.022 408.576L208.31 411.46C206.58 411.172 198.217 411.749 186.97 411.749Z" fill="url(#paint29_linear_18_268)"/>
<path opacity="0.5" d="M292.807 240.449C292.807 240.449 309.821 268.134 343.274 266.98C376.438 265.827 394.318 236.7 394.318 236.7L297.421 238.43L292.807 240.449Z" fill="url(#paint30_linear_18_268)"/>
<path d="M225.903 200.652C253.587 264.385 460.358 244.486 485.159 192.289C512.267 134.901 449.976 -6.4071 351.061 0.225717C267.141 5.41662 190.431 118.751 225.903 200.652Z" fill="url(#paint31_linear_18_268)"/>
<path d="M237.437 185.079C263.968 237.277 444.496 228.625 470.739 180.753C493.233 139.803 440.17 15.7981 349.618 20.1238C259.065 24.4496 212.059 134.9 237.437 185.079Z" fill="url(#paint32_linear_18_268)"/>
<path d="M379.898 11.7607C377.88 14.0678 400.085 23.5844 402.969 22.1425C405.853 20.989 386.243 4.26274 379.898 11.7607Z" fill="white"/>
<path opacity="0.5" d="M292.518 202.094C290.211 211.034 308.956 220.262 355.386 217.955C411.62 215.071 423.444 203.536 420.56 200.076C418.83 198.057 402.104 208.727 355.962 198.634C325.682 192.001 295.113 192.578 292.518 202.094Z" fill="url(#paint33_linear_18_268)"/>
<path opacity="0.2" d="M242.339 174.121C242.339 174.121 240.32 161.144 242.627 143.552C244.934 125.961 249.548 114.714 252.432 116.156C255.316 117.886 254.739 134.901 256.469 151.915C257.623 165.181 260.218 177.582 260.218 177.582C260.218 177.582 248.106 189.117 242.339 174.121Z" fill="url(#paint34_linear_18_268)"/>
<path d="M211.774 88.7595C211.774 88.7595 223.309 96.2574 215.811 113.56C215.811 113.56 161.307 143.264 164.479 175.563C167.075 202.671 242.343 189.405 242.343 189.405L244.938 198.345C244.938 198.345 180.917 210.746 159 195.75C159 195.75 151.502 177.87 170.247 145.859C188.703 114.137 211.774 88.7595 211.774 88.7595Z" fill="url(#paint35_linear_18_268)"/>
<path d="M232.826 187.098C225.904 194.885 240.612 203.248 252.436 204.69C265.99 206.132 289.637 200.941 288.195 187.387C286.753 173.833 248.687 168.93 232.826 187.098Z" fill="url(#paint36_linear_18_268)"/>
<path d="M233.69 188.54C233.402 190.847 281.273 191.424 282.427 182.773C283.292 174.409 236.862 171.526 233.69 188.54Z" fill="url(#paint37_linear_18_268)"/>
<path d="M201.102 106.351C201.102 106.351 175.148 136.631 176.59 138.65C178.32 140.668 202.833 109.235 201.102 106.351Z" fill="url(#paint38_linear_18_268)"/>
<path d="M387.974 135.766C392.588 145.859 433.827 147.013 440.46 131.152C446.516 117.021 428.06 79.2428 403.259 82.7034C384.802 85.5872 379.9 119.04 387.974 135.766Z" fill="url(#paint39_linear_18_268)"/>
<path d="M317.607 135.766C312.993 145.859 271.754 147.013 265.121 131.152C259.065 117.021 276.657 80.973 302.323 82.7033C321.068 84.4336 325.682 119.04 317.607 135.766Z" fill="url(#paint40_linear_18_268)"/>
<path d="M339.238 167.488C339.238 167.488 353.081 153.934 363.463 154.799C373.844 155.664 366.346 168.93 366.346 168.93C366.346 168.93 353.946 171.814 339.238 167.488Z" fill="#07B5FE"/>
<path opacity="0.3" d="M469.3 316.006C467.281 326.676 444.499 342.537 405.567 339.653C405.567 339.653 387.111 324.657 388.841 308.219C388.841 308.219 386.823 309.373 389.418 308.219L397.204 309.661C397.204 309.661 421.428 316.006 447.671 311.392C473.914 306.777 455.458 273.325 447.671 262.366C468.147 284.572 471.319 306.201 469.3 316.006Z" fill="url(#paint41_linear_18_268)"/>
<path d="M408.737 343.979C408.737 343.979 408.448 343.979 408.448 344.267C408.16 344.267 407.872 344.555 407.295 344.555C407.295 344.555 407.295 344.555 407.007 344.555C405.276 345.132 401.816 346.574 397.778 348.304C395.76 349.17 393.741 350.035 391.722 351.188C383.071 355.226 372.401 362.147 371.535 362.435C371.535 362.435 351.06 352.919 349.907 340.518C349.041 331.867 354.232 319.178 360.865 311.68C363.749 308.219 366.633 305.912 369.517 305.335C378.745 303.317 389.127 307.931 389.127 307.931C389.127 307.931 402.681 307.642 408.737 320.62C414.793 333.885 408.737 343.979 408.737 343.979Z" fill="url(#paint42_linear_18_268)"/>
<path d="M408.735 343.979C408.735 343.979 408.446 343.979 408.446 344.267C408.158 344.267 407.869 344.555 407.293 344.555C407.293 344.555 407.293 344.555 407.004 344.555C405.274 345.42 402.679 346.862 399.795 348.304C389.701 353.784 376.436 362.435 376.436 362.435H371.533C375.859 354.649 382.203 350.323 388.548 347.439C398.93 343.113 408.735 343.979 408.735 343.979Z" fill="url(#paint43_linear_18_268)"/>
<path opacity="0.3" d="M474.775 405.981C475.351 417.517 469.007 426.168 457.472 428.475C451.704 429.629 438.727 429.629 426.038 428.187C429.787 428.475 447.666 429.629 451.704 425.015C456.318 419.824 456.606 410.884 461.509 407.135C466.7 403.386 471.602 406.27 473.044 405.981C473.621 405.981 474.198 405.981 474.775 405.981Z" fill="url(#paint44_linear_18_268)"/>
<path d="M445.935 399.06C445.07 401.367 452.856 407.423 457.182 405.981C461.507 404.539 458.047 398.195 456.028 396.753C454.009 395.6 446.8 397.33 445.935 399.06Z" fill="white"/>
<path d="M220.712 403.674C220.423 405.693 232.247 400.791 234.554 397.042C236.573 393.293 237.438 388.967 236.573 388.679C235.708 388.39 221 400.502 220.712 403.674Z" fill="white"/>
<path d="M369.517 308.508C368.94 310.526 377.015 319.466 379.322 318.024C381.341 316.582 379.61 310.238 375.573 308.508C371.535 306.489 370.093 307.354 369.517 308.508Z" fill="white"/>
<path d="M425.75 283.707C423.443 284.283 423.732 288.032 421.713 291.205C419.694 294.377 415.657 296.972 416.234 297.837C416.81 298.702 426.327 298.414 428.057 293.512C429.788 288.321 427.192 283.418 425.75 283.707Z" fill="white"/>
<path d="M423.156 279.958C422.291 279.669 419.984 274.767 420.561 273.325C421.138 271.595 424.022 273.613 424.31 275.055C424.887 276.786 424.31 280.246 423.156 279.958Z" fill="white"/>
<path d="M223.596 307.642C223.884 311.103 236.862 311.968 238.303 309.95C239.745 307.931 237.15 306.489 232.824 305.624C228.498 305.047 223.596 306.777 223.596 307.642Z" fill="white"/>
<path opacity="0.3" d="M400.089 348.305C389.996 353.784 376.73 362.436 376.73 362.436H371.828C371.828 362.436 351.352 352.919 350.199 340.518C349.334 331.867 354.525 319.178 361.157 311.68C362.599 315.717 371.539 337.346 380.191 343.979C382.786 345.709 385.67 346.863 388.842 347.728C392.015 348.305 395.187 348.593 398.071 348.593C398.936 348.305 399.512 348.305 400.089 348.305Z" fill="url(#paint45_linear_18_268)"/>
<path opacity="0.3" d="M290.79 292.07C290.79 292.07 291.944 296.107 304.633 296.395C317.322 296.684 327.703 288.032 327.703 288.032L303.479 285.725L290.79 292.07Z" fill="url(#paint46_linear_18_268)"/>
<path d="M263.682 260.059C263.394 261.79 281.274 257.464 279.255 251.696C278.102 247.947 263.971 256.887 263.682 260.059Z" fill="white"/>
<path d="M290.79 292.07L289.636 279.958C289.636 279.958 297.423 278.516 300.883 278.804C304.344 279.092 310.977 292.935 310.977 292.935C310.977 292.935 300.018 298.703 290.79 292.07Z" fill="url(#paint47_linear_18_268)"/>
<g filter="url(#filter0_ddd_18_268)">
<rect x="9" y="135" width="194.398" height="174.833" rx="24.5565" fill="url(#paint48_linear_18_268)"/>
</g>
<path d="M52.1454 255.47H58.2232V259.927H52.1454V266.005H47.6884V259.927H41.6476V255.47H47.6884V249.429H52.1454V255.47ZM74.2143 257.202C76.5963 258.626 77.7873 260.701 77.7873 263.427C77.7873 265.809 76.9524 267.687 75.2825 269.062C73.6372 270.437 71.3903 271.125 68.5418 271.125C65.6687 271.125 63.4095 270.437 61.7642 269.062C60.1189 267.687 59.2962 265.809 59.2962 263.427C59.2962 260.725 60.475 258.65 62.8324 257.202C61.0398 255.925 60.1434 254.144 60.1434 251.861C60.1434 249.479 60.9415 247.625 62.5377 246.298C64.1584 244.972 66.1598 244.309 68.5418 244.309C70.9483 244.309 72.9374 244.972 74.509 246.298C76.1052 247.625 76.9032 249.479 76.9032 251.861C76.9032 254.144 76.0069 255.925 74.2143 257.202ZM71.8569 252.118C71.8569 251.185 71.5499 250.449 70.936 249.908C70.3221 249.368 69.524 249.098 68.5418 249.098C67.5595 249.098 66.7614 249.368 66.1475 249.908C65.5336 250.449 65.2266 251.185 65.2266 252.118C65.2266 253.076 65.5336 253.825 66.1475 254.365C66.7614 254.906 67.5595 255.176 68.5418 255.176C69.524 255.176 70.3221 254.906 70.936 254.365C71.5499 253.825 71.8569 253.076 71.8569 252.118ZM71.599 265.379C72.3603 264.74 72.7409 263.869 72.7409 262.764C72.7409 261.659 72.3603 260.799 71.599 260.185C70.8378 259.547 69.8187 259.227 68.5418 259.227C67.2648 259.227 66.2457 259.547 65.4845 260.185C64.7232 260.799 64.3426 261.659 64.3426 262.764C64.3426 263.869 64.7232 264.74 65.4845 265.379C66.2457 266.017 67.2648 266.337 68.5418 266.337C69.8187 266.337 70.8378 266.017 71.599 265.379ZM76.7291 249.687V244.825H93.3784V249.135L84.6486 270.609H79.2707L87.7427 249.687H76.7291ZM94.7887 267.957C94.7887 268.817 94.4818 269.553 93.8679 270.167C93.254 270.781 92.5173 271.088 91.6578 271.088C90.7983 271.088 90.0616 270.781 89.4477 270.167C88.8338 269.553 88.5268 268.817 88.5268 267.957C88.5268 267.098 88.8338 266.361 89.4477 265.747C90.0616 265.133 90.7983 264.826 91.6578 264.826C92.5173 264.826 93.254 265.133 93.8679 265.747C94.4818 266.361 94.7887 267.098 94.7887 267.957ZM95.0106 249.687V244.825H111.66V249.135L102.93 270.609H97.5522L106.024 249.687H95.0106ZM115.974 254.218H118.626C121.131 254.218 123.219 254.967 124.888 256.465C126.583 257.938 127.43 260.001 127.43 262.653C127.43 265.305 126.534 267.38 124.741 268.878C122.998 270.376 120.824 271.125 118.221 271.125C116.109 271.125 114.255 270.658 112.659 269.725C111.088 268.768 109.946 267.392 109.234 265.6L113.58 263.058C114.194 265.121 115.741 266.152 118.221 266.152C119.523 266.152 120.53 265.845 121.242 265.232C121.978 264.593 122.347 263.734 122.347 262.653C122.347 261.597 121.991 260.75 121.279 260.111C120.566 259.473 119.596 259.154 118.369 259.154H110.56L111.591 244.825H126.214V249.577H116.306L115.974 254.218ZM138.03 254.734C136.826 255.888 135.353 256.465 133.61 256.465C131.841 256.465 130.356 255.875 129.153 254.697C127.974 253.518 127.384 252.082 127.384 250.387C127.384 248.693 127.974 247.256 129.153 246.077C130.38 244.899 131.866 244.309 133.61 244.309C135.378 244.309 136.851 244.899 138.03 246.077C139.208 247.207 139.798 248.644 139.798 250.387C139.798 252.106 139.208 253.555 138.03 254.734ZM132.21 267.994L130 266.705L146.796 248.03L149.043 249.282L132.21 267.994ZM131.915 252.082C132.357 252.524 132.91 252.745 133.573 252.745C134.236 252.745 134.788 252.524 135.23 252.082C135.672 251.615 135.893 251.05 135.893 250.387C135.893 249.724 135.672 249.172 135.23 248.73C134.788 248.288 134.236 248.067 133.573 248.067C132.91 248.067 132.357 248.288 131.915 248.73C131.498 249.172 131.289 249.724 131.289 250.387C131.289 251.05 131.498 251.615 131.915 252.082ZM152.248 264.974C152.248 266.668 151.659 268.105 150.48 269.283C149.301 270.462 147.828 271.051 146.06 271.051C144.292 271.051 142.818 270.462 141.64 269.283C140.461 268.105 139.871 266.668 139.871 264.974C139.871 263.279 140.461 261.843 141.64 260.664C142.818 259.485 144.292 258.896 146.06 258.896C147.828 258.896 149.301 259.485 150.48 260.664C151.659 261.843 152.248 263.279 152.248 264.974ZM147.68 266.668C148.122 266.201 148.343 265.637 148.343 264.974C148.343 264.311 148.122 263.758 147.68 263.316C147.263 262.85 146.723 262.616 146.06 262.616C145.397 262.616 144.844 262.85 144.402 263.316C143.985 263.758 143.776 264.311 143.776 264.974C143.776 265.637 143.985 266.201 144.402 266.668C144.844 267.11 145.397 267.331 146.06 267.331C146.723 267.331 147.263 267.11 147.68 266.668Z" fill="#00B8B9"/>
<path d="M39.5725 230.867L47.3078 213.678H50.4511L58.2109 230.867H54.8712L48.2164 215.372H49.4933L42.8631 230.867H39.5725ZM43.1332 226.889L43.9927 224.385H53.275L54.1345 226.889H43.1332ZM60.397 230.867V213.678H67.4693C68.9918 213.678 70.2933 213.923 71.3737 214.415C72.4706 214.906 73.3137 215.61 73.9031 216.526C74.4924 217.443 74.7871 218.532 74.7871 219.792C74.7871 221.053 74.4924 222.142 73.9031 223.058C73.3137 223.975 72.4706 224.679 71.3737 225.17C70.2933 225.661 68.9918 225.907 67.4693 225.907H62.1651L63.5893 224.409V230.867H60.397ZM63.5893 224.753L62.1651 223.206H67.3219C68.7298 223.206 69.7858 222.911 70.4897 222.322C71.21 221.716 71.5702 220.873 71.5702 219.792C71.5702 218.696 71.21 217.852 70.4897 217.263C69.7858 216.674 68.7298 216.379 67.3219 216.379H62.1651L63.5893 214.807V224.753ZM82.1987 230.867V224.065L82.9109 226.03L75.4457 213.678H78.8591L84.8508 223.623H82.9354L88.9763 213.678H92.1196L84.6544 226.03L85.3911 224.065V230.867H82.1987Z" fill="black" fill-opacity="0.6"/>
<path d="M39.593 178.754L46.0391 164.43H48.6584L55.125 178.754H52.3419L46.7962 165.842H47.8603L42.3351 178.754H39.593ZM42.5602 175.439L43.2765 173.352H51.0118L51.728 175.439H42.5602ZM62.8065 178.959C60.842 178.959 59.3004 178.406 58.1817 177.301C57.0767 176.196 56.5242 174.6 56.5242 172.513V164.43H59.1845V172.41C59.1845 173.884 59.4982 174.955 60.1258 175.623C60.767 176.292 61.6674 176.626 62.827 176.626C63.9866 176.626 64.8802 176.292 65.5078 175.623C66.1353 174.955 66.4491 173.884 66.4491 172.41V164.43H69.0684V172.513C69.0684 174.6 68.5091 176.196 67.3904 177.301C66.2854 178.406 64.7574 178.959 62.8065 178.959ZM72.7941 178.754V164.43H79.056C80.6113 164.43 81.9755 164.73 83.1488 165.33C84.322 165.93 85.2361 166.762 85.8909 167.827C86.5457 168.891 86.8732 170.146 86.8732 171.592C86.8732 173.024 86.5457 174.279 85.8909 175.357C85.2361 176.421 84.322 177.253 83.1488 177.854C81.9755 178.454 80.6113 178.754 79.056 178.754H72.7941ZM75.4544 176.503H78.9332C80.011 176.503 80.9387 176.299 81.7163 175.889C82.5076 175.48 83.1147 174.907 83.5376 174.17C83.9741 173.434 84.1924 172.574 84.1924 171.592C84.1924 170.596 83.9741 169.736 83.5376 169.013C83.1147 168.277 82.5076 167.704 81.7163 167.294C80.9387 166.885 80.011 166.681 78.9332 166.681H75.4544V176.503ZM89.7007 178.754V164.43H92.361V178.754H89.7007ZM99.1413 178.754V166.681H94.3937V164.43H106.549V166.681H101.802V178.754H99.1413ZM111.001 170.384H118.123V172.574H111.001V170.384ZM111.206 176.524H119.289V178.754H108.546V164.43H119.003V166.66H111.206V176.524ZM122.255 178.754V164.43H128.517C130.072 164.43 131.436 164.73 132.609 165.33C133.783 165.93 134.697 166.762 135.352 167.827C136.006 168.891 136.334 170.146 136.334 171.592C136.334 173.024 136.006 174.279 135.352 175.357C134.697 176.421 133.783 177.253 132.609 177.854C131.436 178.454 130.072 178.754 128.517 178.754H122.255ZM124.915 176.503H128.394C129.472 176.503 130.399 176.299 131.177 175.889C131.968 175.48 132.575 174.907 132.998 174.17C133.435 173.434 133.653 172.574 133.653 171.592C133.653 170.596 133.435 169.736 132.998 169.013C132.575 168.277 131.968 167.704 131.177 167.294C130.399 166.885 129.472 166.681 128.394 166.681H124.915V176.503Z" fill="black" fill-opacity="0.8"/>
<path fill-rule="evenodd" clip-rule="evenodd" d="M191.005 229.368L186.858 233.515C183.154 237.192 179.643 237.219 175.966 233.515L171.819 229.368C171.432 228.981 171.101 228.87 170.603 228.87H164.742C159.517 228.87 157.029 226.382 157.029 221.158V215.297C157.029 214.799 156.891 214.44 156.532 214.081L152.385 209.906C148.708 206.229 148.681 202.719 152.385 199.042L156.532 194.895C156.891 194.536 157.029 194.176 157.029 193.679V187.818C157.029 182.538 159.517 180.105 164.742 180.105H170.603C171.101 180.105 171.46 179.967 171.819 179.608L175.966 175.489C179.643 171.757 183.154 171.757 186.858 175.461L191.005 179.608C191.364 179.967 191.723 180.105 192.221 180.105H198.082C203.307 180.105 205.795 182.593 205.795 187.818V193.679C205.795 194.176 205.933 194.508 206.292 194.895L210.439 199.042C214.116 202.719 214.143 206.229 210.439 209.906L206.292 214.081C205.933 214.44 205.795 214.799 205.795 215.297V221.158C205.795 226.382 203.307 228.87 198.082 228.87H192.221C191.723 228.87 191.392 228.981 191.005 229.368ZM175.468 216.707C176.297 217.73 177.21 218.255 178.343 218.255C179.476 218.255 180.444 217.674 181.135 216.679L194.018 196.775C194.46 196.111 194.764 195.393 194.764 194.729C194.764 193.153 193.382 192.048 191.861 192.048C190.866 192.048 190.037 192.601 189.373 193.651L178.26 211.344L173.201 205.013C172.482 204.128 171.764 203.769 170.824 203.769C169.276 203.769 168.004 205.013 168.004 206.589C168.004 207.335 168.253 208.026 168.833 208.717L175.468 216.707Z" fill="black" fill-opacity="0.8"/>
<defs>
<filter id="filter0_ddd_18_268" x="0.814507" y="128.861" width="210.769" height="193.25" filterUnits="userSpaceOnUse" color-interpolation-filters="sRGB">
<feFlood flood-opacity="0" result="BackgroundImageFix"/>
<feColorMatrix in="SourceAlpha" type="matrix" values="0 0 0 0 0 0 0 0 0 0 0 0 0 0 0 0 0 0 127 0" result="hardAlpha"/>
<feOffset dy="4.09275"/>
<feGaussianBlur stdDeviation="4.09275"/>
<feColorMatrix type="matrix" values="0 0 0 0 0.0352941 0 0 0 0 0.0509804 0 0 0 0 0.0784314 0 0 0 0.02 0"/>
<feBlend mode="normal" in2="BackgroundImageFix" result="effect1_dropShadow_18_268"/>
<feColorMatrix in="SourceAlpha" type="matrix" values="0 0 0 0 0 0 0 0 0 0 0 0 0 0 0 0 0 0 127 0" result="hardAlpha"/>
<feOffset dx="-2.04637" dy="-2.04637"/>
<feGaussianBlur stdDeviation="2.04637"/>
<feColorMatrix type="matrix" values="0 0 0 0 1 0 0 0 0 1 0 0 0 0 1 0 0 0 0.24 0"/>
<feBlend mode="normal" in2="effect1_dropShadow_18_268" result="effect2_dropShadow_18_268"/>
<feColorMatrix in="SourceAlpha" type="matrix" values="0 0 0 0 0 0 0 0 0 0 0 0 0 0 0 0 0 0 127 0" result="hardAlpha"/>
<feOffset dy="1.02319"/>
<feGaussianBlur stdDeviation="1.02319"/>
<feColorMatrix type="matrix" values="0 0 0 0 0.0352941 0 0 0 0 0.0509804 0 0 0 0 0.0784314 0 0 0 0.04 0"/>
<feBlend mode="normal" in2="effect2_dropShadow_18_268" result="effect3_dropShadow_18_268"/>
<feBlend mode="normal" in="SourceGraphic" in2="effect3_dropShadow_18_268" result="shape"/>
</filter>
<linearGradient id="paint0_linear_18_268" x1="459.689" y1="140.263" x2="484.739" y2="42.4741" gradientUnits="userSpaceOnUse">
<stop stop-color="#ACC4F4"/>
<stop offset="1" stop-color="#D1DBF5"/>
</linearGradient>
<linearGradient id="paint1_linear_18_268" x1="478.936" y1="98.1484" x2="492.554" y2="44.9884" gradientUnits="userSpaceOnUse">
<stop stop-color="#9DC0EA"/>
<stop offset="1" stop-color="#8CAEEF"/>
</linearGradient>
<linearGradient id="paint2_linear_18_268" x1="479.518" y1="150.849" x2="504.131" y2="54.7679" gradientUnits="userSpaceOnUse">
<stop stop-color="#E5FF45"/>
<stop offset="1" stop-color="#00BBFF"/>
</linearGradient>
<linearGradient id="paint3_linear_18_268" x1="484.28" y1="73.994" x2="506.453" y2="87.195" gradientUnits="userSpaceOnUse">
<stop/>
<stop offset="1" stop-color="#07B5FE" stop-opacity="0"/>
</linearGradient>
<linearGradient id="paint4_linear_18_268" x1="247.987" y1="140.263" x2="222.937" y2="42.4741" gradientUnits="userSpaceOnUse">
<stop stop-color="#ACC4F4"/>
<stop offset="1" stop-color="#D1DBF5"/>
</linearGradient>
<linearGradient id="paint5_linear_18_268" x1="228.74" y1="98.1484" x2="215.122" y2="44.9884" gradientUnits="userSpaceOnUse">
<stop stop-color="#9DC0EA"/>
<stop offset="1" stop-color="#8CAEEF"/>
</linearGradient>
<linearGradient id="paint6_linear_18_268" x1="228.158" y1="150.849" x2="203.545" y2="54.7679" gradientUnits="userSpaceOnUse">
<stop stop-color="#E5FF45"/>
<stop offset="1" stop-color="#00BBFF"/>
</linearGradient>
<linearGradient id="paint7_linear_18_268" x1="223.396" y1="73.994" x2="201.223" y2="87.195" gradientUnits="userSpaceOnUse">
<stop/>
<stop offset="1" stop-color="#07B5FE" stop-opacity="0"/>
</linearGradient>
<linearGradient id="paint8_linear_18_268" x1="274.552" y1="425.796" x2="273.381" y2="359.107" gradientUnits="userSpaceOnUse">
<stop stop-color="#C1DAF7"/>
<stop offset="1" stop-color="#E8DCF7"/>
</linearGradient>
<linearGradient id="paint9_linear_18_268" x1="303.272" y1="418.612" x2="310.343" y2="363.306" gradientUnits="userSpaceOnUse">
<stop stop-color="#9DCAEA"/>
<stop offset="1" stop-color="#8CA2EF"/>
</linearGradient>
<linearGradient id="paint10_linear_18_268" x1="253.076" y1="425.793" x2="254.184" y2="363.564" gradientUnits="userSpaceOnUse">
<stop stop-color="#6887C2"/>
<stop offset="1" stop-color="#CCEDFF"/>
</linearGradient>
<linearGradient id="paint11_linear_18_268" x1="263.901" y1="342.143" x2="278.646" y2="224.742" gradientUnits="userSpaceOnUse">
<stop stop-color="#D3E9F9"/>
<stop offset="1" stop-color="#9DC0EA"/>
</linearGradient>
<linearGradient id="paint12_linear_18_268" x1="346.064" y1="423.142" x2="372.247" y2="226.228" gradientUnits="userSpaceOnUse">
<stop stop-color="#C1E0F7"/>
<stop offset="1" stop-color="#DEDCF7"/>
</linearGradient>
<linearGradient id="paint13_linear_18_268" x1="413.017" y1="276.241" x2="394.742" y2="274.405" gradientUnits="userSpaceOnUse">
<stop stop-color="#798BEA"/>
<stop offset="1" stop-color="#8CAEEF"/>
</linearGradient>
<linearGradient id="paint14_linear_18_268" x1="399.596" y1="310.863" x2="417.722" y2="305.311" gradientUnits="userSpaceOnUse">
<stop stop-color="#3657CC"/>
<stop offset="1" stop-color="#4A5696"/>
</linearGradient>
<radialGradient id="paint15_radial_18_268" cx="0" cy="0" r="1" gradientUnits="userSpaceOnUse" gradientTransform="translate(350.028 404.176) scale(84.698 94.9334)">
<stop stop-color="#E5FF45"/>
<stop offset="1" stop-color="#00BBFF"/>
</radialGradient>
<radialGradient id="paint16_radial_18_268" cx="0" cy="0" r="1" gradientUnits="userSpaceOnUse" gradientTransform="translate(352.771 385.505) rotate(-39.6606) scale(48.448 61.6232)">
<stop stop-color="#E5FF45"/>
<stop offset="1" stop-color="#00BBFF"/>
</radialGradient>
<linearGradient id="paint17_linear_18_268" x1="442.009" y1="428.571" x2="439.181" y2="343.136" gradientUnits="userSpaceOnUse">
<stop stop-color="#C1DAF7"/>
<stop offset="1" stop-color="#E8DCF7"/>
</linearGradient>
<linearGradient id="paint18_linear_18_268" x1="421.002" y1="404.7" x2="426.095" y2="347.279" gradientUnits="userSpaceOnUse">
<stop stop-color="#9DCAEA"/>
<stop offset="1" stop-color="#8CA2EF"/>
</linearGradient>
<linearGradient id="paint19_linear_18_268" x1="424.467" y1="337.27" x2="430.92" y2="232.712" gradientUnits="userSpaceOnUse">
<stop stop-color="#C1DAF7"/>
<stop offset="1" stop-color="#E8DCF7"/>
</linearGradient>
<linearGradient id="paint20_linear_18_268" x1="369.437" y1="317.563" x2="372.604" y2="292.351" gradientUnits="userSpaceOnUse">
<stop stop-color="#D3EBF9"/>
<stop offset="1" stop-color="#9DCAEA"/>
</linearGradient>
<linearGradient id="paint21_linear_18_268" x1="240.353" y1="316.105" x2="244.135" y2="285.99" gradientUnits="userSpaceOnUse">
<stop stop-color="#C1E4F7"/>
<stop offset="1" stop-color="#DCECF7"/>
</linearGradient>
<linearGradient id="paint22_linear_18_268" x1="250.699" y1="300.074" x2="250.699" y2="286.078" gradientUnits="userSpaceOnUse">
<stop stop-color="#9DC5EA"/>
<stop offset="1" stop-color="#8CAEEF"/>
</linearGradient>
<linearGradient id="paint23_linear_18_268" x1="300.511" y1="385.885" x2="323.858" y2="286.718" gradientUnits="userSpaceOnUse">
<stop stop-color="#FFD600"/>
<stop offset="1" stop-color="#DDD51A"/>
</linearGradient>
<linearGradient id="paint24_linear_18_268" x1="307.115" y1="380.935" x2="307.115" y2="323.318" gradientUnits="userSpaceOnUse">
<stop stop-color="#DDD51A"/>
<stop offset="1" stop-color="#F5BC18"/>
</linearGradient>
<linearGradient id="paint25_linear_18_268" x1="243.671" y1="360.32" x2="243.671" y2="304.629" gradientUnits="userSpaceOnUse">
<stop stop-color="#9DB7EA"/>
<stop offset="1" stop-color="#8CCBEF"/>
</linearGradient>
<linearGradient id="paint26_linear_18_268" x1="402.508" y1="339.991" x2="402.508" y2="308.46" gradientUnits="userSpaceOnUse">
<stop stop-color="#9DC0EA"/>
<stop offset="1" stop-color="#8CBFEF"/>
</linearGradient>
<linearGradient id="paint27_linear_18_268" x1="233.097" y1="359.49" x2="236.461" y2="304.025" gradientUnits="userSpaceOnUse">
<stop stop-color="#C1DAF7"/>
<stop offset="1" stop-color="#E8DCF7"/>
</linearGradient>
<linearGradient id="paint28_linear_18_268" x1="305.185" y1="307.272" x2="307.871" y2="285.889" gradientUnits="userSpaceOnUse">
<stop stop-color="#FFB018"/>
<stop offset="1" stop-color="#DDD51A"/>
</linearGradient>
<linearGradient id="paint29_linear_18_268" x1="204.185" y1="413.93" x2="214.915" y2="262.743" gradientUnits="userSpaceOnUse">
<stop stop-color="#EACF42"/>
<stop offset="1" stop-color="#FECA11"/>
</linearGradient>
<linearGradient id="paint30_linear_18_268" x1="343.49" y1="266.99" x2="343.49" y2="236.698" gradientUnits="userSpaceOnUse">
<stop stop-color="#8DA4E5"/>
<stop offset="1" stop-color="#5C71BB"/>
</linearGradient>
<linearGradient id="paint31_linear_18_268" x1="343.218" y1="242.906" x2="372.293" y2="1.90836" gradientUnits="userSpaceOnUse">
<stop stop-color="#C1E4F7"/>
<stop offset="1" stop-color="#E8DCF7"/>
</linearGradient>
<linearGradient id="paint32_linear_18_268" x1="353.349" y1="220.51" x2="353.349" y2="19.8722" gradientUnits="userSpaceOnUse">
<stop stop-color="#05B6FE"/>
<stop offset="1" stop-color="#001687"/>
</linearGradient>
<linearGradient id="paint33_linear_18_268" x1="292.315" y1="206.132" x2="421.077" y2="206.132" gradientUnits="userSpaceOnUse">
<stop/>
<stop offset="1" stop-color="#07B5FE"/>
</linearGradient>
<linearGradient id="paint34_linear_18_268" x1="249.942" y1="181.718" x2="254.435" y2="116.189" gradientUnits="userSpaceOnUse">
<stop/>
<stop offset="1" stop-color="#00E3FF"/>
</linearGradient>
<linearGradient id="paint35_linear_18_268" x1="199.593" y1="205.047" x2="214.164" y2="89.0262" gradientUnits="userSpaceOnUse">
<stop stop-color="#9DB7EA"/>
<stop offset="1" stop-color="#8CBAEF"/>
</linearGradient>
<linearGradient id="paint36_linear_18_268" x1="256.172" y1="205.736" x2="263.668" y2="173.901" gradientUnits="userSpaceOnUse">
<stop stop-color="#DDD51A"/>
<stop offset="1" stop-color="#FED811"/>
</linearGradient>
<linearGradient id="paint37_linear_18_268" x1="257.903" y1="189.898" x2="257.903" y2="176.012" gradientUnits="userSpaceOnUse">
<stop stop-color="#E3AB3D"/>
<stop offset="1" stop-color="#FFF96D"/>
</linearGradient>
<linearGradient id="paint38_linear_18_268" x1="188.991" y1="138.74" x2="188.991" y2="106.272" gradientUnits="userSpaceOnUse">
<stop stop-color="#CBC1F7"/>
<stop offset="1" stop-color="#E8DCF7"/>
</linearGradient>
<linearGradient id="paint39_linear_18_268" x1="412.878" y1="143.053" x2="412.878" y2="82.4109" gradientUnits="userSpaceOnUse">
<stop stop-color="#E5FF45"/>
<stop offset="1" stop-color="#00BBFF"/>
</linearGradient>
<linearGradient id="paint40_linear_18_268" x1="292.626" y1="143.054" x2="292.626" y2="82.5736" gradientUnits="userSpaceOnUse">
<stop stop-color="#E5FF45"/>
<stop offset="1" stop-color="#00BBFF"/>
</linearGradient>
<linearGradient id="paint41_linear_18_268" x1="428.884" y1="340.019" x2="428.884" y2="262.515" gradientUnits="userSpaceOnUse">
<stop stop-color="#68A2C2"/>
<stop offset="1" stop-color="#CCEDFF"/>
</linearGradient>
<linearGradient id="paint42_linear_18_268" x1="377.351" y1="363.168" x2="384.55" y2="305.844" gradientUnits="userSpaceOnUse">
<stop stop-color="#C1DAF7"/>
<stop offset="1" stop-color="#DCE8F7"/>
</linearGradient>
<linearGradient id="paint43_linear_18_268" x1="390.301" y1="362.467" x2="390.301" y2="343.966" gradientUnits="userSpaceOnUse">
<stop stop-color="#9DB7EA"/>
<stop offset="1" stop-color="#8CBFEF"/>
</linearGradient>
<linearGradient id="paint44_linear_18_268" x1="450.545" y1="429.379" x2="450.545" y2="405.204" gradientUnits="userSpaceOnUse">
<stop stop-color="#6881C2"/>
<stop offset="1" stop-color="#CCEDFF"/>
</linearGradient>
<linearGradient id="paint45_linear_18_268" x1="375.134" y1="362.468" x2="375.134" y2="311.758" gradientUnits="userSpaceOnUse">
<stop stop-color="#687CC2"/>
<stop offset="1" stop-color="#CCEDFF"/>
</linearGradient>
<linearGradient id="paint46_linear_18_268" x1="309.416" y1="296.604" x2="309.416" y2="285.822" gradientUnits="userSpaceOnUse">
<stop stop-color="#8DA4E5"/>
<stop offset="1" stop-color="#5C82BB"/>
</linearGradient>
<linearGradient id="paint47_linear_18_268" x1="299.888" y1="295.319" x2="301.049" y2="278.969" gradientUnits="userSpaceOnUse">
<stop stop-color="#E7EA42"/>
<stop offset="1" stop-color="#FEAD11"/>
</linearGradient>
<linearGradient id="paint48_linear_18_268" x1="-88.1991" y1="222.416" x2="85.6546" y2="415.726" gradientUnits="userSpaceOnUse">
<stop stop-color="white"/>
<stop offset="1" stop-color="#F9FAFC"/>
</linearGradient>
</defs>
</svg>
