<svg width="1304" height="526" viewBox="0 0 1304 526" fill="none" xmlns="http://www.w3.org/2000/svg">
<path d="M788.156 254.582C790.198 261.612 805.758 282.23 815.677 286.867C817.558 287.795 819.364 288.045 820.525 287.464C826.501 285.03 823.223 254.326 820.057 237.13C818.85 230.513 817.565 226.034 816.842 225.934C811.024 225.499 785.66 246.303 788.156 254.582Z" fill="url(#paint0_linear_0_4048)"/>
<path d="M788.758 257.304C788.758 257.304 797.25 260.201 808.043 251.825C816.416 245.358 819.455 228.504 817.349 226.043C815.09 223.636 782.024 246.873 788.758 257.304Z" fill="url(#paint1_linear_0_4048)"/>
<path opacity="0.3" d="M788.152 254.589C790.195 261.621 805.762 282.245 815.685 286.883C807.705 280.512 804.287 264.983 806.944 257.193C808.895 251.234 816.52 241.536 820.123 237.289C818.916 230.67 817.63 226.19 816.907 226.09C811.03 225.498 785.655 246.308 788.152 254.589Z" fill="url(#paint2_linear_0_4048)"/>
<path d="M814.968 256.797C816.727 256.007 817.379 261.566 817.19 261.983C817 262.4 815.472 261.005 814.964 259.605C814.361 258.412 814.42 257.164 814.968 256.797Z" fill="white"/>
<path d="M1022.68 420.368L1026.25 428.832C1026.66 429.911 1025.34 430.823 1024.51 429.994L1014.96 420.368H1022.68Z" fill="#05389A"/>
<path d="M1019.36 419.373L1021.94 429.994C1022.19 431.155 1020.69 431.819 1020.03 430.906L1011.65 419.456H1019.36V419.373Z" fill="#05389A"/>
<path d="M1010.65 421.198L1012.31 430.076C1012.56 431.238 1011.06 431.819 1010.4 430.906L1002.93 420.285L1010.65 421.198Z" fill="#05389A"/>
<path d="M1002.36 421.696L1002.77 428.583C1002.85 429.745 1001.36 430.16 1000.78 429.164L995.053 418.958L1002.36 421.696Z" fill="#05389A"/>
<path d="M838.972 379.626C838.972 379.626 839.221 379.627 839.636 379.71C843.287 380.124 862.372 382.033 883.282 384.107C900.292 385.767 918.63 387.426 930.745 388.339C936.387 388.754 940.702 389.003 943.025 389.003C950.327 389.003 957.049 388.588 963.77 391.243C969.91 393.65 976.05 398.628 982.606 408.586C982.772 408.835 983.021 409.166 983.187 409.415C997.127 429.413 1023.02 420.866 1023.02 420.866C1023.02 420.866 1007.83 372.905 974.806 353.821C974.723 353.821 974.64 353.738 974.64 353.738C964.019 347.68 946.345 340.461 927.841 334.487C906.266 327.434 883.863 321.542 871.831 318.472C866.271 317.062 862.869 316.232 862.869 316.232L859.799 324.53L846.357 360.376L838.972 379.626Z" fill="#0C83DA"/>
<path d="M962.94 378.963C962.857 382.946 963.189 387.095 963.77 391.244C969.91 393.65 976.05 398.629 982.606 408.586C982.772 408.835 983.021 409.167 983.187 409.416C997.127 429.413 1023.02 420.866 1023.02 420.866C1023.02 420.866 1007.83 372.906 974.806 353.821C974.723 353.821 974.64 353.738 974.64 353.738C968.416 358.55 963.106 366.267 962.94 378.963Z" fill="#05A1E4"/>
<path d="M839.637 379.709C843.288 380.124 862.373 382.033 883.283 384.107C884.445 378.216 886.519 370.333 890.253 362.118C897.887 345.274 928.008 334.818 928.008 334.818L927.676 334.57C906.102 327.517 883.698 321.625 871.666 318.555C865.443 321.708 860.298 324.28 859.634 324.612C858.556 325.193 852.001 343.78 846.192 360.458C843.62 367.843 841.214 374.814 839.637 379.709Z" fill="#0767AD"/>
<path d="M712.1 471.566C711.685 469.74 713.925 461.359 716.581 452.232C720.232 439.785 724.795 425.928 724.795 425.928C724.795 425.928 714.008 399.624 715.419 378.963C715.917 371.495 718.074 361.953 722.306 351.083C729.774 331.832 743.714 308.349 766.45 284.867L807.275 362.202L807.607 362.865L824.285 394.48C820.551 401.699 816.734 407.258 812.834 411.656C799.475 426.924 785.535 428.998 773.752 440.366C771.76 442.275 769.935 443.934 768.275 445.511C757.156 455.634 752.676 457.957 751.514 466.753C750.103 476.793 771.346 473.723 772.175 482.519H717.659C717.244 481.855 712.93 475.632 712.1 471.566Z" fill="#0C83DA"/>
<path d="M717.742 482.518L772.258 482.435C772.258 482.435 772.258 482.435 772.258 482.518H717.742Z" fill="#0C83DA"/>
<path d="M762.956 481.605C761.38 480.527 762.873 477.872 764.533 478.95C766.026 479.946 767.354 481.108 768.516 482.435H764.035C763.62 482.186 763.288 481.854 762.956 481.605Z" fill="#05389A"/>
<path d="M754.323 481.025C752.912 479.697 755.07 477.54 756.48 478.868C757.559 479.863 758.14 481.108 758.555 482.436H755.319C755.153 481.938 754.821 481.44 754.323 481.025Z" fill="#05389A"/>
<path d="M724.792 426.01C724.792 426.01 720.228 439.785 716.577 452.314C721.058 449.493 726.12 446.091 731.43 442.025C738.4 436.631 753.004 439.702 768.355 445.593C770.015 444.099 771.84 442.357 773.832 440.448C785.615 429.08 799.555 427.006 812.914 411.738L807.687 362.948L807.604 362.284H807.355L722.386 351.165C718.154 362.035 715.997 371.577 715.499 379.045C713.922 399.707 724.792 426.01 724.792 426.01Z" fill="#096AC2"/>
<path d="M779.809 438.125L718.82 407.507L776.158 403.607L779.809 438.125Z" fill="#0767AD"/>
<path d="M666.454 383.692C683.382 397.549 703.628 405.432 725.451 408.668C737.234 410.411 749.515 410.743 761.878 409.913C787.85 408.17 814.403 401.2 838.798 390.911C844.109 388.671 849.337 386.264 854.481 383.692C856.888 382.447 859.543 380.622 862.281 378.381C874.728 368.175 889.581 349.671 897.961 344.527L898.376 344.278C901.612 342.369 904.599 340.544 907.421 338.884C920.365 331.001 928.082 325.691 928.082 325.691L895.721 273.415L881.034 249.684C881.034 249.684 879.54 248.688 876.885 247.36C876.055 246.945 875.225 246.53 874.23 246.033C864.853 241.801 846.681 235.826 824.526 240.473C818.054 241.884 811.084 242.714 803.948 243.377C758.725 247.277 703.462 239.892 671.599 267.358C609.698 320.712 629.115 353.156 666.454 383.692Z" fill="#05A1E4"/>
<path d="M725.458 408.668C737.324 410.411 749.522 410.743 761.885 409.913C769.519 403.69 779.809 395.392 779.809 395.392C779.809 395.392 752.094 390.579 743.962 386.181C735.748 381.867 727.118 369.503 727.118 369.503L725.458 408.668Z" fill="#057DD3"/>
<path d="M608.041 471.565C605.469 459.948 612.937 433.396 615.343 425.928C615.343 425.928 609.867 399.624 611.277 378.962C612.439 361.454 615.011 336.063 637.498 306.357C641.481 301.047 646.128 295.57 651.521 290.011L720.227 394.479C712.676 409.083 705.291 417.63 697.823 423.687C688.778 430.989 679.651 434.557 669.693 440.366C651.521 451.07 648.866 456.629 647.455 466.669C646.045 476.71 667.287 473.64 668.117 482.435H613.601C613.186 481.854 608.954 475.631 608.041 471.565Z" fill="#05A1E4"/>
<path d="M613.691 482.518L668.207 482.435C668.207 482.435 668.207 482.435 668.207 482.518H613.691Z" fill="#05A1E4"/>
<path d="M711.349 408.668C711.349 408.668 721.223 392.903 723.463 383.692C725.787 374.482 727.031 369.503 727.031 369.503L725.372 408.585H711.349V408.668Z" fill="#0767AD"/>
<path d="M948.667 244.124L957.131 247.941L961.197 249.767L961.944 248.19L968.582 233.669C968.582 233.669 963.437 231.014 962.027 232.259C961.529 232.673 959.703 234.333 957.546 236.324C953.563 239.727 948.667 244.124 948.667 244.124Z" fill="#05A1E4"/>
<path d="M948.665 244.124L957.129 247.941L961.941 248.19L957.461 236.241C953.561 239.727 948.665 244.124 948.665 244.124Z" fill="#057DD3"/>
<path d="M965.266 235.495L958.627 245.784L962.61 247.361L965.266 235.495Z" fill="#096AC2"/>
<path d="M867.096 304.117C868.258 308.598 869.751 312.747 871.577 316.315C882.862 338.221 890.994 342.618 890.994 342.618C890.994 342.618 897.881 341.042 907.257 338.884C925.097 334.736 952.065 328.429 958.62 326.355C958.786 326.272 959.035 326.189 959.201 326.189C960.695 325.691 962.271 325.027 963.848 324.198C972.975 319.634 983.015 311.336 983.015 311.336L1000.69 306.191L1017.45 301.296L1021.1 293.33L1022.43 290.343C1023.59 287.853 1023.09 285.032 1021.35 283.041C1020.85 282.46 1020.19 281.962 1019.53 281.547C1019.36 281.464 1019.19 281.381 1018.94 281.298L996.873 271.59C993.554 270.179 990.981 267.441 989.737 264.039L988.658 261.301C987.413 257.982 984.841 255.326 981.688 253.833L942.771 239.063C942.439 238.897 941.859 238.731 941.029 238.482C939.452 238.067 937.046 237.569 934.557 237.403C930.574 237.154 926.425 237.735 925.263 240.805L920.202 241.469L910.908 242.714L899.789 244.207L876.556 247.36L862.864 249.186C862.947 249.269 861.122 280.883 867.096 304.117Z" fill="#05A1E4"/>
<path d="M941.198 238.482C947.587 243.046 982.354 260.305 982.354 260.305L991.399 269.764V272.752L1016.79 286.609L1021.52 283.041C1021.02 282.46 1020.36 281.962 1019.69 281.547C1019.53 281.464 1019.36 281.381 1019.11 281.298L997.041 271.59C993.722 270.179 991.15 267.441 989.905 264.039L988.826 261.301C987.582 257.982 985.01 255.326 981.856 253.833L942.94 239.063C942.608 238.897 942.027 238.731 941.198 238.482Z" fill="#09BCD5"/>
<path d="M965.261 316.315C965.261 316.315 970.737 311.17 948.665 303.038C926.593 294.907 906.679 268.354 906.679 268.354L895.062 312.913C895.062 312.913 953.478 325.608 965.261 316.315Z" fill="#09BCD5"/>
<path d="M862.204 378.382C874.817 368.009 890.002 349.091 898.217 344.278C901.453 342.369 904.44 340.544 907.261 338.884C925.101 334.735 952.069 328.429 958.624 326.355C960.284 325.857 962.026 325.11 963.852 324.197C962.856 322.538 958.458 316.729 945.182 314.987C929.582 312.912 906.099 299.636 906.099 299.636L912.24 254.745C912.24 254.745 905.601 262.96 895.478 273.498C889.504 279.722 882.202 286.775 874.402 293.33C871.332 295.902 868.926 299.636 867.017 304.117C857.973 325.774 860.96 365.354 862.204 378.382Z" fill="#057DD3"/>
<path d="M838.802 390.911C844.113 388.671 849.34 386.265 854.485 383.692C856.891 382.448 859.546 380.622 862.285 378.382C874.731 368.176 889.584 349.672 897.965 344.527L839.051 379.626C838.968 379.626 838.802 385.518 838.802 390.911Z" fill="#09BCD5"/>
<path d="M909.583 244.954L917.964 245.867L932.153 247.36L934.808 237.403L935.721 233.918C936.717 230.101 933.646 226.533 929.747 226.948H929.664C927.589 227.197 925.432 227.695 923.772 228.525C920.038 230.433 913.981 238.731 911.16 242.714C910.164 244.124 909.583 244.954 909.583 244.954Z" fill="#05A1E4"/>
<path d="M767.86 464.512C768.524 459.534 767.777 450.738 767.777 450.738C767.777 450.738 764.707 446.008 761.554 434.474C759.064 425.264 763.296 372.656 765.122 351.497C765.619 346.104 765.868 342.701 765.868 342.701L767.113 342.619L787.608 340.959L859.301 342.701L836.233 397.052C834.657 400.703 832.001 403.773 828.599 405.847C828.267 406.096 827.935 406.262 827.603 406.428L813.829 413.813C813.829 413.813 801.798 455.634 801.134 461.276C800.47 466.919 809.099 470.818 815.821 471.731C822.293 472.644 827.437 481.689 827.852 482.435H771.428C771.262 481.523 767.279 469.325 767.86 464.512Z" fill="#05A1E4"/>
<path d="M771.592 482.518L827.934 482.435V482.518H771.592Z" fill="#05A1E4"/>
<path d="M837.391 394.396L856.891 347.68L848.012 386.845L837.391 394.396Z" fill="#0767AD"/>
<path d="M760.809 410.328L765.539 347.68L753.673 410.328H760.809Z" fill="#0767AD"/>
<path d="M1021.19 293.33L1022.51 290.343C1024.01 287.107 1022.68 283.29 1019.61 281.63L1015.38 283.788C1014.22 284.368 1013.72 285.862 1014.3 287.024C1015.38 288.932 1017.37 291.753 1021.19 293.33Z" fill="#05389A"/>
<path d="M983.434 274.079L974.804 281.713H969.991L953.728 280.551L969.576 279.224L962.689 271.507L962.44 260.305L983.434 274.079Z" fill="#057DD3"/>
<path d="M971.07 267.275L983.434 274.079L974.389 275.656L971.07 267.275Z" fill="#0767AD"/>
<path d="M933.891 233.503L927.999 246.863L931.484 247.36L933.891 233.503Z" fill="#096AC2"/>
<path d="M899.95 244.29C903.103 246.614 909.576 265.45 909.576 265.45C909.576 265.45 918.205 245.535 918.288 245.286C918.952 244.042 919.699 242.797 920.363 241.552C923.931 235.495 927.748 229.769 929.656 226.948H929.573C927.499 227.197 925.341 227.695 923.682 228.525C919.948 230.433 913.891 238.731 911.069 242.714L899.95 244.29Z" fill="#057DD3"/>
<path d="M951.151 320.298L959.283 326.106C960.777 325.608 962.353 324.944 963.93 324.115C973.057 319.551 983.098 311.253 983.098 311.253L965.174 309.677L951.151 320.298Z" fill="#057DD3"/>
<path d="M987.577 272.669L982.35 260.305L991.395 269.764L987.577 272.669Z" fill="#057DD3"/>
<path d="M1000.77 306.109L1017.62 301.296H1002.52L1000.77 306.109Z" fill="#057DD3"/>
<path d="M608.046 471.566C608.959 475.548 613.19 481.855 613.605 482.436H668.204C667.541 475.631 654.43 475.963 649.368 471.649C647.958 470.487 647.211 468.91 647.543 466.753C648.539 459.7 650.115 454.804 657.334 448.83C660.321 446.34 664.387 443.602 669.781 440.449C679.738 434.641 688.949 430.99 697.91 423.771C683.389 420.037 661.815 405.267 652.688 382.697C644.971 363.446 636.756 331.085 637.503 306.441C615.099 336.147 612.526 361.538 611.282 379.046C609.871 399.707 615.348 426.011 615.348 426.011C612.941 433.396 605.473 459.949 608.046 471.566Z" fill="#057DD3"/>
<path d="M613.691 482.518L668.207 482.435C668.207 482.435 668.207 482.435 668.207 482.518H613.691Z" fill="#057DD3"/>
<path d="M761.547 434.475C764.7 446.091 767.77 450.738 767.77 450.738C767.77 450.738 768.434 459.534 767.853 464.512C767.273 469.325 771.256 481.523 771.587 482.435H828.012C827.597 481.606 822.453 472.644 815.98 471.731C813.491 471.399 810.753 470.653 808.263 469.491C804.115 467.582 800.878 464.761 801.21 461.193C801.459 458.621 804.115 448.664 806.936 438.457C810.338 426.177 813.906 413.73 813.906 413.73L827.68 406.345C828.012 406.179 828.344 405.93 828.676 405.764C814.653 395.143 797.974 380.871 793.742 369.503C791.253 362.948 789.262 352.244 787.685 340.793C784.449 316.979 783.038 289.928 783.038 289.928C783.038 289.928 772.5 321.293 767.19 342.453C766.526 345.108 765.945 347.514 765.53 349.755C765.447 350.252 765.364 350.75 765.198 351.331C763.373 372.573 759.058 425.264 761.547 434.475Z" fill="#057DD3"/>
<path d="M771.592 482.518L827.934 482.435V482.518H771.592Z" fill="#057DD3"/>
<path d="M723.469 363.777C723.469 363.777 701.978 344.776 700.069 329.84C698.161 314.904 700.069 306.108 700.069 306.108L723.469 363.777Z" fill="#057DD3"/>
<path d="M930.656 388.339C936.298 388.754 940.613 389.003 942.937 389.003C956.794 389.003 968.66 387.592 982.517 408.669C982.683 408.917 982.932 409.249 983.098 409.498C979.945 394.23 971.564 367.014 955.3 370.997C943.02 374.067 935.22 381.867 930.656 388.339Z" fill="#096AC2"/>
<path d="M821.129 479.697C819.552 478.452 821.792 476.295 823.286 477.54C825.194 479.033 827.02 480.527 828.348 482.435H824.282C823.369 481.439 822.29 480.61 821.129 479.697Z" fill="#05389A"/>
<path d="M815.403 480.028C814.407 478.369 817.063 476.792 818.058 478.452C818.805 479.779 819.552 481.024 820.133 482.435H816.731C816.316 481.605 815.818 480.858 815.403 480.028Z" fill="#05389A"/>
<path d="M807.439 479.531C806.775 477.622 809.762 476.875 810.426 478.701L811.754 482.435H808.518L807.439 479.531Z" fill="#05389A"/>
<path d="M663.634 481.273C662.14 479.946 664.298 477.788 665.791 479.116C666.953 480.195 668.032 481.273 669.027 482.518H664.878C664.464 482.02 664.049 481.605 663.634 481.273Z" fill="#05389A"/>
<path d="M656.579 480.693C655.417 479.116 658.072 477.54 659.234 479.116C659.981 480.195 660.728 481.274 661.309 482.435H657.741C657.409 481.855 656.994 481.274 656.579 480.693Z" fill="#05389A"/>
<path d="M649.032 479.614C647.87 477.954 650.526 476.461 651.687 478.038C652.6 479.365 653.347 480.859 653.762 482.435H650.526C650.111 481.44 649.613 480.527 649.032 479.614Z" fill="#05389A"/>
<path d="M641.475 480.942C641.558 479.697 641.476 478.452 642.471 477.539C643.965 476.212 646.122 478.369 644.629 479.697C644.38 479.946 644.463 481.688 644.463 482.435H641.393C641.393 481.937 641.392 481.439 641.475 480.942Z" fill="#05389A"/>
<path d="M959.619 267.275L951.155 284.202L974.555 285.862L959.619 267.275Z" fill="#09BCD5"/>
<path d="M788.438 435.304C788.438 435.304 789.932 461.359 796.902 466.172C800.968 468.993 805.282 469.574 808.27 469.574C804.121 467.665 800.885 464.844 801.216 461.276C801.465 458.704 804.121 448.746 806.942 438.54L788.438 435.304Z" fill="#09BCD5"/>
<path d="M640.906 464.263C642.898 467.997 646.217 470.321 649.37 471.648C647.96 470.487 647.213 468.91 647.545 466.753C648.54 459.699 650.117 454.804 657.336 448.829C650.864 444.266 638.998 435.304 638.998 435.304C638.998 435.304 636.343 455.634 640.906 464.263Z" fill="#09BCD5"/>
<path d="M815.153 270.345C812.166 290.094 834.653 308.1 834.653 308.1C834.653 308.1 843.864 282.46 854.568 266.528C859.878 258.645 867.595 251.426 873.984 246.116C864.608 241.884 846.436 235.91 824.281 240.556C817.809 241.967 810.839 242.797 803.703 243.461C810.009 249.518 816.896 259.06 815.153 270.345Z" fill="#09BCD5"/>
<path d="M894.767 57.5172C894.767 57.5172 902.736 72.6731 897.822 95.0427C892.909 117.412 876.207 78.3825 876.207 78.3825L894.767 57.5172Z" fill="url(#paint3_linear_0_4048)"/>
<path d="M895.313 83.7491C895.313 83.7491 897.872 55.0875 890.969 46.9051C884.065 38.7228 867.462 39.7231 867.462 39.7231L895.313 83.7491Z" fill="url(#paint4_linear_0_4048)"/>
<path d="M746.969 111.089C757.68 146.562 851.478 178.02 871.94 167.387C880.125 163.134 886.489 156.457 891.033 148.113C910.418 112.31 896.656 47.2706 848.883 27.9792C816.579 14.8912 780.96 34.635 761.038 60.8854C748.843 77.3486 742.487 96.1569 746.969 111.089Z" fill="url(#paint5_linear_0_4048)"/>
<path d="M761.619 130.705C771.859 139.037 788.166 148.88 799.693 153.875C820.927 162.955 837.23 167.111 847.314 167.406C853.91 167.476 857.851 166.031 858.532 163.149C859.061 161.329 855.572 158.072 849.428 154.058C831.604 142.321 792.169 124.157 769.268 118.036C767.221 117.582 765.401 117.053 763.809 116.827C763.43 116.828 763.126 116.676 762.747 116.677L762.596 116.601C758.577 115.922 755.393 115.849 753.649 116.684C753.195 116.837 752.816 117.216 752.513 117.444C750.467 120.024 754.564 125.1 761.619 130.705Z" fill="url(#paint6_linear_0_4048)"/>
<path opacity="0.3" d="M746.972 111.086C757.684 146.561 851.484 178.02 871.947 167.387C880.133 163.134 886.497 156.456 891.04 148.112C891.04 148.112 879.977 157.371 860.642 151.702C841.306 146.032 788.903 120.451 781.465 107.644C774.028 94.8368 794.096 59.9417 794.096 59.9417L761.194 60.9563C748.847 77.3444 742.49 96.1535 746.972 111.086Z" fill="url(#paint7_linear_0_4048)"/>
<path opacity="0.5" d="M761.618 130.706C772.46 130.62 803.697 131.806 823.039 145.817C846.856 163.009 847.314 167.406 847.314 167.406C853.91 167.476 857.851 166.032 858.532 163.15C859.061 161.33 855.572 158.072 849.428 154.059C831.604 142.321 792.168 124.158 769.268 118.036C766.917 117.431 764.643 117.054 762.595 116.601L762.444 116.525C758.425 115.846 755.241 115.773 753.497 116.609C753.042 116.761 752.664 117.141 752.36 117.368C750.467 120.024 754.564 125.101 761.618 130.706Z" fill="url(#paint8_linear_0_4048)"/>
<path d="M763.805 116.827C766.766 123.801 789.065 138.34 802.792 144.243C827.439 154.837 844.044 157.249 849.577 154.135C830.084 141.186 785.264 120.903 763.805 116.827Z" fill="url(#paint9_linear_0_4048)"/>
<path d="M890.659 150.012C882.098 159.572 802.251 130.149 790.71 102.031C779.169 73.9129 825.985 16.5534 864.739 40.2503C901.522 62.5842 906.341 132.636 890.659 150.012Z" fill="#DFE3FB"/>
<path d="M891.183 148.193C882.622 157.753 802.774 128.33 791.234 100.212C779.693 72.0937 826.508 14.7343 865.263 38.4312C901.969 60.9168 906.865 130.817 891.183 148.193Z" fill="url(#paint10_linear_0_4048)"/>
<path d="M818.938 29.141C818.938 29.141 804.18 68.5773 774.464 70.0439C774.464 70.0439 762.484 65.5814 759.445 55.3492C759.445 55.3492 764.761 70.1283 780.678 65.5654C796.594 61.0026 807.796 32.1076 804.3 18.9948C800.654 5.80637 787.613 2.33041 787.613 2.33041L794.434 0.429068C794.434 0.429068 813.616 5.64336 818.938 29.141Z" fill="url(#paint11_linear_0_4048)"/>
<path d="M794.426 0.428721C794.426 0.428721 807.847 5.79971 809.223 25.0553C810.676 45.6755 790.072 69.4992 776.349 67.7676C762.779 66.1116 773.361 16.065 773.361 16.065L788.968 1.87398C788.968 1.87398 791.62 -0.0236963 794.426 0.428721Z" fill="url(#paint12_linear_0_4048)"/>
<path d="M758.889 29.496C756.317 38.8235 756.171 47.4665 758.601 54.3635L759.36 56.2582C761.637 61.1841 765.278 64.8959 770.435 66.7109C787.04 72.534 800.596 51.0665 805.136 37.4159C810.433 21.4901 802.312 6.25845 791.621 2.62875C778.806 -2.0605 764.184 11.2958 758.889 29.496Z" fill="url(#paint13_linear_0_4048)"/>
<path d="M896.573 138.182C896.573 138.182 906.282 146.058 912.355 159.7C918.428 173.342 916.01 185.02 903.724 177.752L899.55 171.311C899.55 171.311 906.604 176.157 909.404 167.891C912.204 159.624 896.043 139.623 896.043 139.623L896.573 138.182Z" fill="url(#paint14_linear_0_4048)"/>
<path d="M909.178 172.515C911.001 178.351 901.828 178.132 895.079 176.091C887.496 173.823 875.134 166.706 879.224 159.651C883.086 152.672 904.773 158.947 909.178 172.515Z" fill="url(#paint15_linear_0_4048)"/>
<path d="M908.346 173.047C908.044 174.412 882.108 163.364 883.394 158.511C884.832 153.732 910.691 163.036 908.346 173.047Z" fill="url(#paint16_linear_0_4048)"/>
<path d="M842.247 83.4094C842.475 84.4708 835.417 72.4208 815.476 70.6186C813.353 70.3171 838.823 63.3189 842.247 83.4094Z" fill="url(#paint17_linear_0_4048)"/>
<path d="M894.726 109.601C894.954 110.663 891.992 102.552 875.689 98.7754C873.794 98.398 891.682 91.7856 894.726 109.601Z" fill="url(#paint18_linear_0_4048)"/>
<path opacity="0.5" d="M873.149 143.353C873.149 143.353 858.964 130.778 837.503 122.911C816.042 115.044 811.796 115.579 811.115 117.702C810.434 119.826 823.406 131.037 842.895 138.299C862.536 145.637 873.149 143.353 873.149 143.353Z" fill="url(#paint19_linear_0_4048)"/>
<path opacity="0.5" d="M892.101 144.857C892.101 144.857 901.341 131.657 898.519 105.05C898.519 105.05 897.379 100.502 895.409 101.034C893.666 101.491 899.212 122.638 892.101 144.857Z" fill="url(#paint20_linear_0_4048)"/>
<path opacity="0.72" d="M804.828 27.0319C803.389 29.5352 787.459 14.7643 781.165 12.571C774.871 10.3778 768.658 16.373 767.824 15.7672C766.989 15.1614 778.124 -0.694848 789.802 3.61664C801.328 7.85243 805.736 25.2114 804.828 27.0319Z" fill="url(#paint21_linear_0_4048)"/>
<path d="M870.398 115.455C870.398 115.455 851.44 106.753 842.262 98.9514C842.262 98.9514 835.981 117.609 848.115 123.663C860.324 129.567 870.398 115.455 870.398 115.455Z" fill="#07B5FE"/>
<path d="M859.818 224.762C859.186 234.759 848.581 238.214 844.925 236.753C841.718 235.43 831.933 228.289 820.651 213.778C819.016 211.628 817.278 209.281 815.586 206.784C802.363 187.398 786.766 149.685 795.644 149.148C821.193 147.856 860.405 214.915 859.818 224.762Z" fill="url(#paint22_linear_0_4048)"/>
<path d="M838.233 232.377C838.233 232.377 836.265 223.876 843.167 219.109C849.918 214.296 859.678 222.58 859.678 222.58C859.678 222.58 862.014 232.017 851.988 234.665C841.963 237.313 838.233 232.377 838.233 232.377Z" fill="url(#paint23_linear_0_4048)"/>
<path opacity="0.3" d="M859.82 224.762C859.187 234.759 848.583 238.214 844.926 236.753C841.72 235.43 831.934 228.289 820.652 213.779C821.769 214.947 829.404 223.724 834.197 222.578C839.337 221.375 845.837 204.647 828.567 177.103C811.862 150.391 796.592 149.277 795.599 149.298C821.195 147.856 860.406 214.915 859.82 224.762Z" fill="url(#paint24_linear_0_4048)"/>
<path d="M845.581 222.981C849.557 220.76 857.045 222.586 860.236 225.548C863.427 228.509 872.692 241.572 873.851 261.166C873.851 261.166 869.444 271.144 861.941 270.957C856.227 270.831 850.927 255.051 846.818 243.914C842.559 232.73 839.051 226.547 845.581 222.981Z" fill="url(#paint25_linear_0_4048)"/>
<path d="M863.189 271.178C863.189 271.178 856.77 233.021 839.933 230.6C839.933 230.6 841.305 236.779 847.845 250.149C854.236 263.473 859.414 271.16 863.189 271.178Z" fill="url(#paint26_linear_0_4048)"/>
<path opacity="0.5" d="M857.198 250.745C857.198 250.745 855.499 257.287 853.302 259.072C851.105 260.858 848.866 260.657 848.866 260.657L852.324 241.015C852.324 241.015 856.225 246.991 857.198 250.745Z" fill="url(#paint27_linear_0_4048)"/>
<path d="M852.322 241.014C852.322 241.014 846.813 231.744 839.853 231.397C839.853 231.397 836.235 238.825 845.172 259.841C845.172 259.841 849.806 262.921 852.715 257.246C852.715 257.246 853.726 248.682 852.322 241.014Z" fill="url(#paint28_linear_0_4048)"/>
<path d="M847.604 238.731C849.626 238.042 849.79 248.12 848.554 248.395C847.365 248.52 845.779 239.316 847.604 238.731Z" fill="white"/>
<path d="M808.518 182.399C805.406 185.544 811.019 190.242 812.854 190.153C814.69 190.064 810.658 180.267 808.518 182.399Z" fill="white"/>
<path d="M813.782 191.921C813.043 192.185 814.849 195.374 815.506 195.907C816.473 197.028 818.78 198.072 819.069 197.668C819.209 197.218 814.521 191.657 813.782 191.921Z" fill="white"/>
<path d="M729.726 201.17C720.527 227.488 727.598 245.546 751.636 259.921C775.063 273.956 804.927 257.594 815.752 223.286C822.689 201.451 827.416 181.304 823.977 164.751C821.927 155.42 817.472 147.197 809.083 140.548C802.436 135.246 794.29 135.51 785.425 139.092C762.558 148.384 736.921 180.985 729.726 201.17Z" fill="url(#paint29_linear_0_4048)"/>
<path opacity="0.3" d="M769.026 165.4C769.026 165.4 755.443 181.933 747.987 193.97C739.214 208.287 738.705 227.113 738.705 227.113L728.16 205.661C728.16 205.661 730.549 194.19 737.332 185.307C743.994 176.215 747.477 172.413 747.477 172.413L769.026 165.4Z" fill="url(#paint30_linear_0_4048)"/>
<path d="M814.892 227.793C814.892 227.793 820.331 206.959 803.619 196.663C783.615 184.252 756.346 198.153 748.409 213.925C740.308 229.653 736.256 246.647 754.906 258.869C754.579 258.781 790.665 279.913 814.892 227.793Z" fill="url(#paint31_linear_0_4048)"/>
<path d="M813.341 229.657C813.341 229.657 818.78 208.823 802.068 198.527C782.064 186.116 754.795 200.017 746.858 215.789C738.758 231.517 734.705 248.511 753.355 260.733C753.147 260.853 789.114 281.777 813.341 229.657Z" fill="url(#paint32_radial_0_4048)"/>
<path d="M748.013 178.882C748.907 179.474 750.185 179.291 751.967 178.542C759.629 175.514 773.936 162.161 779.529 153.132C781.689 149.676 782.439 146.893 781.067 145.47C778.637 143.411 767.638 149.052 757.279 160.132C750.95 166.68 744.231 176.634 748.013 178.882Z" fill="url(#paint33_linear_0_4048)"/>
<path d="M751.902 178.774C759.565 175.746 773.871 162.393 779.464 153.364C774.786 155.089 767.457 160.138 760.328 167.7C756.978 171.011 753.735 175.23 751.902 178.774Z" fill="url(#paint34_linear_0_4048)"/>
<path opacity="0.5" d="M785.625 138.976C785.625 138.976 804.506 163.377 814.496 167.999C824.322 172.577 824.255 165.009 824.18 164.637C822.13 155.305 817.675 147.082 809.284 140.432C802.637 135.13 794.327 135.35 785.625 138.976Z" fill="url(#paint35_linear_0_4048)"/>
<path opacity="0.72" d="M812.152 226.884C806.705 230.158 801.005 218.087 788.528 212.268C775.887 206.405 765.769 208.772 763.453 204.988C761.138 201.203 782.515 190.279 800.997 200.525C815.771 208.894 814.066 225.644 812.152 226.884Z" fill="url(#paint36_linear_0_4048)"/>
<path fill-rule="evenodd" clip-rule="evenodd" d="M784.782 221.313L784.778 221.308C782.72 218.814 780.661 216.319 778.603 213.825L778.604 213.823C778.582 213.826 778.558 213.83 778.534 213.833L778.567 213.81C777.361 213.071 775.754 213.217 774.412 214.191L774.413 214.193L764.141 221.633C763.331 222.22 762.805 223.195 762.769 224.176L761.845 245.917C766.722 242.122 769.773 236.051 769.823 230.039C769.866 224.688 769.905 221.205 769.927 220.815C769.933 220.706 769.951 220.397 770.137 220.077C770.306 219.789 770.521 219.633 770.617 219.569L771.933 218.615L790.047 227.694C788.309 225.587 786.571 223.481 784.832 221.374L784.796 221.331L784.782 221.313ZM778.067 251.915L778.006 251.936C774.999 252.997 771.992 254.058 768.985 255.118C772.214 252.614 775.443 250.111 778.671 247.607L778.704 247.582L778.756 247.541L778.765 247.534C781.78 245.196 784.795 242.859 787.809 240.521L787.867 238.92C787.877 238.805 787.885 238.544 787.758 238.285C787.617 237.998 787.378 237.879 787.292 237.837C786.988 237.685 784.183 236.491 779.861 234.675C775.006 232.635 771.999 227.654 771.999 221.651L789.086 229.761C789.862 230.122 790.322 230.956 790.287 231.939L789.84 244.396L789.839 244.395C789.78 246.022 788.885 247.634 787.521 248.562L787.522 248.529C787.511 248.55 787.501 248.57 787.491 248.59C784.368 249.692 781.244 250.794 778.12 251.896L778.075 251.912L778.067 251.915ZM753.792 244.382C754.995 241.055 756.198 237.728 757.401 234.401C758.604 231.073 759.808 227.745 761.011 224.417L759.963 247.717L761.199 248.378C761.281 248.43 761.482 248.537 761.773 248.514C762.091 248.49 762.346 248.309 762.437 248.244L762.439 248.243C762.761 248.013 765.581 245.806 769.909 242.403C774.77 238.579 780.719 237.61 785.467 239.87L767.623 252.982C766.818 253.578 765.853 253.699 765.099 253.296L755.548 248.183L755.55 248.184C754.303 247.515 753.629 246.061 753.806 244.421L753.819 244.428C753.81 244.412 753.802 244.397 753.795 244.382L753.792 244.382Z" fill="url(#paint37_radial_0_4048)"/>
<path d="M780.053 213.662C783.867 218.286 787.683 222.909 791.497 227.531L772.95 218.236C774.156 217.075 776.098 216.317 777.304 215.156C777.527 214.914 777.833 214.626 778.228 214.364C778.975 213.866 779.657 213.714 780.054 213.661L780.053 213.662Z" fill="white"/>
<path d="M775.867 214.03L765.595 221.47C764.784 222.058 764.259 223.032 764.223 224.013L763.299 245.754C768.176 241.96 771.227 235.889 771.277 229.877C771.32 224.526 771.359 221.043 771.381 220.653C771.387 220.544 771.405 220.235 771.591 219.915C771.76 219.626 771.975 219.471 772.071 219.406C774.721 217.486 777.371 215.568 780.021 213.647C778.814 212.909 777.208 213.055 775.866 214.029L775.867 214.03Z" fill="white"/>
<path d="M788.937 248.428C782.769 250.604 776.599 252.78 770.431 254.956C776.857 249.972 783.284 244.99 789.71 240.006C789.891 241.564 789.279 243.701 789.46 245.259C789.515 245.555 789.555 245.949 789.52 246.42C789.451 247.31 789.143 248.028 788.937 248.428Z" fill="white"/>
<path d="M791.282 244.234L791.729 231.776C791.764 230.794 791.304 229.96 790.528 229.599L773.441 221.489C773.441 227.491 776.448 232.472 781.303 234.512C785.625 236.329 788.43 237.523 788.734 237.675C788.82 237.717 789.06 237.836 789.2 238.123C789.328 238.382 789.319 238.643 789.309 238.758C789.193 241.971 789.078 245.186 788.963 248.4C790.327 247.472 791.222 245.86 791.281 244.233L791.282 244.234Z" fill="white"/>
<path d="M755.234 244.22C757.64 237.564 760.047 230.91 762.453 224.254L761.379 248.123C760.027 247.709 758.746 246.324 757.392 245.908C757.121 245.849 756.783 245.738 756.434 245.528C755.776 245.128 755.417 244.567 755.237 244.22L755.234 244.22Z" fill="white"/>
<path d="M756.986 248.021L766.537 253.134C767.291 253.537 768.256 253.416 769.061 252.82L786.905 239.708C782.157 237.448 776.208 238.417 771.347 242.241C767.019 245.644 764.199 247.851 763.877 248.081C763.788 248.144 763.531 248.328 763.211 248.352C762.92 248.375 762.719 248.268 762.637 248.216C760.173 246.897 757.709 245.578 755.244 244.259C755.067 245.899 755.742 247.353 756.988 248.022L756.986 248.021Z" fill="white"/>
<path d="M792.512 162.952C793.852 163.839 787.937 179.277 786.42 179.044C784.903 178.811 785.263 174.87 787.002 169.72C788.621 164.362 791.171 162.064 792.512 162.952Z" fill="white"/>
<path d="M671.275 180.862C666.085 190.351 673.77 199.62 677.95 200.394C681.639 201.037 694.69 200.162 713.358 193.426C716.091 192.406 719.031 191.266 722.016 189.963C745.268 179.896 781.261 154.473 773.469 148.862C750.897 132.95 676.422 171.537 671.275 180.862Z" fill="url(#paint38_linear_0_4048)"/>
<path d="M686.591 200.257C686.591 200.257 693.291 193.633 689.743 185.303C686.358 177.016 672.671 178.949 672.671 178.949C672.671 178.949 665.095 186.215 672.717 194.413C680.338 202.611 686.591 200.257 686.591 200.257Z" fill="url(#paint39_linear_0_4048)"/>
<path opacity="0.3" d="M671.277 180.862C666.087 190.351 673.771 199.62 677.952 200.394C681.641 201.037 694.692 200.162 713.36 193.426C711.666 193.848 699.635 197.455 695.921 193.645C691.925 189.584 695.644 170.569 727.297 155.389C757.954 140.644 772.533 148.434 773.426 149.026C750.899 132.95 676.423 171.538 671.277 180.862Z" fill="url(#paint40_linear_0_4048)"/>
<path d="M685.305 187.44C682.958 183.121 675.071 180.47 670.449 181.332C665.828 182.194 649.836 188.773 637.473 205.987C637.473 205.987 635.738 217.635 642.694 221.791C647.981 224.971 661.923 213.626 672.098 205.831C682.438 198.081 689.206 194.461 685.305 187.44Z" fill="url(#paint41_linear_0_4048)"/>
<path d="M641.427 221.274C641.427 221.274 669.3 190.152 686.063 197.652C686.063 197.652 681.246 202.5 667.563 210.93C654.044 219.405 644.883 223.434 641.427 221.274Z" fill="url(#paint42_linear_0_4048)"/>
<path opacity="0.5" d="M658.688 206.082C658.688 206.082 656.464 213.033 657.439 215.929C658.414 218.825 660.573 219.934 660.573 219.934L668.749 200.013C668.749 200.013 661.742 203.218 658.688 206.082Z" fill="url(#paint43_linear_0_4048)"/>
<path d="M668.749 200.014C668.749 200.014 679.125 194.732 685.678 198.428C685.678 198.428 684.693 207.293 664.412 221.32C664.412 221.32 658.406 221.458 659.025 214.602C659.025 214.602 663.043 206.203 668.749 200.014Z" fill="url(#paint44_linear_0_4048)"/>
<path d="M674.369 200.651C672.922 198.856 666.957 207.959 667.927 208.923C668.94 209.722 675.698 202.238 674.369 200.651Z" fill="white"/>
<path d="M742.542 171.789C743.567 176.454 735.735 177.505 734.11 176.365C732.486 175.225 741.819 168.609 742.542 171.789Z" fill="white"/>
<path d="M732.237 177.44C732.759 178.107 729.271 179.977 728.364 180.084C726.834 180.55 724.127 180.171 724.095 179.636C724.228 179.145 731.714 176.773 732.237 177.44Z" fill="white"/>
<path d="M683.208 270.809C684.284 272.679 686.947 273.22 690.485 273.12C694.395 272.943 699.595 271.886 704.972 270.174C720.226 265.679 737.862 256.909 739.651 253.528C745.666 241.629 737.267 221.984 731.246 211.759C728.974 207.811 726.885 205.141 726.35 205.173C724.342 204.807 677.948 261.666 683.208 270.809Z" fill="url(#paint45_linear_0_4048)"/>
<path opacity="0.3" d="M683.21 270.807C684.286 272.677 686.949 273.219 690.486 273.118L704.972 270.172C703.694 270.355 688.283 272.174 698.411 253.481C708.923 234.014 731.503 213.408 731.503 213.408L731.453 211.639C729.181 207.691 727.092 205.022 726.557 205.053C724.341 204.808 677.95 261.665 683.21 270.807Z" fill="url(#paint46_linear_0_4048)"/>
<path d="M730.823 246.584C733.403 249.386 723.99 253.698 723.172 253.478C722.354 253.258 723.815 249.788 725.906 247.893C727.537 246.401 729.854 245.621 730.823 246.584Z" fill="white"/>
<path d="M721.807 253.987C722.121 254.774 719.093 256.241 718.986 255.334C718.835 254.591 719.679 253.414 720.258 253.219C720.837 253.024 721.567 253.572 721.807 253.987Z" fill="white"/>
<defs>
<linearGradient id="paint0_linear_0_4048" x1="816.447" y1="288.358" x2="799.546" y2="230.58" gradientUnits="userSpaceOnUse">
<stop stop-color="#C1DAF7"/>
<stop offset="1" stop-color="#E8DCF7"/>
</linearGradient>
<linearGradient id="paint1_linear_0_4048" x1="807.868" y1="252.689" x2="799.713" y2="232.532" gradientUnits="userSpaceOnUse">
<stop stop-color="#9DCAEA"/>
<stop offset="1" stop-color="#8CA2EF"/>
</linearGradient>
<linearGradient id="paint2_linear_0_4048" x1="822.325" y1="284.26" x2="801.005" y2="231.887" gradientUnits="userSpaceOnUse">
<stop stop-color="#6887C2"/>
<stop offset="1" stop-color="#CCEDFF"/>
</linearGradient>
<linearGradient id="paint3_linear_0_4048" x1="880.78" y1="96.3001" x2="899.492" y2="58.8035" gradientUnits="userSpaceOnUse">
<stop stop-color="#E5FF45"/>
<stop offset="1" stop-color="#00BBFF"/>
</linearGradient>
<linearGradient id="paint4_linear_0_4048" x1="876.842" y1="74.2911" x2="891.956" y2="44.003" gradientUnits="userSpaceOnUse">
<stop stop-color="#ACC4F4"/>
<stop offset="1" stop-color="#D1DBF5"/>
</linearGradient>
<linearGradient id="paint5_linear_0_4048" x1="805.307" y1="158.546" x2="851.415" y2="30.1228" gradientUnits="userSpaceOnUse">
<stop stop-color="#C1E4F7"/>
<stop offset="1" stop-color="#E8DCF7"/>
</linearGradient>
<linearGradient id="paint6_linear_0_4048" x1="855.666" y1="168.958" x2="752.406" y2="117.422" gradientUnits="userSpaceOnUse">
<stop stop-color="#7999EA"/>
<stop offset="1" stop-color="#8C9CEF"/>
</linearGradient>
<linearGradient id="paint7_linear_0_4048" x1="800.196" y1="154.595" x2="836.765" y2="81.3139" gradientUnits="userSpaceOnUse">
<stop stop-color="#6897C2"/>
<stop offset="1" stop-color="#CCEDFF"/>
</linearGradient>
<linearGradient id="paint8_linear_0_4048" x1="800.409" y1="150.293" x2="809.209" y2="132.658" gradientUnits="userSpaceOnUse">
<stop stop-color="#8DC0E5"/>
<stop offset="1" stop-color="#5C99BB"/>
</linearGradient>
<linearGradient id="paint9_linear_0_4048" x1="802.877" y1="146.26" x2="808.84" y2="128.923" gradientUnits="userSpaceOnUse">
<stop stop-color="#3657CC"/>
<stop offset="1" stop-color="#4A5696"/>
</linearGradient>
<linearGradient id="paint10_linear_0_4048" x1="831.323" y1="133.168" x2="876.039" y2="43.5598" gradientUnits="userSpaceOnUse">
<stop stop-color="#05B6FE"/>
<stop offset="1" stop-color="#001687"/>
</linearGradient>
<linearGradient id="paint11_linear_0_4048" x1="776.739" y1="70.7446" x2="810.33" y2="3.42973" gradientUnits="userSpaceOnUse">
<stop stop-color="#ACC4F4"/>
<stop offset="1" stop-color="#D1DBF5"/>
</linearGradient>
<linearGradient id="paint12_linear_0_4048" x1="780.493" y1="61.5611" x2="810.919" y2="0.588716" gradientUnits="userSpaceOnUse">
<stop stop-color="#9DC0EA"/>
<stop offset="1" stop-color="#8CAEEF"/>
</linearGradient>
<linearGradient id="paint13_linear_0_4048" x1="763.743" y1="63.6523" x2="794.452" y2="2.11212" gradientUnits="userSpaceOnUse">
<stop stop-color="#E5FF45"/>
<stop offset="1" stop-color="#00BBFF"/>
</linearGradient>
<linearGradient id="paint14_linear_0_4048" x1="897.518" y1="175.32" x2="909.519" y2="144.463" gradientUnits="userSpaceOnUse">
<stop stop-color="#9DB7EA"/>
<stop offset="1" stop-color="#8CBAEF"/>
</linearGradient>
<linearGradient id="paint15_linear_0_4048" x1="892.291" y1="175.779" x2="896.686" y2="158.537" gradientUnits="userSpaceOnUse">
<stop stop-color="#DDD51A"/>
<stop offset="1" stop-color="#FED811"/>
</linearGradient>
<linearGradient id="paint16_linear_0_4048" x1="894.926" y1="167.865" x2="898.476" y2="160.751" gradientUnits="userSpaceOnUse">
<stop stop-color="#E3AB3D"/>
<stop offset="1" stop-color="#FFF96D"/>
</linearGradient>
<linearGradient id="paint17_linear_0_4048" x1="828.716" y1="77.2221" x2="832.088" y2="70.4661" gradientUnits="userSpaceOnUse">
<stop stop-color="#E5FF45"/>
<stop offset="1" stop-color="#00BBFF"/>
</linearGradient>
<linearGradient id="paint18_linear_0_4048" x1="884.871" y1="104.755" x2="887.886" y2="98.7115" gradientUnits="userSpaceOnUse">
<stop stop-color="#E5FF45"/>
<stop offset="1" stop-color="#00BBFF"/>
</linearGradient>
<linearGradient id="paint19_linear_0_4048" x1="871.735" y1="146.202" x2="811.744" y2="116.261" gradientUnits="userSpaceOnUse">
<stop/>
<stop offset="1" stop-color="#07B5FE"/>
</linearGradient>
<linearGradient id="paint20_linear_0_4048" x1="888.527" y1="143.893" x2="900.197" y2="102.11" gradientUnits="userSpaceOnUse">
<stop/>
<stop offset="1" stop-color="#6A9BFF"/>
</linearGradient>
<linearGradient id="paint21_linear_0_4048" x1="805.15" y1="22.0935" x2="770.804" y2="4.95115" gradientUnits="userSpaceOnUse">
<stop/>
<stop offset="1" stop-color="#07B5FE" stop-opacity="0"/>
</linearGradient>
<linearGradient id="paint22_linear_0_4048" x1="810.26" y1="224.135" x2="833.344" y2="158.683" gradientUnits="userSpaceOnUse">
<stop stop-color="#B1CDEA"/>
<stop offset="1" stop-color="#D2DEF7"/>
</linearGradient>
<linearGradient id="paint23_linear_0_4048" x1="850.69" y1="234.895" x2="846.531" y2="217.609" gradientUnits="userSpaceOnUse">
<stop stop-color="#9DAEEA"/>
<stop offset="1" stop-color="#8CC5EF"/>
</linearGradient>
<linearGradient id="paint24_linear_0_4048" x1="815.26" y1="227.594" x2="835.933" y2="160.863" gradientUnits="userSpaceOnUse">
<stop stop-color="#68A2C2"/>
<stop offset="1" stop-color="#CCEDFF"/>
</linearGradient>
<linearGradient id="paint25_linear_0_4048" x1="870.162" y1="267.944" x2="847.323" y2="222.143" gradientUnits="userSpaceOnUse">
<stop stop-color="#C1CAF7"/>
<stop offset="1" stop-color="#E8DCF7"/>
</linearGradient>
<linearGradient id="paint26_linear_0_4048" x1="859.823" y1="272.324" x2="844.584" y2="228.92" gradientUnits="userSpaceOnUse">
<stop stop-color="#9DCAEA"/>
<stop offset="1" stop-color="#8CAEEF"/>
</linearGradient>
<linearGradient id="paint27_linear_0_4048" x1="854.227" y1="259.198" x2="848.335" y2="242.417" gradientUnits="userSpaceOnUse">
<stop stop-color="#8DA4E5"/>
<stop offset="1" stop-color="#5C7CBB"/>
</linearGradient>
<linearGradient id="paint28_linear_0_4048" x1="852.821" y1="258.8" x2="839.31" y2="231.706" gradientUnits="userSpaceOnUse">
<stop stop-color="#C1C3F7"/>
<stop offset="1" stop-color="#E8DCF7"/>
</linearGradient>
<linearGradient id="paint29_linear_0_4048" x1="765.206" y1="264.866" x2="782.464" y2="133.066" gradientUnits="userSpaceOnUse">
<stop stop-color="#C1E0F7"/>
<stop offset="1" stop-color="#DEDCF7"/>
</linearGradient>
<linearGradient id="paint30_linear_0_4048" x1="728.927" y1="220.979" x2="764.83" y2="162.761" gradientUnits="userSpaceOnUse">
<stop stop-color="#6897C2"/>
<stop offset="1" stop-color="#CCEDFF"/>
</linearGradient>
<linearGradient id="paint31_linear_0_4048" x1="769.184" y1="263.62" x2="788.673" y2="191.26" gradientUnits="userSpaceOnUse">
<stop stop-color="#9DD8EA"/>
<stop offset="1" stop-color="#8CCBEF"/>
</linearGradient>
<radialGradient id="paint32_radial_0_4048" cx="0" cy="0" r="1" gradientUnits="userSpaceOnUse" gradientTransform="translate(769.591 254.107) rotate(-164.926) scale(51.2817 57.2591)">
<stop stop-color="#E5FF45"/>
<stop offset="1" stop-color="#00BBFF"/>
</radialGradient>
<linearGradient id="paint33_linear_0_4048" x1="753.601" y1="159.693" x2="775.526" y2="161.037" gradientUnits="userSpaceOnUse">
<stop stop-color="#798BEA"/>
<stop offset="1" stop-color="#8CAEEF"/>
</linearGradient>
<linearGradient id="paint34_linear_0_4048" x1="760.856" y1="185.137" x2="744.915" y2="166.369" gradientUnits="userSpaceOnUse">
<stop stop-color="#3657CC"/>
<stop offset="1" stop-color="#4A5696"/>
</linearGradient>
<linearGradient id="paint35_linear_0_4048" x1="801.567" y1="164.809" x2="808.618" y2="138.633" gradientUnits="userSpaceOnUse">
<stop stop-color="#8DA4E5"/>
<stop offset="1" stop-color="#5C71BB"/>
</linearGradient>
<linearGradient id="paint36_linear_0_4048" x1="815.418" y1="216.171" x2="763.811" y2="202.265" gradientUnits="userSpaceOnUse">
<stop stop-color="#00488A"/>
<stop offset="1" stop-color="#9FAEFF" stop-opacity="0"/>
</linearGradient>
<radialGradient id="paint37_radial_0_4048" cx="0" cy="0" r="1" gradientUnits="userSpaceOnUse" gradientTransform="translate(768.107 248.296) rotate(-14.1312) scale(23.6884 30.6513)">
<stop stop-color="#E5FF45"/>
<stop offset="1" stop-color="#00BBFF"/>
</radialGradient>
<linearGradient id="paint38_linear_0_4048" x1="716.866" y1="208.87" x2="733.543" y2="135.819" gradientUnits="userSpaceOnUse">
<stop stop-color="#C1DAF7"/>
<stop offset="1" stop-color="#E8DCF7"/>
</linearGradient>
<linearGradient id="paint39_linear_0_4048" x1="673.768" y1="195.372" x2="687.536" y2="181.992" gradientUnits="userSpaceOnUse">
<stop stop-color="#9DAEEA"/>
<stop offset="1" stop-color="#8CC5EF"/>
</linearGradient>
<linearGradient id="paint40_linear_0_4048" x1="710.31" y1="209.144" x2="729.925" y2="136.316" gradientUnits="userSpaceOnUse">
<stop stop-color="#68A2C2"/>
<stop offset="1" stop-color="#CCEDFF"/>
</linearGradient>
<linearGradient id="paint41_linear_0_4048" x1="636.929" y1="214.3" x2="684.198" y2="185.671" gradientUnits="userSpaceOnUse">
<stop stop-color="#C1CAF7"/>
<stop offset="1" stop-color="#E8DCF7"/>
</linearGradient>
<linearGradient id="paint42_linear_0_4048" x1="643.839" y1="224.261" x2="682.786" y2="193.433" gradientUnits="userSpaceOnUse">
<stop stop-color="#9DCAEA"/>
<stop offset="1" stop-color="#8CAEEF"/>
</linearGradient>
<linearGradient id="paint43_linear_0_4048" x1="656.522" y1="215.511" x2="671.58" y2="203.592" gradientUnits="userSpaceOnUse">
<stop stop-color="#8DA4E5"/>
<stop offset="1" stop-color="#5C7CBB"/>
</linearGradient>
<linearGradient id="paint44_linear_0_4048" x1="658.031" y1="215.959" x2="685.994" y2="199.022" gradientUnits="userSpaceOnUse">
<stop stop-color="#C1C3F7"/>
<stop offset="1" stop-color="#E8DCF7"/>
</linearGradient>
<linearGradient id="paint45_linear_0_4048" x1="702.152" y1="276.392" x2="725.455" y2="203.524" gradientUnits="userSpaceOnUse">
<stop stop-color="#C1DAF7"/>
<stop offset="1" stop-color="#E8DCF7"/>
</linearGradient>
<linearGradient id="paint46_linear_0_4048" x1="700.686" y1="276.279" x2="714.536" y2="202.922" gradientUnits="userSpaceOnUse">
<stop stop-color="#6887C2"/>
<stop offset="1" stop-color="#CCEDFF"/>
</linearGradient>
</defs>
</svg>
