<svg width="48" height="48" viewBox="0 0 48 48" fill="none" xmlns="http://www.w3.org/2000/svg">
<path d="M36 0H12C5.37258 0 0 5.37258 0 12V36C0 42.6274 5.37258 48 12 48H36C42.6274 48 48 42.6274 48 36V12C48 5.37258 42.6274 0 36 0Z" fill="#1DA1F2"/>
<path d="M20.28 32.1259C21.8155 32.1355 23.3375 31.8401 24.758 31.2569C26.1784 30.6737 27.4689 29.8143 28.5547 28.7286C29.6404 27.6428 30.4998 26.3523 31.083 24.9319C31.6662 23.5115 31.9616 21.9894 31.952 20.4539C31.952 20.2779 31.952 20.1019 31.944 19.9259C32.7476 19.3438 33.4411 18.6232 33.992 17.7979C33.2416 18.1292 32.4463 18.3475 31.632 18.4459C32.4907 17.9316 33.1333 17.1227 33.44 16.1699C32.6341 16.6479 31.7518 16.9834 30.832 17.1619C30.2698 16.5601 29.5394 16.1416 28.7359 15.9608C27.9324 15.7801 27.0932 15.8455 26.3274 16.1485C25.5616 16.4515 24.9048 16.9781 24.4426 17.6597C23.9804 18.3414 23.7342 19.1464 23.736 19.9699C23.7368 20.2846 23.7703 20.5982 23.836 20.9059C22.2057 20.8239 20.6108 20.4002 19.1547 19.6621C17.6987 18.9241 16.414 17.8883 15.384 16.6219C14.8617 17.5264 14.7026 18.5955 14.9387 19.6129C15.1749 20.6303 15.7887 21.52 16.656 22.1019C16.0057 22.0792 15.37 21.9038 14.8 21.5899V21.6459C14.8009 22.5927 15.1285 23.5102 15.7276 24.2433C16.3266 24.9765 17.1604 25.4804 18.088 25.6699C17.4854 25.8335 16.8535 25.8581 16.24 25.7419C16.5013 26.5573 17.0114 27.2705 17.6987 27.7813C18.3859 28.292 19.2159 28.5748 20.072 28.5899C18.6181 29.7331 16.8215 30.3531 14.972 30.3499C14.6472 30.3513 14.3225 30.3326 14 30.2939C15.8758 31.4909 18.0548 32.1265 20.28 32.1259" fill="white"/>
</svg>
