<svg width="1" height="1" viewBox="0 0 1 1" fill="none" xmlns="http://www.w3.org/2000/svg">
<g id="arrow_right">
<path id="shape" d="M0.0130501 0.018074C0.0132942 0.018074 0.0135307 0.0179749 0.0137367 0.0177689L0.0187416 0.0127792C0.0189323 0.0125885 0.0190468 0.0123215 0.0190468 0.0120544C0.0190468 0.0117874 0.0189323 0.0115128 0.0187416 0.0113297L0.013752 0.00634003C0.0135384 0.0061264 0.0132942 0.00602722 0.0130501 0.00602722C0.0124855 0.00602722 0.0120888 0.00643158 0.0120888 0.00695801C0.0120888 0.00724792 0.0122108 0.00747681 0.0123863 0.00765991L0.0141182 0.00939941L0.0160484 0.0111694L0.0143318 0.0110779H0.0053978C0.00479507 0.0110779 0.00439072 0.0114746 0.00439072 0.0120544C0.00439072 0.0126343 0.00479507 0.013031 0.0053978 0.013031H0.0143318L0.0160484 0.0129318L0.0141182 0.0147095L0.0123863 0.0164413C0.0122108 0.0166245 0.0120888 0.0168533 0.0120888 0.0171432C0.0120888 0.0176773 0.0124855 0.018074 0.0130501 0.018074Z" fill="white"/>
</g>
</svg>
