<svg width="685" height="600" viewBox="0 0 685 600" fill="none" xmlns="http://www.w3.org/2000/svg">
<path d="M2.58524 341.334C40.0008 281.666 77.4009 221.983 114.803 162.331L61.888 404.699C48.0587 395.335 36.6683 376.227 22.8389 366.862C20.0131 365.228 16.5685 362.817 13.1893 359.331C6.78853 352.722 3.90559 345.599 2.56997 341.321L2.58524 341.334Z" fill="url(#paint0_linear_1_369)"/>
<path d="M14.7797 387.119L108.628 475.786C116.036 482.78 126.647 485.162 136.321 482.022L350.923 413.685C303.801 372.533 238.146 360.183 179.227 381.394C126.788 400.286 92.6286 412.458 88.7694 413.621C87.685 413.95 84.6284 414.864 81.1198 413.932C77.9478 413.077 75.9835 411.218 75.1582 410.37C50.9393 387.502 26.7341 364.62 2.51512 341.752C-2.23872 358.004 2.48799 375.556 14.7664 387.135L14.7797 387.119Z" fill="url(#paint1_linear_1_369)"/>
<path d="M324.504 115.475C358.437 177.01 392.373 238.573 426.307 300.108C364.374 245.835 302.455 191.547 240.522 137.275C255.392 129.601 277.555 128.743 292.424 121.069C295.208 119.381 298.986 117.502 303.669 116.189C312.515 113.734 320.165 114.608 324.504 115.475Z" fill="url(#paint2_linear_1_369)"/>
<path d="M278.652 104.239L155.863 144.321C146.176 147.477 138.961 155.678 137.019 165.715L92.7047 387.373C151.427 365.642 193.991 313.763 203.999 251.74C212.907 196.525 218.842 160.635 219.703 156.665C219.938 155.548 220.615 152.417 223.129 149.796C225.403 147.424 227.975 146.577 229.118 146.272C260.793 135.938 292.481 125.589 324.156 115.255C312.279 103.268 294.68 99.0215 278.638 104.255L278.652 104.239Z" fill="url(#paint3_linear_1_369)"/>
<path d="M352.436 509.925C282.387 506.947 212.352 503.954 142.303 500.976L378.029 426.627C376.75 443.351 365.823 462.78 364.531 479.52C364.511 482.789 364.114 486.997 362.774 491.683C360.212 500.539 355.461 506.614 352.434 509.896L352.436 509.925Z" fill="url(#paint4_linear_1_369)"/>
<path d="M386.029 476.505L416.466 350.505C418.862 340.563 415.708 330.135 408.22 323.234L243.372 169.901C230.988 231.513 252.667 294.955 300.042 335.812C342.209 372.197 369.573 395.951 372.483 398.735C373.289 399.512 375.611 401.734 376.503 405.251C377.326 408.441 376.686 411.092 376.349 412.202C368.497 444.711 360.645 477.22 352.793 509.729C369.202 505.783 382.036 492.931 386.027 476.476L386.029 476.505Z" fill="url(#paint5_linear_1_369)"/>
<path d="M161.423 140.076C227.384 115.391 293.342 90.6863 359.283 66.0064L170.058 226.432C164.758 210.593 167.312 188.495 162.012 172.657C160.759 169.642 159.487 165.635 158.919 160.814C157.847 151.676 159.882 144.266 161.419 140.056L161.423 140.076Z" fill="url(#paint6_linear_1_369)"/>
<path d="M143.307 183.857L164.024 311.293C165.662 321.349 172.645 329.685 182.238 333.065L394.237 409.095C381.789 347.784 337.127 298.101 277.436 279.173C224.301 262.338 189.769 251.264 185.997 249.845C184.936 249.448 181.953 248.317 179.731 245.446C177.73 242.84 177.299 240.17 177.158 238.996C171.803 206.12 166.468 173.241 161.114 140.365C147.467 150.391 140.564 167.205 143.287 183.862L143.307 183.857Z" fill="url(#paint7_linear_1_369)"/>
<path d="M554.343 156.126C543.934 225.622 533.51 295.142 523.102 364.638C506.855 283.909 490.629 203.175 474.382 122.446C490.856 125.379 508.985 138.156 525.459 141.089C528.696 141.439 532.838 142.24 537.356 144.041C545.875 147.462 551.422 152.802 554.343 156.126Z" fill="url(#paint8_linear_1_369)"/>
<path d="M524.737 119.354L402.842 76.6321C393.229 73.257 382.517 75.391 374.878 82.1865L205.064 231.38C264.915 249.777 330.237 234.407 375.853 191.208C416.461 152.749 442.971 127.839 446.066 125.208C446.931 124.464 449.37 122.387 452.959 121.832C456.206 121.328 458.764 122.217 459.858 122.669C491.299 133.694 522.759 144.715 554.2 155.74C552.044 139.005 540.64 124.942 524.717 119.359L524.737 119.354Z" fill="url(#paint9_linear_1_369)"/>
<path d="M336.995 486.475C283.15 441.571 229.325 396.662 175.481 351.757L407.913 435.838C396.74 448.349 376.26 457.149 365.068 469.664C363.068 472.249 360.196 475.352 356.286 478.26C348.873 483.741 341.409 485.682 337.011 486.451L336.995 486.475Z" fill="url(#paint10_linear_1_369)"/>
<path d="M383.979 480.324L484.678 398.702C492.619 392.258 496.446 382.058 494.688 372.028L456.833 150.098C409.579 191.527 388.276 255.096 401.103 316.327C412.509 370.841 419.824 406.331 420.445 410.31C420.614 411.417 421.109 414.593 419.681 417.928C418.399 420.963 416.28 422.68 415.339 423.358C389.358 444.417 363.378 465.477 337.398 486.537C352.83 493.367 370.832 490.949 383.995 480.3L383.979 480.324Z" fill="url(#paint11_linear_1_369)"/>
<circle cx="208.599" cy="252.685" r="180.99" transform="rotate(-12.8796 208.599 252.685)" fill="#F3BA2F"/>
<path fill-rule="evenodd" clip-rule="evenodd" d="M153.751 243.549L192.426 181.948L254.061 220.641L276.564 184.796L179.083 123.596L117.907 221.046L153.751 243.549ZM102.014 246.354L137.858 268.857L115.355 304.703L79.5103 282.2L102.014 246.354ZM224.775 323.422L163.172 284.75L140.617 320.566L140.668 320.597L238.117 381.774L299.315 284.294L299.325 284.274L263.468 261.791L224.775 323.422ZM337.695 223.177L315.191 259.023L279.347 236.521L301.851 200.675L337.695 223.177ZM238.201 245.901L238.189 245.904L238.219 245.912L238.208 245.931L215.373 282.305L179.032 259.49L178.982 259.457L179.013 259.407L183.013 253.036L184.95 249.947L184.952 249.946L201.828 223.066L238.201 245.901Z" fill="white"/>
<rect x="259.108" y="135.709" width="360.971" height="360.971" rx="180.486" transform="rotate(10.3492 259.108 135.709)" fill="url(#paint12_linear_1_369)"/>
<path d="M379.349 219.354C416.023 237.676 452.704 255.989 489.369 274.305L345.971 257.275C350.619 248.736 361.049 241.062 365.697 232.523C366.485 230.794 367.689 228.663 369.518 226.509C372.987 222.429 376.952 220.358 379.356 219.344L379.349 219.354Z" fill="url(#paint13_linear_1_369)"/>
<path d="M353.507 228.993L307.413 288.352C303.778 293.037 302.994 299.319 305.358 304.747L357.017 425.24C378.21 395.625 381.673 356.892 366.071 323.948C352.177 294.629 343.204 275.522 342.313 273.351C342.062 272.741 341.361 271.022 341.703 268.937C342.02 267.051 342.987 265.808 343.432 265.282C355.319 249.965 367.215 234.654 379.103 219.337C369.419 217.496 359.516 221.222 353.497 228.986L353.507 228.993Z" fill="url(#paint14_linear_1_369)"/>
<path d="M528.307 393.166C494.563 416.286 460.803 439.409 427.06 462.53C455.021 423.596 482.993 384.669 510.955 345.735C516.237 353.918 517.98 366.711 523.262 374.894C524.397 376.412 525.698 378.495 526.722 381.134C528.642 386.121 528.566 390.603 528.307 393.166Z" fill="url(#paint15_linear_1_369)"/>
<path d="M532.239 365.969L502.112 297.081C499.739 291.646 494.582 287.927 488.657 287.367L357.742 274.156C373.634 306.956 406.085 328.7 442.583 331.01C475.074 333.067 496.201 334.487 498.549 334.763C499.21 334.836 501.062 335.053 502.722 336.362C504.224 337.546 504.86 338.988 505.1 339.634C512.869 357.404 520.646 375.181 528.415 392.952C534.692 385.397 536.163 374.961 532.229 365.962L532.239 365.969Z" fill="url(#paint16_linear_1_369)"/>
<path d="M301.343 431.529C299.129 390.777 296.925 350.032 294.712 309.28L351.043 441.673C341.281 441.872 329.41 436.634 319.639 436.826C317.744 436.999 315.283 437.006 312.493 436.492C307.218 435.506 303.431 433.095 301.36 431.526L301.343 431.529Z" fill="url(#paint17_linear_1_369)"/>
<path d="M322.594 449.112L397.307 459.662C403.202 460.491 409.066 458.077 412.644 453.351L492.212 349.22C455.819 345.51 420.282 361.637 399.274 391.382C380.564 417.859 368.34 435.048 366.891 436.891C366.486 437.402 365.329 438.872 363.342 439.586C361.54 440.243 359.968 440.021 359.306 439.888C340.029 437.167 320.753 434.446 301.477 431.724C304.685 441.009 312.853 447.723 322.611 449.109L322.594 449.112Z" fill="url(#paint18_linear_1_369)"/>
<defs>
<linearGradient id="paint0_linear_1_369" x1="107.618" y1="182.196" x2="26.4662" y2="370.346" gradientUnits="userSpaceOnUse">
<stop stop-color="#0862FF"/>
<stop offset="1" stop-color="#070860"/>
</linearGradient>
<linearGradient id="paint1_linear_1_369" x1="259.405" y1="348.889" x2="120.182" y2="489.913" gradientUnits="userSpaceOnUse">
<stop stop-color="#CBEF9B"/>
<stop offset="0.145833" stop-color="#53E894"/>
<stop offset="0.5" stop-color="#11B7EC"/>
<stop offset="1" stop-color="#0862FF"/>
</linearGradient>
<linearGradient id="paint2_linear_1_369" x1="421.76" y1="296.331" x2="266.657" y2="129.65" gradientUnits="userSpaceOnUse">
<stop stop-color="#0862FF"/>
<stop offset="1" stop-color="#070860"/>
</linearGradient>
<linearGradient id="paint3_linear_1_369" x1="211.809" y1="305.158" x2="144.322" y2="146.584" gradientUnits="userSpaceOnUse">
<stop stop-color="#CBEF9B"/>
<stop offset="0.145833" stop-color="#53E894"/>
<stop offset="0.5" stop-color="#11B7EC"/>
<stop offset="1" stop-color="#0862FF"/>
</linearGradient>
<linearGradient id="paint4_linear_1_369" x1="142.096" y1="502.08" x2="367.706" y2="468.4" gradientUnits="userSpaceOnUse">
<stop stop-color="#0862FF"/>
<stop offset="1" stop-color="#070860"/>
</linearGradient>
<linearGradient id="paint5_linear_1_369" x1="240.699" y1="242.033" x2="413.483" y2="364.615" gradientUnits="userSpaceOnUse">
<stop stop-color="#CBEF9B"/>
<stop offset="0.145833" stop-color="#53E894"/>
<stop offset="0.5" stop-color="#11B7EC"/>
<stop offset="1" stop-color="#0862FF"/>
</linearGradient>
<linearGradient id="paint6_linear_1_369" x1="341.512" y1="77.4256" x2="162.778" y2="177.628" gradientUnits="userSpaceOnUse">
<stop stop-color="#0862FF"/>
<stop offset="1" stop-color="#070860"/>
</linearGradient>
<linearGradient id="paint7_linear_1_369" x1="360.876" y1="302.039" x2="164.624" y2="329.534" gradientUnits="userSpaceOnUse">
<stop stop-color="#CBEF9B"/>
<stop offset="0.145833" stop-color="#53E894"/>
<stop offset="0.5" stop-color="#11B7EC"/>
<stop offset="1" stop-color="#0862FF"/>
</linearGradient>
<linearGradient id="paint8_linear_1_369" x1="521.783" y1="358.876" x2="499.776" y2="132.259" gradientUnits="userSpaceOnUse">
<stop stop-color="#0862FF"/>
<stop offset="1" stop-color="#070860"/>
</linearGradient>
<linearGradient id="paint9_linear_1_369" x1="349.618" y1="238.391" x2="392.299" y2="71.4224" gradientUnits="userSpaceOnUse">
<stop stop-color="#CBEF9B"/>
<stop offset="0.145833" stop-color="#53E894"/>
<stop offset="0.5" stop-color="#11B7EC"/>
<stop offset="1" stop-color="#0862FF"/>
</linearGradient>
<linearGradient id="paint10_linear_1_369" x1="174.646" y1="352.509" x2="374.344" y2="462.757" gradientUnits="userSpaceOnUse">
<stop stop-color="#0862FF"/>
<stop offset="1" stop-color="#070860"/>
</linearGradient>
<linearGradient id="paint11_linear_1_369" x1="538.695" y1="302.13" x2="332.842" y2="439.417" gradientUnits="userSpaceOnUse">
<stop stop-color="#0862FF"/>
<stop offset="1" stop-color="#070860"/>
</linearGradient>
<linearGradient id="paint12_linear_1_369" x1="589.357" y1="414.468" x2="288.549" y2="402.665" gradientUnits="userSpaceOnUse">
<stop stop-color="#0862FF"/>
<stop offset="1" stop-color="#070860"/>
</linearGradient>
<linearGradient id="paint13_linear_1_369" x1="477.456" y1="271.259" x2="363.883" y2="234.821" gradientUnits="userSpaceOnUse">
<stop stop-color="#0862FF"/>
<stop offset="1" stop-color="#070860"/>
</linearGradient>
<linearGradient id="paint14_linear_1_369" x1="389.412" y1="368.574" x2="299.878" y2="295.841" gradientUnits="userSpaceOnUse">
<stop stop-color="#CBEF9B"/>
<stop offset="0.145833" stop-color="#53E894"/>
<stop offset="0.5" stop-color="#11B7EC"/>
<stop offset="1" stop-color="#0862FF"/>
</linearGradient>
<linearGradient id="paint15_linear_1_369" x1="428.992" y1="459.683" x2="516.842" y2="360.447" gradientUnits="userSpaceOnUse">
<stop stop-color="#0862FF"/>
<stop offset="1" stop-color="#070860"/>
</linearGradient>
<linearGradient id="paint16_linear_1_369" x1="412.073" y1="338.539" x2="500.152" y2="290.522" gradientUnits="userSpaceOnUse">
<stop stop-color="#CBEF9B"/>
<stop offset="0.145833" stop-color="#53E894"/>
<stop offset="0.5" stop-color="#11B7EC"/>
<stop offset="1" stop-color="#0862FF"/>
</linearGradient>
<linearGradient id="paint17_linear_1_369" x1="294.061" y1="309.222" x2="326.26" y2="438.041" gradientUnits="userSpaceOnUse">
<stop stop-color="#0862FF"/>
<stop offset="1" stop-color="#070860"/>
</linearGradient>
<linearGradient id="paint18_linear_1_369" x1="450.27" y1="351.728" x2="388.964" y2="458.727" gradientUnits="userSpaceOnUse">
<stop stop-color="#CBEF9B"/>
<stop offset="0.145833" stop-color="#53E894"/>
<stop offset="0.5" stop-color="#11B7EC"/>
<stop offset="1" stop-color="#0862FF"/>
</linearGradient>
</defs>
</svg>
