<svg width="72" height="72" viewBox="0 0 72 72" fill="none" xmlns="http://www.w3.org/2000/svg">
<rect width="72" height="72" rx="36" fill="white"/>
<path d="M26.5908 12.1042C34.4435 14.3853 42.2972 16.6642 50.1477 18.9442L21.4004 20.741C22.0064 18.899 23.7781 17.0195 24.3841 15.1775C24.4768 14.81 24.6365 14.3487 24.9183 13.8605C25.4528 12.9356 26.1566 12.3872 26.5919 12.1021L26.5908 12.1042Z" fill="url(#paint0_linear_0_52)"/>
<path d="M21.8659 14.9215L14.9484 28.2204C14.4029 29.27 14.4743 30.5306 15.1325 31.511L29.5865 53.3027C32.6837 46.7323 31.9754 39.0081 27.7336 33.103C23.9567 27.8479 21.5114 24.4204 21.2588 24.0264C21.1876 23.9157 20.9885 23.6035 20.9809 23.1821C20.9756 22.8006 21.1208 22.5222 21.1892 22.4031C22.9728 18.9715 24.7585 15.5411 26.5421 12.1095C24.576 12.0954 22.7664 13.1812 21.8637 14.9205L21.8659 14.9215Z" fill="url(#paint1_linear_0_52)"/>
<path d="M62.047 40.871C56.2543 46.6168 50.4586 52.3636 44.666 58.1093C48.7575 49.4679 52.8511 40.8275 56.9426 32.186C58.2722 33.6025 59.0727 36.0501 60.4024 37.4665C60.6794 37.7238 61.0093 38.0859 61.3049 38.5671C61.8603 39.4768 62.0059 40.3589 62.047 40.871Z" fill="url(#paint2_linear_0_52)"/>
<path d="M61.8445 35.3941L53.4647 22.9568C52.8043 21.9754 51.6591 21.4304 50.4765 21.5327L24.3154 23.6315C28.609 29.4981 35.7556 32.6017 42.9998 31.7473C49.4488 30.9866 53.6453 30.5083 54.1159 30.4782C54.2481 30.4689 54.6193 30.445 54.9919 30.6424C55.329 30.8209 55.5055 31.0812 55.5758 31.1992C57.7369 34.4077 59.9 37.6172 62.061 40.8257C63.022 39.1184 62.9367 37.018 61.8423 35.3931L61.8445 35.3941Z" fill="url(#paint3_linear_0_52)"/>
<path d="M18.8877 56.5314C16.9931 48.6145 15.1006 40.6986 13.2061 32.7817L29.0031 56.741C27.0948 57.1299 24.5778 56.5274 22.6675 56.9153C22.3018 57.0171 21.8192 57.1065 21.2534 57.1058C20.183 57.1014 19.3536 56.764 18.8908 56.5302L18.8877 56.5314Z" fill="url(#paint4_linear_0_52)"/>
<path d="M23.6876 59.2203L38.7255 58.6132C39.912 58.5646 40.9761 57.8809 41.5088 56.8253L53.3901 33.542C46.1162 34.1179 39.7211 38.5559 36.6648 45.1451C33.9424 51.0106 32.1598 54.8216 31.9414 55.2351C31.8803 55.3498 31.706 55.6797 31.3416 55.8911C31.0116 56.0845 30.6951 56.0972 30.5605 56.095C26.6806 56.2517 22.8007 56.4085 18.9209 56.5652C19.8832 58.2721 21.7265 59.2967 23.6908 59.2192L23.6876 59.2203Z" fill="url(#paint5_linear_0_52)"/>
<defs>
<linearGradient id="paint0_linear_0_52" x1="47.701" y1="18.7735" x2="24.1103" y2="15.6933" gradientUnits="userSpaceOnUse">
<stop stop-color="#0862FF"/>
<stop offset="1" stop-color="#070860"/>
</linearGradient>
<linearGradient id="paint1_linear_0_52" x1="33.9125" y1="41.023" x2="13.7382" y2="29.9597" gradientUnits="userSpaceOnUse">
<stop stop-color="#CBEF9B"/>
<stop offset="0.145833" stop-color="#53E894"/>
<stop offset="0.5" stop-color="#11B7EC"/>
<stop offset="1" stop-color="#0862FF"/>
</linearGradient>
<linearGradient id="paint2_linear_0_52" x1="44.9432" y1="57.4815" x2="58.625" y2="34.862" gradientUnits="userSpaceOnUse">
<stop stop-color="#0862FF"/>
<stop offset="1" stop-color="#070860"/>
</linearGradient>
<linearGradient id="paint3_linear_0_52" x1="37.283" y1="34.3178" x2="52.845" y2="21.7401" gradientUnits="userSpaceOnUse">
<stop stop-color="#CBEF9B"/>
<stop offset="0.145833" stop-color="#53E894"/>
<stop offset="0.5" stop-color="#11B7EC"/>
<stop offset="1" stop-color="#0862FF"/>
</linearGradient>
<linearGradient id="paint4_linear_0_52" x1="13.0762" y1="32.7937" x2="24.0102" y2="56.9164" gradientUnits="userSpaceOnUse">
<stop stop-color="#0862FF"/>
<stop offset="1" stop-color="#070860"/>
</linearGradient>
<linearGradient id="paint5_linear_0_52" x1="45.2503" y1="35.5369" x2="37.055" y2="58.7287" gradientUnits="userSpaceOnUse">
<stop stop-color="#CBEF9B"/>
<stop offset="0.145833" stop-color="#53E894"/>
<stop offset="0.5" stop-color="#11B7EC"/>
<stop offset="1" stop-color="#0862FF"/>
</linearGradient>
</defs>
</svg>
