<svg width="158" height="36" viewBox="0 0 158 36" fill="none" xmlns="http://www.w3.org/2000/svg">
<g id="BLACKALGO" clip-path="url(#clip0_0_253)">
<g id="sign">
<g id="Group 613">
<path id="Vector" d="M11.234 2.30991C16.0648 3.71316 20.8962 5.11508 25.7256 6.51773L8.04102 7.62308C8.41384 6.48991 9.50371 5.33371 9.87653 4.20053C9.93354 3.97445 10.0318 3.69066 10.2051 3.39035C10.5339 2.82139 10.9669 2.48403 11.2347 2.30859L11.234 2.30991Z" fill="url(#paint0_linear_0_253)"/>
<path id="Vector_2" d="M8.32729 4.04341L4.07185 12.2246C3.73627 12.8702 3.78016 13.6458 4.1851 14.2489L13.0768 27.6546C14.9821 23.6126 14.5464 18.8609 11.937 15.2282C9.61354 11.9954 8.10923 9.88688 7.95386 9.64452C7.91005 9.57646 7.78752 9.38434 7.78289 9.12511C7.77961 8.89047 7.86892 8.71917 7.911 8.64589C9.00821 6.53491 10.1067 4.42456 11.204 2.31356C9.99451 2.30487 8.88127 2.97285 8.32593 4.04281L8.32729 4.04341Z" fill="url(#paint1_linear_0_253)"/>
<path id="Vector_3" d="M33.0458 20.0068C29.4824 23.5415 25.917 27.0768 22.3535 30.6114C24.8705 25.2954 27.3888 19.9801 29.9057 14.6641C30.7237 15.5354 31.2162 17.0411 32.0341 17.9125C32.2045 18.0707 32.4075 18.2935 32.5893 18.5895C32.931 19.1492 33.0206 19.6918 33.0458 20.0068Z" fill="url(#paint2_linear_0_253)"/>
<path id="Vector_4" d="M32.9209 16.6372L27.7659 8.9861C27.3596 8.38239 26.6551 8.04714 25.9276 8.11006L9.83398 9.40119C12.4753 13.0101 16.8717 14.9194 21.3281 14.3938C25.2954 13.9259 27.877 13.6316 28.1665 13.6131C28.2478 13.6074 28.4761 13.5927 28.7054 13.7141C28.9128 13.8239 29.0213 13.984 29.0646 14.0566C30.394 16.0304 31.7247 18.0048 33.0541 19.9786C33.6453 18.9283 33.5928 17.6362 32.9196 16.6366L32.9209 16.6372Z" fill="url(#paint3_linear_0_253)"/>
<path id="Vector_5" d="M6.4952 29.6405C5.32967 24.7702 4.16549 19.9005 3 15.0303L12.7179 29.7694C11.544 30.0087 9.99564 29.638 8.82042 29.8767C8.59549 29.9393 8.2986 29.9943 7.9505 29.9939C7.29205 29.9911 6.7818 29.7836 6.49712 29.6398L6.4952 29.6405Z" fill="url(#paint4_linear_0_253)"/>
<path id="Vector_6" d="M9.44798 31.2947L18.6989 30.9212C19.4288 30.8913 20.0834 30.4707 20.4111 29.8214L27.7202 15.498C23.2455 15.8523 19.3114 18.5825 17.4312 22.636C15.7565 26.2443 14.6599 28.5887 14.5255 28.8431C14.4879 28.9136 14.3807 29.1166 14.1565 29.2466C13.9535 29.3656 13.7588 29.3735 13.676 29.3721C11.2892 29.4685 8.90241 29.5649 6.51562 29.6613C7.10761 30.7114 8.24155 31.3417 9.44994 31.294L9.44798 31.2947Z" fill="url(#paint5_linear_0_253)"/>
</g>
</g>
<path id="Vector_7" d="M47.1741 14.7655C47.6137 14.118 48.2157 13.592 48.9803 13.1873C49.7615 12.7826 50.6486 12.5803 51.6413 12.5803C52.7964 12.5803 53.8381 12.8636 54.7656 13.4301C55.7096 13.9966 56.4501 14.806 56.9869 15.8581C57.5404 16.894 57.8171 18.1 57.8171 19.4758C57.8171 20.8517 57.5404 22.0738 56.9869 23.1421C56.4501 24.1942 55.7096 25.0117 54.7656 25.5944C53.8381 26.1771 52.7964 26.4685 51.6413 26.4685C50.6324 26.4685 49.7453 26.2742 48.9803 25.8857C48.232 25.481 47.6299 24.9631 47.1741 24.3318V26.2499H43.7568V8.28271H47.1741V14.7655ZM54.3263 19.4758C54.3263 18.6665 54.1556 17.9704 53.8136 17.3877C53.4883 16.7888 53.0487 16.3356 52.4956 16.028C51.9583 15.7205 51.3728 15.5667 50.738 15.5667C50.1197 15.5667 49.5338 15.7286 48.9803 16.0523C48.4435 16.3599 48.0039 16.8131 47.6623 17.412C47.3369 18.0109 47.1741 18.715 47.1741 19.5244C47.1741 20.3337 47.3369 21.0378 47.6623 21.6367C48.0039 22.2356 48.4435 22.6969 48.9803 23.0207C49.5338 23.3282 50.1197 23.482 50.738 23.482C51.3728 23.482 51.9583 23.3201 52.4956 22.9964C53.0487 22.6727 53.4883 22.2113 53.8136 21.6124C54.1556 21.0136 54.3263 20.3013 54.3263 19.4758Z" fill="white"/>
<path id="Vector_8" d="M62.7414 8.28271V26.2499H59.3242V8.28271H62.7414Z" fill="white"/>
<path id="Vector_9" d="M64.2627 19.4761C64.2627 18.1164 64.5311 16.9105 65.0684 15.8584C65.6214 14.8062 66.3619 13.9969 67.2897 13.4304C68.2334 12.8638 69.283 12.5806 70.4385 12.5806C71.4474 12.5806 72.3262 12.7829 73.075 13.1876C73.8399 13.5922 74.4499 14.1021 74.9057 14.7172V12.7991H78.3475V26.2502H74.9057V24.2835C74.4661 24.9148 73.8561 25.4409 73.075 25.8617C72.31 26.2664 71.4233 26.4687 70.414 26.4687C69.2751 26.4687 68.2334 26.1774 67.2897 25.5946C66.3619 25.0119 65.6214 24.1945 65.0684 23.1424C64.5311 22.074 64.2627 20.8519 64.2627 19.4761ZM74.9057 19.5246C74.9057 18.6991 74.7429 17.995 74.4175 17.4123C74.0921 16.8134 73.6525 16.3602 73.0995 16.0526C72.546 15.7289 71.9518 15.567 71.3173 15.567C70.6828 15.567 70.0969 15.7208 69.5597 16.0283C69.0228 16.3359 68.5832 16.7891 68.2417 17.388C67.9163 17.9707 67.7534 18.6667 67.7534 19.4761C67.7534 20.2854 67.9163 20.9976 68.2417 21.6127C68.5832 22.2116 69.0228 22.6729 69.5597 22.9967C70.1132 23.3204 70.699 23.4823 71.3173 23.4823C71.9518 23.4823 72.546 23.3285 73.0995 23.0209C73.6525 22.6972 74.0921 22.244 74.4175 21.6613C74.7429 21.0624 74.9057 20.3502 74.9057 19.5246Z" fill="white"/>
<path id="Vector_10" d="M79.8301 19.5246C79.8301 18.1326 80.1151 16.9186 80.6848 15.8826C81.254 14.8305 82.0435 14.0212 83.0524 13.4547C84.0613 12.8719 85.2168 12.5806 86.5186 12.5806C88.1948 12.5806 89.5781 13.0014 90.6684 13.8431C91.7749 14.6686 92.5154 15.8341 92.8898 17.3394H89.2037C89.0084 16.7567 88.6748 16.3035 88.2027 15.9798C87.7473 15.6399 87.1777 15.4699 86.4941 15.4699C85.5177 15.4699 84.7448 15.826 84.1751 16.5382C83.6058 17.2342 83.3208 18.2297 83.3208 19.5246C83.3208 20.8034 83.6058 21.7989 84.1751 22.5111C84.7448 23.2071 85.5177 23.5551 86.4941 23.5551C87.8774 23.5551 88.7807 22.94 89.2037 21.7098H92.8898C92.5154 23.1666 91.7749 24.324 90.6684 25.1819C89.5619 26.0398 88.1786 26.4687 86.5186 26.4687C85.2168 26.4687 84.0613 26.1855 83.0524 25.6189C82.0435 25.0362 81.254 24.2269 80.6848 23.1909C80.1151 22.1388 79.8301 20.9167 79.8301 19.5246Z" fill="white"/>
<path id="Vector_11" d="M102.423 26.2499L97.8342 20.5198V26.2499H94.417V8.28271H97.8342V18.5046L102.375 12.7988H106.817L100.861 19.5487L106.866 26.2499H102.423Z" fill="white"/>
<path id="Vector_12" d="M106.816 19.4761C106.816 18.1164 107.085 16.9105 107.622 15.8584C108.175 14.8062 108.916 13.9969 109.843 13.4304C110.787 12.8638 111.837 12.5806 112.992 12.5806C114.001 12.5806 114.88 12.7829 115.628 13.1876C116.393 13.5922 117.004 14.1021 117.459 14.7172V12.7991H120.901V26.2502H117.459V24.2835C117.02 24.9148 116.409 25.4409 115.628 25.8617C114.864 26.2664 113.977 26.4687 112.968 26.4687C111.828 26.4687 110.787 26.1774 109.843 25.5946C108.916 25.0119 108.175 24.1945 107.622 23.1424C107.085 22.074 106.816 20.8519 106.816 19.4761ZM117.459 19.5246C117.459 18.6991 117.297 17.995 116.971 17.4123C116.645 16.8134 116.206 16.3602 115.653 16.0526C115.099 15.7289 114.506 15.567 113.871 15.567C113.236 15.567 112.65 15.7208 112.113 16.0283C111.576 16.3359 111.137 16.7891 110.795 17.388C110.47 17.9707 110.307 18.6667 110.307 19.4761C110.307 20.2854 110.47 20.9976 110.795 21.6127C111.137 22.2116 111.576 22.6729 112.113 22.9967C112.666 23.3204 113.252 23.4823 113.871 23.4823C114.506 23.4823 115.099 23.3285 115.653 23.0209C116.206 22.6972 116.645 22.244 116.971 21.6613C117.297 21.0624 117.459 20.3502 117.459 19.5246Z" fill="white"/>
<path id="Vector_13" d="M126.68 8.28271V26.2499H123.263V8.28271H126.68Z" fill="white"/>
<path id="Vector_14" d="M134.377 12.5806C135.386 12.5806 136.273 12.7829 137.038 13.1876C137.803 13.576 138.405 14.0859 138.844 14.7172V12.7991H142.286V26.3473C142.286 27.5937 142.034 28.7025 141.529 29.6737C141.025 30.661 140.268 31.438 139.259 32.0046C138.25 32.5873 137.03 32.8786 135.598 32.8786C133.677 32.8786 132.099 32.4335 130.862 31.5432C129.641 30.653 128.95 29.439 128.787 27.9012H132.18C132.359 28.5163 132.742 29.0019 133.327 29.358C133.929 29.7303 134.654 29.9165 135.5 29.9165C136.493 29.9165 137.298 29.617 137.917 29.0181C138.535 28.4354 138.844 27.5451 138.844 26.3473V24.2592C138.405 24.8905 137.795 25.4166 137.013 25.8374C136.248 26.2583 135.37 26.4687 134.377 26.4687C133.238 26.4687 132.196 26.1774 131.253 25.5946C130.309 25.0119 129.56 24.1945 129.007 23.1424C128.47 22.074 128.201 20.8519 128.201 19.4761C128.201 18.1164 128.47 16.9105 129.007 15.8584C129.56 14.8062 130.301 13.9969 131.228 13.4304C132.172 12.8638 133.222 12.5806 134.377 12.5806ZM138.844 19.5246C138.844 18.6991 138.681 17.995 138.356 17.4123C138.031 16.8134 137.591 16.3602 137.038 16.0526C136.484 15.7289 135.891 15.567 135.256 15.567C134.621 15.567 134.035 15.7208 133.498 16.0283C132.961 16.3359 132.522 16.7891 132.18 17.388C131.855 17.9707 131.692 18.6667 131.692 19.4761C131.692 20.2854 131.855 20.9976 132.18 21.6127C132.522 22.2116 132.961 22.6729 133.498 22.9967C134.052 23.3204 134.638 23.4823 135.256 23.4823C135.891 23.4823 136.484 23.3285 137.038 23.0209C137.591 22.6972 138.031 22.244 138.356 21.6613C138.681 21.0624 138.844 20.3502 138.844 19.5246Z" fill="white"/>
<path id="Vector_15" d="M150.652 26.4687C149.35 26.4687 148.179 26.1855 147.137 25.6189C146.096 25.0362 145.274 24.2188 144.672 23.1666C144.086 22.1145 143.793 20.9005 143.793 19.5246C143.793 18.1488 144.094 16.9348 144.696 15.8826C145.315 14.8305 146.153 14.0212 147.211 13.4547C148.268 12.8719 149.448 12.5806 150.75 12.5806C152.052 12.5806 153.232 12.8719 154.289 13.4547C155.347 14.0212 156.177 14.8305 156.779 15.8826C157.398 16.9348 157.707 18.1488 157.707 19.5246C157.707 20.9005 157.39 22.1145 156.755 23.1666C156.136 24.2188 155.29 25.0362 154.216 25.6189C153.158 26.1855 151.97 26.4687 150.652 26.4687ZM150.652 23.5066C151.271 23.5066 151.849 23.3609 152.385 23.0695C152.939 22.762 153.378 22.3087 153.703 21.7098C154.029 21.1109 154.192 20.3825 154.192 19.5246C154.192 18.2459 153.85 17.2666 153.167 16.5868C152.499 15.8907 151.677 15.5427 150.701 15.5427C149.725 15.5427 148.903 15.8907 148.236 16.5868C147.585 17.2666 147.259 18.2459 147.259 19.5246C147.259 20.8034 147.577 21.7908 148.211 22.4868C148.862 23.1666 149.676 23.5066 150.652 23.5066Z" fill="white"/>
</g>
<defs>
<linearGradient id="paint0_linear_0_253" x1="24.2205" y1="6.4127" x2="9.70811" y2="4.51786" gradientUnits="userSpaceOnUse">
<stop stop-color="#0862FF"/>
<stop offset="1" stop-color="#070860"/>
</linearGradient>
<linearGradient id="paint1_linear_0_253" x1="15.7381" y1="20.1004" x2="3.32733" y2="13.2946" gradientUnits="userSpaceOnUse">
<stop stop-color="#CBEF9B"/>
<stop offset="0.145833" stop-color="#53E894"/>
<stop offset="0.5" stop-color="#11B7EC"/>
<stop offset="1" stop-color="#0862FF"/>
</linearGradient>
<linearGradient id="paint2_linear_0_253" x1="22.524" y1="30.2252" x2="30.9407" y2="16.3102" gradientUnits="userSpaceOnUse">
<stop stop-color="#0862FF"/>
<stop offset="1" stop-color="#070860"/>
</linearGradient>
<linearGradient id="paint3_linear_0_253" x1="17.8113" y1="15.9751" x2="27.3846" y2="8.23761" gradientUnits="userSpaceOnUse">
<stop stop-color="#CBEF9B"/>
<stop offset="0.145833" stop-color="#53E894"/>
<stop offset="0.5" stop-color="#11B7EC"/>
<stop offset="1" stop-color="#0862FF"/>
</linearGradient>
<linearGradient id="paint4_linear_0_253" x1="2.92011" y1="15.0377" x2="9.64641" y2="29.8773" gradientUnits="userSpaceOnUse">
<stop stop-color="#0862FF"/>
<stop offset="1" stop-color="#070860"/>
</linearGradient>
<linearGradient id="paint5_linear_0_253" x1="22.7128" y1="16.7252" x2="17.6713" y2="30.9922" gradientUnits="userSpaceOnUse">
<stop stop-color="#CBEF9B"/>
<stop offset="0.145833" stop-color="#53E894"/>
<stop offset="0.5" stop-color="#11B7EC"/>
<stop offset="1" stop-color="#0862FF"/>
</linearGradient>
<clipPath id="clip0_0_253">
<rect width="158" height="36" fill="white"/>
</clipPath>
</defs>
</svg>
