<svg width="48" height="48" viewBox="0 0 48 48" fill="none" xmlns="http://www.w3.org/2000/svg">
<g id="switch">
<g id="moon">
<path id="shape" fill-rule="evenodd" clip-rule="evenodd" d="M21.6016 20.3516C21.6016 24.375 24.1875 26.8672 28.3359 26.8672C29.2344 26.8672 30.1641 26.7031 30.7656 26.4531C30.9922 26.3594 31.1328 26.3359 31.2891 26.3359C31.6016 26.3359 31.9062 26.5859 31.9062 26.9766C31.9062 27.0938 31.875 27.2891 31.7734 27.5312C30.4922 30.4688 27.6953 32.2812 24.3047 32.2812C19.5547 32.2812 16.0938 28.8125 16.0938 24.0625C16.0938 20.7578 18.1328 17.7031 21.0625 16.5156C21.3047 16.4219 21.4844 16.3906 21.5781 16.3906C21.9766 16.3906 22.25 16.7266 22.25 17.0547C22.25 17.2422 22.2188 17.3906 22.0859 17.6484C21.7969 18.2031 21.6016 19.2188 21.6016 20.3516ZM20.5312 18.4219C18.7109 19.6406 17.5938 21.7969 17.5938 24.0156C17.5938 27.9297 20.4453 30.7891 24.3516 30.7891C26.6328 30.7891 28.7422 29.7266 29.8828 27.9688C29.3359 28.1641 28.7578 28.2422 28.0859 28.2422C23.1641 28.2422 20.2031 25.3516 20.2031 20.5312C20.2031 19.7578 20.3203 19.0547 20.5312 18.4219Z" fill="white"/>
</g>
</g>
</svg>
