<svg width="32" height="20" viewBox="0 0 32 20" fill="none" xmlns="http://www.w3.org/2000/svg">
<rect x="13.6667" y="1.66667" width="16.6667" height="16.6667" rx="8.33333" fill="#26A17B"/>
<path fill-rule="evenodd" clip-rule="evenodd" d="M23.017 7.62401V8.85601L23.0183 8.85734C25.3063 8.96268 27.0263 9.41734 27.0263 9.96001C27.0263 10.504 25.3063 10.9573 23.0183 11.0627V15.012H20.9797V11.0627C18.689 10.956 16.965 10.5027 16.965 9.95868C16.965 9.41468 18.6877 8.96134 20.9797 8.85601V7.62401H18.1597V5.74534H25.837V7.62401H23.017ZM23.0175 10.724V10.7254V10.7267C25.0375 10.636 26.5455 10.284 26.5455 9.86269C26.5455 9.44136 25.0389 9.08936 23.0175 8.99869V10.3747C22.9589 10.38 22.6442 10.4067 22.0149 10.4067C21.4909 10.4067 21.1109 10.384 20.9789 10.3747V8.99736C18.9549 9.08669 17.4429 9.44002 17.4429 9.86136C17.4429 10.284 18.9535 10.636 20.9789 10.7254V10.724C21.1095 10.7307 21.4789 10.7454 22.0055 10.7454C22.6642 10.7454 22.9602 10.728 23.0175 10.724Z" fill="white"/>
<rect x="1.16699" y="1.16666" width="17.6667" height="17.6667" rx="8.83333" fill="#F7931A" stroke="#15161B"/>
<path fill-rule="evenodd" clip-rule="evenodd" d="M13.6733 8.81291C13.8392 7.70406 12.9949 7.10797 11.8405 6.71031L12.215 5.20823L11.3006 4.98036L10.9361 6.44286C10.6957 6.38297 10.4488 6.32646 10.2035 6.27047L10.5707 4.79833L9.6569 4.57047L9.28216 6.07203C9.0832 6.02672 8.88789 5.98193 8.6983 5.93479L8.69934 5.9301L7.43841 5.61526L7.19518 6.59182C7.19518 6.59182 7.87356 6.74729 7.85924 6.75693C8.22955 6.84937 8.29648 7.09443 8.28528 7.2887L7.85872 8.99989C7.88424 9.0064 7.91731 9.01578 7.95377 9.03036L7.92281 9.02263C7.9016 9.01731 7.87961 9.0118 7.85716 9.0064L7.25924 11.4035C7.21393 11.516 7.09908 11.6848 6.84023 11.6207C6.84934 11.634 6.17565 11.4548 6.17565 11.4548L5.72174 12.5015L6.91158 12.7981C7.04443 12.8314 7.17568 12.8656 7.30557 12.8995L7.30567 12.8995L7.30632 12.8997C7.3926 12.9222 7.47827 12.9445 7.56341 12.9663L7.18502 14.4856L8.0983 14.7134L8.47304 13.2103C8.72252 13.278 8.96471 13.3405 9.20169 13.3994L8.82825 14.8955L9.74257 15.1233L10.121 13.6069C11.6801 13.902 12.8525 13.783 13.346 12.3728C13.7436 11.2374 13.3262 10.5824 12.5059 10.1554C13.1033 10.0176 13.5533 9.62463 13.6733 8.81291ZM11.5846 11.7423C11.3254 12.784 9.69487 12.3534 8.94882 12.1563L8.94881 12.1563C8.88169 12.1386 8.82173 12.1228 8.77057 12.1101L9.27265 10.0973C9.33495 10.1128 9.41106 10.1299 9.49729 10.1493C10.2689 10.3224 11.8503 10.6772 11.5846 11.7423ZM9.65193 9.2152C10.2739 9.3812 11.6307 9.74328 11.8671 8.79651C12.1084 7.8281 10.7897 7.53618 10.1457 7.39361C10.0733 7.37757 10.0093 7.36342 9.95716 7.35041L9.50195 9.17594C9.54495 9.18665 9.59541 9.20012 9.65193 9.2152Z" fill="white"/>
</svg>
