<svg width="146" height="153" viewBox="0 0 146 153" fill="none" xmlns="http://www.w3.org/2000/svg">
<path d="M118.997 18.9541C118.997 18.9541 128.158 16.3941 132.941 17.5869C137.725 18.7797 138.725 20.6538 139.613 29.5602C140.238 38.8116 128.457 51.7529 128.457 51.7529L118.997 18.9541Z" fill="url(#paint0_linear_0_3024)"/>
<path d="M134.609 18.3809C130.171 18.1653 126.69 23.4112 123.938 34.1508L131.215 37.7586L140.638 28.6745C140.638 28.6745 139.047 18.5966 134.609 18.3809Z" fill="url(#paint1_linear_0_3024)"/>
<path d="M124.728 31.9482C124.728 31.9482 131.639 19.8326 134.749 19.6443C137.859 19.4561 141.277 23.6561 141.028 36.32C140.779 48.9839 131.626 54.2332 131.626 54.2332L124.728 31.9482Z" fill="url(#paint2_linear_0_3024)"/>
<path d="M127.694 18.5523C126.335 18.846 126.102 20.1765 128.588 20.4925C131.074 20.8085 132.867 19.2357 132.669 18.7571C132.571 18.3042 129.179 18.184 127.694 18.5523Z" fill="white"/>
<path opacity="0.72" d="M138.983 27.686C138.983 27.686 138.455 24.1162 135.413 23.1493C132.371 22.1824 127.158 30.5341 128.655 31.6662C130.151 32.7983 133.505 28.5104 135.14 28.3982C136.863 28.339 138.18 31.1828 139.008 29.8715C139.464 29.1498 138.983 27.686 138.983 27.686Z" fill="url(#paint3_linear_0_3024)"/>
<path d="M50.1084 18.9541C50.1084 18.9541 40.9477 16.3941 36.1643 17.5869C31.3809 18.7797 30.3808 20.6538 29.4923 29.5602C28.8674 38.8116 40.6486 51.7529 40.6486 51.7529L50.1084 18.9541Z" fill="url(#paint4_linear_0_3024)"/>
<path d="M34.4961 18.3809C38.9341 18.1653 42.4159 23.4112 45.167 34.1508L37.8908 37.7586L28.4677 28.6745C28.4677 28.6745 30.058 18.5966 34.4961 18.3809Z" fill="url(#paint5_linear_0_3024)"/>
<path d="M44.3774 31.9482C44.3774 31.9482 37.4662 19.8326 34.3562 19.6443C31.2462 19.4561 27.8282 23.6561 28.0775 36.32C28.3268 48.9839 37.4793 54.2332 37.4793 54.2332L44.3774 31.9482Z" fill="url(#paint6_linear_0_3024)"/>
<path d="M41.4113 18.5523C42.77 18.846 43.0039 20.1765 40.5178 20.4925C38.0318 20.8085 36.2385 19.2357 36.4368 18.7571C36.5347 18.3042 39.9265 18.184 41.4113 18.5523Z" fill="white"/>
<path opacity="0.72" d="M30.1228 27.686C30.1228 27.686 30.6503 24.1162 33.6922 23.1493C36.734 22.1824 41.9473 30.5341 40.4508 31.6662C38.9543 32.7983 35.6001 28.5104 33.9657 28.3982C32.2423 28.339 30.9254 31.1828 30.0975 29.8715C29.6418 29.1498 30.1228 27.686 30.1228 27.686Z" fill="url(#paint7_linear_0_3024)"/>
<path d="M73.5067 149.827C72.4803 150.237 35.9418 153.932 31.631 149.827C27.4229 145.824 56.2637 127.965 60.4718 128.273C61.4982 128.376 62.3193 129.402 63.8589 131.66C68.6828 138.434 73.5067 149.827 73.5067 149.827Z" fill="url(#paint8_linear_0_3024)"/>
<path d="M60.4718 128.273C58.6244 128.478 65.1931 147.363 73.5066 149.827C73.5066 149.827 65.3984 127.555 60.4718 128.273Z" fill="url(#paint9_linear_0_3024)"/>
<path opacity="0.3" d="M73.5065 149.827C72.4801 150.237 36.1469 153.727 31.6309 149.827C31.6309 149.827 42.3051 151.572 52.0555 148.287C61.806 144.9 62.0112 136.381 62.0112 136.381L62.6271 129.197C67.451 135.971 73.5065 149.827 73.5065 149.827Z" fill="url(#paint10_linear_0_3024)"/>
<path d="M35.0174 118.42C35.0174 118.42 33.2726 110.004 40.9703 100.972C50.9261 89.2715 71.7613 80.65 75.2509 82.2922C78.7405 83.9344 67.3479 102.204 67.3479 102.204C67.3479 102.204 52.9788 105.796 45.3837 114.725C37.686 123.552 35.0174 118.42 35.0174 118.42Z" fill="url(#paint11_linear_0_3024)"/>
<path d="M108.813 129.607C107.786 137.818 104.091 144.284 97.6254 147.774C93.3146 150.135 87.8749 151.161 81.2036 150.443C71.4531 149.416 65.3976 142.129 62.8317 132.173C61.7027 127.657 61.1895 122.731 61.2921 117.496C61.7027 100.664 70.632 87.3212 76.7902 83.2157C86.9512 76.3391 101.32 80.3419 102.962 92.3504C104.194 101.998 110.455 115.957 108.813 129.607Z" fill="url(#paint12_linear_0_3024)"/>
<path d="M99.781 85.7818C98.0362 85.0634 97.1124 100.972 104.092 110.312C104.092 110.312 107.273 108.259 105.939 100.459C104.502 92.6585 102.039 86.7056 99.781 85.7818Z" fill="url(#paint13_linear_0_3024)"/>
<path d="M98.5488 91.7788C98.5488 91.7788 104.912 100.811 102.86 108.611C102.757 108.611 98.7541 102.453 98.5488 91.7788Z" fill="url(#paint14_linear_0_3024)"/>
<path d="M97.6264 147.774C93.3157 150.135 87.876 151.161 81.2046 150.443C71.4541 149.416 65.3986 142.129 62.8327 132.173C60.0615 121.089 65.0907 106.412 79.973 106.412C94.9579 106.412 102.245 121.704 102.964 132.481C103.169 136.792 102.758 145.311 97.6264 147.774Z" fill="url(#paint15_radial_0_3024)"/>
<path d="M127.596 144.49C127.801 148.595 125.543 151.674 121.437 152.495C119.385 152.906 114.766 152.906 110.25 152.393C110.045 152.393 109.942 152.393 109.942 152.393C104.502 151.777 99.3706 150.545 99.0627 148.698C98.8574 147.466 98.8574 146.132 98.8574 144.9C98.9601 134.124 105.221 121.91 109.224 122.731C111.687 123.244 115.279 125.605 118.564 128.889C121.335 131.558 123.901 134.739 125.543 137.921C126.98 140.282 127.596 142.54 127.596 144.49Z" fill="url(#paint16_linear_0_3024)"/>
<path d="M118.769 128.889C118.769 128.889 111.174 126.734 105.118 131.66C100.91 135.15 99.6784 142.54 98.96 144.9C99.0626 134.124 105.323 121.91 109.326 122.731C111.79 123.347 115.382 125.707 118.769 128.889Z" fill="url(#paint17_linear_0_3024)"/>
<path d="M125.645 112.467C124.927 116.265 116.818 121.91 102.962 120.883C102.962 120.883 96.3937 115.546 97.0095 109.696C97.0095 109.696 97.6253 109.491 98.4464 109.08C100.089 108.259 105.22 106.309 105.734 104.564C106.657 101.28 103.168 96.6611 101.115 91.8372C99.1649 87.4239 100.602 83.5237 101.628 83.3184C102.654 83.1131 109.326 85.3711 115.895 91.5293C116.613 92.1451 117.229 92.7609 117.742 93.3768C125.235 101.28 126.363 108.977 125.645 112.467Z" fill="url(#paint18_linear_0_3024)"/>
<path d="M98.2415 109.696C98.2415 109.696 92.2886 105.488 88.0805 103.641C88.0805 103.641 83.9751 104.462 83.154 106.617C82.4355 108.875 91.4675 113.186 91.4675 113.186L98.2415 109.696Z" fill="url(#paint19_linear_0_3024)"/>
<path d="M38.8154 110.517C38.8154 110.517 42.4077 103.64 45.2815 102.717C48.1553 101.793 49.9001 102.203 50.4133 102.717C50.9265 103.23 50.9265 105.898 49.7975 108.054C48.6685 110.106 44.1525 112.467 44.1525 112.467L38.8154 110.517Z" fill="url(#paint20_linear_0_3024)"/>
<path d="M44.7676 102.922C44.7676 102.922 45.2807 105.077 47.1282 106.104C48.9757 107.13 50.31 106.719 50.31 106.719C50.31 106.719 51.9521 103.332 50.1047 102.203C48.5651 101.28 45.1781 102.306 44.7676 102.922Z" fill="url(#paint21_linear_0_3024)"/>
<path d="M93.4174 135.252C88.5935 137.1 80.6905 128.889 75.5587 125.913C70.5295 122.936 61.7028 122.012 57.7 123.757C53.6971 125.502 47.6416 132.789 42.0992 131.865C41.0729 131.66 40.7649 129.197 40.9702 125.605C41.3807 118.317 44.2545 107.027 48.6679 104.256C55.2366 100.151 81.7169 101.177 88.0803 107.027C91.4673 110.209 93.7253 117.702 94.5464 124.168C95.2649 129.813 94.957 134.637 93.4174 135.252Z" fill="url(#paint22_linear_0_3024)"/>
<path d="M93.4174 135.252C88.5935 137.1 80.6905 128.889 75.5587 125.913C70.5295 122.936 61.7028 122.012 57.7 123.757C53.6971 125.502 47.6416 132.789 42.0992 131.865C41.0729 131.66 40.7649 129.197 40.9702 125.605L42.4071 123.039L52.4655 116.983C52.4655 116.983 52.5681 120.575 53.4918 121.089C54.4156 121.602 57.9052 120.781 64.4739 120.781C71.0427 120.678 76.0718 124.065 79.1509 122.115C82.23 120.165 84.488 115.444 84.488 115.444L87.3619 115.136L94.5464 124.168C95.2649 129.813 94.957 134.637 93.4174 135.252Z" fill="url(#paint23_linear_0_3024)"/>
<path d="M38.3025 108.464C38.3025 108.464 44.666 108.054 51.9532 113.494C51.9532 113.494 54.0059 121.089 49.7978 125.81C49.7978 125.81 46.6161 127.657 41.9974 128.273C37.4814 128.889 38.3025 108.464 38.3025 108.464Z" fill="url(#paint24_linear_0_3024)"/>
<path d="M97.0107 109.799C97.0107 109.799 102.656 109.799 105.837 114.622C108.403 118.625 104.401 120.986 104.401 120.986C104.401 120.986 97.5239 120.575 97.0107 109.799Z" fill="url(#paint25_linear_0_3024)"/>
<path d="M38.3028 108.464C35.429 108.259 33.1709 122.218 36.0448 126.426C38.9186 130.634 46.2058 127.247 47.5401 125.707C48.8743 124.168 50.9271 117.599 50.106 114.828C49.2849 112.057 45.3847 108.875 38.3028 108.464Z" fill="url(#paint26_linear_0_3024)"/>
<path d="M49.7966 103.64C49.7966 103.64 49.2834 107.13 60.4707 108.464C71.6581 109.901 82.0244 109.08 85.9246 105.488C85.9246 105.591 67.758 98.3033 49.7966 103.64Z" fill="url(#paint27_linear_0_3024)"/>
<path d="M25.1652 146.542C16.9543 146.542 4.43257 145.927 0.942936 142.334C0.224481 141.513 -0.0833905 140.692 0.0192459 139.666C0.429792 135.458 6.99852 133.2 13.8752 130.736C20.6492 128.376 27.7311 125.912 28.7574 121.704C29.3733 119.036 28.4495 115.649 27.5258 112.467C26.2942 108.259 25.0625 103.948 27.1152 100.561C28.6548 97.9953 31.9392 96.2505 37.1736 95.2242C56.9825 91.4266 66.3224 101.793 66.425 101.896L65.6039 102.614C65.5012 102.511 56.4692 92.5556 37.3789 96.3531C32.4523 97.2769 29.4759 98.9191 28.039 101.177C26.1915 104.256 27.3205 108.156 28.5522 112.262C29.5785 115.649 30.6049 119.036 29.8864 122.012C28.7574 126.836 21.4703 129.402 14.3883 131.865C8.12752 134.021 1.66144 136.381 1.2509 139.871C1.14826 140.487 1.45612 141.103 1.9693 141.616C6.79321 146.645 32.4523 145.413 32.6576 145.413L32.7602 146.44C32.1444 146.337 29.168 146.542 25.1652 146.542Z" fill="url(#paint28_linear_0_3024)"/>
<path opacity="0.5" d="M62.832 85.5764C62.832 85.5764 68.8876 95.4296 80.7934 95.019C92.5966 94.6085 98.96 84.2422 98.96 84.2422L64.4742 84.858L62.832 85.5764Z" fill="url(#paint29_linear_0_3024)"/>
<path d="M39.0211 71.4126C48.8742 94.0953 122.464 87.0134 131.291 68.4362C140.939 48.0115 118.77 -2.2803 83.5653 0.0803331C53.6981 1.92779 26.3968 42.2639 39.0211 71.4126Z" fill="url(#paint30_linear_0_3024)"/>
<path d="M43.1257 65.8701C52.5683 84.4473 116.819 81.3682 126.159 64.3306C134.164 49.7562 115.279 5.62255 83.0513 7.16209C50.8234 8.70164 34.0937 48.0114 43.1257 65.8701Z" fill="url(#paint31_linear_0_3024)"/>
<path d="M93.8283 4.18568C93.1099 5.00677 101.013 8.39377 102.039 7.88059C103.066 7.47005 96.0863 1.51714 93.8283 4.18568Z" fill="white"/>
<path opacity="0.5" d="M62.7302 71.9259C61.9091 75.1076 68.5805 78.392 85.1049 77.5709C105.119 76.5445 109.327 72.439 108.301 71.2074C107.685 70.4889 101.732 74.2865 85.3102 70.6942C74.5334 68.3336 63.6539 68.5389 62.7302 71.9259Z" fill="url(#paint32_linear_0_3024)"/>
<path opacity="0.2" d="M44.871 61.97C44.871 61.97 44.1526 57.3513 44.9737 51.0905C45.7947 44.8297 47.437 40.8269 48.4633 41.3401C49.4897 41.9559 49.2844 48.0114 49.9002 54.067C50.3107 58.7882 51.2344 63.2016 51.2344 63.2016C51.2344 63.2016 46.9238 67.3071 44.871 61.97Z" fill="url(#paint33_linear_0_3024)"/>
<path d="M38.9912 25C38.9912 25 43.0967 27.6685 40.4281 33.8267C40.4281 33.8267 21.0299 44.3983 22.1589 55.8935C23.0826 65.5414 49.8707 60.8201 49.8707 60.8201L50.7944 64.0018C50.7944 64.0018 28.0091 68.4152 20.2088 63.0781C20.2088 63.0781 17.5402 56.7147 24.2116 45.322C30.7803 34.032 38.9912 25 38.9912 25Z" fill="url(#paint34_linear_0_3024)"/>
<path d="M46.4835 59.999C44.0202 62.7702 49.2547 65.7466 53.4628 66.2598C58.2867 66.773 66.7029 64.9256 66.1897 60.1016C65.6765 55.2777 52.1285 53.5329 46.4835 59.999Z" fill="url(#paint35_linear_0_3024)"/>
<path d="M46.7915 60.5121C46.6888 61.3332 63.7264 61.5384 64.137 58.4593C64.4449 55.4829 47.9205 54.4565 46.7915 60.5121Z" fill="url(#paint36_linear_0_3024)"/>
<path d="M35.1939 31.2607C35.1939 31.2607 25.9567 42.0376 26.4698 42.756C27.0857 43.4745 35.8097 32.2871 35.1939 31.2607Z" fill="url(#paint37_linear_0_3024)"/>
<path d="M96.7022 48.3194C98.3444 51.9117 113.021 52.3222 115.382 46.6772C117.537 41.648 110.969 28.2027 102.142 29.4343C95.5732 30.4607 93.8284 42.3665 96.7022 48.3194Z" fill="url(#paint38_linear_0_3024)"/>
<path d="M71.658 48.3194C70.0158 51.9116 55.3388 52.3222 52.9782 46.6772C50.8228 41.648 57.0837 28.8184 66.2183 29.4343C72.8897 30.0501 74.5318 42.3665 71.658 48.3194Z" fill="url(#paint39_linear_0_3024)"/>
<path d="M79.3564 59.6095C79.3564 59.6095 84.283 54.7856 87.9779 55.0935C91.6728 55.4014 89.0043 60.1227 89.0043 60.1227C89.0043 60.1227 84.5909 61.149 79.3564 59.6095Z" fill="#07B5FE"/>
<path opacity="0.3" d="M125.645 112.467C124.926 116.265 116.818 121.91 102.962 120.884C102.962 120.884 96.3935 115.546 97.0094 109.696C97.0094 109.696 96.2909 110.107 97.2146 109.696L99.9858 110.209C99.9858 110.209 108.607 112.467 117.947 110.825C127.287 109.183 120.718 97.2771 117.947 93.377C125.234 101.28 126.363 108.978 125.645 112.467Z" fill="url(#paint40_linear_0_3024)"/>
<path d="M104.092 122.423C104.092 122.423 103.989 122.423 103.989 122.526C103.886 122.526 103.784 122.628 103.578 122.628C103.578 122.628 103.578 122.628 103.476 122.628C102.86 122.833 101.628 123.347 100.191 123.962C99.4729 124.27 98.7545 124.578 98.036 124.989C94.9569 126.426 91.1594 128.889 90.8515 128.992C90.8515 128.992 83.5643 125.605 83.1537 121.191C82.8458 118.112 84.6933 113.596 87.0539 110.928C88.0803 109.696 89.1066 108.875 90.133 108.67C93.4174 107.951 97.1123 109.593 97.1123 109.593C97.1123 109.593 101.936 109.491 104.092 114.109C106.247 118.831 104.092 122.423 104.092 122.423Z" fill="url(#paint41_linear_0_3024)"/>
<path d="M104.093 122.423C104.093 122.423 103.99 122.423 103.99 122.525C103.887 122.525 103.785 122.628 103.579 122.628C103.579 122.628 103.579 122.628 103.477 122.628C102.861 122.936 101.937 123.449 100.911 123.962C97.3186 125.912 92.5974 128.992 92.5974 128.992H90.8525C92.3921 126.22 94.65 124.681 96.908 123.654C100.603 122.115 104.093 122.423 104.093 122.423Z" fill="url(#paint42_linear_0_3024)"/>
<path opacity="0.3" d="M127.596 144.49C127.801 148.595 125.543 151.674 121.437 152.495C119.385 152.906 114.766 152.906 110.25 152.393C111.584 152.495 117.948 152.906 119.385 151.264C121.027 149.416 121.13 146.235 122.874 144.9C124.722 143.566 126.467 144.592 126.98 144.49C127.185 144.49 127.39 144.49 127.596 144.49Z" fill="url(#paint43_linear_0_3024)"/>
<path d="M117.332 142.027C117.024 142.848 119.796 145.003 121.335 144.49C122.875 143.977 121.643 141.719 120.925 141.205C120.206 140.795 117.64 141.411 117.332 142.027Z" fill="white"/>
<path d="M37.1727 143.669C37.0701 144.387 41.2782 142.642 42.0993 141.308C42.8177 139.974 43.1257 138.434 42.8177 138.332C42.5098 138.229 37.2754 142.54 37.1727 143.669Z" fill="white"/>
<path d="M90.1335 109.799C89.9282 110.517 92.8021 113.699 93.6232 113.186C94.3416 112.672 93.7258 110.414 92.2888 109.799C90.8519 109.08 90.3388 109.388 90.1335 109.799Z" fill="white"/>
<path d="M110.147 100.972C109.326 101.177 109.429 102.511 108.71 103.64C107.992 104.769 106.555 105.693 106.76 106.001C106.965 106.309 110.352 106.206 110.968 104.461C111.584 102.614 110.66 100.869 110.147 100.972Z" fill="white"/>
<path d="M109.224 99.6375C108.916 99.5349 108.095 97.7901 108.3 97.2769C108.505 96.6611 109.532 97.3795 109.634 97.8927C109.84 98.5085 109.634 99.7402 109.224 99.6375Z" fill="white"/>
<path d="M38.1992 109.491C38.3019 110.722 42.9205 111.03 43.4337 110.312C43.9468 109.593 43.0231 109.08 41.4835 108.772C39.944 108.567 38.1992 109.183 38.1992 109.491Z" fill="white"/>
<path opacity="0.3" d="M101.012 123.963C97.4201 125.913 92.6988 128.992 92.6988 128.992H90.954C90.954 128.992 83.6668 125.605 83.2563 121.191C82.9484 118.112 84.7958 113.596 87.1564 110.928C87.6696 112.365 90.8514 120.062 93.9305 122.423C94.8542 123.039 95.8806 123.449 97.0096 123.757C98.1386 123.963 99.2676 124.065 100.294 124.065C100.602 123.963 100.807 123.963 101.012 123.963Z" fill="url(#paint44_linear_0_3024)"/>
<path opacity="0.3" d="M62.1143 103.948C62.1143 103.948 62.5248 105.385 67.0408 105.488C71.5568 105.591 75.2517 102.512 75.2517 102.512L66.6302 101.69L62.1143 103.948Z" fill="url(#paint45_linear_0_3024)"/>
<path d="M52.4661 92.5557C52.3634 93.1716 58.7269 91.632 58.0085 89.5793C57.5979 88.245 52.5687 91.4267 52.4661 92.5557Z" fill="white"/>
<path d="M62.1137 103.948L61.7031 99.6375C61.7031 99.6375 64.4743 99.1243 65.706 99.227C66.9376 99.3296 69.2982 104.256 69.2982 104.256C69.2982 104.256 65.3981 106.309 62.1137 103.948Z" fill="url(#paint46_linear_0_3024)"/>
<defs>
<linearGradient id="paint0_linear_0_3024" x1="122.224" y1="49.92" x2="131.139" y2="15.1166" gradientUnits="userSpaceOnUse">
<stop stop-color="#ACC4F4"/>
<stop offset="1" stop-color="#D1DBF5"/>
</linearGradient>
<linearGradient id="paint1_linear_0_3024" x1="129.073" y1="34.9311" x2="133.92" y2="16.0113" gradientUnits="userSpaceOnUse">
<stop stop-color="#9DC0EA"/>
<stop offset="1" stop-color="#8CAEEF"/>
</linearGradient>
<linearGradient id="paint2_linear_0_3024" x1="129.281" y1="53.6874" x2="138.041" y2="19.492" gradientUnits="userSpaceOnUse">
<stop stop-color="#E5FF45"/>
<stop offset="1" stop-color="#00BBFF"/>
</linearGradient>
<linearGradient id="paint3_linear_0_3024" x1="130.975" y1="26.3346" x2="138.867" y2="31.0328" gradientUnits="userSpaceOnUse">
<stop/>
<stop offset="1" stop-color="#07B5FE" stop-opacity="0"/>
</linearGradient>
<linearGradient id="paint4_linear_0_3024" x1="46.8816" y1="49.92" x2="37.9662" y2="15.1166" gradientUnits="userSpaceOnUse">
<stop stop-color="#ACC4F4"/>
<stop offset="1" stop-color="#D1DBF5"/>
</linearGradient>
<linearGradient id="paint5_linear_0_3024" x1="40.0324" y1="34.9311" x2="35.1858" y2="16.0113" gradientUnits="userSpaceOnUse">
<stop stop-color="#9DC0EA"/>
<stop offset="1" stop-color="#8CAEEF"/>
</linearGradient>
<linearGradient id="paint6_linear_0_3024" x1="39.8244" y1="53.6874" x2="31.0646" y2="19.492" gradientUnits="userSpaceOnUse">
<stop stop-color="#E5FF45"/>
<stop offset="1" stop-color="#00BBFF"/>
</linearGradient>
<linearGradient id="paint7_linear_0_3024" x1="38.1301" y1="26.3346" x2="30.2384" y2="31.0328" gradientUnits="userSpaceOnUse">
<stop/>
<stop offset="1" stop-color="#07B5FE" stop-opacity="0"/>
</linearGradient>
<linearGradient id="paint8_linear_0_3024" x1="56.3335" y1="151.542" x2="55.9168" y2="127.807" gradientUnits="userSpaceOnUse">
<stop stop-color="#C1DAF7"/>
<stop offset="1" stop-color="#E8DCF7"/>
</linearGradient>
<linearGradient id="paint9_linear_0_3024" x1="66.5573" y1="148.985" x2="69.0738" y2="129.302" gradientUnits="userSpaceOnUse">
<stop stop-color="#9DCAEA"/>
<stop offset="1" stop-color="#8CA2EF"/>
</linearGradient>
<linearGradient id="paint10_linear_0_3024" x1="48.6922" y1="151.541" x2="49.0866" y2="129.393" gradientUnits="userSpaceOnUse">
<stop stop-color="#6887C2"/>
<stop offset="1" stop-color="#CCEDFF"/>
</linearGradient>
<linearGradient id="paint11_linear_0_3024" x1="52.5435" y1="121.77" x2="57.7913" y2="79.9865" gradientUnits="userSpaceOnUse">
<stop stop-color="#D3E9F9"/>
<stop offset="1" stop-color="#9DC0EA"/>
</linearGradient>
<linearGradient id="paint12_linear_0_3024" x1="81.7862" y1="150.597" x2="91.1048" y2="80.5152" gradientUnits="userSpaceOnUse">
<stop stop-color="#C1E0F7"/>
<stop offset="1" stop-color="#DEDCF7"/>
</linearGradient>
<linearGradient id="paint13_linear_0_3024" x1="105.614" y1="98.3148" x2="99.1099" y2="97.6614" gradientUnits="userSpaceOnUse">
<stop stop-color="#798BEA"/>
<stop offset="1" stop-color="#8CAEEF"/>
</linearGradient>
<linearGradient id="paint14_linear_0_3024" x1="100.837" y1="110.637" x2="107.288" y2="108.661" gradientUnits="userSpaceOnUse">
<stop stop-color="#3657CC"/>
<stop offset="1" stop-color="#4A5696"/>
</linearGradient>
<radialGradient id="paint15_radial_0_3024" cx="0" cy="0" r="1" gradientUnits="userSpaceOnUse" gradientTransform="translate(83.1974 143.847) scale(30.1442 33.7871)">
<stop stop-color="#E5FF45"/>
<stop offset="1" stop-color="#00BBFF"/>
</radialGradient>
<linearGradient id="paint16_linear_0_3024" x1="115.934" y1="152.53" x2="114.928" y2="122.123" gradientUnits="userSpaceOnUse">
<stop stop-color="#C1DAF7"/>
<stop offset="1" stop-color="#E8DCF7"/>
</linearGradient>
<linearGradient id="paint17_linear_0_3024" x1="108.456" y1="144.034" x2="110.269" y2="123.598" gradientUnits="userSpaceOnUse">
<stop stop-color="#9DCAEA"/>
<stop offset="1" stop-color="#8CA2EF"/>
</linearGradient>
<linearGradient id="paint18_linear_0_3024" x1="109.689" y1="120.035" x2="111.986" y2="82.8226" gradientUnits="userSpaceOnUse">
<stop stop-color="#C1DAF7"/>
<stop offset="1" stop-color="#E8DCF7"/>
</linearGradient>
<linearGradient id="paint19_linear_0_3024" x1="90.1044" y1="113.021" x2="91.2314" y2="104.048" gradientUnits="userSpaceOnUse">
<stop stop-color="#D3EBF9"/>
<stop offset="1" stop-color="#9DCAEA"/>
</linearGradient>
<linearGradient id="paint20_linear_0_3024" x1="44.163" y1="112.503" x2="45.5091" y2="101.785" gradientUnits="userSpaceOnUse">
<stop stop-color="#C1E4F7"/>
<stop offset="1" stop-color="#DCECF7"/>
</linearGradient>
<linearGradient id="paint21_linear_0_3024" x1="47.8458" y1="106.797" x2="47.8458" y2="101.816" gradientUnits="userSpaceOnUse">
<stop stop-color="#9DC5EA"/>
<stop offset="1" stop-color="#8CAEEF"/>
</linearGradient>
<linearGradient id="paint22_linear_0_3024" x1="65.5746" y1="137.337" x2="73.8836" y2="102.044" gradientUnits="userSpaceOnUse">
<stop stop-color="#FFD600"/>
<stop offset="1" stop-color="#DDD51A"/>
</linearGradient>
<linearGradient id="paint23_linear_0_3024" x1="67.9249" y1="135.576" x2="67.9249" y2="115.07" gradientUnits="userSpaceOnUse">
<stop stop-color="#DDD51A"/>
<stop offset="1" stop-color="#F5BC18"/>
</linearGradient>
<linearGradient id="paint24_linear_0_3024" x1="45.3467" y1="128.239" x2="45.3467" y2="108.418" gradientUnits="userSpaceOnUse">
<stop stop-color="#9DB7EA"/>
<stop offset="1" stop-color="#8CCBEF"/>
</linearGradient>
<linearGradient id="paint25_linear_0_3024" x1="101.876" y1="121.003" x2="101.876" y2="109.782" gradientUnits="userSpaceOnUse">
<stop stop-color="#9DC0EA"/>
<stop offset="1" stop-color="#8CBFEF"/>
</linearGradient>
<linearGradient id="paint26_linear_0_3024" x1="41.5808" y1="127.943" x2="42.7779" y2="108.203" gradientUnits="userSpaceOnUse">
<stop stop-color="#C1DAF7"/>
<stop offset="1" stop-color="#E8DCF7"/>
</linearGradient>
<linearGradient id="paint27_linear_0_3024" x1="67.2368" y1="109.359" x2="68.1926" y2="101.748" gradientUnits="userSpaceOnUse">
<stop stop-color="#FFB018"/>
<stop offset="1" stop-color="#DDD51A"/>
</linearGradient>
<linearGradient id="paint28_linear_0_3024" x1="31.2921" y1="147.319" x2="35.111" y2="93.5109" gradientUnits="userSpaceOnUse">
<stop stop-color="#EACF42"/>
<stop offset="1" stop-color="#FECA11"/>
</linearGradient>
<linearGradient id="paint29_linear_0_3024" x1="80.8702" y1="95.0224" x2="80.8702" y2="84.2416" gradientUnits="userSpaceOnUse">
<stop stop-color="#8DA4E5"/>
<stop offset="1" stop-color="#5C71BB"/>
</linearGradient>
<linearGradient id="paint30_linear_0_3024" x1="80.7739" y1="86.4509" x2="91.1219" y2="0.67919" gradientUnits="userSpaceOnUse">
<stop stop-color="#C1E4F7"/>
<stop offset="1" stop-color="#E8DCF7"/>
</linearGradient>
<linearGradient id="paint31_linear_0_3024" x1="84.3792" y1="78.4802" x2="84.3792" y2="7.07255" gradientUnits="userSpaceOnUse">
<stop stop-color="#05B6FE"/>
<stop offset="1" stop-color="#001687"/>
</linearGradient>
<linearGradient id="paint32_linear_0_3024" x1="62.658" y1="73.3628" x2="108.484" y2="73.3628" gradientUnits="userSpaceOnUse">
<stop/>
<stop offset="1" stop-color="#07B5FE"/>
</linearGradient>
<linearGradient id="paint33_linear_0_3024" x1="47.5772" y1="64.6739" x2="49.1761" y2="41.352" gradientUnits="userSpaceOnUse">
<stop/>
<stop offset="1" stop-color="#00E3FF"/>
</linearGradient>
<linearGradient id="paint34_linear_0_3024" x1="34.6558" y1="66.387" x2="39.842" y2="25.0949" gradientUnits="userSpaceOnUse">
<stop stop-color="#9DB7EA"/>
<stop offset="1" stop-color="#8CBAEF"/>
</linearGradient>
<linearGradient id="paint35_linear_0_3024" x1="54.7926" y1="66.632" x2="57.4604" y2="55.3021" gradientUnits="userSpaceOnUse">
<stop stop-color="#DDD51A"/>
<stop offset="1" stop-color="#FED811"/>
</linearGradient>
<linearGradient id="paint36_linear_0_3024" x1="55.4089" y1="60.9953" x2="55.4089" y2="56.0533" gradientUnits="userSpaceOnUse">
<stop stop-color="#E3AB3D"/>
<stop offset="1" stop-color="#FFF96D"/>
</linearGradient>
<linearGradient id="paint37_linear_0_3024" x1="30.8836" y1="42.788" x2="30.8836" y2="31.2327" gradientUnits="userSpaceOnUse">
<stop stop-color="#CBC1F7"/>
<stop offset="1" stop-color="#E8DCF7"/>
</linearGradient>
<linearGradient id="paint38_linear_0_3024" x1="105.565" y1="50.913" x2="105.565" y2="29.3302" gradientUnits="userSpaceOnUse">
<stop stop-color="#E5FF45"/>
<stop offset="1" stop-color="#00BBFF"/>
</linearGradient>
<linearGradient id="paint39_linear_0_3024" x1="62.7673" y1="50.9132" x2="62.7673" y2="29.3881" gradientUnits="userSpaceOnUse">
<stop stop-color="#E5FF45"/>
<stop offset="1" stop-color="#00BBFF"/>
</linearGradient>
<linearGradient id="paint40_linear_0_3024" x1="111.261" y1="121.014" x2="111.261" y2="93.43" gradientUnits="userSpaceOnUse">
<stop stop-color="#68A2C2"/>
<stop offset="1" stop-color="#CCEDFF"/>
</linearGradient>
<linearGradient id="paint41_linear_0_3024" x1="92.9212" y1="129.253" x2="95.4835" y2="108.851" gradientUnits="userSpaceOnUse">
<stop stop-color="#C1DAF7"/>
<stop offset="1" stop-color="#DCE8F7"/>
</linearGradient>
<linearGradient id="paint42_linear_0_3024" x1="97.5321" y1="129.003" x2="97.5321" y2="122.418" gradientUnits="userSpaceOnUse">
<stop stop-color="#9DB7EA"/>
<stop offset="1" stop-color="#8CBFEF"/>
</linearGradient>
<linearGradient id="paint43_linear_0_3024" x1="118.972" y1="152.817" x2="118.972" y2="144.213" gradientUnits="userSpaceOnUse">
<stop stop-color="#6881C2"/>
<stop offset="1" stop-color="#CCEDFF"/>
</linearGradient>
<linearGradient id="paint44_linear_0_3024" x1="92.1306" y1="129.003" x2="92.1306" y2="110.955" gradientUnits="userSpaceOnUse">
<stop stop-color="#687CC2"/>
<stop offset="1" stop-color="#CCEDFF"/>
</linearGradient>
<linearGradient id="paint45_linear_0_3024" x1="68.7431" y1="105.562" x2="68.7431" y2="101.725" gradientUnits="userSpaceOnUse">
<stop stop-color="#8DA4E5"/>
<stop offset="1" stop-color="#5C82BB"/>
</linearGradient>
<linearGradient id="paint46_linear_0_3024" x1="65.3519" y1="105.105" x2="65.7649" y2="99.2856" gradientUnits="userSpaceOnUse">
<stop stop-color="#E7EA42"/>
<stop offset="1" stop-color="#FEAD11"/>
</linearGradient>
</defs>
</svg>
