<svg width="82" height="82" viewBox="0 0 82 82" fill="none" xmlns="http://www.w3.org/2000/svg">
<circle cx="36" cy="46" r="36" fill="#9C42F5"/>
<path fill-rule="evenodd" clip-rule="evenodd" d="M53.4785 55.0918C53.4785 57.2194 52.1921 58.4317 49.9779 58.4317H47.0833C44.8691 58.4317 43.5951 57.2194 43.5951 55.0918V38.0834C43.5951 35.9681 44.8691 34.7435 47.0833 34.7435H49.9779C52.1921 34.7435 53.4785 35.9681 53.4785 38.0834V55.0918ZM47.5286 55.9206H49.5326C50.4108 55.9206 50.7819 55.5619 50.7819 54.7084V38.4792C50.7819 37.6257 50.4108 37.2546 49.5449 37.2546H47.5286C46.6628 37.2546 46.2917 37.6257 46.2917 38.4792V54.7084C46.2917 55.5619 46.6628 55.9206 47.5286 55.9206ZM38.2637 58.4317C40.4779 58.4317 41.7643 57.2194 41.7643 55.0918V41.683C41.7643 39.5677 40.4779 38.3555 38.2637 38.3555H35.3691C33.1426 38.3555 31.8685 39.5677 31.8685 41.6954V55.0918C31.8685 57.2194 33.1426 58.4317 35.3691 58.4317H38.2637ZM35.8145 55.9206H37.8184C38.6842 55.9206 39.0553 55.5619 39.0553 54.7084V42.0788C39.0553 41.2253 38.6842 40.8542 37.8184 40.8542H35.8145C34.9486 40.8542 34.5775 41.2253 34.5775 42.0788V54.7084C34.5775 55.5619 34.9486 55.9206 35.8145 55.9206ZM26.5371 58.4317C28.7637 58.4317 30.0378 57.2194 30.0378 55.0918V45.3073C30.0378 43.1921 28.7637 41.9799 26.5371 41.9799H23.6549C21.4284 41.9799 20.1543 43.1921 20.1543 45.3197V55.0918C20.1543 57.2194 21.4284 58.4317 23.6549 58.4317H26.5371ZM24.1003 55.9206H26.0918C26.9701 55.9206 27.3411 55.5619 27.3411 54.7084V45.7032C27.3411 44.8497 26.9701 44.4786 26.1042 44.4786H24.1003C23.2344 44.4786 22.8509 44.8497 22.8509 45.7032V54.7084C22.8509 55.5619 23.2344 55.9206 24.1003 55.9206Z" fill="white"/>
<rect x="47" y="1" width="34" height="34" rx="17" fill="#00B8B9" stroke="#15161B" stroke-width="2"/>
<path fill-rule="evenodd" clip-rule="evenodd" d="M66.7109 25.3905L65.5391 26.5624C64.4922 27.6014 63.5 27.6093 62.4609 26.5624L61.2891 25.3905C61.1797 25.2811 61.0859 25.2499 60.9453 25.2499H59.2891C57.8125 25.2499 57.1094 24.5468 57.1094 23.0702V21.4139C57.1094 21.2733 57.0703 21.1718 56.9688 21.0702L55.7969 19.8905C54.7578 18.8514 54.75 17.8593 55.7969 16.8202L56.9688 15.6483C57.0703 15.5468 57.1094 15.4452 57.1094 15.3046V13.6483C57.1094 12.1561 57.8125 11.4686 59.2891 11.4686H60.9453C61.0859 11.4686 61.1875 11.4296 61.2891 11.328L62.4609 10.1639C63.5 9.10926 64.4922 9.10926 65.5391 10.1561L66.7109 11.328C66.8125 11.4296 66.9141 11.4686 67.0547 11.4686H68.7109C70.1875 11.4686 70.8906 12.1718 70.8906 13.6483V15.3046C70.8906 15.4452 70.9297 15.5389 71.0313 15.6483L72.2031 16.8202C73.2422 17.8593 73.25 18.8514 72.2031 19.8905L71.0313 21.0702C70.9297 21.1718 70.8906 21.2733 70.8906 21.4139V23.0702C70.8906 24.5468 70.1875 25.2499 68.7109 25.2499H67.0547C66.9141 25.2499 66.8203 25.2811 66.7109 25.3905ZM62.3203 21.8122C62.5547 22.1013 62.8125 22.2497 63.1328 22.2497C63.4531 22.2497 63.7266 22.0856 63.9219 21.8044L67.5625 16.1794C67.6875 15.9919 67.7734 15.7888 67.7734 15.6013C67.7734 15.156 67.3828 14.8435 66.9531 14.8435C66.6719 14.8435 66.4375 14.9997 66.25 15.2966L63.1094 20.2966L61.6797 18.5075C61.4766 18.2575 61.2734 18.156 61.0078 18.156C60.5703 18.156 60.2109 18.5075 60.2109 18.9528C60.2109 19.1638 60.2812 19.3591 60.4453 19.5544L62.3203 21.8122Z" fill="white"/>
</svg>
