<svg width="84" height="84" viewBox="0 0 84 84" fill="none" xmlns="http://www.w3.org/2000/svg">
<circle cx="36" cy="48" r="36" fill="#4579F5"/>
<path fill-rule="evenodd" clip-rule="evenodd" d="M40.375 63.7343C40.0625 65.0468 38.9688 65.9061 37.5781 65.9061H34.4062C33.0312 65.9061 31.9375 65.0468 31.625 63.7343L31.0156 61.1249L30.6875 60.9999L28.4062 62.4061C27.25 63.1249 25.8594 62.9374 24.9062 61.953L22.7031 59.7655C21.7188 58.7655 21.5469 57.4061 22.2656 56.2655L23.6719 53.9999L23.5625 53.6874L20.9531 53.0624C19.6562 52.7499 18.7969 51.6561 18.7969 50.2811V47.2186C18.7969 45.8593 19.6406 44.7655 20.9531 44.4374L23.5312 43.7968L23.6719 43.4686L22.25 41.203C21.5312 40.078 21.7031 38.7186 22.6875 37.703L24.8906 35.4999C25.8438 34.5311 27.2188 34.3436 28.3906 35.0624L30.6562 36.453L31.0156 36.3124L31.625 33.703C31.9375 32.3905 33.0312 31.5311 34.4062 31.5311H37.5781C38.9688 31.5311 40.0625 32.3905 40.375 33.703L40.9688 36.3124L41.3281 36.453L43.6094 35.0624C44.7656 34.3436 46.1406 34.5311 47.1094 35.4999L49.2969 37.703C50.2812 38.7186 50.4688 40.078 49.7344 41.203L48.3281 43.4686L48.4531 43.7968L51.0312 44.4374C52.3438 44.7499 53.2031 45.8593 53.2031 47.2186V50.2811C53.2031 51.6561 52.3438 52.7343 51.0312 53.0624L48.4375 53.6874L48.3125 53.9999L49.7344 56.2655C50.4531 57.4061 50.2812 58.7655 49.2969 59.7655L47.0938 61.953C46.125 62.9374 44.75 63.1249 43.5938 62.4061L41.3125 60.9999L40.9688 61.1249L40.375 63.7343ZM34.9219 62.703H37.0781C37.3438 62.703 37.4531 62.5936 37.5 62.3593L38.4219 58.5468C39.5156 58.2968 40.4219 57.9061 41.2812 57.3593L44.625 59.4061C44.8125 59.5311 45 59.5155 45.1875 59.3436L46.6719 57.8436C46.8594 57.6718 46.8594 57.4843 46.7344 57.2968L44.6719 53.953C45.1719 53.1405 45.5938 52.1405 45.8125 51.1249L49.6562 50.2186C49.8906 50.1718 50 50.0468 50 49.7968V47.703C50 47.4218 49.8906 47.3124 49.6562 47.2655L45.8281 46.3436C45.5938 45.2968 45.1406 44.2811 44.7031 43.4999L46.75 40.1718C46.875 39.9686 46.875 39.7811 46.7031 39.6093L45.2031 38.1249C45 37.953 44.8438 37.9374 44.625 38.0624L41.2969 40.0936C40.4531 39.5936 39.4844 39.1561 38.4219 38.9218L37.5 35.078C37.4531 34.8436 37.3438 34.7343 37.0781 34.7343H34.9219C34.6562 34.7343 34.5312 34.8436 34.5 35.078L33.5781 38.8905C32.5312 39.1561 31.4219 39.6093 30.6875 40.0936L27.3594 38.0468C27.1406 37.9218 26.9688 37.9374 26.7812 38.1249L25.2812 39.5936C25.0938 39.7655 25.1094 39.953 25.2344 40.1718L27.2969 43.4999C26.8438 44.2811 26.3906 45.2968 26.1562 46.3593L22.3438 47.2655C22.0938 47.3124 21.9844 47.4218 21.9844 47.703V49.7968C21.9844 50.0468 22.1094 50.1718 22.3438 50.2186L26.1719 51.1249C26.3906 52.1405 26.8281 53.1249 27.3125 53.953L25.25 57.2968C25.125 57.4999 25.125 57.6874 25.2969 57.8593L26.7969 59.3593C26.9844 59.5311 27.1719 59.5468 27.3594 59.4218L30.7031 57.3593C31.5469 57.9061 32.5469 58.3124 33.5781 58.5468L34.5 62.3593C34.5312 62.5936 34.6562 62.703 34.9219 62.703ZM36 54.6405C39.2344 54.6405 41.8906 51.9686 41.8906 48.7186C41.8906 45.4843 39.2344 42.8436 36 42.8436C32.75 42.8436 30.0781 45.4843 30.0781 48.7186C30.0781 51.9686 32.75 54.6405 36 54.6405ZM33.0156 48.7186C33.0156 50.3749 34.3594 51.7186 36 51.7186C37.6094 51.7186 38.9531 50.3593 38.9531 48.7186C38.9531 47.1093 37.6094 45.7499 36 45.7499C34.375 45.7499 33.0156 47.0936 33.0156 48.7186Z" fill="white"/>
<rect x="46" y="2" width="36" height="36" rx="18" fill="#00B8B9" stroke="#15161B" stroke-width="4"/>
<path d="M62.4949 27.2964C62.9343 27.2964 63.2786 27.1206 63.5203 26.7617L70.3757 16.1855C70.5515 15.9219 70.6248 15.6802 70.6248 15.4531C70.6248 14.8525 70.1853 14.4204 69.5701 14.4204C69.1453 14.4204 68.8889 14.5669 68.6326 14.9771L62.4656 24.7329L59.3162 20.7632C59.0671 20.4629 58.8108 20.3237 58.4446 20.3237C57.822 20.3237 57.3752 20.7632 57.3752 21.3711C57.3752 21.6348 57.4631 21.8838 57.6902 22.1475L61.4768 26.7983C61.7625 27.1426 62.0774 27.2964 62.4949 27.2964Z" fill="white"/>
</svg>
