<svg width="84" height="84" viewBox="0 0 84 84" fill="none" xmlns="http://www.w3.org/2000/svg">
<circle cx="36" cy="48" r="36" fill="#FFAB00"/>
<path fill-rule="evenodd" clip-rule="evenodd" d="M26.8128 43.9805L35.5847 35.2089L44.3612 43.9851L49.4653 38.881L35.5847 25L21.7087 38.8764L26.8128 43.9805ZM18.1043 42.4798L23.2083 47.5838L18.104 52.688L13 47.584L18.1043 42.4798ZM35.5847 59.9602L26.8128 51.1886L21.7012 56.286L21.7083 56.2931L35.5847 70.1691L49.4653 56.2885L49.4678 56.2856L44.3609 51.1843L35.5847 59.9602ZM58.1698 47.5861L53.0655 52.6904L47.9615 47.5864L53.0658 42.4821L58.1698 47.5861ZM40.764 47.5818H40.7619L40.7665 47.5843L40.764 47.5872L35.5846 52.7666L30.4099 47.5918L30.4028 47.5843L30.4099 47.5772L31.3171 46.67L31.7567 46.2301H31.757L35.5846 42.4025L40.764 47.5818Z" fill="white"/>
<rect x="46" y="2" width="36" height="36" rx="18" fill="#00B8B9" stroke="#15161B" stroke-width="4"/>
<path fill-rule="evenodd" clip-rule="evenodd" d="M68.21 28.7393C69.6074 28.7393 70.293 28.0449 70.293 26.5332V20.126C70.293 18.79 69.7393 18.0869 68.6318 17.9551V15.9688C68.6318 12.6113 66.3643 10.9766 64 10.9766C61.6357 10.9766 59.3682 12.6113 59.3682 15.9688V17.9551C58.252 18.0869 57.707 18.79 57.707 20.126V26.5332C57.707 28.0449 58.3926 28.7393 59.79 28.7393H68.21ZM61.2666 17.9283V15.8189C61.2666 13.8941 62.4883 12.8131 64 12.8131C65.5117 12.8131 66.7334 13.8941 66.7334 15.8189V17.9283H61.2666ZM59.6846 26.3131C59.6846 26.7613 59.8691 26.9371 60.2383 26.9371H67.7617C68.1396 26.9371 68.3154 26.7613 68.3154 26.3131V20.3453C68.3154 19.897 68.1396 19.7388 67.7617 19.7388H60.2383C59.8691 19.7388 59.6846 19.897 59.6846 20.3453V26.3131Z" fill="white"/>
</svg>
