<svg width="218" height="189" viewBox="0 0 218 189" fill="none" xmlns="http://www.w3.org/2000/svg">
<g filter="url(#filter0_ddd_0_359)">
<rect x="8" y="6" width="190" height="171" rx="24" fill="#1D1E24"/>
</g>
<path d="M56.108 126.204V130.56H50.168V136.5H45.812V130.56H39.908V126.204H45.812V120.3H50.168V126.204H56.108ZM71.7368 127.896C74.0648 129.288 75.2288 131.316 75.2288 133.98C75.2288 136.308 74.4128 138.144 72.7808 139.488C71.1728 140.832 68.9768 141.504 66.1928 141.504C63.3848 141.504 61.1768 140.832 59.5688 139.488C57.9608 138.144 57.1567 136.308 57.1567 133.98C57.1567 131.316 58.3088 129.288 60.6128 127.896C58.8608 126.624 57.9848 124.884 57.9848 122.676C57.9848 120.348 58.7648 118.536 60.3248 117.24C61.9088 115.944 63.8648 115.296 66.1928 115.296C68.5208 115.296 70.4648 115.944 72.0248 117.24C73.5848 118.536 74.3648 120.348 74.3648 122.676C74.3648 124.908 73.4888 126.648 71.7368 127.896ZM68.5328 120.768C67.9328 120.24 67.1528 119.976 66.1928 119.976C65.2328 119.976 64.4528 120.24 63.8528 120.768C63.2528 121.296 62.9528 122.016 62.9528 122.928C62.9528 123.84 63.2528 124.572 63.8528 125.124C64.4528 125.652 65.2328 125.916 66.1928 125.916C67.1528 125.916 67.9328 125.652 68.5328 125.124C69.1328 124.572 69.4328 123.84 69.4328 122.928C69.4328 122.016 69.1328 121.296 68.5328 120.768ZM63.2048 135.924C63.9728 136.524 64.9688 136.824 66.1928 136.824C67.4168 136.824 68.4008 136.524 69.1448 135.924C69.9128 135.3 70.2968 134.436 70.2968 133.332C70.2968 132.252 69.9128 131.412 69.1448 130.812C68.4008 130.188 67.4168 129.876 66.1928 129.876C64.9688 129.876 63.9728 130.188 63.2048 130.812C62.4608 131.412 62.0888 132.252 62.0888 133.332C62.0888 134.436 62.4608 135.3 63.2048 135.924ZM74.5461 115.8H90.8181V120.012L82.2861 141H77.0301L85.3101 120.552H74.5461V115.8ZM91.2965 140.568C90.6965 141.168 89.9765 141.468 89.1365 141.468C88.2965 141.468 87.5765 141.168 86.9765 140.568C86.3765 139.968 86.0765 139.248 86.0765 138.408C86.0765 137.568 86.3765 136.848 86.9765 136.248C87.5765 135.648 88.2965 135.348 89.1365 135.348C89.9765 135.348 90.6965 135.648 91.2965 136.248C91.8965 136.848 92.1965 137.568 92.1965 138.408C92.1965 139.248 91.8965 139.968 91.2965 140.568ZM92.4133 115.8H108.685V120.012L100.153 141H94.8973L103.177 120.552H92.4133V115.8ZM116.584 124.98C119.008 124.98 121.048 125.712 122.704 127.176C124.36 128.616 125.188 130.632 125.188 133.224C125.188 135.816 124.312 137.844 122.56 139.308C120.832 140.772 118.708 141.504 116.188 141.504C114.148 141.504 112.348 141.048 110.788 140.136C109.228 139.224 108.1 137.88 107.404 136.104L111.652 133.62C112.276 135.636 113.788 136.644 116.188 136.644C117.46 136.644 118.444 136.344 119.14 135.744C119.86 135.12 120.22 134.28 120.22 133.224C120.22 132.192 119.872 131.364 119.176 130.74C118.48 130.116 117.532 129.804 116.332 129.804H108.7L109.708 115.8H124V120.444H114.316L113.992 124.98H116.584ZM135.547 125.484C134.395 126.612 132.955 127.176 131.227 127.176C129.499 127.176 128.047 126.6 126.871 125.448C125.719 124.296 125.143 122.892 125.143 121.236C125.143 119.58 125.719 118.176 126.871 117.024C128.047 115.872 129.499 115.296 131.227 115.296C132.955 115.296 134.395 115.872 135.547 117.024C136.699 118.152 137.275 119.556 137.275 121.236C137.275 122.916 136.699 124.332 135.547 125.484ZM127.699 137.184L144.115 118.932L146.311 120.156L129.859 138.444L127.699 137.184ZM129.571 122.892C130.003 123.324 130.543 123.54 131.191 123.54C131.839 123.54 132.379 123.324 132.811 122.892C133.243 122.436 133.459 121.884 133.459 121.236C133.459 120.588 133.243 120.048 132.811 119.616C132.379 119.184 131.839 118.968 131.191 118.968C130.543 118.968 130.003 119.184 129.571 119.616C129.163 120.048 128.959 120.588 128.959 121.236C128.959 121.884 129.163 122.436 129.571 122.892ZM147.715 139.704C146.563 140.856 145.123 141.432 143.395 141.432C141.667 141.432 140.227 140.856 139.075 139.704C137.923 138.552 137.347 137.148 137.347 135.492C137.347 133.836 137.923 132.432 139.075 131.28C140.227 130.128 141.667 129.552 143.395 129.552C145.123 129.552 146.563 130.128 147.715 131.28C148.867 132.432 149.443 133.836 149.443 135.492C149.443 137.148 148.867 138.552 147.715 139.704ZM141.775 137.148C142.207 137.58 142.747 137.796 143.395 137.796C144.043 137.796 144.571 137.568 144.979 137.112C145.411 136.656 145.627 136.116 145.627 135.492C145.627 134.844 145.411 134.304 144.979 133.872C144.571 133.416 144.043 133.188 143.395 133.188C142.747 133.188 142.207 133.416 141.775 133.872C141.367 134.304 141.163 134.844 141.163 135.492C141.163 136.14 141.367 136.692 141.775 137.148Z" fill="#00B8B9"/>
<path d="M52.832 100H56.096L48.512 83.2H45.44L37.88 100H41.096L42.752 96.112H51.152L52.832 100ZM43.808 93.664L46.952 86.32L50.12 93.664H43.808ZM65.1446 83.2H58.2326V100H61.3526V95.152H65.1446C69.5606 95.152 72.2966 92.872 72.2966 89.176C72.2966 85.456 69.5606 83.2 65.1446 83.2ZM65.0006 92.512H61.3526V85.84H65.0006C67.7366 85.84 69.1526 87.064 69.1526 89.176C69.1526 91.288 67.7366 92.512 65.0006 92.512ZM89.2363 83.2H86.1643L81.1963 91.384L76.2763 83.2H72.9402L79.5403 94.12V100H82.6603V94.072L89.2363 83.2Z" fill="#E0E0FF" fill-opacity="0.6"/>
<path d="M50.36 48H53.08L46.76 34H44.2L37.9 48H40.58L41.96 44.76H48.96L50.36 48ZM42.84 42.72L45.46 36.6L48.1 42.72H42.84ZM60.5875 48.2C64.4075 48.2 66.7075 45.98 66.7075 41.9V34H64.1475V41.8C64.1475 44.68 62.8675 45.92 60.6075 45.92C58.3475 45.92 57.0475 44.68 57.0475 41.8V34H54.4475V41.9C54.4475 45.98 56.7475 48.2 60.5875 48.2ZM70.3488 48H76.4688C81.0088 48 84.1088 45.2 84.1088 41C84.1088 36.8 81.0088 34 76.4688 34H70.3488V48ZM72.9488 45.8V36.2H76.3488C79.4688 36.2 81.4888 38.1 81.4888 41C81.4888 43.9 79.4688 45.8 76.3488 45.8H72.9488ZM86.8722 48H89.4722V34H86.8722V48ZM96.0989 48H98.6989V36.2H103.339V34H91.4589V36.2H96.0989V48ZM107.89 45.82V41.96H114.65V39.82H107.89V36.18H115.51V34H105.29V48H115.79V45.82H107.89ZM118.689 48H124.809C129.349 48 132.449 45.2 132.449 41C132.449 36.8 129.349 34 124.809 34H118.689V48ZM121.289 45.8V36.2H124.689C127.809 36.2 129.829 38.1 129.829 41C129.829 43.9 127.809 45.8 124.689 45.8H121.289Z" fill="white"/>
<path fill-rule="evenodd" clip-rule="evenodd" d="M185.875 98.0591L181.823 102.112C178.202 105.705 174.771 105.732 171.178 102.112L167.125 98.0591C166.747 97.6809 166.422 97.5728 165.936 97.5728H160.208C155.102 97.5728 152.67 95.1412 152.67 90.0347V84.3069C152.67 83.8205 152.535 83.4693 152.184 83.118L148.131 79.0383C144.538 75.4449 144.511 72.0136 148.131 68.4201L152.184 64.3674C152.535 64.0162 152.67 63.6649 152.67 63.1786V57.4507C152.67 52.2903 155.102 49.9126 160.208 49.9126H165.936C166.422 49.9126 166.774 49.7776 167.125 49.4263L171.178 45.4006C174.771 41.7531 178.202 41.7531 181.823 45.3736L185.875 49.4263C186.227 49.7776 186.578 49.9126 187.064 49.9126H192.792C197.899 49.9126 200.33 52.3443 200.33 57.4507V63.1786C200.33 63.6649 200.465 63.9891 200.817 64.3674L204.869 68.4201C208.463 72.0136 208.49 75.4449 204.869 79.0383L200.817 83.118C200.465 83.4693 200.33 83.8205 200.33 84.3069V90.0347C200.33 95.1412 197.899 97.5728 192.792 97.5728H187.064C186.578 97.5728 186.254 97.6809 185.875 98.0591ZM170.691 85.6846C171.502 86.6842 172.393 87.1976 173.501 87.1976C174.609 87.1976 175.554 86.6302 176.23 85.6575L188.82 66.2044C189.253 65.556 189.55 64.8535 189.55 64.2051C189.55 62.665 188.199 61.5843 186.713 61.5843C185.74 61.5843 184.93 62.1247 184.281 63.1514L173.42 80.443L168.476 74.2558C167.773 73.3913 167.071 73.04 166.152 73.04C164.639 73.04 163.396 74.2558 163.396 75.7959C163.396 76.5254 163.639 77.2008 164.207 77.8763L170.691 85.6846Z" fill="white"/>
<defs>
<filter id="filter0_ddd_0_359" x="0" y="0" width="206" height="189" filterUnits="userSpaceOnUse" color-interpolation-filters="sRGB">
<feFlood flood-opacity="0" result="BackgroundImageFix"/>
<feColorMatrix in="SourceAlpha" type="matrix" values="0 0 0 0 0 0 0 0 0 0 0 0 0 0 0 0 0 0 127 0" result="hardAlpha"/>
<feOffset dy="4"/>
<feGaussianBlur stdDeviation="4"/>
<feColorMatrix type="matrix" values="0 0 0 0 0.0352941 0 0 0 0 0.0509804 0 0 0 0 0.0784314 0 0 0 0.16 0"/>
<feBlend mode="normal" in2="BackgroundImageFix" result="effect1_dropShadow_0_359"/>
<feColorMatrix in="SourceAlpha" type="matrix" values="0 0 0 0 0 0 0 0 0 0 0 0 0 0 0 0 0 0 127 0" result="hardAlpha"/>
<feOffset dx="-2" dy="-2"/>
<feGaussianBlur stdDeviation="2"/>
<feColorMatrix type="matrix" values="0 0 0 0 0.878431 0 0 0 0 0.878431 0 0 0 0 1 0 0 0 0.02 0"/>
<feBlend mode="normal" in2="effect1_dropShadow_0_359" result="effect2_dropShadow_0_359"/>
<feColorMatrix in="SourceAlpha" type="matrix" values="0 0 0 0 0 0 0 0 0 0 0 0 0 0 0 0 0 0 127 0" result="hardAlpha"/>
<feOffset dy="1"/>
<feGaussianBlur stdDeviation="1"/>
<feColorMatrix type="matrix" values="0 0 0 0 0.0352941 0 0 0 0 0.0509804 0 0 0 0 0.0784314 0 0 0 0.24 0"/>
<feBlend mode="normal" in2="effect2_dropShadow_0_359" result="effect3_dropShadow_0_359"/>
<feBlend mode="normal" in="SourceGraphic" in2="effect3_dropShadow_0_359" result="shape"/>
</filter>
</defs>
</svg>
