<svg width="423" height="443" viewBox="0 0 423 443" fill="none" xmlns="http://www.w3.org/2000/svg">
<path d="M213.763 434.404C210.787 435.594 104.848 446.307 92.3501 434.404C80.1492 422.798 163.77 371.019 175.97 371.912C178.946 372.209 181.327 375.185 185.791 381.732C199.777 401.372 213.763 434.404 213.763 434.404Z" fill="url(#paint0_linear_0_281)"/>
<path d="M175.971 371.912C170.614 372.507 189.66 427.262 213.764 434.404C213.764 434.404 190.255 369.829 175.971 371.912Z" fill="url(#paint1_linear_0_281)"/>
<path opacity="0.3" d="M213.764 434.404C210.788 435.594 105.444 445.712 92.3506 434.404C92.3506 434.404 123.299 439.463 151.569 429.94C179.84 420.12 180.435 395.421 180.435 395.421L182.22 374.59C196.207 394.23 213.764 434.404 213.764 434.404Z" fill="url(#paint2_linear_0_281)"/>
<path d="M102.171 343.344C102.171 343.344 97.112 318.943 119.431 292.755C148.296 258.831 208.705 233.834 218.823 238.596C228.941 243.357 195.909 296.326 195.909 296.326C195.909 296.326 154.248 306.742 132.227 332.631C109.908 358.223 102.171 343.344 102.171 343.344Z" fill="url(#paint3_linear_0_281)"/>
<path d="M316.132 375.781C313.156 399.587 302.443 418.335 283.695 428.452C271.197 435.297 255.425 438.273 236.082 436.19C207.812 433.214 190.255 412.085 182.815 383.22C179.542 370.126 178.054 355.843 178.352 340.666C179.542 291.863 205.431 253.177 223.286 241.274C252.747 221.336 294.408 232.941 299.17 267.758C302.741 295.731 320.893 336.202 316.132 375.781Z" fill="url(#paint4_linear_0_281)"/>
<path d="M289.944 248.714C284.885 246.631 282.207 292.756 302.442 319.836C302.442 319.836 311.668 313.884 307.799 291.268C303.633 268.652 296.491 251.392 289.944 248.714Z" fill="url(#paint5_linear_0_281)"/>
<path d="M286.373 266.101C286.373 266.101 304.823 292.288 298.872 314.904C298.574 314.904 286.968 297.05 286.373 266.101Z" fill="url(#paint6_linear_0_281)"/>
<path d="M283.696 428.452C271.197 435.297 255.425 438.273 236.083 436.19C207.812 433.214 190.255 412.085 182.816 383.22C174.781 351.081 189.362 308.527 232.512 308.527C275.958 308.527 297.087 352.867 299.17 384.113C299.765 396.611 298.575 421.31 283.696 428.452Z" fill="url(#paint7_radial_0_281)"/>
<path fill-rule="evenodd" clip-rule="evenodd" d="M245.638 337.483L245.632 337.481L245.631 337.481L245.593 337.47L245.591 337.469C238.584 335.422 231.576 333.374 224.569 331.325L224.571 331.321C224.533 331.346 224.493 331.372 224.453 331.4L224.487 331.334C221.23 331.31 218.232 333.121 216.736 336.022L216.74 336.024L205.279 358.204C204.376 359.954 204.494 362.057 205.584 363.692L229.531 400.037C234.662 389.079 233.489 376.196 226.461 366.347C220.204 357.583 216.153 351.866 215.734 351.209C215.616 351.025 215.286 350.504 215.274 349.801C215.265 349.165 215.505 348.7 215.619 348.502L217.087 345.659L263.597 342.733C257.611 340.983 251.625 339.233 245.638 337.483ZM283.311 379.303C278.388 384.219 273.465 389.134 268.541 394.05C263.865 398.718 259.19 403.386 254.515 408.054C257.923 400.808 261.332 393.563 264.741 386.317C267.952 379.491 271.164 372.666 274.374 365.839L272.589 363.172C272.473 362.975 272.18 362.541 271.622 362.243C271.004 361.914 270.389 361.954 270.17 361.969C269.391 362.019 262.438 362.817 251.754 364.086C239.752 365.511 227.912 360.335 220.798 350.55L264.141 347.05C266.1 346.879 267.997 347.788 269.092 349.425L282.975 370.168L282.971 370.166C284.784 372.876 284.926 376.38 283.334 379.227L283.3 379.176C283.304 379.22 283.308 379.262 283.311 379.303ZM211.805 405.422C210.235 398.82 208.667 392.218 207.098 385.617L207.096 385.608C205.528 379.009 203.96 372.41 202.391 365.811L227.943 404.824L231.145 404.694C231.368 404.697 231.892 404.676 232.439 404.353C233.039 404.003 233.328 403.457 233.431 403.263L233.433 403.26C233.794 402.57 236.748 396.214 241.258 386.431C246.321 375.441 256.917 368.04 268.968 367.079L249.283 405.912C248.401 407.672 246.638 408.813 244.672 408.894L219.758 409.906L219.763 409.904C216.509 410.033 213.455 408.325 211.861 405.478L211.921 405.475C211.883 405.457 211.846 405.438 211.81 405.42L211.805 405.422Z" fill="url(#paint8_radial_0_281)"/>
<path d="M222.844 329.294C235.854 333.099 248.866 336.9 261.872 340.702L214.245 343.699C215.249 340.627 218.184 337.492 219.188 334.42C219.342 333.807 219.606 333.038 220.073 332.224C220.959 330.681 222.125 329.766 222.846 329.291L222.844 329.294Z" fill="white"/>
<path d="M215.015 333.994L203.555 356.174C202.651 357.924 202.769 360.027 203.86 361.662L227.807 398.007C232.938 387.048 231.764 374.166 224.737 364.317C218.48 355.553 214.428 349.836 214.01 349.179C213.892 348.994 213.562 348.474 213.549 347.771C213.54 347.135 213.781 346.67 213.894 346.472C216.849 340.748 219.808 335.027 222.763 329.304C219.506 329.28 216.507 331.091 215.012 333.992L215.015 333.994Z" fill="white"/>
<path d="M281.587 377.273C271.99 386.856 262.388 396.441 252.791 406.024C259.57 391.611 266.352 377.201 273.13 362.788C275.333 365.15 276.659 369.233 278.862 371.595C279.322 372.024 279.868 372.628 280.358 373.431C281.278 374.948 281.519 376.419 281.587 377.273Z" fill="white"/>
<path d="M281.251 368.138L267.367 347.395C266.273 345.758 264.376 344.849 262.417 345.02L219.074 348.52C226.188 358.305 238.028 363.481 250.03 362.056C260.714 360.787 267.667 359.989 268.446 359.939C268.665 359.924 269.28 359.884 269.898 360.213C270.456 360.511 270.748 360.945 270.865 361.142C274.445 366.493 278.029 371.846 281.61 377.197C283.202 374.35 283.06 370.846 281.247 368.136L281.251 368.138Z" fill="white"/>
<path d="M210.08 403.392C206.941 390.188 203.806 376.985 200.667 363.781L226.839 403.741C223.677 404.39 219.507 403.385 216.342 404.032C215.737 404.202 214.937 404.351 214 404.35C212.226 404.342 210.852 403.78 210.085 403.39L210.08 403.392Z" fill="white"/>
<path d="M218.033 407.876L242.947 406.864C244.913 406.782 246.676 405.642 247.558 403.882L267.243 365.049C255.192 366.01 244.597 373.411 239.533 384.401C235.023 394.184 232.069 400.54 231.708 401.229C231.606 401.421 231.318 401.971 230.714 402.323C230.167 402.646 229.643 402.667 229.42 402.664C222.992 402.925 216.564 403.186 210.136 403.448C211.73 406.295 214.784 408.003 218.038 407.874L218.033 407.876Z" fill="white"/>
<path d="M370.589 418.93C371.185 430.833 364.638 439.761 352.735 442.141C346.783 443.332 333.392 443.332 320.298 441.844C319.703 441.844 319.405 441.844 319.405 441.844C303.634 440.058 288.755 436.487 287.862 431.131C287.267 427.56 287.267 423.691 287.267 420.12C287.564 388.874 305.717 353.462 317.322 355.843C324.464 357.331 334.88 364.175 344.402 373.698C352.437 381.435 359.876 390.66 364.638 399.885C368.804 406.729 370.589 413.276 370.589 418.93Z" fill="url(#paint9_linear_0_281)"/>
<path d="M344.997 373.698C344.997 373.698 322.976 367.448 305.418 381.732C293.218 391.85 289.647 413.276 287.563 420.12C287.861 388.874 306.014 353.462 317.619 355.843C324.761 357.628 335.177 364.473 344.997 373.698Z" fill="url(#paint10_linear_0_281)"/>
<path d="M364.935 326.085C362.852 337.095 339.343 353.462 299.17 350.486C299.17 350.486 280.125 335.012 281.91 318.05C281.91 318.05 283.696 317.455 286.076 316.265C290.837 313.884 305.717 308.23 307.205 303.171C309.883 293.648 299.765 280.257 293.813 266.271C288.159 253.475 292.325 242.167 295.301 241.572C298.277 240.976 317.62 247.523 336.665 265.378C338.748 267.164 340.534 268.949 342.022 270.735C363.745 293.648 367.018 315.967 364.935 326.085Z" fill="url(#paint11_linear_0_281)"/>
<path d="M285.481 318.05C285.481 318.05 268.221 305.849 256.02 300.493C256.02 300.493 244.117 302.873 241.736 309.123C239.653 315.669 265.84 328.168 265.84 328.168L285.481 318.05Z" fill="url(#paint12_linear_0_281)"/>
<path d="M113.181 320.431C113.181 320.431 123.596 300.493 131.928 297.814C140.261 295.136 145.319 296.327 146.807 297.814C148.295 299.302 148.295 307.039 145.022 313.289C141.749 319.24 128.655 326.085 128.655 326.085L113.181 320.431Z" fill="url(#paint13_linear_0_281)"/>
<path d="M130.44 298.409C130.44 298.409 131.928 304.659 137.285 307.634C142.641 310.61 146.51 309.42 146.51 309.42C146.51 309.42 151.271 299.6 145.915 296.326C141.451 293.648 131.631 296.624 130.44 298.409Z" fill="url(#paint14_linear_0_281)"/>
<path d="M271.494 392.148C257.508 397.504 234.594 373.698 219.715 365.068C205.133 356.438 179.541 353.76 167.936 358.818C156.33 363.877 138.773 385.006 122.703 382.327C119.728 381.732 118.835 374.59 119.43 364.175C120.62 343.047 128.953 310.313 141.749 302.278C160.794 290.375 237.57 293.351 256.02 310.313C265.84 319.538 272.387 341.261 274.767 360.009C276.851 376.376 275.958 390.362 271.494 392.148Z" fill="url(#paint15_linear_0_281)"/>
<path d="M271.494 392.148C257.508 397.504 234.594 373.697 219.715 365.068C205.133 356.438 179.541 353.76 167.936 358.818C156.33 363.877 138.773 385.006 122.703 382.327C119.728 381.732 118.835 374.59 119.43 364.175L123.596 356.735L152.759 339.178C152.759 339.178 153.057 349.593 155.735 351.081C158.413 352.569 168.531 350.189 187.576 350.189C206.621 349.891 221.203 359.711 230.13 354.057C239.058 348.403 245.604 334.714 245.604 334.714L253.937 333.822L274.767 360.009C276.851 376.376 275.958 390.362 271.494 392.148Z" fill="url(#paint16_linear_0_281)"/>
<path d="M111.694 314.479C111.694 314.479 130.144 313.289 151.272 329.06C151.272 329.06 157.224 351.082 145.023 364.77C145.023 364.77 135.798 370.127 122.407 371.912C109.313 373.698 111.694 314.479 111.694 314.479Z" fill="url(#paint17_linear_0_281)"/>
<path d="M281.91 318.348C281.91 318.348 298.277 318.348 307.502 332.334C314.942 343.94 303.336 350.784 303.336 350.784C303.336 350.784 283.398 349.594 281.91 318.348Z" fill="url(#paint18_linear_0_281)"/>
<path d="M111.694 314.479C103.361 313.884 96.8146 354.355 105.147 366.556C113.479 378.756 134.607 368.936 138.476 364.472C142.345 360.009 148.296 340.964 145.916 332.929C143.535 324.894 132.227 315.669 111.694 314.479Z" fill="url(#paint19_linear_0_281)"/>
<path d="M145.022 300.493C145.022 300.493 143.534 310.61 175.971 314.479C208.407 318.645 238.463 316.264 249.771 305.849C249.771 306.147 197.099 285.018 145.022 300.493Z" fill="url(#paint20_linear_0_281)"/>
<path d="M73.6029 424.881C49.7964 424.881 13.4913 423.096 3.37357 412.681C1.2905 410.3 0.397868 407.919 0.69545 404.944C1.88578 392.743 20.931 386.196 40.8689 379.054C60.5093 372.21 81.0424 365.068 84.0182 352.867C85.8037 345.13 83.1255 335.309 80.4472 326.084C76.8762 313.884 73.3052 301.385 79.2568 291.565C83.7205 284.125 93.2433 279.067 108.42 276.091C165.853 265.08 192.933 295.136 193.231 295.434L190.85 297.517C190.552 297.219 164.365 268.354 109.015 279.364C94.7311 282.042 86.1013 286.804 81.9351 293.351C76.5787 302.278 79.8521 313.586 83.423 325.489C86.3988 335.309 89.3746 345.13 87.2916 353.76C84.0182 367.746 62.89 375.185 42.3568 382.327C24.2044 388.577 5.45679 395.421 4.26646 405.539C3.96888 407.324 4.86148 409.11 6.34939 410.598C20.3357 425.179 94.7311 421.608 95.3263 421.608L95.6238 424.584C93.8383 424.286 85.2086 424.881 73.6029 424.881Z" fill="url(#paint21_linear_0_281)"/>
<path opacity="0.5" d="M182.815 248.118C182.815 248.118 200.373 276.686 234.892 275.496C269.114 274.305 287.564 244.25 287.564 244.25L187.577 246.035L182.815 248.118Z" fill="url(#paint22_linear_0_281)"/>
<path d="M272.684 12.136C270.601 14.5167 293.515 24.3368 296.491 22.8489C299.467 21.6586 279.231 4.39888 272.684 12.136Z" fill="white"/>
<path d="M345.66 54.9551C345.66 54.9551 372.22 47.5327 386.089 50.9911C399.957 54.4496 402.857 59.8833 405.433 85.7062C407.245 112.529 373.087 150.051 373.087 150.051L345.66 54.9551Z" fill="url(#paint23_linear_0_281)"/>
<path d="M390.926 53.2934C378.059 52.6681 367.964 67.8781 359.987 99.0162L381.084 109.477L408.405 83.1382C408.405 83.1382 403.794 53.9187 390.926 53.2934Z" fill="url(#paint24_linear_0_281)"/>
<path d="M362.274 92.6299C362.274 92.6299 382.313 57.5021 391.33 56.9564C400.347 56.4107 410.257 68.5879 409.534 105.305C408.811 142.023 382.275 157.243 382.275 157.243L362.274 92.6299Z" fill="url(#paint25_linear_0_281)"/>
<path d="M370.874 53.7901C366.935 54.6416 366.257 58.4993 373.465 59.4154C380.673 60.3315 385.872 55.7714 385.297 54.3837C385.013 53.0706 375.179 52.7222 370.874 53.7901Z" fill="white"/>
<path opacity="0.72" d="M403.605 80.2721C403.605 80.2721 402.075 69.922 393.256 67.1186C384.436 64.3153 369.321 88.5299 373.66 91.8122C377.999 95.0946 387.724 82.6626 392.463 82.3372C397.46 82.1655 401.278 90.4108 403.678 86.6088C404.999 84.5162 403.605 80.2721 403.605 80.2721Z" fill="url(#paint26_linear_0_281)"/>
<path d="M145.922 54.9551C145.922 54.9551 119.362 47.5327 105.493 50.9911C91.6246 54.4496 88.7248 59.8833 86.1487 85.7062C84.337 112.529 118.495 150.051 118.495 150.051L145.922 54.9551Z" fill="url(#paint27_linear_0_281)"/>
<path d="M100.656 53.2934C113.523 52.6681 123.618 67.8781 131.595 99.0162L110.498 109.477L83.1775 83.1382C83.1775 83.1382 87.7884 53.9187 100.656 53.2934Z" fill="url(#paint28_linear_0_281)"/>
<path d="M129.308 92.6299C129.308 92.6299 109.269 57.5021 100.252 56.9564C91.2354 56.4107 81.3253 68.5879 82.0481 105.305C82.7709 142.023 109.307 157.243 109.307 157.243L129.308 92.6299Z" fill="url(#paint29_linear_0_281)"/>
<path d="M120.708 53.7901C124.647 54.6416 125.325 58.4993 118.117 59.4154C110.909 60.3315 105.71 55.7714 106.285 54.3837C106.569 53.0706 116.403 52.7222 120.708 53.7901Z" fill="white"/>
<path opacity="0.72" d="M87.9771 80.2721C87.9771 80.2721 89.5067 69.922 98.3261 67.1186C107.146 64.3153 122.261 88.5299 117.922 91.8122C113.583 95.0946 103.858 82.6626 99.1192 82.3372C94.1223 82.1655 90.3044 90.4108 87.9038 86.6088C86.5826 84.5162 87.9771 80.2721 87.9771 80.2721Z" fill="url(#paint30_linear_0_281)"/>
<path d="M113.777 207.052C142.344 272.818 355.71 252.284 381.302 198.422C409.275 139.203 344.997 -6.61146 242.927 0.232916C156.331 5.58938 77.174 122.539 113.777 207.052Z" fill="url(#paint31_linear_0_281)"/>
<path d="M125.679 190.982C153.057 244.845 339.343 235.917 366.422 186.519C389.634 144.262 334.879 16.302 241.438 20.7658C147.998 25.2295 99.4921 139.203 125.679 190.982Z" fill="url(#paint32_linear_0_281)"/>
<path opacity="0.5" d="M182.518 208.54C180.137 217.765 199.48 227.288 247.391 224.907C305.419 221.931 317.62 210.028 314.644 206.457C312.859 204.374 295.599 215.384 247.986 204.969C216.74 198.125 185.196 198.72 182.518 208.54Z" fill="url(#paint33_linear_0_281)"/>
<path opacity="0.2" d="M130.738 179.674C130.738 179.674 128.655 166.283 131.036 148.131C133.416 129.978 138.178 118.373 141.153 119.86C144.129 121.646 143.534 139.203 145.32 156.761C146.51 170.449 149.188 183.245 149.188 183.245C149.188 183.245 136.69 195.149 130.738 179.674Z" fill="url(#paint34_linear_0_281)"/>
<path d="M99.1946 91.5906C99.1946 91.5906 111.098 99.3277 103.361 117.183C103.361 117.183 47.118 147.833 50.3914 181.163C53.0696 209.135 130.738 195.446 130.738 195.446L133.416 204.672C133.416 204.672 67.3535 217.467 44.7373 201.993C44.7373 201.993 37.0002 183.543 56.343 150.512C75.3882 117.778 99.1946 91.5906 99.1946 91.5906Z" fill="url(#paint35_linear_0_281)"/>
<path d="M120.918 193.066C113.776 201.1 128.953 209.73 141.154 211.218C155.14 212.706 179.542 207.349 178.054 193.363C176.566 179.377 137.285 174.318 120.918 193.066Z" fill="url(#paint36_linear_0_281)"/>
<path d="M121.811 194.554C121.513 196.934 170.912 197.529 172.102 188.602C172.995 179.972 125.084 176.996 121.811 194.554Z" fill="url(#paint37_linear_0_281)"/>
<path d="M88.1843 109.743C88.1843 109.743 61.4019 140.989 62.8899 143.072C64.6753 145.155 89.9698 112.719 88.1843 109.743Z" fill="url(#paint38_linear_0_281)"/>
<path d="M281.017 140.096C285.778 150.512 328.332 151.702 335.177 135.335C341.426 120.753 322.381 81.7703 296.789 85.3413C277.744 88.3171 272.685 122.837 281.017 140.096Z" fill="url(#paint39_linear_0_281)"/>
<path d="M208.407 140.096C203.646 150.511 161.091 151.702 154.247 135.335C147.998 120.753 166.15 83.5554 192.635 85.3409C211.978 87.1264 216.739 122.836 208.407 140.096Z" fill="url(#paint40_linear_0_281)"/>
<path d="M230.726 172.83C230.726 172.83 245.01 158.844 255.722 159.737C266.435 160.63 258.698 174.318 258.698 174.318C258.698 174.318 245.902 177.294 230.726 172.83Z" fill="#07B5FE"/>
<path opacity="0.3" d="M364.935 326.085C362.852 337.095 339.343 353.462 299.169 350.486C299.169 350.486 280.124 335.012 281.909 318.05C281.909 318.05 279.826 319.24 282.505 318.05L290.539 319.538C290.539 319.538 315.536 326.085 342.616 321.323C369.696 316.562 350.651 282.042 342.616 270.734C363.744 293.648 367.018 315.967 364.935 326.085Z" fill="url(#paint41_linear_0_281)"/>
<path d="M302.443 354.95C302.443 354.95 302.145 354.95 302.145 355.248C301.848 355.248 301.55 355.545 300.955 355.545C300.955 355.545 300.955 355.545 300.657 355.545C298.872 356.14 295.301 357.628 291.135 359.414C289.052 360.306 286.969 361.199 284.885 362.389C275.958 366.556 264.947 373.698 264.055 373.995C264.055 373.995 242.926 364.175 241.736 351.379C240.843 342.452 246.2 329.358 253.044 321.621C256.02 318.05 258.996 315.669 261.972 315.074C271.494 312.991 282.207 317.752 282.207 317.752C282.207 317.752 296.193 317.455 302.443 330.846C308.692 344.535 302.443 354.95 302.443 354.95Z" fill="url(#paint42_linear_0_281)"/>
<path d="M302.443 354.95C302.443 354.95 302.145 354.95 302.145 355.247C301.847 355.247 301.55 355.545 300.955 355.545C300.955 355.545 300.955 355.545 300.657 355.545C298.872 356.437 296.193 357.925 293.218 359.413C282.802 365.067 269.114 373.995 269.114 373.995H264.055C268.518 365.96 275.065 361.496 281.612 358.521C292.325 354.057 302.443 354.95 302.443 354.95Z" fill="url(#paint43_linear_0_281)"/>
<path opacity="0.3" d="M370.589 418.93C371.184 430.833 364.638 439.761 352.734 442.141C346.783 443.332 333.391 443.331 320.298 441.844C324.166 442.141 342.617 443.331 346.783 438.57C351.544 433.214 351.842 423.989 356.901 420.12C362.257 416.252 367.316 419.227 368.804 418.93C369.399 418.93 369.994 418.93 370.589 418.93Z" fill="url(#paint44_linear_0_281)"/>
<path d="M340.831 411.788C339.939 414.169 347.973 420.418 352.437 418.93C356.901 417.442 353.33 410.895 351.247 409.407C349.164 408.217 341.724 410.003 340.831 411.788Z" fill="white"/>
<path d="M108.42 416.55C108.123 418.633 120.324 413.574 122.704 409.705C124.787 405.837 125.68 401.373 124.787 401.075C123.895 400.778 108.718 413.276 108.42 416.55Z" fill="white"/>
<path d="M261.972 318.347C261.377 320.431 269.709 329.656 272.09 328.168C274.173 326.68 272.387 320.133 268.221 318.347C264.055 316.264 262.567 317.157 261.972 318.347Z" fill="white"/>
<path d="M320 292.755C317.619 293.351 317.917 297.219 315.834 300.493C313.751 303.766 309.585 306.444 310.18 307.337C310.775 308.23 320.595 307.932 322.38 302.873C324.166 297.517 321.488 292.458 320 292.755Z" fill="white"/>
<path d="M317.322 288.887C316.43 288.589 314.049 283.531 314.644 282.043C315.239 280.257 318.215 282.34 318.513 283.828C319.108 285.614 318.513 289.185 317.322 288.887Z" fill="white"/>
<path d="M111.396 317.455C111.693 321.026 125.084 321.918 126.572 319.835C128.06 317.752 125.382 316.264 120.918 315.372C116.454 314.776 111.396 316.562 111.396 317.455Z" fill="white"/>
<path opacity="0.3" d="M293.516 359.414C283.1 365.068 269.412 373.995 269.412 373.995H264.353C264.353 373.995 243.224 364.175 242.034 351.379C241.141 342.452 246.498 329.358 253.342 321.621C254.83 325.787 264.055 348.106 272.983 354.95C275.661 356.735 278.637 357.926 281.91 358.819C285.183 359.414 288.457 359.711 291.433 359.711C292.325 359.414 292.92 359.414 293.516 359.414Z" fill="url(#paint45_linear_0_281)"/>
<path opacity="0.3" d="M180.732 301.385C180.732 301.385 181.923 305.551 195.016 305.849C208.11 306.146 218.823 297.219 218.823 297.219L193.826 294.838L180.732 301.385Z" fill="url(#paint46_linear_0_281)"/>
<path d="M152.759 268.354C152.462 270.139 170.912 265.676 168.829 259.724C167.639 255.856 153.057 265.081 152.759 268.354Z" fill="white"/>
<path d="M180.732 301.385L179.542 288.887C179.542 288.887 187.577 287.399 191.148 287.697C194.719 287.994 201.563 302.278 201.563 302.278C201.563 302.278 190.255 308.23 180.732 301.385Z" fill="url(#paint47_linear_0_281)"/>
<defs>
<linearGradient id="paint0_linear_0_281" x1="163.972" y1="439.376" x2="162.764" y2="370.561" gradientUnits="userSpaceOnUse">
<stop stop-color="#C1DAF7"/>
<stop offset="1" stop-color="#E8DCF7"/>
</linearGradient>
<linearGradient id="paint1_linear_0_281" x1="193.615" y1="431.964" x2="200.911" y2="374.894" gradientUnits="userSpaceOnUse">
<stop stop-color="#9DCAEA"/>
<stop offset="1" stop-color="#8CA2EF"/>
</linearGradient>
<linearGradient id="paint2_linear_0_281" x1="141.818" y1="439.374" x2="142.961" y2="375.16" gradientUnits="userSpaceOnUse">
<stop stop-color="#6887C2"/>
<stop offset="1" stop-color="#CCEDFF"/>
</linearGradient>
<linearGradient id="paint3_linear_0_281" x1="152.986" y1="353.056" x2="168.201" y2="231.911" gradientUnits="userSpaceOnUse">
<stop stop-color="#D3E9F9"/>
<stop offset="1" stop-color="#9DC0EA"/>
</linearGradient>
<linearGradient id="paint4_linear_0_281" x1="237.772" y1="436.638" x2="264.79" y2="233.444" gradientUnits="userSpaceOnUse">
<stop stop-color="#C1E0F7"/>
<stop offset="1" stop-color="#DEDCF7"/>
</linearGradient>
<linearGradient id="paint5_linear_0_281" x1="306.856" y1="285.051" x2="287.998" y2="283.157" gradientUnits="userSpaceOnUse">
<stop stop-color="#798BEA"/>
<stop offset="1" stop-color="#8CAEEF"/>
</linearGradient>
<linearGradient id="paint6_linear_0_281" x1="293.008" y1="320.778" x2="311.712" y2="315.049" gradientUnits="userSpaceOnUse">
<stop stop-color="#3657CC"/>
<stop offset="1" stop-color="#4A5696"/>
</linearGradient>
<radialGradient id="paint7_radial_0_281" cx="0" cy="0" r="1" gradientUnits="userSpaceOnUse" gradientTransform="translate(241.86 417.067) scale(87.3994 97.9613)">
<stop stop-color="#E5FF45"/>
<stop offset="1" stop-color="#00BBFF"/>
</radialGradient>
<radialGradient id="paint8_radial_0_281" cx="0" cy="0" r="1" gradientUnits="userSpaceOnUse" gradientTransform="translate(244.702 397.8) rotate(-39.6627) scale(49.9911 63.5868)">
<stop stop-color="#E5FF45"/>
<stop offset="1" stop-color="#00BBFF"/>
</radialGradient>
<linearGradient id="paint9_linear_0_281" x1="336.779" y1="442.24" x2="333.86" y2="354.081" gradientUnits="userSpaceOnUse">
<stop stop-color="#C1DAF7"/>
<stop offset="1" stop-color="#E8DCF7"/>
</linearGradient>
<linearGradient id="paint10_linear_0_281" x1="315.096" y1="417.608" x2="320.352" y2="358.356" gradientUnits="userSpaceOnUse">
<stop stop-color="#9DCAEA"/>
<stop offset="1" stop-color="#8CA2EF"/>
</linearGradient>
<linearGradient id="paint11_linear_0_281" x1="318.673" y1="348.027" x2="325.332" y2="240.134" gradientUnits="userSpaceOnUse">
<stop stop-color="#C1DAF7"/>
<stop offset="1" stop-color="#E8DCF7"/>
</linearGradient>
<linearGradient id="paint12_linear_0_281" x1="261.888" y1="327.691" x2="265.156" y2="301.675" gradientUnits="userSpaceOnUse">
<stop stop-color="#D3EBF9"/>
<stop offset="1" stop-color="#9DCAEA"/>
</linearGradient>
<linearGradient id="paint13_linear_0_281" x1="128.685" y1="326.188" x2="132.588" y2="295.112" gradientUnits="userSpaceOnUse">
<stop stop-color="#C1E4F7"/>
<stop offset="1" stop-color="#DCECF7"/>
</linearGradient>
<linearGradient id="paint14_linear_0_281" x1="139.365" y1="309.645" x2="139.365" y2="295.202" gradientUnits="userSpaceOnUse">
<stop stop-color="#9DC5EA"/>
<stop offset="1" stop-color="#8CAEEF"/>
</linearGradient>
<linearGradient id="paint15_linear_0_281" x1="190.767" y1="398.192" x2="214.858" y2="295.863" gradientUnits="userSpaceOnUse">
<stop stop-color="#FFD600"/>
<stop offset="1" stop-color="#DDD51A"/>
</linearGradient>
<linearGradient id="paint16_linear_0_281" x1="197.582" y1="393.085" x2="197.582" y2="333.63" gradientUnits="userSpaceOnUse">
<stop stop-color="#DDD51A"/>
<stop offset="1" stop-color="#F5BC18"/>
</linearGradient>
<linearGradient id="paint17_linear_0_281" x1="132.117" y1="371.812" x2="132.117" y2="314.345" gradientUnits="userSpaceOnUse">
<stop stop-color="#9DB7EA"/>
<stop offset="1" stop-color="#8CCBEF"/>
</linearGradient>
<linearGradient id="paint18_linear_0_281" x1="296.017" y1="350.834" x2="296.017" y2="318.298" gradientUnits="userSpaceOnUse">
<stop stop-color="#9DC0EA"/>
<stop offset="1" stop-color="#8CBFEF"/>
</linearGradient>
<linearGradient id="paint19_linear_0_281" x1="121.198" y1="370.956" x2="124.669" y2="313.722" gradientUnits="userSpaceOnUse">
<stop stop-color="#C1DAF7"/>
<stop offset="1" stop-color="#E8DCF7"/>
</linearGradient>
<linearGradient id="paint20_linear_0_281" x1="195.588" y1="317.073" x2="198.359" y2="295.007" gradientUnits="userSpaceOnUse">
<stop stop-color="#FFB018"/>
<stop offset="1" stop-color="#DDD51A"/>
</linearGradient>
<linearGradient id="paint21_linear_0_281" x1="91.367" y1="427.132" x2="102.44" y2="271.124" gradientUnits="userSpaceOnUse">
<stop stop-color="#EACF42"/>
<stop offset="1" stop-color="#FECA11"/>
</linearGradient>
<linearGradient id="paint22_linear_0_281" x1="235.115" y1="275.505" x2="235.115" y2="244.248" gradientUnits="userSpaceOnUse">
<stop stop-color="#8DA4E5"/>
<stop offset="1" stop-color="#5C71BB"/>
</linearGradient>
<linearGradient id="paint23_linear_0_281" x1="355.015" y1="144.737" x2="380.864" y2="43.8287" gradientUnits="userSpaceOnUse">
<stop stop-color="#ACC4F4"/>
<stop offset="1" stop-color="#D1DBF5"/>
</linearGradient>
<linearGradient id="paint24_linear_0_281" x1="374.874" y1="101.279" x2="388.926" y2="46.4231" gradientUnits="userSpaceOnUse">
<stop stop-color="#9DC0EA"/>
<stop offset="1" stop-color="#8CAEEF"/>
</linearGradient>
<linearGradient id="paint25_linear_0_281" x1="375.475" y1="155.66" x2="400.873" y2="56.5146" gradientUnits="userSpaceOnUse">
<stop stop-color="#E5FF45"/>
<stop offset="1" stop-color="#00BBFF"/>
</linearGradient>
<linearGradient id="paint26_linear_0_281" x1="380.389" y1="76.3539" x2="403.27" y2="89.976" gradientUnits="userSpaceOnUse">
<stop/>
<stop offset="1" stop-color="#07B5FE" stop-opacity="0"/>
</linearGradient>
<linearGradient id="paint27_linear_0_281" x1="136.567" y1="144.737" x2="110.718" y2="43.8287" gradientUnits="userSpaceOnUse">
<stop stop-color="#ACC4F4"/>
<stop offset="1" stop-color="#D1DBF5"/>
</linearGradient>
<linearGradient id="paint28_linear_0_281" x1="116.708" y1="101.279" x2="102.656" y2="46.4231" gradientUnits="userSpaceOnUse">
<stop stop-color="#9DC0EA"/>
<stop offset="1" stop-color="#8CAEEF"/>
</linearGradient>
<linearGradient id="paint29_linear_0_281" x1="116.107" y1="155.66" x2="90.709" y2="56.5146" gradientUnits="userSpaceOnUse">
<stop stop-color="#E5FF45"/>
<stop offset="1" stop-color="#00BBFF"/>
</linearGradient>
<linearGradient id="paint30_linear_0_281" x1="111.193" y1="76.3539" x2="88.3124" y2="89.976" gradientUnits="userSpaceOnUse">
<stop/>
<stop offset="1" stop-color="#07B5FE" stop-opacity="0"/>
</linearGradient>
<linearGradient id="paint31_linear_0_281" x1="234.833" y1="250.654" x2="264.836" y2="1.96923" gradientUnits="userSpaceOnUse">
<stop stop-color="#C1E4F7"/>
<stop offset="1" stop-color="#E8DCF7"/>
</linearGradient>
<linearGradient id="paint32_linear_0_281" x1="245.289" y1="227.544" x2="245.289" y2="20.5062" gradientUnits="userSpaceOnUse">
<stop stop-color="#05B6FE"/>
<stop offset="1" stop-color="#001687"/>
</linearGradient>
<linearGradient id="paint33_linear_0_281" x1="182.309" y1="212.706" x2="315.177" y2="212.706" gradientUnits="userSpaceOnUse">
<stop/>
<stop offset="1" stop-color="#07B5FE"/>
</linearGradient>
<linearGradient id="paint34_linear_0_281" x1="138.584" y1="187.514" x2="143.22" y2="119.895" gradientUnits="userSpaceOnUse">
<stop/>
<stop offset="1" stop-color="#00E3FF"/>
</linearGradient>
<linearGradient id="paint35_linear_0_281" x1="86.6248" y1="211.587" x2="101.661" y2="91.8658" gradientUnits="userSpaceOnUse">
<stop stop-color="#9DB7EA"/>
<stop offset="1" stop-color="#8CBAEF"/>
</linearGradient>
<linearGradient id="paint36_linear_0_281" x1="145.009" y1="212.297" x2="152.744" y2="179.447" gradientUnits="userSpaceOnUse">
<stop stop-color="#DDD51A"/>
<stop offset="1" stop-color="#FED811"/>
</linearGradient>
<linearGradient id="paint37_linear_0_281" x1="146.796" y1="195.955" x2="146.796" y2="181.626" gradientUnits="userSpaceOnUse">
<stop stop-color="#E3AB3D"/>
<stop offset="1" stop-color="#FFF96D"/>
</linearGradient>
<linearGradient id="paint38_linear_0_281" x1="75.687" y1="143.165" x2="75.687" y2="109.662" gradientUnits="userSpaceOnUse">
<stop stop-color="#CBC1F7"/>
<stop offset="1" stop-color="#E8DCF7"/>
</linearGradient>
<linearGradient id="paint39_linear_0_281" x1="306.715" y1="147.616" x2="306.715" y2="85.0394" gradientUnits="userSpaceOnUse">
<stop stop-color="#E5FF45"/>
<stop offset="1" stop-color="#00BBFF"/>
</linearGradient>
<linearGradient id="paint40_linear_0_281" x1="182.629" y1="147.616" x2="182.629" y2="85.2071" gradientUnits="userSpaceOnUse">
<stop stop-color="#E5FF45"/>
<stop offset="1" stop-color="#00BBFF"/>
</linearGradient>
<linearGradient id="paint41_linear_0_281" x1="323.23" y1="350.864" x2="323.23" y2="270.888" gradientUnits="userSpaceOnUse">
<stop stop-color="#68A2C2"/>
<stop offset="1" stop-color="#CCEDFF"/>
</linearGradient>
<linearGradient id="paint42_linear_0_281" x1="270.056" y1="374.752" x2="277.485" y2="315.599" gradientUnits="userSpaceOnUse">
<stop stop-color="#C1DAF7"/>
<stop offset="1" stop-color="#DCE8F7"/>
</linearGradient>
<linearGradient id="paint43_linear_0_281" x1="283.421" y1="374.028" x2="283.421" y2="354.937" gradientUnits="userSpaceOnUse">
<stop stop-color="#9DB7EA"/>
<stop offset="1" stop-color="#8CBFEF"/>
</linearGradient>
<linearGradient id="paint44_linear_0_281" x1="345.586" y1="443.074" x2="345.586" y2="418.127" gradientUnits="userSpaceOnUse">
<stop stop-color="#6881C2"/>
<stop offset="1" stop-color="#CCEDFF"/>
</linearGradient>
<linearGradient id="paint45_linear_0_281" x1="267.764" y1="374.028" x2="267.764" y2="321.701" gradientUnits="userSpaceOnUse">
<stop stop-color="#687CC2"/>
<stop offset="1" stop-color="#CCEDFF"/>
</linearGradient>
<linearGradient id="paint46_linear_0_281" x1="199.952" y1="306.064" x2="199.952" y2="294.938" gradientUnits="userSpaceOnUse">
<stop stop-color="#8DA4E5"/>
<stop offset="1" stop-color="#5C82BB"/>
</linearGradient>
<linearGradient id="paint47_linear_0_281" x1="190.121" y1="304.738" x2="191.319" y2="287.866" gradientUnits="userSpaceOnUse">
<stop stop-color="#E7EA42"/>
<stop offset="1" stop-color="#FEAD11"/>
</linearGradient>
</defs>
</svg>
