<svg width="1285" height="618" viewBox="0 0 1285 618" fill="none" xmlns="http://www.w3.org/2000/svg">
<path d="M118.24 427.238C60.9947 423.173 48.0041 371.687 3 336.093V618H1683V6.56835C1558.74 -38.0025 1517.5 314.5 1435 266.5C1380 213.5 1366.5 133.5 1294 120C1217 119.5 1232 279.5 1169.5 312.5C1055.5 371.5 1047.16 69.3481 913.898 75.1777C799.883 80.1654 838.944 287.748 728.511 258.97C662.368 241.733 684.5 185.5 627.5 160C495.468 123.006 519.157 448.807 387.5 410.5C317.307 390.077 306.5 307.5 257.53 307.046C206.002 306.569 189.922 432.328 118.24 427.238Z" fill="url(#paint0_linear_0_277)"/>
<path d="M3 336.093C48.0041 371.687 60.9947 423.173 118.24 427.238C189.922 432.328 206.002 306.569 257.53 307.046C306.5 307.5 317.307 390.077 387.5 410.5C519.157 448.807 492.968 121.506 625 158.5C673 177.5 662.368 241.733 728.511 258.97C838.944 287.748 799.883 80.1654 913.898 75.1776C1047.16 69.3481 1057.5 360 1159.5 318.5C1230.94 289.432 1218.5 119.5 1288.5 121.5C1359.5 130.5 1373 189 1418.5 251C1501.71 364.389 1558.74 -38.0026 1683 6.5683" stroke="url(#paint1_linear_0_277)" stroke-width="6" stroke-linecap="round"/>
<defs>
<linearGradient id="paint0_linear_0_277" x1="15.5" y1="-39.9999" x2="15.5" y2="618" gradientUnits="userSpaceOnUse">
<stop stop-color="#00BBFF" stop-opacity="0.3"/>
<stop offset="1" stop-color="#001687" stop-opacity="0.01"/>
</linearGradient>
<linearGradient id="paint1_linear_0_277" x1="110.515" y1="167.298" x2="1602.5" y2="167.298" gradientUnits="userSpaceOnUse">
<stop stop-color="#00BBFF" stop-opacity="0"/>
<stop offset="0.0957895" stop-color="#00BBFF"/>
<stop offset="0.486527" stop-color="#4579F5"/>
<stop offset="0.885272" stop-color="#E5FF45"/>
<stop offset="1" stop-color="#E5FF45" stop-opacity="0"/>
</linearGradient>
</defs>
</svg>
